<svg id="Laag_1" data-name="Laag 1" xmlns="http://www.w3.org/2000/svg" viewBox="0 0 1374.55 557.52"><defs><style>.cls-1{fill:#fff;}.cls-2{fill:#72c3bf;}</style></defs><title>hybrix-logo-white</title><path class="cls-1" d="M895.64,436.28a117.11,117.11,0,0,0-55.53,14v-161H765.18V692.16h74.93V679.31a117.11,117.11,0,0,0,55.53,14c67.54,0,122.49-57.65,122.49-128.51S963.18,436.28,895.64,436.28Zm0,178.43c-26.24,0-47.59-22.39-47.59-49.93s21.35-49.93,47.59-49.93,47.59,22.4,47.59,49.93S921.89,614.71,895.64,614.71Z" transform="translate(-293.66 -289.23)"/><path class="cls-1" d="M1125.71,434.29h-75.43V694h75.43V571.84c1-32.14,25.28-58,55.25-58.61V434.3a121.41,121.41,0,0,0-55.25,13.82Z" transform="translate(-293.66 -289.23)"/><path class="cls-1" d="M730.27,434.18H651.18V572.77l-.06-2.16-1.2,4.87.11.49h.61a50.14,50.14,0,0,1-97.1-.53H473.68c6.2,65.43,61.45,116.79,128.48,116.79a128.37,128.37,0,0,0,49-9.68v164.2h79.09V578.85c.14-1.13.26-2.27.37-3.41h-.37Z" transform="translate(-293.66 -289.23)"/><rect class="cls-1" x="928.22" y="143.35" width="76.9" height="259.69"/><path class="cls-1" d="M422.06,433.23A128.35,128.35,0,0,0,372.81,443V289.23h-79V547.45c-.06.56-.14,1.12-.19,1.69h.19V693.91h79V552.47l.82-3.33h0a50.14,50.14,0,0,1,96.77,0h80C543.85,484.13,488.78,433.23,422.06,433.23Z" transform="translate(-293.66 -289.23)"/><path class="cls-1" d="M1534.4,512.23V433.31A129,129,0,0,0,1437,477.75a129,129,0,0,0-97-44h0v78.92h0a50.32,50.32,0,0,1,0,100.64h0v78.92h0a129,129,0,0,0,97.45-44.44,128.94,128.94,0,0,0,97.05,44V612.88a50.33,50.33,0,0,1,0-100.65Z" transform="translate(-293.66 -289.23)"/><circle class="cls-2" cx="1324.12" cy="357.51" r="50.42"/></svg>