<?xml version="1.0" encoding="utf-8"?>
<!-- Generator: Adobe Illustrator 22.1.0, SVG Export Plug-In . SVG Version: 6.00 Build 0)  -->
<svg version="1.1" id="Laag_1" xmlns="http://www.w3.org/2000/svg" xmlns:xlink="http://www.w3.org/1999/xlink" x="0px" y="0px"
	 viewBox="0 0 650 947.4" style="enable-background:new 0 0 650 947.4;" xml:space="preserve">
<style type="text/css">
	.st0{fill:url(#SVGID_1_);}
	.st1{fill:url(#SVGID_2_);}
	.st2{fill:#FFFFFF;}
	.st3{font-family:'Palanquin-Bold';}
	.st4{font-size:711.8299px;}
</style>
<title>info icon</title>
<linearGradient id="SVGID_1_" gradientUnits="userSpaceOnUse" x1="0" y1="345.1" x2="649.98" y2="345.1">
	<stop  offset="0" style="stop-color:#50CBAF"/>
	<stop  offset="5.000000e-02" style="stop-color:#50CBAF"/>
	<stop  offset="1" style="stop-color:#80C0C9"/>
</linearGradient>
<circle class="st0" cx="325" cy="345.1" r="325"/>
<linearGradient id="SVGID_2_" gradientUnits="userSpaceOnUse" x1="1077.894" y1="569.794" x2="344.954" y2="551.6939" gradientTransform="matrix(1 0 0 -1 -277 907.3298)">
	<stop  offset="0" style="stop-color:#ED1E79"/>
	<stop  offset="1" style="stop-color:#000000"/>
</linearGradient>
<path class="st1" d="M323.4,99.7c13.5-0.2,26.4,5.2,35.7,14.9c9.8,10,14.6,22.3,14.6,37c0,14.7-4.9,27-14.6,37
	c-9.3,9.8-22.3,15.2-35.7,14.9c-13.6,0-25.2-5-34.7-14.9s-14.3-22.3-14.3-37c0-14.7,4.8-27,14.3-37S309.8,99.7,323.4,99.7z
	 M367.6,252.7v345.3h-88.5V252.7L367.6,252.7z"/>
<text transform="matrix(0.96 0 0 1 236.9097 597.9298)" class="st2 st3 st4">i</text>
</svg>
