<?xml version="1.0" encoding="UTF-8" standalone="no"?>
<svg
   xmlns:dc="http://purl.org/dc/elements/1.1/"
   xmlns:cc="http://creativecommons.org/ns#"
   xmlns:rdf="http://www.w3.org/1999/02/22-rdf-syntax-ns#"
   xmlns:svg="http://www.w3.org/2000/svg"
   xmlns="http://www.w3.org/2000/svg"
   xmlns:sodipodi="http://sodipodi.sourceforge.net/DTD/sodipodi-0.dtd"
   xmlns:inkscape="http://www.inkscape.org/namespaces/inkscape"
   width="32"
   height="32"
   viewBox="0 0 32 32"
   id="svg2"
   version="1.1"
   inkscape:version="0.92.5 (2060ec1f9f, 2020-04-08)"
   sodipodi:docname="dai.svg">
  <metadata
     id="metadata10">
    <rdf:RDF>
      <cc:Work
         rdf:about="">
        <dc:format>image/svg+xml</dc:format>
        <dc:type
           rdf:resource="http://purl.org/dc/dcmitype/StillImage" />
        <dc:title />
      </cc:Work>
    </rdf:RDF>
  </metadata>
  <defs
     id="defs8" />
  <sodipodi:namedview
     pagecolor="#ffffff"
     bordercolor="#666666"
     borderopacity="1"
     objecttolerance="10"
     gridtolerance="10"
     guidetolerance="10"
     inkscape:pageopacity="0"
     inkscape:pageshadow="2"
     inkscape:window-width="1022"
     inkscape:window-height="734"
     id="namedview6"
     showgrid="false"
     inkscape:zoom="7.375"
     inkscape:cx="23.946623"
     inkscape:cy="3.9515738"
     inkscape:window-x="0"
     inkscape:window-y="16"
     inkscape:window-maximized="0"
     inkscape:current-layer="svg2" />
  <path
     d="M 16 0 C 7.163444 0 0 7.163444 0 16 C 0 24.836556 7.163444 32 16 32 C 24.836556 32 32 24.836556 32 16 C 32 7.163444 24.836556 0 16 0 z M 16.005859 3.8164062 L 16.007812 3.8164062 C 16.008545 3.8164198 16.04745 3.8548018 16.048828 3.8554688 C 16.050497 3.8526032 16.051012 3.8163518 16.052734 3.8164062 C 16.108137 3.8181627 19.11181 6.8098496 22.105469 9.8164062 C 22.330656 10.042564 22.500797 10.214372 22.724609 10.439453 C 25.486375 13.207512 28.096943 15.851715 28.095703 15.914062 C 28.094476 15.976606 25.457077 18.640894 22.677734 21.421875 C 22.478756 21.620971 22.32901 21.774682 22.128906 21.974609 C 22.122176 21.981364 22.118059 21.987386 22.111328 21.994141 C 22.108846 21.996626 22.105997 21.997515 22.103516 22 C 22.100677 22.002836 22.098542 22.004978 22.095703 22.007812 C 22.092157 22.011363 22.089483 22.014027 22.085938 22.017578 C 19.198261 24.915395 16.422293 27.678377 16.185547 27.871094 C 16.155885 27.907996 16.093519 27.980854 16.087891 27.990234 C 16.085197 27.994725 16.084492 27.970826 16.082031 27.970703 C 16.081379 27.971013 16.055032 27.998047 16.054688 27.998047 C 16.054608 27.998047 16.054766 27.974673 16.054688 27.974609 C 16.054009 27.974896 16.027739 28 16.027344 28 C 16.022214 28 16.018554 27.988861 16.013672 27.986328 C 16.01336 27.986405 16.000236 28 16 28 C 15.943799 28 13.176655 25.278616 9.8515625 21.953125 L 3.8066406 15.90625 L 9.8535156 9.8613281 C 9.8720843 9.8427616 9.8838101 9.8329815 9.9023438 9.8144531 C 12.90568 6.8045964 15.927316 3.8149612 16.005859 3.8164062 z M 15.962891 6.4726562 L 14.628906 7.828125 C 8.8214649 13.732332 7.8183594 14.770371 7.8183594 14.871094 C 7.8183594 14.890411 7.8756273 14.907614 7.9921875 14.921875 C 8.1079419 14.936211 8.2818372 14.947567 8.515625 14.957031 C 8.986729 14.975848 9.6986399 14.98307 10.666016 14.982422 L 13.470703 14.980469 L 14.714844 13.720703 L 15.964844 12.457031 L 16 12.490234 L 16.005859 12.494141 L 16.101562 12.589844 L 16.511719 12.988281 C 16.515674 12.992134 16.523297 13.001912 16.527344 13.005859 L 16.53125 13.009766 C 16.822992 13.293929 17.378891 13.852555 17.769531 14.253906 L 18.503906 14.984375 L 21.347656 14.984375 L 21.359375 14.984375 C 21.366202 14.984373 21.370137 14.984378 21.376953 14.984375 C 21.422413 14.984354 21.449206 14.982503 21.494141 14.982422 C 22.4943 14.980724 23.18152 14.962131 23.634766 14.935547 C 23.886721 14.920586 24.18013 14.906734 24.173828 14.886719 C 24.173767 14.886563 24.168046 14.879079 24.167969 14.878906 C 24.167903 14.87872 24.156345 14.867402 24.15625 14.867188 C 24.122769 14.790932 22.31814 12.923052 20.076172 10.646484 L 15.962891 6.4726562 z "
     id="path4" />
  <g
     id="g3382"
     transform="matrix(0.77647786,0,0,0.77647786,37.53516,7.0359425)" />
  <g
     transform="matrix(0.77647786,0,0,0.77647786,7.7046511,35.239332)"
     id="g882" />
</svg>
