<?xml version="1.0" encoding="UTF-8" standalone="no"?>
<svg
   xmlns:dc="http://purl.org/dc/elements/1.1/"
   xmlns:cc="http://creativecommons.org/ns#"
   xmlns:rdf="http://www.w3.org/1999/02/22-rdf-syntax-ns#"
   xmlns:svg="http://www.w3.org/2000/svg"
   xmlns="http://www.w3.org/2000/svg"
   height="32"
   width="32"
   id="svg10"
   version="1.1"
   viewBox="0 0 32 32">
  <metadata
     id="metadata16">
    <rdf:RDF>
      <cc:Work
         rdf:about="">
        <dc:format>image/svg+xml</dc:format>
        <dc:type
           rdf:resource="http://purl.org/dc/dcmitype/StillImage" />
        <dc:title>hybrix-symbol-gradient</dc:title>
      </cc:Work>
    </rdf:RDF>
  </metadata>
  <defs
     id="defs14" />
  <title
     id="title2">hybrix-symbol-gradient</title>
  <g
     transform="matrix(0.03137255,0,0,0.03137255,0,3.7714774e-5)"
     style="fill:none;fill-rule:evenodd;stroke:none;stroke-width:1"
     id="g8">
    <g
       style="fill:#000000"
       id="g6">
      <path
         id="path4"
         d="m 748.63031,761.7231 -0.3093,-61.75799 c -25.77547,10.82569 -54.02539,16.80559 -83.71873,17.0118 -114.5462,0.61861 -209.39994,-86.70863 -220.53494,-198.47101 l 136.5069,-0.72171 c 9.58847,37.11665 43.40589,64.54174 83.40943,64.33553 38.2508,-0.2062 70.62479,-25.56925 81.34738,-60.31456 l 2.06204,-13.30014 v -6.49541 -3.29926 l -0.1031,-26.70337 -1.03102,-196.51207 135.16658,-0.72172 1.03102,196.51208 0.2062,44.95239 h 0.61861 c -0.2062,1.95893 -0.41241,3.91787 -0.61861,5.7737 l 1.23722,238.99003 0.51551,95.36918 C 969.16525,764.81615 1020.6131,642.12499 1019.9945,507.474 1018.5511,225.79983 789.04625,-1.4365868 507.3719,0.00683866 421.38492,0.41924594 340.44994,22.17373 269.51584,60.115201 l 0.92792,173.211059 0.30931,59.59285 c 25.87857,-10.92879 54.33469,-17.0118 84.13114,-17.1149 114.03068,-0.61861 208.57512,85.88382 220.43183,196.92448 l -136.7131,0.72171 c -10.10399,-36.29184 -43.509,-62.99521 -82.99702,-62.789 -39.48802,0.2062 -72.68683,27.21888 -82.37841,63.61382 0,0 -1.85583,19.79555 -1.23722,25.46615 0,0.41241 0,0.72171 -0.20621,1.03102 l 0.10311,18.35212 1.03102,202.49198 -134.96038,0.72171 -1.03101,-202.49198 -0.20621,-44.95239 h -0.3093 c 0.1031,-0.92792 0.2062,-1.95894 0.3093,-2.88685 l -1.23722,-238.06211 -0.30931,-69.90303 C 50.630536,255.59626 -0.71420396,378.18432 0.00750925,512.52599 1.4509357,794.20017 230.95574,1021.4366 512.63009,1019.9932 c 85.78077,-0.4125 166.50955,-22.06383 237.34055,-59.79909 z" />
    </g>
  </g>
</svg>
