<?xml version="1.0" encoding="UTF-8" standalone="no"?>
<svg
   xmlns:dc="http://purl.org/dc/elements/1.1/"
   xmlns:cc="http://creativecommons.org/ns#"
   xmlns:rdf="http://www.w3.org/1999/02/22-rdf-syntax-ns#"
   xmlns:svg="http://www.w3.org/2000/svg"
   xmlns="http://www.w3.org/2000/svg"
   xmlns:sodipodi="http://sodipodi.sourceforge.net/DTD/sodipodi-0.dtd"
   xmlns:inkscape="http://www.inkscape.org/namespaces/inkscape"
   width="32"
   height="32"
   viewBox="0 0 32 32"
   version="1.1"
   id="svg4"
   sodipodi:docname="tomo.svg"
   inkscape:version="0.92.3 (2405546, 2018-03-11)">
  <metadata
     id="metadata10">
    <rdf:RDF>
      <cc:Work
         rdf:about="">
        <dc:format>image/svg+xml</dc:format>
        <dc:type
           rdf:resource="http://purl.org/dc/dcmitype/StillImage" />
      </cc:Work>
    </rdf:RDF>
  </metadata>
  <defs
     id="defs8" />
  <sodipodi:namedview
     pagecolor="#ffffff"
     bordercolor="#666666"
     borderopacity="1"
     objecttolerance="10"
     gridtolerance="10"
     guidetolerance="10"
     inkscape:pageopacity="0"
     inkscape:pageshadow="2"
     inkscape:window-width="1278"
     inkscape:window-height="986"
     id="namedview6"
     showgrid="false"
     inkscape:zoom="4"
     inkscape:cx="20.713326"
     inkscape:cy="14.97001"
     inkscape:window-x="0"
     inkscape:window-y="18"
     inkscape:window-maximized="0"
     inkscape:current-layer="svg4" />
  <path
     d="M 16 0 C 7.163444 0 0 7.163444 0 16 C 0 24.836556 7.163444 32 16 32 C 24.836556 32 32 24.836556 32 16 C 32 7.163444 24.836556 0 16 0 z M 12.359375 5.0839844 L 12.359375 8.7167969 L 12.359375 12.351562 L 10.537109 14.171875 L 8.7167969 15.992188 L 8.7167969 12.359375 L 8.7167969 8.7246094 L 10.537109 6.9042969 L 12.359375 5.0839844 z M 12.355469 12.363281 L 17.8125 12.363281 L 23.271484 12.363281 L 21.455078 14.179688 L 19.638672 15.996094 L 14.179688 15.996094 L 8.7207031 15.996094 L 10.537109 14.179688 L 12.355469 12.363281 z M 8.7167969 16.003906 L 10.537109 16.003906 L 12.359375 16.003906 L 12.359375 17.898438 C 12.359397 19.117135 12.360434 19.830925 12.365234 19.896484 C 12.456254 21.143708 13.161679 22.241024 14.257812 22.84375 C 14.710033 23.09241 15.218922 23.240285 15.751953 23.279297 C 15.827523 23.284797 15.947798 23.287756 16.080078 23.285156 C 16.293076 23.280956 16.356624 23.27579 16.535156 23.25 C 17.987912 23.040263 19.182194 21.959158 19.539062 20.533203 C 19.605753 20.266745 19.648438 19.952894 19.648438 19.724609 L 19.648438 19.644531 L 21.466797 19.644531 L 23.283203 19.644531 L 23.279297 19.738281 C 23.277197 19.789351 23.273784 19.886984 23.271484 19.955078 C 23.244484 20.781818 23.037663 21.701141 22.703125 22.482422 C 22.38304 23.229949 21.972711 23.87413 21.419922 24.498047 C 21.302582 24.630486 20.963068 24.967786 20.828125 25.085938 C 20.071965 25.748007 19.257412 26.221415 18.341797 26.53125 C 17.645171 26.766983 16.986056 26.887348 16.228516 26.914062 C 16.006847 26.921862 15.985782 26.920271 15.748047 26.912109 C 14.209921 26.85915 12.737953 26.32362 11.521484 25.375 C 11.144029 25.080655 10.75573 24.70869 10.439453 24.335938 C 9.9049138 23.705952 9.4641629 22.95485 9.1757812 22.179688 C 8.9390618 21.543392 8.7981924 20.906472 8.7421875 20.216797 C 8.7197157 19.940071 8.7168652 19.640344 8.7167969 17.826172 L 8.7167969 16.003906 z "
     id="path2" />
  <rect
     style="opacity:0.67099998;fill:#ffffff;fill-opacity:1;stroke:none;stroke-width:1.51181102;stroke-miterlimit:4;stroke-dasharray:none;stroke-dashoffset:0;stroke-opacity:1"
     id="rect823"
     width="0.13559322"
     height="3.118644"
     x="-28.067797"
     y="4.0677967"
     ry="0.06779661" />
  <path
     inkscape:connector-curvature="0"
     id="path850"
     d="m 15.706876,26.915702 c 0.005,-0.002 0.0132,-0.002 0.01821,0 0.005,0.002 9.12e-4,0.0037 -0.0091,0.0037 -0.01001,0 -0.01411,-0.0017 -0.0091,-0.0037 z m 0.575334,0 c 0.005,-0.002 0.0132,-0.002 0.01821,0 0.005,0.002 9.11e-4,0.0037 -0.0091,0.0037 -0.01001,0 -0.01411,-0.0017 -0.0091,-0.0037 z m -0.720987,-0.0073 c 0.005,-0.002 0.0132,-0.002 0.01821,0 0.005,0.002 9.12e-4,0.0037 -0.0091,0.0037 -0.01001,0 -0.01411,-0.0017 -0.0091,-0.0037 z m 0.866641,0 c 0.005,-0.002 0.0132,-0.002 0.01821,0 0.005,0.002 9.12e-4,0.0037 -0.0091,0.0037 -0.01001,0 -0.01411,-0.0017 -0.0091,-0.0037 z m -0.975426,-0.0074 c 0.0053,-0.0021 0.01154,-0.0018 0.01396,5.75e-4 0.0024,0.0024 -0.0019,0.0041 -0.0096,0.0038 -0.0085,-3.62e-4 -0.01021,-0.0021 -0.0044,-0.0044 z m 1.092404,0 c 0.0053,-0.0021 0.01154,-0.0018 0.01396,5.75e-4 0.0024,0.0024 -0.0019,0.0041 -0.0096,0.0038 -0.0085,-3.62e-4 -0.01021,-0.0021 -0.0044,-0.0044 z m 0.08739,-0.0073 c 0.0053,-0.0021 0.01154,-0.0018 0.01396,5.75e-4 0.0024,0.0024 -0.0019,0.0041 -0.0096,0.0038 -0.0085,-3.63e-4 -0.01021,-0.0021 -0.0044,-0.0044 z m -5.410608,-1.755617 c -0.0091,-0.01155 -0.0088,-0.01181 0.0027,-0.0027 0.007,0.0055 0.01275,0.01123 0.01275,0.01274 0,0.006 -0.006,0.0021 -0.01549,-0.01 z m -0.06554,-0.05826 c -0.0091,-0.01155 -0.0088,-0.01181 0.0027,-0.0028 0.007,0.0055 0.01275,0.01123 0.01275,0.01275 0,0.006 -0.006,0.0021 -0.01549,-0.01 z m 9.730614,-0.04098 c 0,-0.0015 0.0057,-0.0072 0.01274,-0.01274 0.01155,-0.0091 0.01181,-0.0088 0.0027,0.0027 -0.0095,0.01213 -0.0155,0.01599 -0.0155,0.01 z m -9.799563,-0.02092 -0.01387,-0.01639 0.01639,0.01387 c 0.0154,0.01304 0.0197,0.0189 0.01387,0.0189 -0.0014,0 -0.0088,-0.0074 -0.01639,-0.01639 z m 9.905162,-0.07829 c 0.0073,-0.008 0.01482,-0.01456 0.01682,-0.01456 0.002,0 -0.0023,0.0066 -0.0095,0.01456 -0.0072,0.008 -0.01482,0.01457 -0.01682,0.01457 -0.002,0 0.0023,-0.0066 0.0095,-0.01457 z m -10.01062,-0.02003 -0.01766,-0.02003 0.02003,0.01766 c 0.01102,0.0097 0.02003,0.01872 0.02003,0.02003 0,0.0057 -0.0059,0.0011 -0.0224,-0.01766 z m -0.273242,-0.273102 -0.01387,-0.01639 0.01639,0.01387 c 0.0154,0.01304 0.0197,0.0189 0.01387,0.0189 -0.0014,0 -0.0088,-0.0074 -0.01639,-0.01639 z m 10.589735,-0.01274 c 0.0072,-0.008 0.01482,-0.01457 0.01682,-0.01457 0.002,0 -0.0023,0.0066 -0.0095,0.01457 -0.0073,0.008 -0.01482,0.01457 -0.01682,0.01457 -0.002,0 0.0023,-0.0066 0.0095,-0.01457 z m -10.68441,-0.08921 -0.01387,-0.01639 0.01639,0.01387 c 0.0154,0.01304 0.0197,0.0189 0.01387,0.0189 -0.0014,0 -0.0088,-0.0074 -0.01639,-0.01639 z m 10.768162,-9.27e-4 c 0,-0.0015 0.0057,-0.0072 0.01274,-0.01274 0.01155,-0.0091 0.01181,-0.0088 0.0028,0.0027 -0.0095,0.01213 -0.0155,0.01599 -0.0155,0.01 z m 0.116523,-0.131089 c 0,-0.0015 0.0057,-0.0072 0.01274,-0.01274 0.01155,-0.0091 0.01181,-0.0088 0.0027,0.0027 -0.0095,0.01213 -0.01549,0.01599 -0.01549,0.01 z M 15.95053,23.281073 c 0.02686,-0.0014 0.07274,-0.0014 0.101958,0 0.02922,0.0014 0.0072,0.0025 -0.04884,0.0025 -0.05608,0 -0.07998,-0.0011 -0.05312,-0.0025 z m -0.192218,-0.0069 c 0.0053,-0.0021 0.01154,-0.0018 0.01396,5.75e-4 0.0024,0.0024 -0.0019,0.0041 -0.0096,0.0038 -0.0085,-3.63e-4 -0.01021,-0.0021 -0.0044,-0.0044 z m 0.480659,0 c 0.0053,-0.0021 0.01154,-0.0018 0.01396,5.75e-4 0.0024,0.0024 -0.0019,0.0041 -0.0096,0.0038 -0.0085,-3.63e-4 -0.01021,-0.0021 -0.0044,-0.0044 z m 2.164327,-0.893547 c 0,-0.0015 0.0057,-0.0072 0.01274,-0.01274 0.01155,-0.0091 0.01181,-0.0088 0.0028,0.0027 -0.0095,0.01213 -0.0155,0.01599 -0.0155,0.01 z m -4.822076,-0.01728 c -0.0091,-0.01155 -0.0088,-0.01181 0.0027,-0.0027 0.01213,0.0095 0.01599,0.01549 0.01,0.01549 -0.0015,0 -0.0072,-0.0057 -0.01274,-0.01274 z m 4.91311,-0.06736 c 0.0072,-0.008 0.01482,-0.01457 0.01682,-0.01457 0.002,0 -0.0023,0.0066 -0.0095,0.01457 -0.0073,0.008 -0.01482,0.01456 -0.01682,0.01456 -0.002,0 0.0023,-0.0066 0.0095,-0.01456 z m -5.003673,-0.01639 -0.02139,-0.02367 0.02367,0.02139 c 0.02206,0.01994 0.02702,0.02595 0.02139,0.02595 -0.0013,0 -0.0119,-0.01065 -0.02367,-0.02367 z m -0.131088,-0.131089 -0.02139,-0.02367 0.02367,0.02139 c 0.02206,0.01994 0.02702,0.02595 0.02139,0.02595 -0.0013,0 -0.01191,-0.01065 -0.02367,-0.02367 z m 5.29498,-0.01275 c 0.0072,-0.008 0.01482,-0.01456 0.01682,-0.01456 0.002,0 -0.0023,0.0066 -0.0095,0.01456 -0.0073,0.008 -0.01482,0.01457 -0.01682,0.01457 -0.002,0 0.0023,-0.0066 0.0095,-0.01457 z m -5.379202,-0.07829 c -0.0091,-0.01155 -0.0088,-0.01181 0.0027,-0.0027 0.007,0.0055 0.01275,0.01123 0.01275,0.01274 0,0.006 -0.006,0.0021 -0.01549,-0.01 z M 8.7324473,20.187064 c 3.625e-4,-0.0085 0.00208,-0.01021 0.0044,-0.0044 0.0021,0.0053 0.00184,0.01154 -5.748e-4,0.01396 -0.00242,0.0024 -0.00414,-0.0019 -0.00383,-0.0096 z m 14.5289827,0 c 3.63e-4,-0.0085 0.0021,-0.01021 0.0044,-0.0044 0.0021,0.0053 0.0018,0.01154 -5.75e-4,0.01396 -0.0024,0.0024 -0.0041,-0.0019 -0.0038,-0.0096 z M 8.7251645,20.077823 c 3.625e-4,-0.0085 0.00208,-0.01021 0.0044,-0.0044 0.0021,0.0053 0.00184,0.01154 -5.748e-4,0.01396 -0.00242,0.0024 -0.00414,-0.0019 -0.00383,-0.0096 z m 14.5441235,-0.003 c 0,-0.01001 0.0017,-0.01411 0.0037,-0.0091 0.002,0.005 0.002,0.0132 0,0.01821 -0.002,0.005 -0.0037,9.12e-4 -0.0037,-0.0091 z m -3.641924,-0.106206 c 3.62e-4,-0.0085 0.0021,-0.01021 0.0044,-0.0044 0.0021,0.0053 0.0018,0.01154 -5.74e-4,0.01396 -0.0024,0.0024 -0.0041,-0.0019 -0.0038,-0.0096 z M 8.7187264,19.932776 c 1.553e-4,-0.01202 0.00178,-0.01605 0.00363,-0.009 0.00185,0.0071 0.00172,0.01692 -2.589e-4,0.02185 -0.00199,0.0049 -0.00351,-8.65e-4 -0.00336,-0.01288 z m 14.5581136,-0.0073 c 1.56e-4,-0.01202 0.0018,-0.01605 0.0036,-0.009 0.0018,0.0071 0.0017,0.01692 -2.58e-4,0.02185 -0.002,0.0049 -0.0035,-8.65e-4 -0.0034,-0.01288 z m -3.642193,-0.05158 c 3.62e-4,-0.0085 0.0021,-0.01021 0.0044,-0.0044 0.0021,0.0053 0.0018,0.01154 -5.75e-4,0.01396 -0.0024,0.0024 -0.0041,-0.0019 -0.0038,-0.0096 z m -7.268134,-0.0073 c 3.63e-4,-0.0085 0.0021,-0.01021 0.0044,-0.0044 0.0021,0.0053 0.0018,0.01154 -5.75e-4,0.01396 -0.0024,0.0024 -0.0041,-0.0019 -0.0038,-0.0096 z m 7.277024,-0.185102 c 0,-0.02203 0.0014,-0.03104 0.003,-0.02003 0.0017,0.01102 0.0017,0.02904 0,0.04006 -0.0017,0.01102 -0.003,0.002 -0.003,-0.02003 z m -7.281296,-1.838881 c 0,-1.013388 8.44e-4,-1.426873 0.0019,-0.918856 10e-4,0.508018 10e-4,1.337153 0,1.842523 -10e-4,0.505371 -0.0019,0.08972 -0.0019,-0.923667 z M 12.36047,8.7210669 12.358657,5.0833647 10.536162,6.9040318 8.7136672,8.7246995 10.53586,6.9006898 c 1.002206,-1.0032054 1.82397,-1.8222321 1.826144,-1.8200588 0.0022,0.00217 0.0031,1.640643 0.0021,3.6410449 l -0.0018,3.6370941 z"
     style="fill:#c7c7c7;stroke-width:0.0072827" />
  <path
     inkscape:connector-curvature="0"
     id="path848"
     d="m 14.175688,15.998298 5.462024,-0.0018 1.815219,-1.815208 1.815218,-1.815208 -5.456567,-0.0036 -5.456568,-0.0036 5.465661,-0.0018 5.465659,-0.0018 -1.824305,1.824316 -1.824305,1.824316 -5.462029,-0.0018 -5.4620294,-0.0018 z"
     style="fill:#b5b5b5;stroke-width:0.0072827" />
  <path
     inkscape:connector-curvature="0"
     id="path846"
     d="m 15.747031,26.915299 c 0.01107,-0.0017 0.02746,-0.0016 0.03641,1.04e-4 0.009,0.0017 -1.03e-4,0.0031 -0.02013,0.003 -0.02003,-5.2e-5 -0.02736,-0.0015 -0.01629,-0.0031 z m 0.480658,0 c 0.01107,-0.0017 0.02746,-0.0016 0.03641,1.04e-4 0.009,0.0017 -1.04e-4,0.0031 -0.02013,0.003 -0.02003,-5.2e-5 -0.02736,-0.0015 -0.01629,-0.0031 z m -0.637336,-0.0069 c 0.005,-0.002 0.0132,-0.002 0.01821,0 0.005,0.002 9.12e-4,0.0037 -0.0091,0.0037 -0.01001,0 -0.01411,-0.0017 -0.0091,-0.0037 z m 0.80838,0 c 0.005,-0.002 0.0132,-0.002 0.01821,0 0.005,0.002 9.11e-4,0.0037 -0.0091,0.0037 -0.01001,0 -0.01411,-0.0017 -0.0091,-0.0037 z m -0.924903,-0.0073 c 0.005,-0.002 0.0132,-0.002 0.01821,0 0.005,0.002 9.11e-4,0.0037 -0.0091,0.0037 -0.01001,0 -0.01411,-0.0017 -0.0091,-0.0037 z m 1.041426,0 c 0.005,-0.002 0.0132,-0.002 0.01821,0 0.005,0.002 9.11e-4,0.0037 -0.0091,0.0037 -0.01001,0 -0.01411,-0.0017 -0.0091,-0.0037 z m -1.135646,-0.0074 c 0.0053,-0.0021 0.01154,-0.0018 0.01396,5.75e-4 0.0024,0.0024 -0.0019,0.0041 -0.0096,0.0038 -0.0085,-3.63e-4 -0.01021,-0.0021 -0.0044,-0.0044 z m 1.230776,0 c 0.0053,-0.0021 0.01154,-0.0018 0.01396,5.75e-4 0.0024,0.0024 -0.0019,0.0041 -0.0096,0.0038 -0.0085,-3.63e-4 -0.01021,-0.0021 -0.0044,-0.0044 z m 0.08739,-0.0073 c 0.0053,-0.0021 0.01154,-0.0018 0.01396,5.75e-4 0.0024,0.0024 -0.0019,0.0041 -0.0096,0.0038 -0.0085,-3.63e-4 -0.01021,-0.0021 -0.0044,-0.0044 z m -1.536649,-0.01457 c 0.0053,-0.0021 0.01154,-0.0018 0.01396,5.75e-4 0.0024,0.0024 -0.0019,0.0041 -0.0096,0.0038 -0.0085,-3.63e-4 -0.01021,-0.0021 -0.0044,-0.0044 z m 5.609043,-1.731057 c 0,-0.0015 0.0057,-0.0072 0.01274,-0.01274 0.01155,-0.0091 0.01181,-0.0088 0.0027,0.0027 -0.0095,0.01213 -0.0155,0.01599 -0.0155,0.01 z m 0.06554,-0.05826 c 0,-0.0015 0.0057,-0.0072 0.01275,-0.01274 0.01155,-0.0091 0.01181,-0.0088 0.0027,0.0027 -0.0095,0.01213 -0.01549,0.01599 -0.01549,0.01 z m 0.07283,-0.06554 c 0,-0.0015 0.0057,-0.0072 0.01275,-0.01275 0.01155,-0.0091 0.01181,-0.0088 0.0027,0.0028 -0.0095,0.01213 -0.0155,0.01599 -0.0155,0.01 z m -9.850541,-0.0282 -0.01387,-0.01639 0.01639,0.01387 c 0.009,0.0076 0.01639,0.015 0.01639,0.01639 0,0.0058 -0.0059,0.0015 -0.0189,-0.01387 z m 9.977988,-0.09286 c 0.01564,-0.01602 0.03008,-0.02913 0.03209,-0.02913 0.002,0 -0.0092,0.01311 -0.0248,0.02913 -0.01564,0.01602 -0.03008,0.02913 -0.03209,0.02913 -0.002,0 0.0092,-0.01311 0.0248,-0.02913 z m -10.112275,-0.03459 -0.03981,-0.04188 0.04187,0.03981 c 0.02303,0.02189 0.04188,0.04074 0.04188,0.04187 0,0.0054 -0.007,-9.01e-4 -0.04394,-0.03981 z m -0.16022,-0.160219 -0.03981,-0.04188 0.04188,0.03981 c 0.02303,0.02189 0.04188,0.04074 0.04188,0.04188 0,0.0054 -0.007,-9.01e-4 -0.04395,-0.03981 z m 10.490976,-0.02367 c 0.01564,-0.01602 0.03008,-0.02913 0.03209,-0.02913 0.002,0 -0.0092,0.01311 -0.0248,0.02913 -0.01564,0.01602 -0.03008,0.02913 -0.03209,0.02913 -0.002,0 0.0092,-0.01311 0.0248,-0.02913 z M 10.63901,24.570034 c -0.0091,-0.01155 -0.0088,-0.01181 0.0027,-0.0027 0.007,0.0055 0.01275,0.01123 0.01275,0.01275 0,0.006 -0.006,0.0021 -0.01549,-0.01 z m 10.721061,-0.0046 c 0,-0.0015 0.0057,-0.0072 0.01274,-0.01274 0.01155,-0.0091 0.01181,-0.0088 0.0027,0.0027 -0.0095,0.01213 -0.01549,0.01599 -0.01549,0.01 z m -10.793888,-0.07554 c -0.0091,-0.01155 -0.0088,-0.01181 0.0027,-0.0028 0.01213,0.0095 0.01599,0.0155 0.01,0.0155 -0.0015,0 -0.0072,-0.0057 -0.01274,-0.01274 z m 10.859433,0.0027 c 0,-0.0015 0.0057,-0.0072 0.01274,-0.01274 0.01155,-0.0091 0.01181,-0.0088 0.0027,0.0027 -0.0095,0.01213 -0.01549,0.01599 -0.01549,0.01 z M 10.507921,24.42438 c -0.0091,-0.01155 -0.0088,-0.01181 0.0028,-0.0027 0.007,0.0055 0.01274,0.01123 0.01274,0.01274 0,0.006 -0.006,0.0021 -0.01549,-0.01 z m 5.35926,-1.143073 c 0.0091,-0.0017 0.02217,-0.0017 0.02913,1.56e-4 0.007,0.0018 -4.66e-4,0.0032 -0.01647,0.0032 -0.01602,-1.04e-4 -0.02172,-0.0016 -0.01266,-0.0033 z m 0.247612,0 c 0.0091,-0.0017 0.02217,-0.0017 0.02913,1.56e-4 0.007,0.0018 -4.66e-4,0.0032 -0.01647,0.0032 -0.01602,-1.04e-4 -0.02172,-0.0016 -0.01266,-0.0033 z m -0.386068,-0.007 c 0.005,-0.002 0.0132,-0.002 0.01821,0 0.005,0.002 9.12e-4,0.0037 -0.0091,0.0037 -0.01001,0 -0.01411,-0.0017 -0.0091,-0.0037 z m 0.531637,0 c 0.005,-0.002 0.0132,-0.002 0.01821,0 0.005,0.002 9.12e-4,0.0037 -0.0091,0.0037 -0.01001,0 -0.01411,-0.0017 -0.0091,-0.0037 z m -0.611292,-0.0074 c 0.0053,-0.0021 0.01154,-0.0018 0.01396,5.75e-4 0.0024,0.0024 -0.0019,0.0041 -0.0096,0.0038 -0.0085,-3.62e-4 -0.01021,-0.0021 -0.0044,-0.0044 z m 0.699139,0 c 0.0053,-0.0021 0.01154,-0.0018 0.01396,5.75e-4 0.0024,0.0024 -0.0019,0.0041 -0.0096,0.0038 -0.0085,-3.62e-4 -0.01021,-0.0021 -0.0044,-0.0044 z m 2.116989,-0.941775 c 0.0073,-0.008 0.01482,-0.01457 0.01682,-0.01457 0.002,0 -0.0023,0.0066 -0.0095,0.01457 -0.0072,0.008 -0.01482,0.01457 -0.01682,0.01457 -0.002,0 0.0023,-0.0066 0.0095,-0.01457 z m -4.938361,-0.0091 -0.01387,-0.01639 0.01639,0.01387 c 0.0154,0.01304 0.0197,0.0189 0.01387,0.0189 -0.0014,0 -0.0088,-0.0074 -0.01639,-0.01639 z m -0.200511,-0.200274 c -0.0091,-0.01155 -0.0088,-0.01181 0.0027,-0.0027 0.007,0.0055 0.01275,0.01123 0.01275,0.01274 0,0.006 -0.006,0.0021 -0.01549,-0.01 z m 5.357353,-0.0091 c 0.0072,-0.008 0.01482,-0.01457 0.01682,-0.01457 0.002,0 -0.0023,0.0066 -0.0095,0.01457 -0.0072,0.008 -0.01482,0.01457 -0.01682,0.01457 -0.002,0 0.0023,-0.0066 0.0095,-0.01457 z m 0.05462,-0.06101 c 0,-0.0015 0.0057,-0.0072 0.01274,-0.01274 0.01155,-0.0091 0.01181,-0.0088 0.0027,0.0027 -0.0095,0.01213 -0.01549,0.01599 -0.01549,0.01 z m 4.493999,-1.567278 c 3.63e-4,-0.0085 0.0021,-0.01021 0.0044,-0.0044 0.0021,0.0053 0.0018,0.01154 -5.75e-4,0.01396 -0.0024,0.0024 -0.0041,-0.0019 -0.0038,-0.0096 z M 8.7542951,20.412827 c 3.625e-4,-0.0085 0.00208,-0.01021 0.0044,-0.0044 0.0021,0.0053 0.00184,0.01154 -5.748e-4,0.01396 -0.00242,0.0024 -0.00414,-0.0019 -0.00383,-0.0096 z m -0.00728,-0.07283 c 3.625e-4,-0.0085 0.00208,-0.01021 0.0044,-0.0044 0.0021,0.0053 0.00184,0.01154 -5.748e-4,0.01396 -0.00242,0.0024 -0.00414,-0.0019 -0.00383,-0.0096 z m 14.4998529,0 c 3.62e-4,-0.0085 0.0021,-0.01021 0.0044,-0.0044 0.0021,0.0053 0.0018,0.01154 -5.74e-4,0.01396 -0.0024,0.0024 -0.0041,-0.0019 -0.0038,-0.0096 z M 8.7397296,20.259891 c 3.624e-4,-0.0085 0.00208,-0.01021 0.0044,-0.0044 0.0021,0.0053 0.00184,0.01154 -5.748e-4,0.01396 -0.00242,0.0024 -0.00414,-0.0019 -0.00383,-0.0096 z m 14.5144184,0 c 3.62e-4,-0.0085 0.0021,-0.01021 0.0044,-0.0044 0.0021,0.0053 0.0018,0.01154 -5.75e-4,0.01396 -0.0024,0.0024 -0.0041,-0.0019 -0.0038,-0.0096 z M 8.7324473,20.165216 c 3.625e-4,-0.0085 0.00208,-0.01021 0.0044,-0.0044 0.0021,0.0053 0.00184,0.01154 -5.748e-4,0.01396 -0.00242,0.0024 -0.00414,-0.0019 -0.00383,-0.0096 z m 14.5295587,-0.003 c 0,-0.01001 0.0017,-0.01411 0.0037,-0.0091 0.002,0.005 0.002,0.0132 0,0.01821 -0.002,0.005 -0.0037,9.11e-4 -0.0037,-0.0091 z M 8.7260091,20.0493 c 1.554e-4,-0.01202 0.00178,-0.01605 0.00362,-0.009 0.00185,0.0071 0.00172,0.01692 -2.589e-4,0.02185 -0.00199,0.0049 -0.00351,-8.65e-4 -0.00336,-0.01288 z M 23.269288,20.0457 c 0,-0.01001 0.0017,-0.01411 0.0037,-0.0091 0.002,0.005 0.002,0.0132 0,0.01821 -0.002,0.005 -0.0037,9.11e-4 -0.0037,-0.0091 z M 12.373796,19.98315 c 3.63e-4,-0.0085 0.0021,-0.01021 0.0044,-0.0044 0.0021,0.0053 0.0018,0.01154 -5.75e-4,0.01396 -0.0024,0.0024 -0.0041,-0.0019 -0.0038,-0.0096 z M 8.7192903,19.88544 c 0,-0.01802 0.00142,-0.0254 0.00316,-0.01639 0.00173,0.009 0.00173,0.02376 0,0.03277 -0.00173,0.009 -0.00316,0.0016 -0.00316,-0.01639 z m 10.9159317,0.01457 c 0,-0.01001 0.0017,-0.01411 0.0037,-0.0091 0.002,0.005 0.002,0.0132 0,0.01821 -0.002,0.005 -0.0037,9.11e-4 -0.0037,-0.0091 z m -7.268133,-0.0073 c 0,-0.01001 0.0017,-0.01411 0.0037,-0.0091 0.002,0.005 0.002,0.0132 0,0.01821 -0.002,0.005 -0.0037,9.12e-4 -0.0037,-0.0091 z m 10.910316,-0.01457 c 0,-0.01802 0.0014,-0.0254 0.0032,-0.01639 0.0017,0.009 0.0017,0.02376 0,0.03277 -0.0017,0.009 -0.0032,0.0016 -0.0032,-0.01639 z m -3.634067,-0.131088 c 0,-0.01803 0.0014,-0.0254 0.0032,-0.01639 0.0017,0.009 0.0017,0.02376 0,0.03277 -0.0017,0.009 -0.0032,0.0016 -0.0032,-0.01639 z m -7.282351,-0.02185 c 0,-0.02604 0.0013,-0.03669 0.0029,-0.02367 0.0016,0.01302 0.0016,0.03432 0,0.04734 -0.0016,0.01302 -0.0029,0.0024 -0.0029,-0.02367 z m 8.196752,-0.08557 c 0.502009,-10e-4 1.321313,-10e-4 1.820675,0 0.499362,0.001 0.08863,0.0019 -0.912744,0.0019 -1.00137,0 -1.409939,-8.45e-4 -0.907931,-0.0019 z"
     style="fill:#a6a6a6;stroke-width:0.0072827" />
  <path
     inkscape:connector-curvature="0"
     id="path842"
     d="m 15.816247,26.915247 c 0.01309,-0.0016 0.03275,-0.0016 0.0437,5.2e-5 0.01094,0.0017 2.59e-4,0.003 -0.0238,0.0029 -0.02403,-5.2e-5 -0.03299,-0.0014 -0.0199,-0.003 z m 0.335004,0 c 0.01309,-0.0016 0.03275,-0.0016 0.0437,5.2e-5 0.01094,0.0017 2.58e-4,0.003 -0.0238,0.0029 -0.02403,-5.2e-5 -0.03299,-0.0014 -0.0199,-0.003 z m -0.527987,-0.0071 c 0.0071,-0.0018 0.01692,-0.0017 0.02185,2.59e-4 0.0049,0.002 -8.65e-4,0.0035 -0.01288,0.0034 -0.01202,-1.55e-4 -0.01605,-0.0018 -0.009,-0.0036 z m 0.742835,0 c 0.0071,-0.0018 0.01692,-0.0017 0.02185,2.59e-4 0.0049,0.002 -8.64e-4,0.0035 -0.01288,0.0034 -0.01202,-1.55e-4 -0.01605,-0.0018 -0.009,-0.0036 z m -0.862683,-0.0072 c 0.0053,-0.0021 0.01154,-0.0018 0.01396,5.75e-4 0.0024,0.0024 -0.0019,0.0041 -0.0096,0.0038 -0.0085,-3.62e-4 -0.01021,-0.0021 -0.0044,-0.0044 z m 0.990447,0 c 0.0053,-0.0021 0.01154,-0.0018 0.01396,5.75e-4 0.0024,0.0024 -0.0019,0.0041 -0.0096,0.0038 -0.0085,-3.62e-4 -0.01021,-0.0021 -0.0044,-0.0044 z m -1.092405,-0.0073 c 0.0053,-0.0021 0.01154,-0.0018 0.01396,5.75e-4 0.0024,0.0024 -0.0019,0.0041 -0.0096,0.0038 -0.0085,-3.63e-4 -0.01021,-0.0021 -0.0044,-0.0044 z m -0.08011,-0.0073 c 0.0053,-0.0021 0.01154,-0.0018 0.01396,5.75e-4 0.0024,0.0024 -0.0019,0.0041 -0.0096,0.0038 -0.0085,-3.63e-4 -0.01021,-0.0021 -0.0044,-0.0044 z m -0.203916,-0.02185 c 0.0053,-0.0021 0.01154,-0.0018 0.01396,5.74e-4 0.0024,0.0024 -0.0019,0.0041 -0.0096,0.0038 -0.0085,-3.62e-4 -0.01021,-0.0021 -0.0044,-0.0044 z m -3.93222,-1.762901 c -0.0091,-0.01155 -0.0088,-0.01181 0.0027,-0.0027 0.007,0.0055 0.01274,0.01123 0.01274,0.01274 0,0.006 -0.006,0.0021 -0.01549,-0.01 z m -0.06554,-0.05826 c -0.0091,-0.01155 -0.0088,-0.01181 0.0027,-0.0028 0.007,0.0055 0.01274,0.01123 0.01274,0.01275 0,0.006 -0.006,0.0021 -0.01549,-0.01 z m 9.825289,-0.06372 c 0.0094,-0.01001 0.01874,-0.01821 0.02075,-0.01821 0.002,0 -0.0041,0.0082 -0.01346,0.01821 -0.0094,0.01001 -0.01874,0.01821 -0.02074,0.01821 -0.002,0 0.0041,-0.0082 0.01346,-0.01821 z m -9.916086,-0.02003 -0.01387,-0.01639 0.01639,0.01387 c 0.0154,0.01304 0.0197,0.0189 0.01387,0.0189 -0.0014,0 -0.0088,-0.0074 -0.01639,-0.01639 z m 10.116361,-0.172964 c 0.04392,-0.04406 0.0815,-0.08011 0.0835,-0.08011 0.002,0 -0.0323,0.03605 -0.07622,0.08011 -0.04392,0.04406 -0.0815,0.08011 -0.0835,0.08011 -0.002,0 0.0323,-0.03605 0.07622,-0.08011 z m -10.301626,-0.0055 -0.03981,-0.04188 0.04188,0.03981 c 0.0389,0.03698 0.04521,0.04395 0.03981,0.04395 -0.0011,0 -0.01998,-0.01884 -0.04188,-0.04188 z m -0.175087,-0.182067 -0.01766,-0.02003 0.02003,0.01766 c 0.01102,0.0097 0.02003,0.01872 0.02003,0.02003 0,0.0057 -0.0059,0.0011 -0.0224,-0.01766 z m 10.669704,-0.01274 c 0.0094,-0.01001 0.01874,-0.01821 0.02075,-0.01821 0.002,0 -0.0041,0.0082 -0.01346,0.01821 -0.0094,0.01001 -0.01874,0.01821 -0.02075,0.01821 -0.002,0 0.0041,-0.0082 0.01346,-0.01821 z m -5.518465,-1.304982 c 0.007,-0.0018 0.01848,-0.0018 0.02549,0 0.007,0.0018 0.0013,0.0033 -0.01274,0.0033 -0.01402,0 -0.01975,-0.0015 -0.01275,-0.0033 z m 0.342287,0 c 0.007,-0.0018 0.01848,-0.0018 0.02549,0 0.007,0.0018 0.0013,0.0033 -0.01274,0.0033 -0.01402,0 -0.01975,-0.0015 -0.01275,-0.0033 z m 0.127903,-0.0072 c 0.0053,-0.0021 0.01154,-0.0018 0.01396,5.75e-4 0.0024,0.0024 -0.0019,0.0041 -0.0096,0.0038 -0.0085,-3.63e-4 -0.01021,-0.0021 -0.0044,-0.0044 z m -0.662726,-0.0073 c 0.0053,-0.0021 0.01154,-0.0018 0.01396,5.75e-4 0.0024,0.0024 -0.0019,0.0041 -0.0096,0.0038 -0.0085,-3.63e-4 -0.01021,-0.0021 -0.0044,-0.0044 z m 0.742835,0 c 0.0053,-0.0021 0.01154,-0.0018 0.01396,5.75e-4 0.0024,0.0024 -0.0019,0.0041 -0.0096,0.0038 -0.0085,-3.63e-4 -0.01021,-0.0021 -0.0044,-0.0044 z m -2.817968,-0.92539 c -0.0091,-0.01155 -0.0088,-0.01181 0.0027,-0.0027 0.01213,0.0095 0.01599,0.01549 0.01,0.01549 -0.0015,0 -0.0072,-0.0057 -0.01274,-0.01274 z m 5.025687,-0.120164 c 0.01786,-0.01903 0.03342,-0.03459 0.03459,-0.03459 0.0055,0 -3.11e-4,0.0065 -0.03247,0.03672 l -0.03459,0.03247 z m -5.276702,-0.131088 -0.01387,-0.01639 0.01639,0.01387 c 0.0154,0.01304 0.0197,0.0189 0.01387,0.0189 -0.0014,0 -0.0088,-0.0074 -0.01639,-0.01639 z M 8.7615778,20.463807 c 3.625e-4,-0.0085 0.00208,-0.01021 0.0044,-0.0044 0.0021,0.0053 0.00184,0.01154 -5.748e-4,0.01396 -0.00242,0.0024 -0.00414,-0.0019 -0.00383,-0.0096 z M 23.246865,20.318152 c 3.62e-4,-0.0085 0.0021,-0.01021 0.0044,-0.0044 0.0021,0.0053 0.0018,0.01154 -5.74e-4,0.01396 -0.0024,0.0024 -0.0041,-0.0019 -0.0038,-0.0096 z M 8.7397296,20.238042 c 3.624e-4,-0.0085 0.00208,-0.01021 0.0044,-0.0044 0.0021,0.0053 0.00184,0.01154 -5.748e-4,0.01396 -0.00242,0.0024 -0.00414,-0.0019 -0.00383,-0.0096 z m 14.5144184,0 c 3.62e-4,-0.0085 0.0021,-0.01021 0.0044,-0.0044 0.0021,0.0053 0.0018,0.01154 -5.75e-4,0.01396 -0.0024,0.0024 -0.0041,-0.0019 -0.0038,-0.0096 z M 8.7330221,20.140333 c 0,-0.01001 0.00165,-0.01411 0.00367,-0.0091 0.00202,0.005 0.00202,0.0132 0,0.01821 -0.00202,0.005 -0.00367,9.11e-4 -0.00367,-0.0091 z m 14.5284079,-0.0042 c 3.63e-4,-0.0085 0.0021,-0.01021 0.0044,-0.0044 0.0021,0.0053 0.0018,0.01154 -5.75e-4,0.01396 -0.0024,0.0024 -0.0041,-0.0019 -0.0038,-0.0096 z M 8.7257393,20.016529 c 0,-0.01001 0.00165,-0.01411 0.00367,-0.0091 0.00202,0.005 0.00202,0.0132 0,0.01821 -0.00202,0.005 -0.00367,9.11e-4 -0.00367,-0.0091 z m 14.5438187,-0.0036 c 1.55e-4,-0.01202 0.0018,-0.01605 0.0036,-0.009 0.0018,0.0071 0.0017,0.01692 -2.58e-4,0.02185 -0.002,0.0049 -0.0035,-8.65e-4 -0.0034,-0.01288 z m -3.642194,-0.0079 c 3.62e-4,-0.0085 0.0021,-0.01021 0.0044,-0.0044 0.0021,0.0053 0.0018,0.01154 -5.74e-4,0.01396 -0.0024,0.0024 -0.0041,-0.0019 -0.0038,-0.0096 z m 0.0073,-0.08011 c 3.62e-4,-0.0085 0.0021,-0.01021 0.0044,-0.0044 0.0021,0.0053 0.0018,0.01154 -5.75e-4,0.01396 -0.0024,0.0024 -0.0041,-0.0019 -0.0038,-0.0096 z m -7.268134,-0.0073 c 3.63e-4,-0.0085 0.0021,-0.01021 0.0044,-0.0044 0.0021,0.0053 0.0018,0.01154 -5.75e-4,0.01396 -0.0024,0.0024 -0.0041,-0.0019 -0.0038,-0.0096 z m -3.6470239,-0.09771 c 0,-0.02203 0.00137,-0.03104 0.00303,-0.02003 0.00167,0.01102 0.00167,0.02904 0,0.04006 -0.00167,0.01102 -0.00303,0.002 -0.00303,-0.02003 z m 14.5581149,-0.0073 c 0,-0.02203 0.0014,-0.03104 0.003,-0.02003 0.0017,0.01102 0.0017,0.02904 0,0.04005 -0.0017,0.01102 -0.003,0.002 -0.003,-0.02003 z m -3.63456,-0.01457 c 0,-0.01402 0.0015,-0.01975 0.0033,-0.01274 0.0018,0.007 0.0018,0.01848 0,0.02549 -0.0018,0.007 -0.0033,0.0013 -0.0033,-0.01275 z m -7.282699,-0.0073 c 0,-0.01402 0.0015,-0.01975 0.0033,-0.01274 0.0018,0.007 0.0018,0.01848 0,0.02549 -0.0018,0.007 -0.0033,0.0013 -0.0033,-0.01275 z"
     style="fill:#5f5f5f;stroke-width:0.0072827" />
  <path
     inkscape:connector-curvature="0"
     id="path840"
     d="m 15.881661,26.915702 c 0.005,-0.002 0.0132,-0.002 0.01821,0 0.005,0.002 9.12e-4,0.0037 -0.0091,0.0037 -0.01001,0 -0.01411,-0.0017 -0.0091,-0.0037 z m 0.225764,0 c 0.005,-0.002 0.0132,-0.002 0.01821,0 0.005,0.002 9.11e-4,0.0037 -0.0091,0.0037 -0.01001,0 -0.01411,-0.0017 -0.0091,-0.0037 z m 4.859381,-1.956973 c 0,-0.0015 0.0057,-0.0072 0.01274,-0.01274 0.01155,-0.0091 0.01181,-0.0088 0.0027,0.0027 -0.0095,0.01213 -0.01549,0.01599 -0.01549,0.01 z m -9.967065,-0.0282 -0.01387,-0.01639 0.01639,0.01387 c 0.0154,0.01304 0.0197,0.0189 0.01387,0.0189 -0.0014,0 -0.0088,-0.0074 -0.01639,-0.01639 z m -0.302469,-0.302232 c -0.0091,-0.01155 -0.0088,-0.01181 0.0027,-0.0027 0.007,0.0055 0.01275,0.01123 0.01275,0.01274 0,0.006 -0.006,0.0021 -0.01549,-0.01 z m 10.604538,-0.0046 c 0,-0.0015 0.0057,-0.0072 0.01274,-0.01274 0.01155,-0.0091 0.01181,-0.0088 0.0027,0.0027 -0.0095,0.01213 -0.01549,0.01599 -0.01549,0.01 z m -2.796556,-2.329992 c 0,-0.0013 0.01065,-0.0119 0.02367,-0.02367 l 0.02367,-0.02139 -0.02139,0.02367 c -0.01994,0.02206 -0.02595,0.02702 -0.02595,0.02139 z m -5.043612,-0.03596 -0.02879,-0.03095 0.03095,0.02879 c 0.01702,0.01583 0.03095,0.02976 0.03095,0.03095 0,0.0055 -0.0063,-3e-6 -0.03312,-0.02879 z m -0.07613,-0.07465 c -0.01769,-0.01802 -0.03052,-0.03277 -0.02852,-0.03277 0.002,0 0.01811,0.01475 0.0358,0.03277 0.01769,0.01803 0.03052,0.03277 0.02852,0.03277 -0.002,0 -0.01811,-0.01475 -0.0358,-0.03277 z m 5.228978,0.0014 c 0,-0.0013 0.01065,-0.0119 0.02367,-0.02367 l 0.02367,-0.02139 -0.02139,0.02367 c -0.01994,0.02206 -0.02595,0.02702 -0.02595,0.02139 z M 8.7251645,19.990428 c 3.625e-4,-0.0085 0.00208,-0.01021 0.0044,-0.0044 0.0021,0.0053 0.00184,0.01154 -5.748e-4,0.01396 -0.00242,0.0024 -0.00414,-0.0019 -0.00383,-0.0096 z M 19.641929,19.830209 c 3.63e-4,-0.0085 0.0021,-0.01021 0.0044,-0.0044 0.0021,0.0053 0.0018,0.01154 -5.75e-4,0.01396 -0.0024,0.0024 -0.0041,-0.0019 -0.0038,-0.0096 z m -7.282698,-0.0073 c 3.63e-4,-0.0085 0.0021,-0.01021 0.0044,-0.0044 0.0021,0.0053 0.0018,0.01154 -5.75e-4,0.01396 -0.0024,0.0024 -0.0041,-0.0019 -0.0038,-0.0096 z m -3.6400878,-0.06494 c 1.036e-4,-0.01602 0.00157,-0.02172 0.00331,-0.01266 0.00174,0.0091 0.00168,0.02217 -1.553e-4,0.02913 -0.00182,0.007 -0.00325,-4.51e-4 -0.00317,-0.01647 z m 14.5582618,-0.01092 c 0,-0.01802 0.0014,-0.0254 0.0032,-0.01639 0.0017,0.009 0.0017,0.02376 0,0.03277 -0.0017,0.009 -0.0032,0.0016 -0.0032,-0.01639 z M 10.53434,14.175803 c 1.001365,-1.001371 1.822302,-1.820675 1.824305,-1.820675 0.002,0 -0.815657,0.819304 -1.817022,1.820675 -1.0013652,1.001371 -1.8223027,1.820674 -1.8243051,1.820674 -0.002,0 0.8156571,-0.819303 1.8170221,-1.820674 z"
     style="fill:#434343;stroke-width:0.0072827" />
  <path
     inkscape:connector-curvature="0"
     id="path850-6"
     d="m 15.706876,26.915702 c 0.005,-0.002 0.0132,-0.002 0.01821,0 0.005,0.002 9.12e-4,0.0037 -0.0091,0.0037 -0.01001,0 -0.01411,-0.0017 -0.0091,-0.0037 z m 0.575334,0 c 0.005,-0.002 0.0132,-0.002 0.01821,0 0.005,0.002 9.11e-4,0.0037 -0.0091,0.0037 -0.01001,0 -0.01411,-0.0017 -0.0091,-0.0037 z m -0.720987,-0.0073 c 0.005,-0.002 0.0132,-0.002 0.01821,0 0.005,0.002 9.12e-4,0.0037 -0.0091,0.0037 -0.01001,0 -0.01411,-0.0017 -0.0091,-0.0037 z m 0.866641,0 c 0.005,-0.002 0.0132,-0.002 0.01821,0 0.005,0.002 9.12e-4,0.0037 -0.0091,0.0037 -0.01001,0 -0.01411,-0.0017 -0.0091,-0.0037 z m -0.975426,-0.0074 c 0.0053,-0.0021 0.01154,-0.0018 0.01396,5.75e-4 0.0024,0.0024 -0.0019,0.0041 -0.0096,0.0038 -0.0085,-3.62e-4 -0.01021,-0.0021 -0.0044,-0.0044 z m 1.092404,0 c 0.0053,-0.0021 0.01154,-0.0018 0.01396,5.75e-4 0.0024,0.0024 -0.0019,0.0041 -0.0096,0.0038 -0.0085,-3.62e-4 -0.01021,-0.0021 -0.0044,-0.0044 z m 0.08739,-0.0073 c 0.0053,-0.0021 0.01154,-0.0018 0.01396,5.75e-4 0.0024,0.0024 -0.0019,0.0041 -0.0096,0.0038 -0.0085,-3.63e-4 -0.01021,-0.0021 -0.0044,-0.0044 z m -5.410608,-1.755617 c -0.0091,-0.01155 -0.0088,-0.01181 0.0027,-0.0027 0.007,0.0055 0.01275,0.01123 0.01275,0.01274 0,0.006 -0.006,0.0021 -0.01549,-0.01 z m -0.06554,-0.05826 c -0.0091,-0.01155 -0.0088,-0.01181 0.0027,-0.0028 0.007,0.0055 0.01275,0.01123 0.01275,0.01275 0,0.006 -0.006,0.0021 -0.01549,-0.01 z m 9.730614,-0.04098 c 0,-0.0015 0.0057,-0.0072 0.01274,-0.01274 0.01155,-0.0091 0.01181,-0.0088 0.0027,0.0027 -0.0095,0.01213 -0.0155,0.01599 -0.0155,0.01 z m -9.799563,-0.02092 -0.01387,-0.01639 0.01639,0.01387 c 0.0154,0.01304 0.0197,0.0189 0.01387,0.0189 -0.0014,0 -0.0088,-0.0074 -0.01639,-0.01639 z m 9.905162,-0.07829 c 0.0073,-0.008 0.01482,-0.01456 0.01682,-0.01456 0.002,0 -0.0023,0.0066 -0.0095,0.01456 -0.0072,0.008 -0.01482,0.01457 -0.01682,0.01457 -0.002,0 0.0023,-0.0066 0.0095,-0.01457 z m -10.01062,-0.02003 -0.01766,-0.02003 0.02003,0.01766 c 0.01102,0.0097 0.02003,0.01872 0.02003,0.02003 0,0.0057 -0.0059,0.0011 -0.0224,-0.01766 z m -0.273242,-0.273102 -0.01387,-0.01639 0.01639,0.01387 c 0.0154,0.01304 0.0197,0.0189 0.01387,0.0189 -0.0014,0 -0.0088,-0.0074 -0.01639,-0.01639 z m 10.589735,-0.01274 c 0.0072,-0.008 0.01482,-0.01457 0.01682,-0.01457 0.002,0 -0.0023,0.0066 -0.0095,0.01457 -0.0073,0.008 -0.01482,0.01457 -0.01682,0.01457 -0.002,0 0.0023,-0.0066 0.0095,-0.01457 z m -10.68441,-0.08921 -0.01387,-0.01639 0.01639,0.01387 c 0.0154,0.01304 0.0197,0.0189 0.01387,0.0189 -0.0014,0 -0.0088,-0.0074 -0.01639,-0.01639 z m 10.768162,-9.27e-4 c 0,-0.0015 0.0057,-0.0072 0.01274,-0.01274 0.01155,-0.0091 0.01181,-0.0088 0.0028,0.0027 -0.0095,0.01213 -0.0155,0.01599 -0.0155,0.01 z m 0.116523,-0.131089 c 0,-0.0015 0.0057,-0.0072 0.01274,-0.01274 0.01155,-0.0091 0.01181,-0.0088 0.0027,0.0027 -0.0095,0.01213 -0.01549,0.01599 -0.01549,0.01 z M 15.95053,23.281073 c 0.02686,-0.0014 0.07274,-0.0014 0.101958,0 0.02922,0.0014 0.0072,0.0025 -0.04884,0.0025 -0.05608,0 -0.07998,-0.0011 -0.05312,-0.0025 z m -0.192218,-0.0069 c 0.0053,-0.0021 0.01154,-0.0018 0.01396,5.75e-4 0.0024,0.0024 -0.0019,0.0041 -0.0096,0.0038 -0.0085,-3.63e-4 -0.01021,-0.0021 -0.0044,-0.0044 z m 0.480659,0 c 0.0053,-0.0021 0.01154,-0.0018 0.01396,5.75e-4 0.0024,0.0024 -0.0019,0.0041 -0.0096,0.0038 -0.0085,-3.63e-4 -0.01021,-0.0021 -0.0044,-0.0044 z m 2.164327,-0.893547 c 0,-0.0015 0.0057,-0.0072 0.01274,-0.01274 0.01155,-0.0091 0.01181,-0.0088 0.0028,0.0027 -0.0095,0.01213 -0.0155,0.01599 -0.0155,0.01 z m -4.822076,-0.01728 c -0.0091,-0.01155 -0.0088,-0.01181 0.0027,-0.0027 0.01213,0.0095 0.01599,0.01549 0.01,0.01549 -0.0015,0 -0.0072,-0.0057 -0.01274,-0.01274 z m 4.91311,-0.06736 c 0.0072,-0.008 0.01482,-0.01457 0.01682,-0.01457 0.002,0 -0.0023,0.0066 -0.0095,0.01457 -0.0073,0.008 -0.01482,0.01456 -0.01682,0.01456 -0.002,0 0.0023,-0.0066 0.0095,-0.01456 z m -5.003673,-0.01639 -0.02139,-0.02367 0.02367,0.02139 c 0.02206,0.01994 0.02702,0.02595 0.02139,0.02595 -0.0013,0 -0.0119,-0.01065 -0.02367,-0.02367 z m -0.131088,-0.131089 -0.02139,-0.02367 0.02367,0.02139 c 0.02206,0.01994 0.02702,0.02595 0.02139,0.02595 -0.0013,0 -0.01191,-0.01065 -0.02367,-0.02367 z m 5.29498,-0.01275 c 0.0072,-0.008 0.01482,-0.01456 0.01682,-0.01456 0.002,0 -0.0023,0.0066 -0.0095,0.01456 -0.0073,0.008 -0.01482,0.01457 -0.01682,0.01457 -0.002,0 0.0023,-0.0066 0.0095,-0.01457 z m -5.379202,-0.07829 c -0.0091,-0.01155 -0.0088,-0.01181 0.0027,-0.0027 0.007,0.0055 0.01275,0.01123 0.01275,0.01274 0,0.006 -0.006,0.0021 -0.01549,-0.01 z M 8.7324473,20.187064 c 3.625e-4,-0.0085 0.00208,-0.01021 0.0044,-0.0044 0.0021,0.0053 0.00184,0.01154 -5.748e-4,0.01396 -0.00242,0.0024 -0.00414,-0.0019 -0.00383,-0.0096 z m 14.5289827,0 c 3.63e-4,-0.0085 0.0021,-0.01021 0.0044,-0.0044 0.0021,0.0053 0.0018,0.01154 -5.75e-4,0.01396 -0.0024,0.0024 -0.0041,-0.0019 -0.0038,-0.0096 z M 8.7251645,20.077823 c 3.625e-4,-0.0085 0.00208,-0.01021 0.0044,-0.0044 0.0021,0.0053 0.00184,0.01154 -5.748e-4,0.01396 -0.00242,0.0024 -0.00414,-0.0019 -0.00383,-0.0096 z m 14.5441235,-0.003 c 0,-0.01001 0.0017,-0.01411 0.0037,-0.0091 0.002,0.005 0.002,0.0132 0,0.01821 -0.002,0.005 -0.0037,9.12e-4 -0.0037,-0.0091 z m -3.641924,-0.106206 c 3.62e-4,-0.0085 0.0021,-0.01021 0.0044,-0.0044 0.0021,0.0053 0.0018,0.01154 -5.74e-4,0.01396 -0.0024,0.0024 -0.0041,-0.0019 -0.0038,-0.0096 z M 8.7187264,19.932776 c 1.553e-4,-0.01202 0.00178,-0.01605 0.00363,-0.009 0.00185,0.0071 0.00172,0.01692 -2.589e-4,0.02185 -0.00199,0.0049 -0.00351,-8.65e-4 -0.00336,-0.01288 z m 14.5581136,-0.0073 c 1.56e-4,-0.01202 0.0018,-0.01605 0.0036,-0.009 0.0018,0.0071 0.0017,0.01692 -2.58e-4,0.02185 -0.002,0.0049 -0.0035,-8.65e-4 -0.0034,-0.01288 z m -3.642193,-0.05158 c 3.62e-4,-0.0085 0.0021,-0.01021 0.0044,-0.0044 0.0021,0.0053 0.0018,0.01154 -5.75e-4,0.01396 -0.0024,0.0024 -0.0041,-0.0019 -0.0038,-0.0096 z m -7.268134,-0.0073 c 3.63e-4,-0.0085 0.0021,-0.01021 0.0044,-0.0044 0.0021,0.0053 0.0018,0.01154 -5.75e-4,0.01396 -0.0024,0.0024 -0.0041,-0.0019 -0.0038,-0.0096 z m 7.277024,-0.185102 c 0,-0.02203 0.0014,-0.03104 0.003,-0.02003 0.0017,0.01102 0.0017,0.02904 0,0.04006 -0.0017,0.01102 -0.003,0.002 -0.003,-0.02003 z m -7.281296,-1.838881 c 0,-1.013388 8.44e-4,-1.426873 0.0019,-0.918856 10e-4,0.508018 10e-4,1.337153 0,1.842523 -10e-4,0.505371 -0.0019,0.08972 -0.0019,-0.923667 z M 12.36047,8.7210669 12.358657,5.0833647 10.536162,6.9040318 8.7136672,8.7246995 10.53586,6.9006898 c 1.002206,-1.0032054 1.82397,-1.8222321 1.826144,-1.8200588 0.0022,0.00217 0.0031,1.640643 0.0021,3.6410449 l -0.0018,3.6370941 z"
     style="fill:#c7c7c7;stroke-width:0.0072827" />
  <path
     inkscape:connector-curvature="0"
     id="path848-7"
     d="m 14.175688,15.998298 5.462024,-0.0018 1.815219,-1.815208 1.815218,-1.815208 -5.456567,-0.0036 -5.456568,-0.0036 5.465661,-0.0018 5.465659,-0.0018 -1.824305,1.824316 -1.824305,1.824316 -5.462029,-0.0018 -5.4620294,-0.0018 z"
     style="fill:#b5b5b5;stroke-width:0.0072827" />
  <path
     inkscape:connector-curvature="0"
     id="path846-5"
     d="m 15.747031,26.915299 c 0.01107,-0.0017 0.02746,-0.0016 0.03641,1.04e-4 0.009,0.0017 -1.03e-4,0.0031 -0.02013,0.003 -0.02003,-5.2e-5 -0.02736,-0.0015 -0.01629,-0.0031 z m 0.480658,0 c 0.01107,-0.0017 0.02746,-0.0016 0.03641,1.04e-4 0.009,0.0017 -1.04e-4,0.0031 -0.02013,0.003 -0.02003,-5.2e-5 -0.02736,-0.0015 -0.01629,-0.0031 z m -0.637336,-0.0069 c 0.005,-0.002 0.0132,-0.002 0.01821,0 0.005,0.002 9.12e-4,0.0037 -0.0091,0.0037 -0.01001,0 -0.01411,-0.0017 -0.0091,-0.0037 z m 0.80838,0 c 0.005,-0.002 0.0132,-0.002 0.01821,0 0.005,0.002 9.11e-4,0.0037 -0.0091,0.0037 -0.01001,0 -0.01411,-0.0017 -0.0091,-0.0037 z m -0.924903,-0.0073 c 0.005,-0.002 0.0132,-0.002 0.01821,0 0.005,0.002 9.11e-4,0.0037 -0.0091,0.0037 -0.01001,0 -0.01411,-0.0017 -0.0091,-0.0037 z m 1.041426,0 c 0.005,-0.002 0.0132,-0.002 0.01821,0 0.005,0.002 9.11e-4,0.0037 -0.0091,0.0037 -0.01001,0 -0.01411,-0.0017 -0.0091,-0.0037 z m -1.135646,-0.0074 c 0.0053,-0.0021 0.01154,-0.0018 0.01396,5.75e-4 0.0024,0.0024 -0.0019,0.0041 -0.0096,0.0038 -0.0085,-3.63e-4 -0.01021,-0.0021 -0.0044,-0.0044 z m 1.230776,0 c 0.0053,-0.0021 0.01154,-0.0018 0.01396,5.75e-4 0.0024,0.0024 -0.0019,0.0041 -0.0096,0.0038 -0.0085,-3.63e-4 -0.01021,-0.0021 -0.0044,-0.0044 z m 0.08739,-0.0073 c 0.0053,-0.0021 0.01154,-0.0018 0.01396,5.75e-4 0.0024,0.0024 -0.0019,0.0041 -0.0096,0.0038 -0.0085,-3.63e-4 -0.01021,-0.0021 -0.0044,-0.0044 z m -1.536649,-0.01457 c 0.0053,-0.0021 0.01154,-0.0018 0.01396,5.75e-4 0.0024,0.0024 -0.0019,0.0041 -0.0096,0.0038 -0.0085,-3.63e-4 -0.01021,-0.0021 -0.0044,-0.0044 z m 5.609043,-1.731057 c 0,-0.0015 0.0057,-0.0072 0.01274,-0.01274 0.01155,-0.0091 0.01181,-0.0088 0.0027,0.0027 -0.0095,0.01213 -0.0155,0.01599 -0.0155,0.01 z m 0.06554,-0.05826 c 0,-0.0015 0.0057,-0.0072 0.01275,-0.01274 0.01155,-0.0091 0.01181,-0.0088 0.0027,0.0027 -0.0095,0.01213 -0.01549,0.01599 -0.01549,0.01 z m 0.07283,-0.06554 c 0,-0.0015 0.0057,-0.0072 0.01275,-0.01275 0.01155,-0.0091 0.01181,-0.0088 0.0027,0.0028 -0.0095,0.01213 -0.0155,0.01599 -0.0155,0.01 z m -9.850541,-0.0282 -0.01387,-0.01639 0.01639,0.01387 c 0.009,0.0076 0.01639,0.015 0.01639,0.01639 0,0.0058 -0.0059,0.0015 -0.0189,-0.01387 z m 9.977988,-0.09286 c 0.01564,-0.01602 0.03008,-0.02913 0.03209,-0.02913 0.002,0 -0.0092,0.01311 -0.0248,0.02913 -0.01564,0.01602 -0.03008,0.02913 -0.03209,0.02913 -0.002,0 0.0092,-0.01311 0.0248,-0.02913 z m -10.112275,-0.03459 -0.03981,-0.04188 0.04187,0.03981 c 0.02303,0.02189 0.04188,0.04074 0.04188,0.04187 0,0.0054 -0.007,-9.01e-4 -0.04394,-0.03981 z m -0.16022,-0.160219 -0.03981,-0.04188 0.04188,0.03981 c 0.02303,0.02189 0.04188,0.04074 0.04188,0.04188 0,0.0054 -0.007,-9.01e-4 -0.04395,-0.03981 z m 10.490976,-0.02367 c 0.01564,-0.01602 0.03008,-0.02913 0.03209,-0.02913 0.002,0 -0.0092,0.01311 -0.0248,0.02913 -0.01564,0.01602 -0.03008,0.02913 -0.03209,0.02913 -0.002,0 0.0092,-0.01311 0.0248,-0.02913 z M 10.63901,24.570034 c -0.0091,-0.01155 -0.0088,-0.01181 0.0027,-0.0027 0.007,0.0055 0.01275,0.01123 0.01275,0.01275 0,0.006 -0.006,0.0021 -0.01549,-0.01 z m 10.721061,-0.0046 c 0,-0.0015 0.0057,-0.0072 0.01274,-0.01274 0.01155,-0.0091 0.01181,-0.0088 0.0027,0.0027 -0.0095,0.01213 -0.01549,0.01599 -0.01549,0.01 z m -10.793888,-0.07554 c -0.0091,-0.01155 -0.0088,-0.01181 0.0027,-0.0028 0.01213,0.0095 0.01599,0.0155 0.01,0.0155 -0.0015,0 -0.0072,-0.0057 -0.01274,-0.01274 z m 10.859433,0.0027 c 0,-0.0015 0.0057,-0.0072 0.01274,-0.01274 0.01155,-0.0091 0.01181,-0.0088 0.0027,0.0027 -0.0095,0.01213 -0.01549,0.01599 -0.01549,0.01 z M 10.507921,24.42438 c -0.0091,-0.01155 -0.0088,-0.01181 0.0028,-0.0027 0.007,0.0055 0.01274,0.01123 0.01274,0.01274 0,0.006 -0.006,0.0021 -0.01549,-0.01 z m 5.35926,-1.143073 c 0.0091,-0.0017 0.02217,-0.0017 0.02913,1.56e-4 0.007,0.0018 -4.66e-4,0.0032 -0.01647,0.0032 -0.01602,-1.04e-4 -0.02172,-0.0016 -0.01266,-0.0033 z m 0.247612,0 c 0.0091,-0.0017 0.02217,-0.0017 0.02913,1.56e-4 0.007,0.0018 -4.66e-4,0.0032 -0.01647,0.0032 -0.01602,-1.04e-4 -0.02172,-0.0016 -0.01266,-0.0033 z m -0.386068,-0.007 c 0.005,-0.002 0.0132,-0.002 0.01821,0 0.005,0.002 9.12e-4,0.0037 -0.0091,0.0037 -0.01001,0 -0.01411,-0.0017 -0.0091,-0.0037 z m 0.531637,0 c 0.005,-0.002 0.0132,-0.002 0.01821,0 0.005,0.002 9.12e-4,0.0037 -0.0091,0.0037 -0.01001,0 -0.01411,-0.0017 -0.0091,-0.0037 z m -0.611292,-0.0074 c 0.0053,-0.0021 0.01154,-0.0018 0.01396,5.75e-4 0.0024,0.0024 -0.0019,0.0041 -0.0096,0.0038 -0.0085,-3.62e-4 -0.01021,-0.0021 -0.0044,-0.0044 z m 0.699139,0 c 0.0053,-0.0021 0.01154,-0.0018 0.01396,5.75e-4 0.0024,0.0024 -0.0019,0.0041 -0.0096,0.0038 -0.0085,-3.62e-4 -0.01021,-0.0021 -0.0044,-0.0044 z m 2.116989,-0.941775 c 0.0073,-0.008 0.01482,-0.01457 0.01682,-0.01457 0.002,0 -0.0023,0.0066 -0.0095,0.01457 -0.0072,0.008 -0.01482,0.01457 -0.01682,0.01457 -0.002,0 0.0023,-0.0066 0.0095,-0.01457 z m -4.938361,-0.0091 -0.01387,-0.01639 0.01639,0.01387 c 0.0154,0.01304 0.0197,0.0189 0.01387,0.0189 -0.0014,0 -0.0088,-0.0074 -0.01639,-0.01639 z m -0.200511,-0.200274 c -0.0091,-0.01155 -0.0088,-0.01181 0.0027,-0.0027 0.007,0.0055 0.01275,0.01123 0.01275,0.01274 0,0.006 -0.006,0.0021 -0.01549,-0.01 z m 5.357353,-0.0091 c 0.0072,-0.008 0.01482,-0.01457 0.01682,-0.01457 0.002,0 -0.0023,0.0066 -0.0095,0.01457 -0.0072,0.008 -0.01482,0.01457 -0.01682,0.01457 -0.002,0 0.0023,-0.0066 0.0095,-0.01457 z m 0.05462,-0.06101 c 0,-0.0015 0.0057,-0.0072 0.01274,-0.01274 0.01155,-0.0091 0.01181,-0.0088 0.0027,0.0027 -0.0095,0.01213 -0.01549,0.01599 -0.01549,0.01 z m 4.493999,-1.567278 c 3.63e-4,-0.0085 0.0021,-0.01021 0.0044,-0.0044 0.0021,0.0053 0.0018,0.01154 -5.75e-4,0.01396 -0.0024,0.0024 -0.0041,-0.0019 -0.0038,-0.0096 z M 8.7542951,20.412827 c 3.625e-4,-0.0085 0.00208,-0.01021 0.0044,-0.0044 0.0021,0.0053 0.00184,0.01154 -5.748e-4,0.01396 -0.00242,0.0024 -0.00414,-0.0019 -0.00383,-0.0096 z m -0.00728,-0.07283 c 3.625e-4,-0.0085 0.00208,-0.01021 0.0044,-0.0044 0.0021,0.0053 0.00184,0.01154 -5.748e-4,0.01396 -0.00242,0.0024 -0.00414,-0.0019 -0.00383,-0.0096 z m 14.4998529,0 c 3.62e-4,-0.0085 0.0021,-0.01021 0.0044,-0.0044 0.0021,0.0053 0.0018,0.01154 -5.74e-4,0.01396 -0.0024,0.0024 -0.0041,-0.0019 -0.0038,-0.0096 z M 8.7397296,20.259891 c 3.624e-4,-0.0085 0.00208,-0.01021 0.0044,-0.0044 0.0021,0.0053 0.00184,0.01154 -5.748e-4,0.01396 -0.00242,0.0024 -0.00414,-0.0019 -0.00383,-0.0096 z m 14.5144184,0 c 3.62e-4,-0.0085 0.0021,-0.01021 0.0044,-0.0044 0.0021,0.0053 0.0018,0.01154 -5.75e-4,0.01396 -0.0024,0.0024 -0.0041,-0.0019 -0.0038,-0.0096 z M 8.7324473,20.165216 c 3.625e-4,-0.0085 0.00208,-0.01021 0.0044,-0.0044 0.0021,0.0053 0.00184,0.01154 -5.748e-4,0.01396 -0.00242,0.0024 -0.00414,-0.0019 -0.00383,-0.0096 z m 14.5295587,-0.003 c 0,-0.01001 0.0017,-0.01411 0.0037,-0.0091 0.002,0.005 0.002,0.0132 0,0.01821 -0.002,0.005 -0.0037,9.11e-4 -0.0037,-0.0091 z M 8.7260091,20.0493 c 1.554e-4,-0.01202 0.00178,-0.01605 0.00362,-0.009 0.00185,0.0071 0.00172,0.01692 -2.589e-4,0.02185 -0.00199,0.0049 -0.00351,-8.65e-4 -0.00336,-0.01288 z M 23.269288,20.0457 c 0,-0.01001 0.0017,-0.01411 0.0037,-0.0091 0.002,0.005 0.002,0.0132 0,0.01821 -0.002,0.005 -0.0037,9.11e-4 -0.0037,-0.0091 z M 12.373796,19.98315 c 3.63e-4,-0.0085 0.0021,-0.01021 0.0044,-0.0044 0.0021,0.0053 0.0018,0.01154 -5.75e-4,0.01396 -0.0024,0.0024 -0.0041,-0.0019 -0.0038,-0.0096 z M 8.7192903,19.88544 c 0,-0.01802 0.00142,-0.0254 0.00316,-0.01639 0.00173,0.009 0.00173,0.02376 0,0.03277 -0.00173,0.009 -0.00316,0.0016 -0.00316,-0.01639 z m 10.9159317,0.01457 c 0,-0.01001 0.0017,-0.01411 0.0037,-0.0091 0.002,0.005 0.002,0.0132 0,0.01821 -0.002,0.005 -0.0037,9.11e-4 -0.0037,-0.0091 z m -7.268133,-0.0073 c 0,-0.01001 0.0017,-0.01411 0.0037,-0.0091 0.002,0.005 0.002,0.0132 0,0.01821 -0.002,0.005 -0.0037,9.12e-4 -0.0037,-0.0091 z m 10.910316,-0.01457 c 0,-0.01802 0.0014,-0.0254 0.0032,-0.01639 0.0017,0.009 0.0017,0.02376 0,0.03277 -0.0017,0.009 -0.0032,0.0016 -0.0032,-0.01639 z m -3.634067,-0.131088 c 0,-0.01803 0.0014,-0.0254 0.0032,-0.01639 0.0017,0.009 0.0017,0.02376 0,0.03277 -0.0017,0.009 -0.0032,0.0016 -0.0032,-0.01639 z m -7.282351,-0.02185 c 0,-0.02604 0.0013,-0.03669 0.0029,-0.02367 0.0016,0.01302 0.0016,0.03432 0,0.04734 -0.0016,0.01302 -0.0029,0.0024 -0.0029,-0.02367 z m 8.196752,-0.08557 c 0.502009,-10e-4 1.321313,-10e-4 1.820675,0 0.499362,0.001 0.08863,0.0019 -0.912744,0.0019 -1.00137,0 -1.409939,-8.45e-4 -0.907931,-0.0019 z"
     style="fill:#a6a6a6;stroke-width:0.0072827" />
  <path
     inkscape:connector-curvature="0"
     id="path844-3"
     d="m 10.537981,14.179444 1.817023,-1.817033 h 5.458382 5.458383 l -1.817023,1.817033 -1.817022,1.817033 H 14.179342 8.7209587 Z"
     style="fill:#888888;stroke-width:0.0072827" />
  <path
     inkscape:connector-curvature="0"
     id="path842-5"
     d="m 15.816247,26.915247 c 0.01309,-0.0016 0.03275,-0.0016 0.0437,5.2e-5 0.01094,0.0017 2.59e-4,0.003 -0.0238,0.0029 -0.02403,-5.2e-5 -0.03299,-0.0014 -0.0199,-0.003 z m 0.335004,0 c 0.01309,-0.0016 0.03275,-0.0016 0.0437,5.2e-5 0.01094,0.0017 2.58e-4,0.003 -0.0238,0.0029 -0.02403,-5.2e-5 -0.03299,-0.0014 -0.0199,-0.003 z m -0.527987,-0.0071 c 0.0071,-0.0018 0.01692,-0.0017 0.02185,2.59e-4 0.0049,0.002 -8.65e-4,0.0035 -0.01288,0.0034 -0.01202,-1.55e-4 -0.01605,-0.0018 -0.009,-0.0036 z m 0.742835,0 c 0.0071,-0.0018 0.01692,-0.0017 0.02185,2.59e-4 0.0049,0.002 -8.64e-4,0.0035 -0.01288,0.0034 -0.01202,-1.55e-4 -0.01605,-0.0018 -0.009,-0.0036 z m -0.862683,-0.0072 c 0.0053,-0.0021 0.01154,-0.0018 0.01396,5.75e-4 0.0024,0.0024 -0.0019,0.0041 -0.0096,0.0038 -0.0085,-3.62e-4 -0.01021,-0.0021 -0.0044,-0.0044 z m 0.990447,0 c 0.0053,-0.0021 0.01154,-0.0018 0.01396,5.75e-4 0.0024,0.0024 -0.0019,0.0041 -0.0096,0.0038 -0.0085,-3.62e-4 -0.01021,-0.0021 -0.0044,-0.0044 z m -1.092405,-0.0073 c 0.0053,-0.0021 0.01154,-0.0018 0.01396,5.75e-4 0.0024,0.0024 -0.0019,0.0041 -0.0096,0.0038 -0.0085,-3.63e-4 -0.01021,-0.0021 -0.0044,-0.0044 z m -0.08011,-0.0073 c 0.0053,-0.0021 0.01154,-0.0018 0.01396,5.75e-4 0.0024,0.0024 -0.0019,0.0041 -0.0096,0.0038 -0.0085,-3.63e-4 -0.01021,-0.0021 -0.0044,-0.0044 z m -0.203916,-0.02185 c 0.0053,-0.0021 0.01154,-0.0018 0.01396,5.74e-4 0.0024,0.0024 -0.0019,0.0041 -0.0096,0.0038 -0.0085,-3.62e-4 -0.01021,-0.0021 -0.0044,-0.0044 z m -3.93222,-1.762901 c -0.0091,-0.01155 -0.0088,-0.01181 0.0027,-0.0027 0.007,0.0055 0.01274,0.01123 0.01274,0.01274 0,0.006 -0.006,0.0021 -0.01549,-0.01 z m -0.06554,-0.05826 c -0.0091,-0.01155 -0.0088,-0.01181 0.0027,-0.0028 0.007,0.0055 0.01274,0.01123 0.01274,0.01275 0,0.006 -0.006,0.0021 -0.01549,-0.01 z m 9.825289,-0.06372 c 0.0094,-0.01001 0.01874,-0.01821 0.02075,-0.01821 0.002,0 -0.0041,0.0082 -0.01346,0.01821 -0.0094,0.01001 -0.01874,0.01821 -0.02074,0.01821 -0.002,0 0.0041,-0.0082 0.01346,-0.01821 z m -9.916086,-0.02003 -0.01387,-0.01639 0.01639,0.01387 c 0.0154,0.01304 0.0197,0.0189 0.01387,0.0189 -0.0014,0 -0.0088,-0.0074 -0.01639,-0.01639 z m 10.116361,-0.172964 c 0.04392,-0.04406 0.0815,-0.08011 0.0835,-0.08011 0.002,0 -0.0323,0.03605 -0.07622,0.08011 -0.04392,0.04406 -0.0815,0.08011 -0.0835,0.08011 -0.002,0 0.0323,-0.03605 0.07622,-0.08011 z m -10.301626,-0.0055 -0.03981,-0.04188 0.04188,0.03981 c 0.0389,0.03698 0.04521,0.04395 0.03981,0.04395 -0.0011,0 -0.01998,-0.01884 -0.04188,-0.04188 z m -0.175087,-0.182067 -0.01766,-0.02003 0.02003,0.01766 c 0.01102,0.0097 0.02003,0.01872 0.02003,0.02003 0,0.0057 -0.0059,0.0011 -0.0224,-0.01766 z m 10.669704,-0.01274 c 0.0094,-0.01001 0.01874,-0.01821 0.02075,-0.01821 0.002,0 -0.0041,0.0082 -0.01346,0.01821 -0.0094,0.01001 -0.01874,0.01821 -0.02075,0.01821 -0.002,0 0.0041,-0.0082 0.01346,-0.01821 z m -5.518465,-1.304982 c 0.007,-0.0018 0.01848,-0.0018 0.02549,0 0.007,0.0018 0.0013,0.0033 -0.01274,0.0033 -0.01402,0 -0.01975,-0.0015 -0.01275,-0.0033 z m 0.342287,0 c 0.007,-0.0018 0.01848,-0.0018 0.02549,0 0.007,0.0018 0.0013,0.0033 -0.01274,0.0033 -0.01402,0 -0.01975,-0.0015 -0.01275,-0.0033 z m 0.127903,-0.0072 c 0.0053,-0.0021 0.01154,-0.0018 0.01396,5.75e-4 0.0024,0.0024 -0.0019,0.0041 -0.0096,0.0038 -0.0085,-3.63e-4 -0.01021,-0.0021 -0.0044,-0.0044 z m -0.662726,-0.0073 c 0.0053,-0.0021 0.01154,-0.0018 0.01396,5.75e-4 0.0024,0.0024 -0.0019,0.0041 -0.0096,0.0038 -0.0085,-3.63e-4 -0.01021,-0.0021 -0.0044,-0.0044 z m 0.742835,0 c 0.0053,-0.0021 0.01154,-0.0018 0.01396,5.75e-4 0.0024,0.0024 -0.0019,0.0041 -0.0096,0.0038 -0.0085,-3.63e-4 -0.01021,-0.0021 -0.0044,-0.0044 z m -2.817968,-0.92539 c -0.0091,-0.01155 -0.0088,-0.01181 0.0027,-0.0027 0.01213,0.0095 0.01599,0.01549 0.01,0.01549 -0.0015,0 -0.0072,-0.0057 -0.01274,-0.01274 z m 5.025687,-0.120164 c 0.01786,-0.01903 0.03342,-0.03459 0.03459,-0.03459 0.0055,0 -3.11e-4,0.0065 -0.03247,0.03672 l -0.03459,0.03247 z m -5.276702,-0.131088 -0.01387,-0.01639 0.01639,0.01387 c 0.0154,0.01304 0.0197,0.0189 0.01387,0.0189 -0.0014,0 -0.0088,-0.0074 -0.01639,-0.01639 z M 8.7615778,20.463807 c 3.625e-4,-0.0085 0.00208,-0.01021 0.0044,-0.0044 0.0021,0.0053 0.00184,0.01154 -5.748e-4,0.01396 -0.00242,0.0024 -0.00414,-0.0019 -0.00383,-0.0096 z M 23.246865,20.318152 c 3.62e-4,-0.0085 0.0021,-0.01021 0.0044,-0.0044 0.0021,0.0053 0.0018,0.01154 -5.74e-4,0.01396 -0.0024,0.0024 -0.0041,-0.0019 -0.0038,-0.0096 z M 8.7397296,20.238042 c 3.624e-4,-0.0085 0.00208,-0.01021 0.0044,-0.0044 0.0021,0.0053 0.00184,0.01154 -5.748e-4,0.01396 -0.00242,0.0024 -0.00414,-0.0019 -0.00383,-0.0096 z m 14.5144184,0 c 3.62e-4,-0.0085 0.0021,-0.01021 0.0044,-0.0044 0.0021,0.0053 0.0018,0.01154 -5.75e-4,0.01396 -0.0024,0.0024 -0.0041,-0.0019 -0.0038,-0.0096 z M 8.7330221,20.140333 c 0,-0.01001 0.00165,-0.01411 0.00367,-0.0091 0.00202,0.005 0.00202,0.0132 0,0.01821 -0.00202,0.005 -0.00367,9.11e-4 -0.00367,-0.0091 z m 14.5284079,-0.0042 c 3.63e-4,-0.0085 0.0021,-0.01021 0.0044,-0.0044 0.0021,0.0053 0.0018,0.01154 -5.75e-4,0.01396 -0.0024,0.0024 -0.0041,-0.0019 -0.0038,-0.0096 z M 8.7257393,20.016529 c 0,-0.01001 0.00165,-0.01411 0.00367,-0.0091 0.00202,0.005 0.00202,0.0132 0,0.01821 -0.00202,0.005 -0.00367,9.11e-4 -0.00367,-0.0091 z m 14.5438187,-0.0036 c 1.55e-4,-0.01202 0.0018,-0.01605 0.0036,-0.009 0.0018,0.0071 0.0017,0.01692 -2.58e-4,0.02185 -0.002,0.0049 -0.0035,-8.65e-4 -0.0034,-0.01288 z m -3.642194,-0.0079 c 3.62e-4,-0.0085 0.0021,-0.01021 0.0044,-0.0044 0.0021,0.0053 0.0018,0.01154 -5.74e-4,0.01396 -0.0024,0.0024 -0.0041,-0.0019 -0.0038,-0.0096 z m 0.0073,-0.08011 c 3.62e-4,-0.0085 0.0021,-0.01021 0.0044,-0.0044 0.0021,0.0053 0.0018,0.01154 -5.75e-4,0.01396 -0.0024,0.0024 -0.0041,-0.0019 -0.0038,-0.0096 z m -7.268134,-0.0073 c 3.63e-4,-0.0085 0.0021,-0.01021 0.0044,-0.0044 0.0021,0.0053 0.0018,0.01154 -5.75e-4,0.01396 -0.0024,0.0024 -0.0041,-0.0019 -0.0038,-0.0096 z m -3.6470239,-0.09771 c 0,-0.02203 0.00137,-0.03104 0.00303,-0.02003 0.00167,0.01102 0.00167,0.02904 0,0.04006 -0.00167,0.01102 -0.00303,0.002 -0.00303,-0.02003 z m 14.5581149,-0.0073 c 0,-0.02203 0.0014,-0.03104 0.003,-0.02003 0.0017,0.01102 0.0017,0.02904 0,0.04005 -0.0017,0.01102 -0.003,0.002 -0.003,-0.02003 z m -3.63456,-0.01457 c 0,-0.01402 0.0015,-0.01975 0.0033,-0.01274 0.0018,0.007 0.0018,0.01848 0,0.02549 -0.0018,0.007 -0.0033,0.0013 -0.0033,-0.01275 z m -7.282699,-0.0073 c 0,-0.01402 0.0015,-0.01975 0.0033,-0.01274 0.0018,0.007 0.0018,0.01848 0,0.02549 -0.0018,0.007 -0.0033,0.0013 -0.0033,-0.01275 z"
     style="fill:#5f5f5f;stroke-width:0.0072827" />
  <path
     inkscape:connector-curvature="0"
     id="path840-6"
     d="m 15.881661,26.915702 c 0.005,-0.002 0.0132,-0.002 0.01821,0 0.005,0.002 9.12e-4,0.0037 -0.0091,0.0037 -0.01001,0 -0.01411,-0.0017 -0.0091,-0.0037 z m 0.225764,0 c 0.005,-0.002 0.0132,-0.002 0.01821,0 0.005,0.002 9.11e-4,0.0037 -0.0091,0.0037 -0.01001,0 -0.01411,-0.0017 -0.0091,-0.0037 z m 4.859381,-1.956973 c 0,-0.0015 0.0057,-0.0072 0.01274,-0.01274 0.01155,-0.0091 0.01181,-0.0088 0.0027,0.0027 -0.0095,0.01213 -0.01549,0.01599 -0.01549,0.01 z m -9.967065,-0.0282 -0.01387,-0.01639 0.01639,0.01387 c 0.0154,0.01304 0.0197,0.0189 0.01387,0.0189 -0.0014,0 -0.0088,-0.0074 -0.01639,-0.01639 z m -0.302469,-0.302232 c -0.0091,-0.01155 -0.0088,-0.01181 0.0027,-0.0027 0.007,0.0055 0.01275,0.01123 0.01275,0.01274 0,0.006 -0.006,0.0021 -0.01549,-0.01 z m 10.604538,-0.0046 c 0,-0.0015 0.0057,-0.0072 0.01274,-0.01274 0.01155,-0.0091 0.01181,-0.0088 0.0027,0.0027 -0.0095,0.01213 -0.01549,0.01599 -0.01549,0.01 z m -2.796556,-2.329992 c 0,-0.0013 0.01065,-0.0119 0.02367,-0.02367 l 0.02367,-0.02139 -0.02139,0.02367 c -0.01994,0.02206 -0.02595,0.02702 -0.02595,0.02139 z m -5.043612,-0.03596 -0.02879,-0.03095 0.03095,0.02879 c 0.01702,0.01583 0.03095,0.02976 0.03095,0.03095 0,0.0055 -0.0063,-3e-6 -0.03312,-0.02879 z m -0.07613,-0.07465 c -0.01769,-0.01802 -0.03052,-0.03277 -0.02852,-0.03277 0.002,0 0.01811,0.01475 0.0358,0.03277 0.01769,0.01803 0.03052,0.03277 0.02852,0.03277 -0.002,0 -0.01811,-0.01475 -0.0358,-0.03277 z m 5.228978,0.0014 c 0,-0.0013 0.01065,-0.0119 0.02367,-0.02367 l 0.02367,-0.02139 -0.02139,0.02367 c -0.01994,0.02206 -0.02595,0.02702 -0.02595,0.02139 z M 8.7251645,19.990428 c 3.625e-4,-0.0085 0.00208,-0.01021 0.0044,-0.0044 0.0021,0.0053 0.00184,0.01154 -5.748e-4,0.01396 -0.00242,0.0024 -0.00414,-0.0019 -0.00383,-0.0096 z M 19.641929,19.830209 c 3.63e-4,-0.0085 0.0021,-0.01021 0.0044,-0.0044 0.0021,0.0053 0.0018,0.01154 -5.75e-4,0.01396 -0.0024,0.0024 -0.0041,-0.0019 -0.0038,-0.0096 z m -7.282698,-0.0073 c 3.63e-4,-0.0085 0.0021,-0.01021 0.0044,-0.0044 0.0021,0.0053 0.0018,0.01154 -5.75e-4,0.01396 -0.0024,0.0024 -0.0041,-0.0019 -0.0038,-0.0096 z m -3.6400878,-0.06494 c 1.036e-4,-0.01602 0.00157,-0.02172 0.00331,-0.01266 0.00174,0.0091 0.00168,0.02217 -1.553e-4,0.02913 -0.00182,0.007 -0.00325,-4.51e-4 -0.00317,-0.01647 z m 14.5582618,-0.01092 c 0,-0.01802 0.0014,-0.0254 0.0032,-0.01639 0.0017,0.009 0.0017,0.02376 0,0.03277 -0.0017,0.009 -0.0032,0.0016 -0.0032,-0.01639 z M 10.53434,14.175803 c 1.001365,-1.001371 1.822302,-1.820675 1.824305,-1.820675 0.002,0 -0.815657,0.819304 -1.817022,1.820675 -1.0013652,1.001371 -1.8223027,1.820674 -1.8243051,1.820674 -0.002,0 0.8156571,-0.819303 1.8170221,-1.820674 z"
     style="fill:#434343;stroke-width:0.0072827" />
</svg>
