<?xml version="1.0" encoding="UTF-8" standalone="no"?>
<svg
   xmlns:dc="http://purl.org/dc/elements/1.1/"
   xmlns:cc="http://creativecommons.org/ns#"
   xmlns:rdf="http://www.w3.org/1999/02/22-rdf-syntax-ns#"
   xmlns:svg="http://www.w3.org/2000/svg"
   xmlns="http://www.w3.org/2000/svg"
   xmlns:sodipodi="http://sodipodi.sourceforge.net/DTD/sodipodi-0.dtd"
   xmlns:inkscape="http://www.inkscape.org/namespaces/inkscape"
   width="32"
   height="32"
   viewBox="0 0 32 32"
   id="svg2"
   version="1.1"
   inkscape:version="0.91 r13725"
   sodipodi:docname="dai.svg">
  <metadata
     id="metadata10">
    <rdf:RDF>
      <cc:Work
         rdf:about="">
        <dc:format>image/svg+xml</dc:format>
        <dc:type
           rdf:resource="http://purl.org/dc/dcmitype/StillImage" />
        <dc:title></dc:title>
      </cc:Work>
    </rdf:RDF>
  </metadata>
  <defs
     id="defs8" />
  <sodipodi:namedview
     pagecolor="#ffffff"
     bordercolor="#666666"
     borderopacity="1"
     objecttolerance="10"
     gridtolerance="10"
     guidetolerance="10"
     inkscape:pageopacity="0"
     inkscape:pageshadow="2"
     inkscape:window-width="1022"
     inkscape:window-height="730"
     id="namedview6"
     showgrid="false"
     inkscape:zoom="7.375"
     inkscape:cx="7.3935982"
     inkscape:cy="16.395967"
     inkscape:window-x="0"
     inkscape:window-y="18"
     inkscape:window-maximized="0"
     inkscape:current-layer="g3382" />
  <path
     d="M 16 0 C 7.163444 0 0 7.163444 0 16 C 0 24.836556 7.163444 32 16 32 C 24.836556 32 32 24.836556 32 16 C 32 7.163444 24.836556 0 16 0 z "
     id="path4" />
  <g
     id="g3382"
     transform="matrix(0.77647786,0,0,0.77647786,37.53516,7.0359425)">
    <rect
       style="opacity:1;fill:#f2f2f2;fill-opacity:1;stroke:none;stroke-width:8;stroke-miterlimit:4;stroke-dasharray:none;stroke-opacity:1"
       id="rect3400"
       width="15.537064"
       height="8.812067"
       x="-34.553253"
       y="-21.73138"
       transform="matrix(0.71099516,-0.7031969,0.7031969,0.71099516,0,0)" />
    <path
       style="fill:#d2d2d1"
       d="m -42.414842,31.397212 c 6.15e-4,-0.537717 0.02586,-0.740577 0.0561,-0.450802 0.03023,0.289776 0.02973,0.729727 -0.0011,0.977667 -0.03085,0.247942 -0.05559,0.01085 -0.05497,-0.526865 z m 8.635564,0.628501 c 0,-0.192042 0.0317,-0.270605 0.07045,-0.174584 0.03874,0.09602 0.03874,0.253146 0,0.349167 -0.03874,0.09602 -0.07045,0.01746 -0.07045,-0.174583 z m 17.189367,-0.139667 c 0,-0.268859 0.02874,-0.378846 0.06387,-0.244417 0.03513,0.134429 0.03513,0.354405 0,0.488834 -0.03513,0.134429 -0.06387,0.02444 -0.06387,-0.244417 z m -14.697417,-0.145998 c -2.664442,-0.47803 -4.899702,-1.311093 -7.155177,-2.666672 -3.644455,-2.190382 -6.636034,-5.647349 -8.26248,-9.547842 -0.288283,-0.69135 -0.577164,-1.382701 -0.641959,-1.536335 -0.219909,-0.521423 -0.682319,-2.648431 -0.847486,-3.89829 -0.240301,-1.818421 -0.105395,-5.2624927 0.274025,-6.99572 0.326621,-1.4920311 0.351298,-1.5741342 0.923522,-3.0726696 1.844097,-4.82930615 5.643972,-8.934596 10.343879,-11.1752683 0.722848,-0.344617 1.377361,-0.6265763 1.454471,-0.6265763 0.07711,0 0.140201,-0.06285 0.140201,-0.1396668 0,-0.076817 0.124751,-0.1396668 0.277224,-0.1396668 0.152472,0 0.821063,-0.1575989 1.485758,-0.3502198 3.582308,-1.0381125 8.459808,-0.9574032 11.810584,0.1954328 0.436576,0.1502043 0.939314,0.2457816 1.117195,0.2123942 0.177881,-0.033387 0.243947,-0.023042 0.146815,0.022991 -0.09713,0.046032 0.629299,0.4817766 1.614295,0.9683207 0.984996,0.4865439 2.32147,1.2742565 2.969942,1.7504722 2.122832,1.5589348 4.618359,4.31049231 5.6946985,6.2789513 2.7455197,5.021129 3.4585536,9.8631654 2.2395418,15.2081494 -0.1469672,0.644401 -0.2300843,1.288614 -0.184708,1.431585 0.05472,0.172405 0.013883,0.259948 -0.1212657,0.259948 -0.1120742,0 -0.2469071,0.172838 -0.2996286,0.384084 -0.1546502,0.619659 -0.900848,2.252744 -1.5794778,3.456753 -1.6371662,2.90462 -4.4624742,5.748211 -7.4182682,7.46627 -2.176451,1.265067 -3.980114,1.940546 -6.555725,2.455148 -2.193781,0.438312 -5.177718,0.46179 -7.425976,0.05843 z m 8.100674,-0.875233 c 3.758044,-0.946452 6.721694,-2.594216 9.410213,-5.231998 2.222385,-2.180445 3.9320995,-4.898982 4.9094236,-7.806248 1.2513153,-3.722313 1.357078,-8.1602497 0.2823699,-11.8487144 C -10.781261,-1.561065 -17.10053,-7.11481 -24.792822,-8.2668414 c -10.012111,-1.4994577 -19.638301,4.8125653 -22.221992,14.5712607 -0.730079,2.7575366 -0.832084,6.2406117 -0.264809,9.0422827 0.424657,2.097311 0.606973,2.65201 1.486127,4.521568 0.706008,1.501356 1.260799,2.452388 1.999904,3.428268 2.884361,3.808374 6.944331,6.483704 11.439914,7.538364 2.008608,0.471218 1.971889,0.468032 4.97702,0.431948 2.4157,-0.02901 2.889243,-0.07444 4.190004,-0.402035 z M -35.722097,19.420441 c -4.32075,-4.321259 -7.855909,-7.901046 -7.855909,-7.955085 0,-0.05404 3.560676,-3.6579934 7.912614,-8.0087891 l 7.912615,-7.9105366 7.939958,7.9399578 7.939957,7.9399579 -7.885551,7.888627 c -4.337054,4.338745 -7.935552,7.905293 -7.996663,7.925664 -0.06111,0.02037 -3.64627,-3.498538 -7.967021,-7.819796 z m 6.353171,-11.0312377 1.712935,-1.7088233 0,-3.5286823 c 0,-1.9407753 -0.05101,-3.5286825 -0.113364,-3.5286825 -0.101128,0 -1.747519,1.6505736 -8.463256,8.4847581 l -1.955758,1.9902517 3.553254,0 3.553254,0 1.712935,-1.7088217 z M -42.409,28.953043 c 0,-0.806576 0.02308,-1.136538 0.0513,-0.733251 0.02821,0.403288 0.02821,1.063214 0,1.466502 -0.02821,0.403288 -0.0513,0.07333 -0.0513,-0.733251 z m 25.808738,0.977668 c 0,-0.192042 0.0317,-0.270605 0.07045,-0.174584 0.03874,0.09602 0.03874,0.253146 0,0.349167 -0.03875,0.09602 -0.07045,0.01746 -0.07045,-0.174583 z M -42.449646,27.19557 c 0.0067,-0.162705 0.0398,-0.195799 0.08438,-0.08438 0.04035,0.100822 0.03538,0.221286 -0.01103,0.267695 -0.04641,0.04641 -0.07942,-0.03608 -0.07336,-0.183312 z m -0.849027,-0.756529 c 0,-0.07682 0.06285,-0.139667 0.139667,-0.139667 0.07682,0 0.139667,0.06285 0.139667,0.139667 0,0.07682 -0.06285,0.139667 -0.139667,0.139667 -0.07682,0 -0.139667,-0.06285 -0.139667,-0.139667 z m 35.2658672,0 c -0.047475,-0.07682 -0.01976,-0.139667 0.06159,-0.139667 0.08135,0 0.1479099,0.06285 0.1479099,0.139667 0,0.07682 -0.027715,0.139667 -0.06159,0.139667 -0.033875,0 -0.1004344,-0.06285 -0.1479099,-0.139667 z m 0.08086,-7.763146 c 0.0067,-0.162705 0.039797,-0.195799 0.084381,-0.08438 0.040345,0.100822 0.035385,0.221284 -0.01102,0.267696 -0.04641,0.04641 -0.07942,-0.03608 -0.073356,-0.183313 z M -42.449646,-5.4864619 c 0.0067,-0.1627038 0.0398,-0.1957988 0.08438,-0.084382 0.04035,0.1008219 0.03538,0.2212846 -0.01103,0.2676947 -0.04641,0.04641 -0.07942,-0.036081 -0.07336,-0.1833127 z m 0.03225,-1.3850291 c 7.83e-4,-0.4609004 0.02686,-0.6326125 0.05794,-0.3815824 0.03108,0.2510301 0.03044,0.6281305 -0.0014,0.8380008 -0.03187,0.2098703 -0.0573,0.00448 -0.05652,-0.4564184 z m 25.806107,-1.1289733 c 0.0067,-0.1627038 0.0398,-0.1957988 0.08438,-0.084382 0.04035,0.1008219 0.03538,0.2212846 -0.01102,0.2676947 -0.04641,0.04641 -0.07942,-0.036081 -0.07336,-0.1833127 z m -31.331307,-0.021937 c 0.480105,-0.027273 1.26573,-0.027273 1.745835,0 0.480105,0.027273 0.08729,0.049587 -0.872917,0.049587 -0.96021,0 -1.353023,-0.022314 -0.872918,-0.049587 z m 6.078164,0.00662 c 0.135891,-0.035412 0.324441,-0.033083 0.419,0.00517 0.09456,0.038258 -0.01662,0.067231 -0.247075,0.064385 -0.23045,-0.00285 -0.307816,-0.034148 -0.171925,-0.06956 z m 1.257001,0 c 0.135891,-0.035412 0.324442,-0.033083 0.419001,0.00517 0.09456,0.038258 -0.01662,0.067231 -0.247075,0.064385 -0.230451,-0.00285 -0.307817,-0.034148 -0.171926,-0.06956 z m 3.288241,0.00138 c 0.100822,-0.040346 0.221285,-0.035384 0.267695,0.011027 0.04641,0.04641 -0.03608,0.07942 -0.183313,0.073356 -0.162704,-0.0067 -0.195799,-0.039797 -0.08438,-0.084382 z m 1.815668,0 c 0.100822,-0.040346 0.221285,-0.035384 0.267695,0.011027 0.04641,0.04641 -0.03608,0.07942 -0.183312,0.073356 -0.162704,-0.0067 -0.195799,-0.039797 -0.08438,-0.084382 z m 16.201349,0 c 0.100822,-0.040346 0.221284,-0.035384 0.267695,0.011027 0.04641,0.04641 -0.03608,0.07942 -0.183312,0.073356 -0.162705,-0.0067 -0.195799,-0.039797 -0.08438,-0.084382 z m 1.110234,-0.00337 c 0.173733,-0.033407 0.425133,-0.032139 0.558667,0.00282 0.133534,0.034957 -0.0086,0.062291 -0.315879,0.060741 -0.307267,-0.00155 -0.416521,-0.030152 -0.242788,-0.063559 z m 3.003866,0.00199 c 0.135891,-0.035412 0.324441,-0.033083 0.419,0.00517 0.09456,0.038258 -0.01662,0.067231 -0.247075,0.064385 -0.23045,-0.00285 -0.307817,-0.034148 -0.171925,-0.06956 z m 3.558845,-0.00178 c 0.172838,-0.03329 0.455663,-0.03329 0.628501,0 0.172837,0.03329 0.03142,0.060527 -0.314251,0.060527 -0.345675,0 -0.487088,-0.027237 -0.31425,-0.060527 z m 2.1667559,-0.00165 c 0.2123019,-0.032103 0.5265522,-0.031245 0.698334,0.00191 0.1717818,0.033152 -0.00193,0.059418 -0.3860041,0.058369 -0.3840837,-0.00105 -0.5246318,-0.028173 -0.3123299,-0.060276 z m 1.4296643,-0.039444 c 0.047476,-0.076817 0.1140351,-0.1396668 0.1479099,-0.1396668 0.033875,0 0.06159,0.06285 0.06159,0.1396668 0,0.076817 -0.06656,0.1396668 -0.1479099,0.1396668 -0.08135,0 -0.1090658,-0.06285 -0.06159,-0.1396668 z M -42.42545,-8.8268262 c 0.0015,-0.307267 0.03015,-0.4165218 0.06356,-0.2427885 0.03341,0.1737333 0.03214,0.4251335 -0.0028,0.5586672 -0.03496,0.1335337 -0.06229,-0.00861 -0.06074,-0.3158787 z m 25.814163,-0.1513057 c 0.0067,-0.1627039 0.0398,-0.1957988 0.08438,-0.084382 0.04035,0.1008219 0.03538,0.2212846 -0.01102,0.2676947 -0.04641,0.04641 -0.07942,-0.036081 -0.07336,-0.1833127 z"
       id="path3398"
       inkscape:connector-curvature="0" />
    <path
       style="fill:#f0d99f"
       d="m -30.811411,31.822484 c -2.701558,-0.419706 -5.331538,-1.367035 -7.629612,-2.748218 -4.601297,-2.76546 -8.015821,-7.393924 -9.311095,-12.621401 -1.000552,-4.038034 -0.71335,-8.6638267 0.7761,-12.500179 1.14172,-2.940713 2.963168,-5.565414 5.446539,-7.8484491 0.468405,-0.4306182 1.03187,-0.8977669 1.252144,-1.0381082 0.220274,-0.1403414 0.431924,-0.2957541 0.470332,-0.3453615 0.03841,-0.049608 0.478359,-0.354483 0.977668,-0.677501 2.029918,-1.3132151 4.897965,-2.4307016 7.44095,-2.8992408 1.769265,-0.3259832 5.705161,-0.3193524 7.412057,0.012487 5.222052,1.015224 9.871103,3.9835019 12.932493,8.2570025 2.0717951,2.892092 3.1673317,5.6905422 3.7183815,9.4982824 0.5305215,3.6658867 -0.2064401,8.1159397 -1.9188542,11.5867637 -3.5173453,7.129167 -10.6405653,11.566511 -18.4815173,11.512886 -1.075434,-0.0073 -2.463948,-0.09239 -3.085586,-0.188963 z m 7.624757,-0.957669 c 3.758044,-0.946452 6.721694,-2.594216 9.410213,-5.231998 2.222385,-2.180445 3.9320995,-4.898982 4.9094236,-7.806248 1.2513153,-3.722313 1.357078,-8.1602497 0.2823699,-11.8487144 -2.1961435,-7.5373053 -8.4765415,-13.0606285 -16.2081745,-14.2543469 -2.144282,-0.3310645 -5.28201,-0.2152433 -7.368984,0.2720072 -5.972998,1.3945294 -11.016956,5.4335747 -13.562284,10.8602593 -1.116321,2.3800139 -1.508316,3.7271701 -1.835107,6.3066538 -0.262507,2.072063 -0.261628,2.782001 0.0058,4.699539 0.65477,4.6945 2.435199,8.349047 5.651369,11.600114 2.968499,3.000709 6.489012,4.844331 10.824177,5.668403 0.662723,0.125976 1.855014,0.172608 3.70117,0.144754 2.397637,-0.03617 2.898969,-0.08528 4.190004,-0.410423 z m -12.535558,-11.44449 c -4.320687,-4.321195 -7.855794,-7.90093 -7.855794,-7.954969 0,-0.05404 3.557931,-3.6552504 7.906515,-8.0026911 l 7.906515,-7.9044385 7.873776,7.8634833 c 4.330577,4.324916 7.874702,7.9265413 7.875833,8.0036133 0.002,0.136832 -15.642983,15.851719 -15.781214,15.851719 -0.03841,0 -3.604944,-3.535523 -7.925631,-7.856717 z M -29.47166,8.491857 c 0.880887,-0.8833925 1.650098,-1.6061682 1.709359,-1.6061682 0.05926,0 0.842006,0.7227757 1.739435,1.6061682 l 1.63169,1.606168 3.46543,0 c 1.905987,0 3.465431,-0.01674 3.465431,-0.0372 0,-0.02046 -1.138787,-1.1988955 -2.530639,-2.6187524 -1.391851,-1.4198554 -3.677628,-3.759995 -5.079503,-5.2003089 -1.401875,-1.44031388 -2.610095,-2.6187525 -2.684932,-2.6187525 -0.109974,0 -4.692932,4.5910555 -9.585156,9.6020925 l -0.85222,0.8729173 3.559747,0 3.559746,0 1.601612,-1.606168 z"
       id="path3396"
       inkscape:connector-curvature="0" />
    <path
       style="fill:#efcb64"
       d="m -30.449327,31.824358 c -8.918405,-1.294908 -15.606408,-7.59556 -17.478162,-16.465872 -0.400438,-1.897695 -0.436896,-5.5408852 -0.075,-7.4951296 0.487124,-2.6305041 1.816454,-5.9275196 3.201722,-7.9409372 2.936588,-4.2681839 7.373331,-7.3050714 12.434519,-8.5112514 1.450773,-0.3457477 1.797035,-0.3737777 4.640426,-0.375644 3.034087,-0.00199 3.095469,0.00386 4.888338,0.4658668 6.990628,1.8014305 12.387439,6.8161499 14.5982858,13.5647359 0.2901033,0.8855336 0.6280578,2.2460628 0.7510107,3.0233965 0.2518109,1.5919893 0.2918911,4.771054 0.079029,6.26834 -0.7379826,5.191007 -3.5334205,10.014229 -7.6816795,13.253891 -1.019577,0.796259 -1.000563,0.783737 -2.648807,1.744506 -1.872299,1.091372 -4.006438,1.861503 -6.424673,2.318423 -1.664909,0.314581 -4.658289,0.385867 -6.285006,0.149675 z m 6.414348,-0.706012 c 6.130992,-1.198546 11.352579,-5.16245 14.1922605,-10.773883 3.817859,-7.544385 2.3209689,-16.888932 -3.6728125,-22.9280507 -1.248452,-1.2578941 -1.838434,-1.7501138 -3.12586,-2.607892 -5.294669,-3.527698 -11.838717,-4.317037 -17.928107,-2.1624776 -2.765849,0.9786179 -5.035568,2.4362396 -7.26828,4.6677166 -3.70982,3.7077672 -5.666877,8.1437569 -5.886595,13.3429327 -0.239904,5.676843 1.838689,10.941046 5.929831,15.017776 2.870446,2.860333 6.986539,4.960062 10.786548,5.502502 0.576125,0.08224 1.204626,0.176908 1.396668,0.210371 0.741359,0.12918 4.4562,-0.05002 5.576347,-0.268995 z M -35.652383,19.350487 c -4.282276,-4.282787 -7.785957,-7.849739 -7.785957,-7.926559 0,-0.143308 15.510222,-15.7115832 15.652996,-15.7115832 0.05765,0 15.363513,15.2625342 15.76129,15.7166752 0.08089,0.09235 -15.526888,15.70452 -15.702238,15.706651 -0.07707,9.78e-4 -3.643815,-3.502395 -7.926091,-7.785184 z m 6.317658,-10.8559051 1.61174,-1.6075397 1.607914,1.607914 1.607912,1.6079138 3.581937,-0.03734 3.581935,-0.03734 -5.216848,-5.3073386 -5.216848,-5.3073384 -5.142092,5.2214224 c -2.828151,2.8717812 -5.16083,5.2989989 -5.183732,5.3938156 -0.03245,0.13433 0.753031,0.161463 3.557351,0.122883 l 3.59899,-0.04951 1.611741,-1.6075411 z"
       id="path3394"
       inkscape:connector-curvature="0" />
    <path
       style="fill:#ddb657"
       d="m -31.186561,31.675343 c -3.479871,-0.561883 -7.559597,-2.53265 -10.184075,-4.919556 -4.547002,-4.135396 -6.816375,-9.239516 -6.816375,-15.330927 0,-5.6195302 1.986027,-10.43944712 5.931086,-14.3942352 2.938865,-2.9461132 6.057654,-4.6782062 10.060763,-5.5874813 2.007308,-0.4559442 5.035019,-0.606989 6.979704,-0.3481996 8.553807,1.1382995 15.3191018,7.1673344 17.4056498,15.5114113 0.6854162,2.7409665 0.7188189,6.6315638 0.080359,9.3596398 -1.4054866,6.005496 -5.4016678,11.086587 -10.8894578,13.845792 -1.241202,0.624065 -3.417163,1.379446 -4.986747,1.73114 -1.448941,0.324662 -5.907927,0.402549 -7.580907,0.132416 z m 6.51674,-0.426703 c 7.691725,-1.188621 14.015603,-6.742167 16.1619539,-14.193217 0.6408667,-2.224765 0.7393039,-2.972388 0.7413584,-5.630563 0.00147,-1.9024827 -0.059587,-2.8027763 -0.251012,-3.7011704 -0.9083845,-4.2632411 -2.5991123,-7.40993716 -5.5963043,-10.415558 -1.756371,-1.7613087 -3.130918,-2.7698072 -5.173324,-3.795641 -9.130952,-4.5861776 -20.32056,-1.4873859 -25.854477,7.16000412 -1.990759,3.11079238 -2.946626,6.20799708 -3.081348,9.98419728 -0.09703,2.719701 0.16923,4.689984 0.950325,7.032256 1.009106,3.026011 2.472018,5.456458 4.621454,7.677977 2.951117,3.050084 7.138872,5.244677 11.217248,5.8784 1.713826,0.266305 4.552562,0.267806 6.264126,0.0033 z m -10.912727,-11.967984 -7.855796,-7.856719 7.856721,-7.8557983 7.856722,-7.855798 7.866249,7.867174 7.866251,7.8671733 -7.84928,7.845344 c -4.317104,4.314939 -7.857332,7.845343 -7.867174,7.845343 -0.0098,0 -3.553005,-3.535524 -7.873693,-7.856719 z M -29.47166,8.6315238 c 0.880887,-0.8833925 1.664505,-1.6061682 1.741372,-1.6061682 0.07687,0 0.834169,0.6924387 1.682891,1.5387538 l 1.543132,1.5387536 3.58525,-0.03733 3.585249,-0.03734 -1.905062,-1.9553354 c -1.047783,-1.0754344 -3.406287,-3.4735301 -5.241119,-5.329103 l -3.336058,-3.37376771 -0.443743,0.46934525 c -0.24406,0.25813986 -2.580646,2.64229316 -5.192415,5.29811896 -2.61177,2.6558243 -4.769622,4.8898539 -4.795227,4.9645069 -0.02935,0.08557 1.287793,0.135735 3.563782,0.135735 l 3.610336,0 1.601612,-1.6061682 z"
       id="path3392"
       inkscape:connector-curvature="0" />
    <path
       style="fill:#f6c004"
       d="m -30.030327,31.787437 c -3.138919,-0.346139 -6.465803,-1.575187 -9.233104,-3.410979 -1.721534,-1.142043 -4.242729,-3.664911 -5.407072,-5.410661 -2.364972,-3.545903 -3.516508,-7.304396 -3.516508,-11.477509 0,-2.8873135 0.429051,-5.1495414 1.458665,-7.6910027 1.612606,-3.98050099 4.297157,-7.2433079 7.829177,-9.5155935 6.014667,-3.8694685 13.420093,-4.3487338 19.98738,-1.293547 2.003525,0.9320666 3.960123,2.3233462 5.621453,3.997251 6.1174643,6.1637734 7.7097259,15.3880292 4.011349,23.2384722 -3.376335,7.166855 -10.696072,11.746435 -18.604429,11.639826 -0.911942,-0.01229 -1.878052,-0.04661 -2.146911,-0.07626 z m 4.020925,-0.329213 c 2.863979,-0.31356 4.993035,-0.926148 7.361919,-2.11823 0.768168,-0.38656 1.428093,-0.741751 1.466502,-0.789311 0.03841,-0.04756 0.541089,-0.400724 1.117069,-0.784808 1.345736,-0.897384 3.782877,-3.33622 4.676773,-4.680027 0.382802,-0.575471 0.733177,-1.077736 0.778611,-1.116145 0.04543,-0.03841 0.438178,-0.792609 0.8727663,-1.676001 3.1386929,-6.380045 2.6546245,-13.9923176 -1.2656113,-19.9025194 -2.871815,-4.3295884 -6.853808,-7.1298421 -12.035681,-8.4638451 -1.33158,-0.3427971 -2.009523,-0.4307024 -3.85077,-0.4993087 -3.240451,-0.1207417 -5.431325,0.2330328 -8.240341,1.3306209 -3.598992,1.4062613 -6.592289,3.782886 -9.26116,7.3531993 -0.05742,0.0768167 -0.397584,0.64246728 -0.755915,1.2570012 -2.844413,4.8781367 -3.464004,10.7494498 -1.718486,16.2845548 1.391491,4.412474 4.673047,8.536667 8.802558,11.062876 2.081122,1.273118 5.171569,2.335386 7.76111,2.667699 1.886164,0.24205 2.638984,0.255076 4.290656,0.07424 z m -9.642983,-12.247405 -7.785959,-7.786891 7.78689,-7.7859579 c 4.28279,-4.28227716 7.849531,-7.7848012 7.926093,-7.7833868 0.179931,0.00332 15.573224,15.4056487 15.569778,15.5789147 -0.0034,0.173325 -15.4092,15.56421 -15.579246,15.56421 -0.07238,0 -3.63528,-3.5041 -7.917556,-7.786889 z m 6.263485,-10.6013472 1.608705,-1.6282188 0.703757,0.6854679 c 0.387067,0.3770082 1.116675,1.1097072 1.621351,1.6282202 l 0.917593,0.9427509 3.678256,0 c 2.023042,0 3.676213,-0.04714 3.673715,-0.10475 -0.0025,-0.05761 -2.387494,-2.5244775 -5.299991,-5.481922 l -5.29545,-5.3771718 -1.718264,1.7468965 c -7.479211,7.6038321 -8.77144,8.9400062 -8.77144,9.0697243 0,0.09942 1.18087,0.147223 3.636531,0.147223 l 3.636531,0 1.608706,-1.6282202 z"
       id="path3390"
       inkscape:connector-curvature="0" />
    <path
       style="fill:#f2b003"
       d="m -30.868328,31.659946 c -5.426494,-0.812606 -10.467141,-3.949432 -13.653439,-8.496618 -3.770665,-5.381143 -4.711097,-12.560175 -2.452501,-18.7218082 1.958615,-5.3432614 6.323371,-9.8702083 11.532101,-11.9606251 4.455603,-1.7881649 9.467064,-1.9582381 13.995139,-0.474951 3.279316,1.0742242 5.820441,2.6255158 8.156692,4.9794521 6.1174643,6.1637734 7.7097259,15.3880292 4.011349,23.2384722 -3.824527,8.118221 -12.622875,12.778789 -21.589341,11.436078 z m 4.858926,-0.201722 c 5.055526,-0.553499 9.041746,-2.423749 12.467469,-5.849473 2.757693,-2.757692 4.4480673,-5.836581 5.448516,-9.924054 0.2829216,-1.15592 0.3257337,-1.686654 0.3323497,-4.12017 0.00591,-2.1754491 -0.04785,-3.0559379 -0.2430579,-3.9805042 -0.9932489,-4.704335 -3.4082368,-8.7248668 -7.0125188,-11.6746204 -2.382426,-1.9497824 -4.887266,-3.1946823 -8.030343,-3.9910625 -1.919735,-0.4864149 -5.285187,-0.6803216 -7.235574,-0.416891 -5.736394,0.7747902 -10.358343,3.5959074 -14.106764,8.6104001 -0.05742,0.0768167 -0.397584,0.64246728 -0.755915,1.2570012 -2.844413,4.8781367 -3.464004,10.7494498 -1.718486,16.2845548 1.391491,4.412474 4.673047,8.536667 8.802558,11.062876 2.081122,1.273118 5.171569,2.335386 7.76111,2.667699 1.886164,0.24205 2.638984,0.255076 4.290656,0.07424 z m -1.789702,-4.704933 c -0.0019,-0.134429 -4.19e-4,-2.392392 0.0034,-5.017693 0.0052,-3.620358 -0.0345,-4.798801 -0.164182,-4.878946 -0.09404,-0.05812 -1.525382,-0.568255 -3.180766,-1.133637 -1.655391,-0.565384 -4.109673,-1.406899 -5.453966,-1.870035 -2.725407,-0.938958 -5.304066,-1.802604 -5.516839,-1.847704 -0.07682,-0.01628 -0.218229,-0.07868 -0.31425,-0.13867 -0.09602,-0.05999 -0.247145,-0.06422 -0.33583,-0.0094 -0.0999,0.06174 -0.123335,0.03831 -0.06159,-0.06159 0.063,-0.101939 -0.0061,-0.161243 -0.18792,-0.161243 -0.158167,0 -0.287577,-0.07795 -0.287577,-0.173226 0,-0.206468 15.370435,-15.610273 15.572742,-15.6065507 0.180302,0.00332 15.573802,15.4052867 15.570348,15.5789147 -0.003,0.149913 -15.397126,15.56421 -15.543863,15.56421 -0.05292,0 -0.09776,-0.109988 -0.09966,-0.244417 z m -1.537681,-18.124217 1.601376,-1.6037072 0.681365,0.6634117 c 0.37475,0.3648767 1.094281,1.0876496 1.598957,1.6061626 l 0.917593,0.9427509 3.678256,0 c 2.023042,0 3.676213,-0.04714 3.673715,-0.10475 -0.0025,-0.05761 -2.387494,-2.5244775 -5.299991,-5.481922 l -5.29545,-5.3771718 -1.718264,1.7468965 c -7.479211,7.6038321 -8.77144,8.9400062 -8.77144,9.0697243 0,0.09951 1.188208,0.146427 3.666253,0.144768 l 3.666254,-0.0025 1.601376,-1.6037091 z m -1.130358,15.610215 c -0.173727,-0.22152 -0.168787,-0.22646 0.05273,-0.05273 0.13443,0.105428 0.244417,0.215415 0.244417,0.244417 0,0.114951 -0.114693,0.04097 -0.297149,-0.191684 z"
       id="path3388"
       inkscape:connector-curvature="0" />
    <path
       style="fill:#cea103"
       d="m -27.725825,17.016163 0,-9.9814316 0.676573,0.6587301 c 0.372114,0.3623013 1.089489,1.0829666 1.594165,1.6014796 l 0.917593,0.9427509 3.689896,0 c 2.158894,0 3.670578,-0.05276 3.643339,-0.127157 -0.02561,-0.06994 -2.403433,-2.5307511 -5.284061,-5.4684788 l -5.237505,-5.3413227 -0.01131,-1.7243609 c -0.0062,-0.9483985 0.0252,-1.7232037 0.06983,-1.7217893 0.142889,0.00453 15.514431,15.4426577 15.511721,15.5789147 -0.0025,0.126759 -15.385271,15.564267 -15.508946,15.564154 -0.03371,-3.2e-5 -0.0613,-4.491701 -0.0613,-9.981489 z"
       id="path3386"
       inkscape:connector-curvature="0" />
    <path
       style="fill:#cb9501"
       d="m -27.655991,26.845082 c 0,-0.10955 0.120522,-0.274449 0.267828,-0.366443 0.1768,-0.110413 0.247028,-0.276106 0.206632,-0.487514 -0.05573,-0.291641 -0.04991,-0.295296 0.06513,-0.04092 0.09453,0.209025 0.0513,0.36722 -0.171717,0.628501 -0.16392,0.192041 -0.313749,0.375354 -0.332954,0.407362 -0.0192,0.03201 -0.03492,-0.03144 -0.03492,-0.140988 z m 4.12915,-4.415438 c -0.07579,-0.199053 -0.05975,-0.215095 0.07819,-0.07819 0.09545,0.09474 0.138364,0.207438 0.09536,0.25044 -0.043,0.043 -0.121098,-0.03451 -0.173547,-0.172255 z m 2.574856,-2.554943 c -0.12588,-0.08135 -0.143107,-0.136243 -0.04316,-0.137528 0.09149,-0.0011 0.205185,0.06071 0.25266,0.137528 0.107167,0.173401 0.05882,0.173401 -0.2095,0 z m -0.6285,-0.279333 c 0.04747,-0.07682 0.114035,-0.139667 0.14791,-0.139667 0.03387,0 0.06159,0.06285 0.06159,0.139667 0,0.07682 -0.06656,0.139666 -0.14791,0.139666 -0.08135,0 -0.109066,-0.06285 -0.06159,-0.139666 z m -6.106954,-7.60681 -0.03839,-4.9592554 1.608266,1.6041947 1.608266,1.6041947 3.675795,0 c 2.105038,0 3.655901,-0.05342 3.629239,-0.125021 -0.02561,-0.06876 -1.397832,-1.5236003 -3.049392,-3.2329739 -1.65156,-1.7093722 -2.987123,-3.1615142 -2.967919,-3.226981 0.0192,-0.065467 -0.02789,-0.103318 -0.104643,-0.084114 -0.07676,0.019204 -1.082359,-0.9318919 -2.234669,-2.1135468 l -2.095109,-2.14846368 0,-1.71680582 0,-1.7168058 7.756545,7.7462096 c 4.266099,4.2604154 7.719144,7.8067264 7.673431,7.8806894 -0.04571,0.07396 -0.177388,0.134481 -0.292613,0.134481 -0.115225,0 -0.178721,0.0498 -0.141101,0.110673 0.03762,0.06087 -0.06773,0.120929 -0.234106,0.133462 -0.166378,0.01253 -0.32321,0.0849 -0.348515,0.160814 -0.0253,0.07591 -0.122222,0.10878 -0.215374,0.07303 -0.211234,-0.08106 -1.805125,0.555592 -1.686912,0.673806 0.04746,0.04746 -0.04607,0.05167 -0.207832,0.0094 -0.272453,-0.07125 -0.476741,-0.01488 -1.619013,0.446734 -0.23045,0.09313 -1.047501,0.370735 -1.815668,0.616902 -0.768168,0.246165 -1.522369,0.502605 -1.676002,0.569864 -0.153633,0.06726 -1.724885,0.605161 -3.49167,1.195338 -1.766785,0.590178 -3.320763,1.129391 -3.453284,1.198252 -0.225644,0.117249 -0.243386,-0.189799 -0.279334,-4.834054 z m 9.458957,4.254806 c 0.04747,-0.07682 0.114035,-0.139666 0.14791,-0.139666 0.03387,0 0.06159,0.06285 0.06159,0.139666 0,0.07682 -0.06656,0.139667 -0.14791,0.139667 -0.08135,0 -0.109066,-0.06285 -0.06159,-0.139667 z m 2.164835,-2.095002 c 0,-0.07682 0.06656,-0.139666 0.14791,-0.139666 0.08135,0 0.109066,0.06285 0.06159,0.139666 -0.04748,0.07682 -0.114035,0.139667 -0.14791,0.139667 -0.03387,0 -0.06159,-0.06285 -0.06159,-0.139667 z"
       id="path3384"
       inkscape:connector-curvature="0" />
  </g>
</svg>
