<?xml version="1.0" encoding="UTF-8" standalone="no"?>
<svg
   xmlns:dc="http://purl.org/dc/elements/1.1/"
   xmlns:cc="http://creativecommons.org/ns#"
   xmlns:rdf="http://www.w3.org/1999/02/22-rdf-syntax-ns#"
   xmlns:svg="http://www.w3.org/2000/svg"
   xmlns="http://www.w3.org/2000/svg"
   xmlns:sodipodi="http://sodipodi.sourceforge.net/DTD/sodipodi-0.dtd"
   xmlns:inkscape="http://www.inkscape.org/namespaces/inkscape"
   width="32"
   height="32"
   viewBox="0 0 32 32"
   id="svg2"
   version="1.1"
   inkscape:version="0.91 r13725"
   sodipodi:docname="dai.svg">
  <metadata
     id="metadata10">
    <rdf:RDF>
      <cc:Work
         rdf:about="">
        <dc:format>image/svg+xml</dc:format>
        <dc:type
           rdf:resource="http://purl.org/dc/dcmitype/StillImage" />
        <dc:title></dc:title>
      </cc:Work>
    </rdf:RDF>
  </metadata>
  <defs
     id="defs8" />
  <sodipodi:namedview
     pagecolor="#ffffff"
     bordercolor="#666666"
     borderopacity="1"
     objecttolerance="10"
     gridtolerance="10"
     guidetolerance="10"
     inkscape:pageopacity="0"
     inkscape:pageshadow="2"
     inkscape:window-width="1022"
     inkscape:window-height="730"
     id="namedview6"
     showgrid="false"
     inkscape:zoom="7.375"
     inkscape:cx="23.054615"
     inkscape:cy="16.395967"
     inkscape:window-x="0"
     inkscape:window-y="18"
     inkscape:window-maximized="0"
     inkscape:current-layer="g3382" />
  <path
     d="M 16 0 C 7.163444 0 0 7.163444 0 16 C 0 24.836556 7.163444 32 16 32 C 24.836556 32 32 24.836556 32 16 C 32 7.163444 24.836556 0 16 0 z "
     id="path4" />
  <g
     id="g3382"
     transform="matrix(0.77647786,0,0,0.77647786,37.53516,7.0359425)">
    <path
       style="fill:#f6f6f6;fill-opacity:1"
       d="m -35.652385,19.210819 -7.785959,-7.786891 7.78689,-7.7859579 c 4.28279,-4.28227716 7.849531,-7.7848012 7.926093,-7.7833868 0.179931,0.00332 15.573224,15.4056487 15.569778,15.5789147 -0.0034,0.173325 -15.4092,15.56421 -15.579246,15.56421 -0.07238,0 -3.63528,-3.5041 -7.917556,-7.786889 z m 6.263485,-10.6013472 1.608705,-1.6282188 0.703757,0.6854679 c 0.387067,0.3770082 1.116675,1.1097072 1.621351,1.6282202 l 0.917593,0.9427509 3.678256,0 c 2.023042,0 3.676213,-0.04714 3.673715,-0.10475 -0.0025,-0.05761 -2.387494,-2.5244775 -5.299991,-5.481922 l -5.29545,-5.3771718 -1.718264,1.7468965 c -7.479211,7.6038321 -8.77144,8.9400062 -8.77144,9.0697243 0,0.09942 1.18087,0.147223 3.636531,0.147223 l 3.636531,0 z"
       id="path3390"
       inkscape:connector-curvature="0"
       sodipodi:nodetypes="scsccssccsscscscssscc" />
    <path
       style="fill:#ffffff;fill-opacity:1"
       d="m -27.799104,26.753291 c -0.0019,-0.134429 -4.19e-4,-2.392392 0.0034,-5.017693 0.0052,-3.620358 -0.0345,-4.798801 -0.164182,-4.878946 -0.09404,-0.05812 -1.525382,-0.568255 -3.180766,-1.133637 -1.655391,-0.565384 -4.109673,-1.406899 -5.453966,-1.870035 -2.725407,-0.938958 -5.304066,-1.802604 -5.516839,-1.847704 -0.07682,-0.01628 -0.218229,-0.07868 -0.31425,-0.13867 -0.09602,-0.05999 -0.247145,-0.06422 -0.33583,-0.0094 -0.0999,0.06174 -0.123335,0.03831 -0.06159,-0.06159 0.063,-0.101939 -0.0061,-0.161243 -0.18792,-0.161243 -0.158167,0 -0.287577,-0.07795 -0.287577,-0.173226 0,-0.206468 15.370435,-15.610273 15.572742,-15.6065507 0.180302,0.00332 15.573802,15.4052867 15.570348,15.5789147 -0.003,0.149913 -15.397126,15.56421 -15.543863,15.56421 -0.05292,0 -0.09776,-0.109988 -0.09966,-0.244417 z m -1.537681,-18.124217 1.601376,-1.6037072 0.681365,0.6634117 c 0.37475,0.3648767 1.094281,1.0876496 1.598957,1.6061626 l 0.917593,0.9427509 3.678256,0 c 2.023042,0 3.676213,-0.04714 3.673715,-0.10475 -0.0025,-0.05761 -2.387494,-2.5244775 -5.299991,-5.481922 l -5.29545,-5.3771718 -1.718264,1.7468965 c -7.479211,7.6038321 -8.77144,8.9400062 -8.77144,9.0697243 0,0.09951 1.188208,0.146427 3.666253,0.144768 l 3.666254,-0.0025 1.601376,-1.6037091 z m -1.130358,15.610215 c -0.173727,-0.22152 -0.168787,-0.22646 0.05273,-0.05273 0.13443,0.105428 0.244417,0.215415 0.244417,0.244417 0,0.114951 -0.114693,0.04097 -0.297147,-0.191687 z"
       id="path3388"
       inkscape:connector-curvature="0"
       sodipodi:nodetypes="cccsscsccssccsccccsscscscsscccccssc" />
    <path
       style="fill:#e9e9e9;fill-opacity:1"
       d="m -27.725825,17.016163 0,-9.9814316 0.676573,0.6587301 c 0.372114,0.3623013 1.089489,1.0829666 1.594165,1.6014796 l 0.917593,0.9427509 3.689896,0 c 2.158894,0 3.670578,-0.05276 3.643339,-0.127157 -0.02561,-0.06994 -2.403433,-2.5307511 -5.284061,-5.4684788 l -5.237505,-5.3413227 -0.01131,-1.7243609 c -0.0062,-0.9483985 0.0252,-1.7232037 0.06983,-1.7217893 0.142889,0.00453 15.514431,15.4426577 15.511721,15.5789147 -0.0025,0.126759 -15.385271,15.564267 -15.508946,15.564154 -0.03371,-3.2e-5 -0.0613,-4.491701 -0.0613,-9.981489 z"
       id="path3386"
       inkscape:connector-curvature="0" />
    <path
       style="fill:#f3f3f3;fill-opacity:1"
       d="m -27.655991,26.845082 c 0,-0.10955 0.120522,-0.274449 0.267828,-0.366443 0.1768,-0.110413 0.247028,-0.276106 0.206632,-0.487514 -0.05573,-0.291641 -0.04991,-0.295296 0.06513,-0.04092 0.09453,0.209025 0.0513,0.36722 -0.171717,0.628501 -0.16392,0.192041 -0.313749,0.375354 -0.332954,0.407362 -0.0192,0.03201 -0.03492,-0.03144 -0.03492,-0.140988 z m 4.12915,-4.415438 c -0.07579,-0.199053 -0.05975,-0.215095 0.07819,-0.07819 0.09545,0.09474 0.138364,0.207438 0.09536,0.25044 -0.043,0.043 -0.121098,-0.03451 -0.173547,-0.172255 z m 2.574856,-2.554943 c -0.12588,-0.08135 -0.143107,-0.136243 -0.04316,-0.137528 0.09149,-0.0011 0.205185,0.06071 0.25266,0.137528 0.107167,0.173401 0.05882,0.173401 -0.2095,0 z m -0.6285,-0.279333 c 0.04747,-0.07682 0.114035,-0.139667 0.14791,-0.139667 0.03387,0 0.06159,0.06285 0.06159,0.139667 0,0.07682 -0.06656,0.139666 -0.14791,0.139666 -0.08135,0 -0.109066,-0.06285 -0.06159,-0.139666 z m -6.106954,-7.60681 -0.03839,-4.9592554 1.608266,1.6041947 1.608266,1.6041947 3.675795,0 c 2.105038,0 3.655901,-0.05342 3.629239,-0.125021 -0.02561,-0.06876 -1.397832,-1.5236003 -3.049392,-3.2329739 -1.65156,-1.7093722 -2.987123,-3.1615142 -2.967919,-3.226981 0.0192,-0.065467 -0.02789,-0.103318 -0.104643,-0.084114 -0.07676,0.019204 -1.082359,-0.9318919 -2.234669,-2.1135468 l -2.095109,-2.14846368 0,-1.71680582 0,-1.7168058 7.756545,7.7462096 c 4.266099,4.2604154 7.719144,7.8067264 7.673431,7.8806894 -0.04571,0.07396 -0.177388,0.134481 -0.292613,0.134481 -0.115225,0 -0.178721,0.0498 -0.141101,0.110673 0.03762,0.06087 -0.06773,0.120929 -0.234106,0.133462 -0.166378,0.01253 -0.32321,0.0849 -0.348515,0.160814 -0.0253,0.07591 -0.122222,0.10878 -0.215374,0.07303 -0.211234,-0.08106 -1.805125,0.555592 -1.686912,0.673806 0.04746,0.04746 -0.04607,0.05167 -0.207832,0.0094 -0.272453,-0.07125 -0.476741,-0.01488 -1.619013,0.446734 -0.23045,0.09313 -1.047501,0.370735 -1.815668,0.616902 -0.768168,0.246165 -1.522369,0.502605 -1.676002,0.569864 -0.153633,0.06726 -1.724885,0.605161 -3.49167,1.195338 -1.766785,0.590178 -3.320763,1.129391 -3.453284,1.198252 -0.225644,0.117249 -0.243386,-0.189799 -0.279334,-4.834054 z m 9.458957,4.254806 c 0.04747,-0.07682 0.114035,-0.139666 0.14791,-0.139666 0.03387,0 0.06159,0.06285 0.06159,0.139666 0,0.07682 -0.06656,0.139667 -0.14791,0.139667 -0.08135,0 -0.109066,-0.06285 -0.06159,-0.139667 z m 2.164835,-2.095002 c 0,-0.07682 0.06656,-0.139666 0.14791,-0.139666 0.08135,0 0.109066,0.06285 0.06159,0.139666 -0.04748,0.07682 -0.114035,0.139667 -0.14791,0.139667 -0.03387,0 -0.06159,-0.06285 -0.06159,-0.139667 z"
       id="path3384"
       inkscape:connector-curvature="0" />
  </g>
</svg>
