<?xml version="1.0" encoding="UTF-8"?>
<svg width="15px" height="15px" viewBox="0 0 15 15" version="1.1" xmlns="http://www.w3.org/2000/svg" xmlns:xlink="http://www.w3.org/1999/xlink">
    <!-- Generator: Sketch 55.1 (78136) - https://sketchapp.com -->
    <title>check-circle</title>
    <desc>Created with Sketch.</desc>
    <g id="Page-1" stroke="none" stroke-width="1" fill="none" fill-rule="evenodd">
        <g id="Artboard" transform="translate(-469.000000, -954.000000)" fill="#5CC1B6" fill-rule="nonzero">
            <g id="check-circle" transform="translate(469.000000, 953.000000)">
                <path d="M13.6360756,7.87099032 L13.6360756,8.49824987 C13.6353938,9.33005058 13.4697154,10.1223067 13.1704036,10.844337 C12.859501,11.5943212 12.4026924,12.2699888 11.8361134,12.835886 C11.2695344,13.4017832 10.593185,13.8572282 9.84251891,14.167449 C9.12048863,14.4660791 8.32823254,14.6310756 7.49575003,14.6303938 C6.66326751,14.629712 5.87169323,14.4640336 5.14966295,14.1647218 C4.3996787,13.8538192 3.72401107,13.3970106 3.15811387,12.8304316 C2.59221667,12.2638526 2.13677169,11.5875032 1.82655093,10.8368371 C1.52792084,10.1154886 1.36292431,9.32323254 1.36360611,8.49075003 C1.36428792,7.65826751 1.52996625,6.86669323 1.82927815,6.14466295 C2.14018071,5.3946787 2.59698929,4.71901107 3.1635683,4.15311387 C3.73014731,3.58721667 4.40649674,3.13177169 5.15716279,2.82155093 C5.87919308,2.52292084 6.67144916,2.35792431 7.50393167,2.35860611 C8.41073081,2.35928792 9.26707646,2.55564743 9.99183396,2.8870041 C10.3340995,3.04381899 10.739091,2.89245853 10.8952241,2.550193 C11.0513572,2.20792746 10.9006785,1.80293597 10.558413,1.64680288 C9.65365924,1.23362974 8.6043631,0.995680195 7.50461348,0.994996664 C6.49008933,0.994316588 5.52056425,1.19544873 4.63626464,1.5615774 C3.71719304,1.94066035 2.89084676,2.4976941 2.19949764,3.18836141 C1.50814853,3.87902872 0.950432972,4.70401139 0.569986418,5.62240119 C0.203175942,6.5067008 0.000680195289,7.47554408 -3.33629249e-06,8.49006822 C-0.000683412431,9.50459237 0.200448726,10.4741175 0.566577399,11.3584171 C0.946342149,12.2768069 1.5033759,13.1031531 2.19336141,13.7945023 C2.88334692,14.4858514 3.70901139,15.0435669 4.62740119,15.4240135 C5.5117008,15.790824 6.48054408,15.9933197 7.49506822,15.9940032 C8.50959237,15.9946833 9.47911746,15.7935512 10.3634171,15.4274225 C11.2818069,15.0476577 12.1081531,14.490624 12.7995023,13.8006385 C13.4908514,13.110653 14.0485669,12.2849885 14.4290135,11.3665987 C14.7965058,10.4822991 14.9990015,9.51345582 14.9996833,8.49824987 L14.9996833,7.87099032 C14.9996833,7.49463459 14.6942352,7.18918646 14.3178795,7.18918646 C13.9415237,7.18918646 13.6360756,7.49463459 13.6360756,7.87099032 L13.6360756,7.87099032 Z M13.8358441,2.56178366 L7.49984085,8.90392317 L5.9364646,7.34122872 C5.66987929,7.07464341 5.23829745,7.07464341 4.97239394,7.34122872 C4.70649044,7.60781403 4.70580863,8.03939587 4.97239394,8.30529938 L7.01780552,10.350711 C7.28439083,10.6172963 7.71597267,10.6166145 7.98255798,10.350711 L14.8005966,3.52585432 C15.0665001,3.25926901 15.0665001,2.82768717 14.7999148,2.56178366 C14.5333295,2.29588016 14.1017476,2.29588016 13.8358441,2.56246547 L13.8358441,2.56178366 Z" id="Shape"></path>
            </g>
        </g>
    </g>
</svg>