<?xml version="1.0" encoding="UTF-8"?>
<svg width="34px" height="34px" viewBox="0 0 34 34" version="1.1" xmlns="http://www.w3.org/2000/svg" xmlns:xlink="http://www.w3.org/1999/xlink">
    <!-- Generator: Sketch 55.1 (78136) - https://sketchapp.com -->
    <title>discord</title>
    <desc>Created with Sketch.</desc>
    <g id="discord" stroke="none" stroke-width="1" fill="none" fill-rule="evenodd">
        <path d="M21.8505567,5.05112116 L21.848835,5.04404762 L21.7197095,5.09179399 C22.3395122,5.09179399 25.8517275,5.19966542 29.6049771,8.06267931 C29.6049771,8.06267931 33.7714286,15.4898926 33.7714286,24.6147547 C33.6336946,24.4396847 31.1871957,28.5423358 24.8875899,28.6838066 C24.8875899,28.6838066 23.820152,27.4247171 23.0626153,26.3265505 C26.746998,25.2230788 28.1243373,23.0161354 28.1243373,23.0161354 C26.9140004,23.8119083 25.8121289,24.2822985 24.9168584,24.754457 C23.5395191,25.3857702 22.1621797,25.6970058 20.7848404,26.0153149 C17.99745,26.4874735 15.550951,26.3336241 13.416075,26.0153149 C11.7288344,25.7005425 10.3532167,25.2266156 9.28405705,24.7509203 C8.66425436,24.4449898 7.90671773,24.1284491 7.1491811,23.8083715 C7.08031413,23.8083715 7.04760232,23.7747722 7.01144717,23.7376362 L7.01144717,23.7234891 C6.97529201,23.6881214 6.9425802,23.6527537 6.87371323,23.6527537 L6.7359793,23.6527537 C6.27457063,23.336213 5.96639095,23.1805952 5.96639095,23.1805952 C5.96639095,23.1805952 7.34373028,25.3875386 10.8783273,26.4910102 C9.94862328,27.5962503 9.03097095,28.8535714 9.03097095,28.8535714 C2.73308689,28.6979536 0.438095238,24.5953025 0.438095238,24.5953025 C0.438095238,15.4562933 4.58216493,8.04322709 4.58216493,8.04322709 C8.72623462,4.89904012 12.5638463,5.04935277 12.5638463,5.04935277 L12.8737477,5.36766191 C7.80513895,6.62851979 5.50498228,8.99108098 5.50498228,8.99108098 C5.50498228,8.99108098 6.11961995,8.67807699 7.19222295,8.19884489 C10.2688547,6.93798701 12.5638463,6.46582845 13.643336,6.46582845 L14.103023,6.46582845 C15.7902637,6.3155158 17.7874057,6.14751931 19.7845477,6.46582845 C22.5478347,6.78413759 25.3128434,7.57106853 28.3791451,9.14669878 C28.3791451,9.14669878 26.0772668,6.93798701 21.3185594,5.52327972 L21.7816897,5.05112116 L21.8505567,5.05112116 Z M22.4619048,14.5678571 L22.4619048,14.5758671 C20.8287796,14.5758671 19.4909881,16.1718461 19.4857143,18.1482969 C19.4857143,20.1087278 20.8217478,21.7107143 22.4619048,21.7107143 C24.1020617,21.7107143 25.4380952,20.1087278 25.4380952,18.132277 C25.4380952,16.1698436 24.1090935,14.5678571 22.4619048,14.5678571 Z M11.7564087,14.5678571 L11.747619,14.5758671 C10.1074621,14.5758671 8.77142857,16.1718461 8.77142857,18.1482969 C8.77142857,20.1087278 10.1074621,21.7107143 11.747619,21.7107143 C13.387776,21.7107143 14.7238095,20.1087278 14.7238095,18.132277 C14.7238095,16.1698436 13.3965657,14.5678571 11.7564087,14.5678571 Z" id="Combined-Shape" fill="#000000" fill-rule="nonzero"></path>
    </g>
</svg>