<?xml version="1.0" encoding="UTF-8"?>
<svg width="34px" height="34px" viewBox="0 0 34 34" version="1.1" xmlns="http://www.w3.org/2000/svg" xmlns:xlink="http://www.w3.org/1999/xlink">
    <!-- Generator: Sketch 55.1 (78136) - https://sketchapp.com -->
    <title>github</title>
    <desc>Created with Sketch.</desc>
    <g id="github" stroke="none" stroke-width="1" fill="none" fill-rule="evenodd">
        <g id="Group-8" fill="#000000" fill-rule="nonzero">
            <g id="github" transform="translate(1.000000, 1.000000)">
                <path d="M0,16.396 C0,23.467 4.584,29.463 10.94,31.576 C11.74,31.727 12.033,31.232 12.033,30.807 C12.033,30.427 12.02,29.42 12.013,28.087 C7.562,29.052 6.624,25.94 6.624,25.94 C5.896,24.093 4.844,23.6 4.844,23.6 C3.395,22.608 4.956,22.628 4.956,22.628 C6.563,22.74 7.407,24.276 7.407,24.276 C8.834,26.723 11.152,26.016 12.067,25.607 C12.211,24.572 12.623,23.867 13.08,23.467 C12.1471135,23.3619748 11.2016801,23.1896648 10.3146011,22.8816666 C7.8231426,22.0166199 5.792,20.081226 5.792,15.56 C5.792,13.813 6.412,12.387 7.439,11.267 C7.259,10.863 6.719,9.236 7.579,7.032 C7.579,7.032 8.919,6.603 11.979,8.672 C13.259,8.316 14.619,8.14 15.979,8.132 C17.339,8.14 18.699,8.316 19.979,8.672 C23.019,6.603 24.359,7.032 24.359,7.032 C25.219,9.236 24.679,10.863 24.519,11.267 C25.539,12.387 26.159,13.814 26.159,15.56 C26.159,21.707 22.419,23.06 18.859,23.453 C19.419,23.933 19.939,24.914 19.939,26.413 C19.939,28.554 19.919,30.274 19.919,30.794 C19.919,31.214 20.199,31.714 21.019,31.554 C27.42,29.455 32,23.455 32,16.395 C32,7.559 24.836,0.395 16,0.395 C7.16,0.396 0,7.56 0,16.396 Z" id="Path"></path>
            </g>
        </g>
    </g>
</svg>