<?xml version="1.0" encoding="UTF-8"?>
<svg width="34px" height="34px" viewBox="0 0 34 34" version="1.1" xmlns="http://www.w3.org/2000/svg" xmlns:xlink="http://www.w3.org/1999/xlink">
    <!-- Generator: Sketch 55.1 (78136) - https://sketchapp.com -->
    <title>gitter</title>
    <desc>Created with Sketch.</desc>
    <g id="gitter" stroke="none" stroke-width="1" fill="none" fill-rule="evenodd">
        <g transform="translate(17.500000, 16.500000) rotate(90.000000) translate(-17.500000, -16.500000) translate(3.000000, 5.000000)" fill="#000000" id="Path" stroke="#000000">
            <path d="M27.3419267,13.4557823 L6.19501916,13.4557823 C5.27275315,13.4557823 4.65790914,14.0190476 4.65790914,14.8639456 C4.65790914,15.7088435 5.27275315,16.2721088 6.19501916,16.2721088 L27.3419267,16.2721088 C28.2641927,16.2721088 28.8790367,15.7088435 28.8790367,14.8639456 C28.8790367,14.0190476 28.2641927,13.4557823 27.3419267,13.4557823 Z"></path>
            <path d="M27.3419267,6.72789116 L6.19501916,6.72789116 C5.27275315,6.72789116 4.65790914,7.29115646 4.65790914,8.13605442 C4.65790914,8.98095238 5.27275315,9.54421769 6.19501916,9.54421769 L27.3419267,9.54421769 C28.2641927,9.54421769 28.8790367,8.98095238 28.8790367,8.13605442 C28.8790367,7.29115646 28.2641927,6.72789116 27.3419267,6.72789116 Z"></path>
            <path d="M17.0945265,3.63797881e-12 L6.19501916,3.63797881e-12 C5.27275315,3.63797881e-12 4.65790914,0.563265306 4.65790914,1.40816327 C4.65790914,2.25306122 5.27275315,2.81632653 6.19501916,2.81632653 L17.0945265,2.81632653 C18.0167926,2.81632653 18.6316366,2.25306122 18.6316366,1.40816327 C18.6316366,0.563265306 18.0167926,3.63797881e-12 17.0945265,3.63797881e-12 Z"></path>
            <path d="M16.1695989,20.1836735 L1.53045586,20.1836735 C0.612182344,20.1836735 0,20.7469388 0,21.5918367 C0,22.4367347 0.612182344,23 1.53045586,23 L16.1695989,23 C17.0878724,23 17.7000547,22.4367347 17.7000547,21.5918367 C17.7000547,20.7469388 17.0878724,20.1836735 16.1695989,20.1836735 Z"></path>
        </g>
    </g>
</svg>