<?xml version="1.0" encoding="UTF-8"?>
<svg width="748px" height="160px" viewBox="0 0 748 160" version="1.1" xmlns="http://www.w3.org/2000/svg" xmlns:xlink="http://www.w3.org/1999/xlink">
    <title>hybrix-diagram</title>
    <defs>
        <radialGradient cx="74.8279906%" cy="94.3295945%" fx="74.8279906%" fy="94.3295945%" r="59.3083509%" gradientTransform="translate(0.748280,0.943296),scale(0.213904,1.000000),rotate(-114.393699),translate(-0.748280,-0.943296)" id="radialGradient-1">
            <stop stop-color="#69E1CD" offset="0%"></stop>
            <stop stop-color="#69E1CE" stop-opacity="0" offset="100%"></stop>
        </radialGradient>
        <radialGradient cx="2.4356951%" cy="10.0783723%" fx="2.4356951%" fy="10.0783723%" r="282.296138%" gradientTransform="translate(0.024357,0.100784),scale(0.213904,1.000000),rotate(-156.487451),translate(-0.024357,-0.100784)" id="radialGradient-2">
            <stop stop-color="#EAA05B" offset="0%"></stop>
            <stop stop-color="#EAA05B" stop-opacity="0.914968297" offset="6.17548772%"></stop>
            <stop stop-color="#EAA05B" stop-opacity="0" offset="100%"></stop>
            <stop stop-color="#EAA05B" stop-opacity="0" offset="100%"></stop>
        </radialGradient>
        <radialGradient cx="93.743408%" cy="-1.36586137e-05%" fx="93.743408%" fy="-1.36586137e-05%" r="381.829801%" gradientTransform="translate(0.937434,-0.000000),scale(0.213904,1.000000),rotate(159.981668),translate(-0.937434,0.000000)" id="radialGradient-3">
            <stop stop-color="#F252BC" offset="0%"></stop>
            <stop stop-color="#F252BC" stop-opacity="0.891502491" offset="31.6104241%"></stop>
            <stop stop-color="#F251BD" stop-opacity="0" offset="100%"></stop>
        </radialGradient>
        <radialGradient cx="-13.2124024%" cy="49.999988%" fx="-13.2124024%" fy="49.999988%" r="113.594606%" gradientTransform="translate(-0.132124,0.500000),scale(0.213904,1.000000),rotate(-133.091703),translate(0.132124,-0.500000)" id="radialGradient-4">
            <stop stop-color="#EAA05B" offset="0%"></stop>
            <stop stop-color="#EAA05B" stop-opacity="0.914968297" offset="30.7593863%"></stop>
            <stop stop-color="#EAA05B" stop-opacity="0" offset="100%"></stop>
            <stop stop-color="#EAA05B" stop-opacity="0" offset="100%"></stop>
        </radialGradient>
        <radialGradient cx="107.528693%" cy="38.4542507%" fx="107.528693%" fy="38.4542507%" r="215.413197%" gradientTransform="translate(1.075287,0.384543),scale(0.213904,1.000000),rotate(176.927559),translate(-1.075287,-0.384543)" id="radialGradient-5">
            <stop stop-color="#69E1CD" offset="0%"></stop>
            <stop stop-color="#69E1CE" stop-opacity="0" offset="100%"></stop>
            <stop stop-color="#69E1CE" stop-opacity="0" offset="100%"></stop>
        </radialGradient>
        <radialGradient cx="21.7132021%" cy="100.000045%" fx="21.7132021%" fy="100.000045%" r="70.3352649%" gradientTransform="translate(0.217132,1.000000),scale(0.213904,1.000000),rotate(-102.580120),translate(-0.217132,-1.000000)" id="radialGradient-6">
            <stop stop-color="#69E1CD" stop-opacity="0.120669158" offset="0%"></stop>
            <stop stop-color="#69E1CE" stop-opacity="0" offset="100%"></stop>
            <stop stop-color="#69E1CE" stop-opacity="0" offset="100%"></stop>
        </radialGradient>
        <radialGradient cx="126.184482%" cy="93.8357023%" fx="126.184482%" fy="93.8357023%" r="170.354259%" gradientTransform="translate(1.261845,0.938357),scale(0.213904,1.000000),rotate(-150.949101),translate(-1.261845,-0.938357)" id="radialGradient-7">
            <stop stop-color="#69E1CD" offset="0%"></stop>
            <stop stop-color="#69E1CE" stop-opacity="0" offset="100%"></stop>
        </radialGradient>
        <radialGradient cx="80.0195037%" cy="50.0000165%" fx="80.0195037%" fy="50.0000165%" r="166.825697%" gradientTransform="translate(0.800195,0.500000),scale(0.213904,1.000000),rotate(-135.961629),translate(-0.800195,-0.500000)" id="radialGradient-8">
            <stop stop-color="#7BBBD2" offset="0%"></stop>
            <stop stop-color="#7BBCD1" stop-opacity="0.977791687" offset="6.4154292%"></stop>
            <stop stop-color="#7DD1B6" stop-opacity="0" offset="100%"></stop>
        </radialGradient>
        <path d="M3.096,16.224 C3.46800186,15.8639982 3.92099733,15.5670012 4.455,15.333 C4.98900267,15.0989988 5.48999766,14.982 5.958,14.982 C7.02600534,14.982 7.80299757,15.2909969 8.289,15.909 C8.77500243,16.5270031 9.018,17.3039953 9.018,18.24 L9.018,24 L7.29,24 L7.29,18.402 C7.29,17.8139971 7.14900141,17.3460017 6.867,16.998 C6.58499859,16.6499983 6.15600288,16.4700001 5.58,16.458 C5.2199982,16.458 4.80300237,16.5719989 4.329,16.8 C3.85499763,17.0280011 3.44400174,17.3279981 3.096,17.7 L3.096,24 L1.368,24 L1.368,11.49 L3.096,11.292 L3.096,16.224 Z M13.248,25.098 L13.752,23.766 L10.458,15.522 L12.204,15.27 L14.634,21.534 L16.938,15.27 L18.72,15.27 L15.786,22.956 L14.85,25.584 C14.6219989,26.184003 14.2290028,26.6939979 13.671,27.114 C13.1129972,27.5340021 12.4980034,27.8219992 11.826,27.978 L11.25,26.646 C11.6820022,26.453999 12.0839981,26.2500011 12.456,26.034 C12.8280019,25.8179989 13.0919992,25.506002 13.248,25.098 Z M20.304,24 L20.304,11.49 L22.032,11.292 L22.032,15.774 C22.3800017,15.5459989 22.757998,15.3570007 23.166,15.207 C23.574002,15.0569993 23.9579982,14.982 24.318,14.982 C25.6020064,14.982 26.5679968,15.4229956 27.216,16.305 C27.8640032,17.1870044 28.188,18.2879934 28.188,19.608 C28.188,20.9280066 27.8610033,22.0259956 27.207,22.902 C26.5529967,23.7780044 25.5900064,24.216 24.318,24.216 C23.909998,24.216 23.4660024,24.1290009 22.986,23.955 C22.5059976,23.7809991 22.0740019,23.5440015 21.69,23.244 L21.276,24 L20.304,24 Z M22.032,21.984 C22.3320015,22.2240012 22.6559983,22.4129993 23.004,22.551 C23.3520017,22.6890007 23.6759985,22.758 23.976,22.758 C24.8760045,22.758 25.5089982,22.4430031 25.875,21.813 C26.2410018,21.1829968 26.424,20.4540041 26.424,19.626 C26.424,18.7499956 26.2500017,18.0030031 25.902,17.385 C25.5539983,16.7669969 24.9120047,16.458 23.976,16.458 C23.6759985,16.458 23.3520017,16.5269993 23.004,16.665 C22.6559983,16.8030007 22.3320015,16.9979987 22.032,17.25 L22.032,21.984 Z M30.348,24 L30.348,15.27 L31.32,15.27 L31.878,16.512 C32.2140017,16.2239986 32.6369975,15.9450013 33.147,15.675 C33.6570026,15.4049986 34.1459977,15.27 34.614,15.27 L34.992,16.656 C34.5119976,16.656 34.0110026,16.7849987 33.489,17.043 C32.9669974,17.3010013 32.4960021,17.633998 32.076,18.042 L32.076,24 L30.348,24 Z M37.332,13.704 C37.0319985,13.704 36.780001,13.5990011 36.576,13.389 C36.371999,13.178999 36.27,12.9240015 36.27,12.624 C36.2579999,12.3239985 36.356999,12.0690011 36.567,11.859 C36.7770011,11.6489989 37.0319985,11.544 37.332,11.544 C37.6320015,11.544 37.8899989,11.6489989 38.106,11.859 C38.3220011,12.0690011 38.43,12.3239985 38.43,12.624 C38.43,12.9240015 38.3220011,13.178999 38.106,13.389 C37.8899989,13.5990011 37.6320015,13.704 37.332,13.704 Z M36.468,24 L36.468,15.27 L38.214,15.27 L38.214,24 L36.468,24 Z M39.726,24 L43.02,19.59 L39.996,15.54 L41.778,15.27 L44.19,18.528 L46.656,15.27 L48.546,15.27 L45.18,19.86 L48.276,24 L46.368,24 L44.01,20.904 L41.652,24 L39.726,24 Z M53.802,16.458 C52.9019955,16.458 52.2690018,16.7759968 51.903,17.412 C51.5369982,18.0480032 51.354,18.7799959 51.354,19.608 C51.354,20.4840044 51.5279983,21.2279969 51.876,21.84 C52.2240017,22.4520031 52.8659953,22.758 53.802,22.758 C54.1260016,22.758 54.4649982,22.6830007 54.819,22.533 C55.1730018,22.3829992 55.5119984,22.1760013 55.836,21.912 L55.836,17.304 C55.5119984,17.0399987 55.1730018,16.8330008 54.819,16.683 C54.4649982,16.5329992 54.1260016,16.458 53.802,16.458 Z M57.582,11.31 L57.582,24 L56.592,24 L56.124,23.19 C55.7519981,23.5140016 55.3170025,23.7689991 54.819,23.955 C54.3209975,24.1410009 53.8620021,24.234 53.442,24.234 C52.1699936,24.234 51.2100032,23.7960044 50.562,22.92 C49.9139968,22.0439956 49.59,20.9460066 49.59,19.626 C49.59,18.2939933 49.9229967,17.1870044 50.589,16.305 C51.2550033,15.4229956 52.2239936,14.982 53.496,14.982 C53.8560018,14.982 54.2459979,15.0569993 54.666,15.207 C55.0860021,15.3570007 55.4759982,15.5519988 55.836,15.792 L55.836,11.49 L57.582,11.31 Z" id="path-9"></path>
        <path d="M5.184,13.218 L3.42,13.218 L3.42,17.7 L5.094,17.7 C5.89800402,17.7 6.58499715,17.5350016 7.155,17.205 C7.72500285,16.8749983 8.01599994,16.2960041 8.028,15.468 C8.028,14.6039957 7.76700261,14.0130016 7.245,13.695 C6.72299739,13.3769984 6.03600426,13.218 5.184,13.218 Z M8.892,24 L6.156,19.05 C5.96399904,19.0620001 5.77500093,19.0739999 5.589,19.086 C5.40299907,19.0980001 5.21400096,19.104 5.022,19.104 L3.42,19.104 L3.42,24 L1.692,24 L1.692,11.76 L5.202,11.76 C6.49800648,11.76 7.59299553,12.0449971 8.487,12.615 C9.38100447,13.1850029 9.828,14.1119936 9.828,15.396 C9.81599994,16.200004 9.61200198,16.8689973 9.216,17.403 C8.81999802,17.9370027 8.31000312,18.3359987 7.686,18.6 L10.764,24 L8.892,24 Z M13.032,24 L13.032,11.76 L19.926,11.76 C19.9740002,11.9880011 20.0129998,12.2099989 20.043,12.426 C20.0730001,12.6420011 20.1119998,12.8639989 20.16,13.092 L14.76,13.092 L14.76,17.106 L18.198,17.106 C18.2340002,17.3340011 18.2699998,17.5589989 18.306,17.781 C18.3420002,18.0030011 18.3839998,18.2219989 18.432,18.438 L14.76,18.438 L14.76,22.65 L20.574,22.65 L20.808,24 L13.032,24 Z M22.734,21.966 C23.0700017,22.1340008 23.5199972,22.3049991 24.084,22.479 C24.6480028,22.6530009 25.2059972,22.74 25.758,22.74 C26.6340044,22.74 27.2999977,22.5780016 27.756,22.254 C28.2120023,21.9299984 28.44,21.5040026 28.44,20.976 C28.44,19.7639939 27.3870105,18.8670029 25.281,18.285 C23.1749895,17.7029971 22.122,16.4880092 22.122,14.64 C22.122,13.7519956 22.4789964,13.0020031 23.193,12.39 C23.9070036,11.7779969 24.8879938,11.472 26.136,11.472 C26.7480031,11.472 27.3389972,11.5559992 27.909,11.724 C28.4790029,11.8920008 28.967998,12.077999 29.376,12.282 C29.2919996,12.5100011 29.1960005,12.7379989 29.088,12.966 C28.9799995,13.1940011 28.8840004,13.4219989 28.8,13.65 C28.4879984,13.4939992 28.131002,13.3470007 27.729,13.209 C27.326998,13.0709993 26.8380029,13.002 26.262,13.002 C25.5779966,13.002 25.0050023,13.1339987 24.543,13.398 C24.0809977,13.6620013 23.85,14.0639973 23.85,14.604 C23.85,15.8400062 24.9059894,16.757997 27.018,17.358 C29.1300106,17.958003 30.186,19.1519911 30.186,20.94 C30.186,21.9000048 29.8050038,22.6889969 29.043,23.307 C28.2809962,23.9250031 27.1920071,24.234 25.776,24.234 C25.2599974,24.234 24.6180038,24.138001 23.85,23.946 C23.0819962,23.753999 22.5780012,23.5500011 22.338,23.334 C22.3980003,23.1059989 22.4609997,22.8780011 22.527,22.65 C22.5930003,22.4219989 22.6619996,22.1940011 22.734,21.966 Z M40.752,13.128 L36.72,13.128 L36.72,24 L34.974,24 L34.974,13.128 L31.176,13.128 L31.176,11.76 L40.518,11.76 L40.626,12.444 C40.6620002,12.6720011 40.7039998,12.8999989 40.752,13.128 Z M50.616,14.082 L48.654,19.338 L52.632,19.338 L50.616,14.082 Z M51.426,11.76 L56.142,23.748 L54.432,24 L53.154,20.724 L48.168,20.724 L46.944,24 L45.252,24 L49.86,11.76 L51.426,11.76 Z M57.942,24 L57.942,11.76 L61.452,11.76 C62.7480065,11.76 63.8429955,12.0539971 64.737,12.642 C65.6310045,13.2300029 66.078,14.2079932 66.078,15.576 C66.0659999,16.9320068 65.5830048,17.9249968 64.629,18.555 C63.6749952,19.1850032 62.5560064,19.5 61.272,19.5 L59.67,19.5 L59.67,24 L57.942,24 Z M61.434,13.218 L59.67,13.218 L59.67,18.06 L61.344,18.06 C62.1720041,18.06 62.8589973,17.8710019 63.405,17.493 C63.9510027,17.1149981 64.2419998,16.5000043 64.278,15.648 C64.278,14.7239954 64.0230026,14.0880017 63.513,13.74 C63.0029975,13.3919983 62.3100044,13.218 61.434,13.218 Z M68.598,24 L68.598,11.76 L70.326,11.76 L70.326,24 L68.598,24 Z" id="path-10"></path>
        <path d="M1.368,24 L1.368,11.49 L3.096,11.292 L3.096,24 L1.368,24 Z M6.66,13.704 C6.3599985,13.704 6.10800102,13.5990011 5.904,13.389 C5.69999898,13.178999 5.598,12.9240015 5.598,12.624 C5.58599994,12.3239985 5.68499895,12.0690011 5.895,11.859 C6.10500105,11.6489989 6.3599985,11.544 6.66,11.544 C6.9600015,11.544 7.21799892,11.6489989 7.434,11.859 C7.65000108,12.0690011 7.758,12.3239985 7.758,12.624 C7.758,12.9240015 7.65000108,13.178999 7.434,13.389 C7.21799892,13.5990011 6.9600015,13.704 6.66,13.704 Z M5.796,24 L5.796,15.27 L7.542,15.27 L7.542,24 L5.796,24 Z M10.224,24 L10.224,11.49 L11.952,11.292 L11.952,15.774 C12.3000017,15.5459989 12.677998,15.3570007 13.086,15.207 C13.494002,15.0569993 13.8779982,14.982 14.238,14.982 C15.5220064,14.982 16.4879968,15.4229956 17.136,16.305 C17.7840032,17.1870044 18.108,18.2879934 18.108,19.608 C18.108,20.9280066 17.7810033,22.0259956 17.127,22.902 C16.4729967,23.7780044 15.5100064,24.216 14.238,24.216 C13.829998,24.216 13.3860024,24.1290009 12.906,23.955 C12.4259976,23.7809991 11.9940019,23.5440015 11.61,23.244 L11.196,24 L10.224,24 Z M11.952,21.984 C12.2520015,22.2240012 12.5759983,22.4129993 12.924,22.551 C13.2720017,22.6890007 13.5959985,22.758 13.896,22.758 C14.7960045,22.758 15.4289982,22.4430031 15.795,21.813 C16.1610018,21.1829968 16.344,20.4540041 16.344,19.626 C16.344,18.7499956 16.1700017,18.0030031 15.822,17.385 C15.4739983,16.7669969 14.8320047,16.458 13.896,16.458 C13.5959985,16.458 13.2720017,16.5269993 12.924,16.665 C12.5759983,16.8030007 12.2520015,16.9979987 11.952,17.25 L11.952,21.984 Z M20.286,21.84 C20.5860015,21.84 20.837999,21.9449989 21.042,22.155 C21.246001,22.3650011 21.348,22.6199985 21.348,22.92 C21.348,23.2200015 21.246001,23.4749989 21.042,23.685 C20.837999,23.8950011 20.5860015,24 20.286,24 C19.9739984,24 19.7130011,23.8950011 19.503,23.685 C19.292999,23.4749989 19.188,23.2200015 19.188,22.92 C19.188,22.6199985 19.292999,22.3650011 19.503,22.155 C19.7130011,21.9449989 19.9739984,21.84 20.286,21.84 Z M23.94,13.704 C23.6399985,13.704 23.385001,13.5990011 23.175,13.389 C22.964999,13.178999 22.86,12.9240015 22.86,12.624 C22.86,12.3239985 22.964999,12.0690011 23.175,11.859 C23.385001,11.6489989 23.6399985,11.544 23.94,11.544 C24.2400015,11.544 24.4979989,11.6489989 24.714,11.859 C24.9300011,12.0690011 25.038,12.3239985 25.038,12.624 C25.038,12.9240015 24.9300011,13.178999 24.714,13.389 C24.4979989,13.5990011 24.2400015,13.704 23.94,13.704 Z M23.076,24.234 L23.076,15.27 L24.822,15.27 L24.822,23.964 C24.822,25.0080052 24.6420018,25.8029973 24.282,26.349 C23.9219982,26.8950027 23.1720057,27.3479982 22.032,27.708 L21.366,26.43 C21.9900031,26.2019989 22.4309987,25.9320016 22.689,25.62 C22.9470013,25.3079984 23.076,24.8460031 23.076,24.234 Z M32.508,17.106 C32.1719983,16.9499992 31.8210018,16.8120006 31.455,16.692 C31.0889982,16.5719994 30.6720023,16.512 30.204,16.512 C29.7479977,16.512 29.3850014,16.6049991 29.115,16.791 C28.8449987,16.9770009 28.71,17.2259984 28.71,17.538 C28.7220001,17.8020013 28.8809985,18.032999 29.187,18.231 C29.4930015,18.429001 29.9099974,18.6179991 30.438,18.798 C31.1580036,19.0620013 31.8299969,19.4189977 32.454,19.869 C33.0780031,20.3190023 33.39,20.9039964 33.39,21.624 C33.39,22.4400041 33.087003,23.0789977 32.481,23.541 C31.874997,24.0030023 30.9960058,24.234 29.844,24.234 C29.4719981,24.234 28.9920029,24.1680007 28.404,24.036 C27.8159971,23.9039993 27.3360019,23.7060013 26.964,23.442 L27.504,22.164 C27.8760019,22.3440009 28.259998,22.4879995 28.656,22.596 C29.052002,22.7040005 29.447998,22.758 29.844,22.758 C30.4200029,22.758 30.8669984,22.6680009 31.185,22.488 C31.5030016,22.3079991 31.662,22.0500017 31.662,21.714 C31.662,21.3779983 31.4910017,21.0870012 31.149,20.841 C30.8069983,20.5949988 30.3540028,20.3820009 29.79,20.202 C29.1059966,19.9739989 28.4580031,19.656002 27.846,19.248 C27.2339969,18.839998 26.928,18.2820035 26.928,17.574 C26.928,16.781996 27.224997,16.1610022 27.819,15.711 C28.413003,15.2609978 29.2199949,15.036 30.24,15.036 C30.6120019,15.036 31.0799972,15.1079993 31.644,15.252 C32.2080028,15.3960007 32.6759981,15.5999987 33.048,15.864 L32.508,17.106 Z" id="path-11"></path>
        <path d="M3.024,25.098 L3.528,23.766 L0.234,15.522 L1.98,15.27 L4.41,21.534 L6.714,15.27 L8.496,15.27 L5.562,22.956 L4.626,25.584 C4.39799886,26.184003 4.00500279,26.6939979 3.447,27.114 C2.88899721,27.5340021 2.27400336,27.8219992 1.602,27.978 L1.026,26.646 C1.45800216,26.453999 1.85999814,26.2500011 2.232,26.034 C2.60400186,25.8179989 2.86799922,25.506002 3.024,25.098 Z M13.59,24.234 C12.2699934,24.2219999 11.2680034,23.7870043 10.584,22.929 C9.89999658,22.0709957 9.558,20.9640068 9.558,19.608 C9.57000006,18.2639933 9.94199634,17.1690042 10.674,16.323 C11.4060037,15.4769958 12.4319934,15.0480001 13.752,15.036 C15.1200068,15.036 16.1549965,15.4709956 16.857,16.341 C17.5590035,17.2110043 17.91,18.3299932 17.91,19.698 C17.91,21.0540068 17.5260038,22.1459959 16.758,22.974 C15.9899962,23.8020041 14.9340067,24.2219999 13.59,24.234 Z M16.164,19.698 C16.164,18.7619953 15.9780019,17.997003 15.606,17.403 C15.2339981,16.808997 14.6340041,16.512 13.806,16.512 C12.9779959,16.512 12.360002,16.7909972 11.952,17.349 C11.543998,17.9070028 11.3340001,18.6539953 11.322,19.59 C11.322,20.5620049 11.4989982,21.3329972 11.853,21.903 C12.2070018,22.4730029 12.7979959,22.758 13.626,22.758 C14.4420041,22.758 15.0659978,22.4880027 15.498,21.948 C15.9300022,21.4079973 16.1519999,20.6580048 16.164,19.698 Z M25.92,23.082 C25.5359981,23.4420018 25.0770027,23.7329989 24.543,23.955 C24.0089973,24.1770011 23.5080023,24.288 23.04,24.288 C21.9719947,24.288 21.1950024,23.9790031 20.709,23.361 C20.2229976,22.7429969 19.98,21.9660047 19.98,21.03 L19.98,15.27 L21.726,15.27 L21.726,20.904 C21.726,21.4680028 21.8669986,21.9269982 22.149,22.281 C22.4310014,22.6350018 22.8479972,22.812 23.4,22.812 C23.7240016,22.812 24.0959979,22.7250009 24.516,22.551 C24.9360021,22.3769991 25.3259982,22.1400015 25.686,21.84 L25.686,15.27 L27.414,15.27 L27.414,24 L26.424,24 L25.92,23.082 Z M30.042,24 L30.042,15.27 L31.014,15.27 L31.572,16.512 C31.9080017,16.2239986 32.3309974,15.9450013 32.841,15.675 C33.3510026,15.4049986 33.8399977,15.27 34.308,15.27 L34.686,16.656 C34.2059976,16.656 33.7050026,16.7849987 33.183,17.043 C32.6609974,17.3010013 32.1900021,17.633998 31.77,18.042 L31.77,24 L30.042,24 Z M41.904,16.422 C42.2760019,16.013998 42.7559971,15.6720014 43.344,15.396 C43.9320029,15.1199986 44.4779975,14.982 44.982,14.982 C46.0500053,14.982 46.8269976,15.2909969 47.313,15.909 C47.7990024,16.5270031 48.042,17.3039953 48.042,18.24 L48.042,24 L46.314,24 L46.314,18.402 C46.314,17.8139971 46.1730014,17.3460017 45.891,16.998 C45.6089986,16.6499983 45.1860028,16.4700001 44.622,16.458 C44.2619982,16.458 43.8420024,16.5719989 43.362,16.8 C42.8819976,17.0280011 42.4680017,17.3279981 42.12,17.7 L42.12,24 L40.392,24 L40.392,15.27 L41.364,15.27 L41.904,16.422 Z M54.144,24.234 C52.8239934,24.2219999 51.8220034,23.7870043 51.138,22.929 C50.4539966,22.0709957 50.112,20.9640068 50.112,19.608 C50.1240001,18.2639933 50.4959963,17.1690042 51.228,16.323 C51.9600037,15.4769958 52.9859934,15.0480001 54.306,15.036 C55.6740068,15.036 56.7089965,15.4709956 57.411,16.341 C58.1130035,17.2110043 58.464,18.3299932 58.464,19.698 C58.464,21.0540068 58.0800038,22.1459959 57.312,22.974 C56.5439962,23.8020041 55.4880067,24.2219999 54.144,24.234 Z M56.718,19.698 C56.718,18.7619953 56.5320019,17.997003 56.16,17.403 C55.7879981,16.808997 55.1880041,16.512 54.36,16.512 C53.5319959,16.512 52.914002,16.7909972 52.506,17.349 C52.097998,17.9070028 51.8880001,18.6539953 51.876,19.59 C51.876,20.5620049 52.0529982,21.3329972 52.407,21.903 C52.7610018,22.4730029 53.3519959,22.758 54.18,22.758 C54.9960041,22.758 55.6199978,22.4880027 56.052,21.948 C56.4840022,21.4079973 56.7059999,20.6580048 56.718,19.698 Z M64.386,16.458 C63.4859955,16.458 62.8530018,16.7759968 62.487,17.412 C62.1209982,18.0480032 61.938,18.7799959 61.938,19.608 C61.938,20.4840044 62.1119983,21.2279969 62.46,21.84 C62.8080017,22.4520031 63.4499953,22.758 64.386,22.758 C64.7100016,22.758 65.0489982,22.6830007 65.403,22.533 C65.7570018,22.3829992 66.0959984,22.1760013 66.42,21.912 L66.42,17.304 C66.0959984,17.0399987 65.7570018,16.8330008 65.403,16.683 C65.0489982,16.5329992 64.7100016,16.458 64.386,16.458 Z M68.166,11.31 L68.166,24 L67.176,24 L66.708,23.19 C66.3359981,23.5140016 65.9010025,23.7689991 65.403,23.955 C64.9049975,24.1410009 64.4460021,24.234 64.026,24.234 C62.7539936,24.234 61.7940032,23.7960044 61.146,22.92 C60.4979968,22.0439956 60.174,20.9460066 60.174,19.626 C60.174,18.2939933 60.5069967,17.1870044 61.173,16.305 C61.8390033,15.4229956 62.8079936,14.982 64.08,14.982 C64.4400018,14.982 64.8299979,15.0569993 65.25,15.207 C65.6700021,15.3570007 66.0599982,15.5519988 66.42,15.792 L66.42,11.49 L68.166,11.31 Z M78.372,20.022 L72.18,20.022 C72.2400003,20.826004 72.4919978,21.4859974 72.936,22.002 C73.3800022,22.5180026 74.0459956,22.776 74.934,22.776 C75.4500026,22.776 75.8849982,22.7190006 76.239,22.605 C76.5930018,22.4909994 76.9499982,22.3500008 77.31,22.182 L77.85,23.442 C77.4659981,23.7060013 76.977003,23.9009994 76.383,24.027 C75.788997,24.1530006 75.3060019,24.216 74.934,24.216 C73.4699927,24.216 72.3450039,23.7930042 71.559,22.947 C70.7729961,22.1009958 70.38,20.9940068 70.38,19.626 C70.38,18.2699932 70.7489963,17.1660043 71.487,16.314 C72.2250037,15.4619957 73.2479935,15.036 74.556,15.036 C75.9720071,15.036 76.9619972,15.533995 77.526,16.53 C78.0900028,17.526005 78.372,18.6899933 78.372,20.022 Z M76.698,18.852 C76.5899995,18.1319964 76.3620017,17.5620021 76.014,17.142 C75.6659983,16.7219979 75.1620033,16.512 74.502,16.512 C73.8299966,16.512 73.3020019,16.7249979 72.918,17.151 C72.5339981,17.5770021 72.3000004,18.1439965 72.216,18.852 L76.698,18.852 Z M80.46,21.84 C80.7600015,21.84 81.011999,21.9449989 81.216,22.155 C81.420001,22.3650011 81.522,22.6199985 81.522,22.92 C81.522,23.2200015 81.420001,23.4749989 81.216,23.685 C81.011999,23.8950011 80.7600015,24 80.46,24 C80.1479984,24 79.8870011,23.8950011 79.677,23.685 C79.466999,23.4749989 79.362,23.2200015 79.362,22.92 C79.362,22.6199985 79.466999,22.3650011 79.677,22.155 C79.8870011,21.9449989 80.1479984,21.84 80.46,21.84 Z M84.114,13.704 C83.8139985,13.704 83.5590011,13.5990011 83.349,13.389 C83.138999,13.178999 83.034,12.9240015 83.034,12.624 C83.034,12.3239985 83.138999,12.0690011 83.349,11.859 C83.5590011,11.6489989 83.8139985,11.544 84.114,11.544 C84.4140015,11.544 84.6719989,11.6489989 84.888,11.859 C85.1040011,12.0690011 85.212,12.3239985 85.212,12.624 C85.212,12.9240015 85.1040011,13.178999 84.888,13.389 C84.6719989,13.5990011 84.4140015,13.704 84.114,13.704 Z M83.25,24.234 L83.25,15.27 L84.996,15.27 L84.996,23.964 C84.996,25.0080052 84.8160018,25.8029973 84.456,26.349 C84.0959982,26.8950027 83.3460057,27.3479982 82.206,27.708 L81.54,26.43 C82.1640031,26.2019989 82.6049987,25.9320016 82.863,25.62 C83.1210013,25.3079984 83.25,24.8460031 83.25,24.234 Z M92.682,17.106 C92.3459983,16.9499992 91.9950018,16.8120006 91.629,16.692 C91.2629982,16.5719994 90.8460023,16.512 90.378,16.512 C89.9219977,16.512 89.5590014,16.6049991 89.289,16.791 C89.0189987,16.9770009 88.884,17.2259984 88.884,17.538 C88.8960001,17.8020013 89.0549985,18.032999 89.361,18.231 C89.6670015,18.429001 90.0839974,18.6179991 90.612,18.798 C91.3320036,19.0620013 92.0039969,19.4189977 92.628,19.869 C93.2520031,20.3190023 93.564,20.9039964 93.564,21.624 C93.564,22.4400041 93.261003,23.0789977 92.655,23.541 C92.048997,24.0030023 91.1700058,24.234 90.018,24.234 C89.6459981,24.234 89.1660029,24.1680007 88.578,24.036 C87.9899971,23.9039993 87.5100019,23.7060013 87.138,23.442 L87.678,22.164 C88.0500019,22.3440009 88.433998,22.4879995 88.83,22.596 C89.226002,22.7040005 89.621998,22.758 90.018,22.758 C90.5940029,22.758 91.0409984,22.6680009 91.359,22.488 C91.6770016,22.3079991 91.836,22.0500017 91.836,21.714 C91.836,21.3779983 91.6650017,21.0870012 91.323,20.841 C90.9809983,20.5949988 90.5280028,20.3820009 89.964,20.202 C89.2799966,19.9739989 88.6320031,19.656002 88.02,19.248 C87.4079969,18.839998 87.102,18.2820035 87.102,17.574 C87.102,16.781996 87.398997,16.1610022 87.993,15.711 C88.587003,15.2609978 89.3939949,15.036 90.414,15.036 C90.7860019,15.036 91.2539972,15.1079993 91.818,15.252 C92.3820028,15.3960007 92.8499981,15.5999987 93.222,15.864 L92.682,17.106 Z M100.998,21.48 C100.998,21.8160017 101.117999,22.1279986 101.358,22.416 C101.598001,22.7040014 101.963998,22.848 102.456,22.848 C102.900002,22.848 103.316998,22.7400011 103.707,22.524 C104.097002,22.3079989 104.441999,22.0320017 104.742,21.696 L104.742,19.932 L102.618,19.932 C102.089997,19.932 101.688001,20.0879984 101.412,20.4 C101.135999,20.7120016 100.998,21.071998 100.998,21.48 Z M99.972,15.81 C100.308002,15.5819989 100.793997,15.3960007 101.43,15.252 C102.066003,15.1079993 102.569998,15.036 102.942,15.036 C103.950005,15.036 104.789997,15.3179972 105.462,15.882 C106.134003,16.4460028 106.47,17.1779955 106.47,18.078 L106.47,24 L105.498,24 C105.414,23.8679993 105.336,23.7300007 105.264,23.586 C105.192,23.4419993 105.12,23.3040007 105.048,23.172 C104.747999,23.4360013 104.364002,23.6759989 103.896,23.892 C103.427998,24.1080011 102.960002,24.216 102.492,24.216 C101.459995,24.216 100.695002,23.9580026 100.197,23.442 C99.6989975,22.9259974 99.45,22.272004 99.45,21.48 C99.45,20.6039956 99.746997,19.9350023 100.341,19.473 C100.935003,19.0109977 101.705995,18.78 102.654,18.78 L104.724,18.78 C104.724,18.179997 104.604001,17.6640022 104.364,17.232 C104.123999,16.7999978 103.662003,16.584 102.978,16.584 C102.461997,16.584 101.994002,16.6469994 101.574,16.773 C101.153998,16.8990006 100.782002,17.0339993 100.458,17.178 L99.972,15.81 Z M110.79,21.984 C111.090002,22.2240012 111.413998,22.4129993 111.762,22.551 C112.110002,22.6890007 112.433999,22.758 112.734,22.758 C113.634005,22.758 114.266998,22.4430031 114.633,21.813 C114.999002,21.1829968 115.182,20.4540041 115.182,19.626 C115.182,18.7499956 115.008002,18.0030031 114.66,17.385 C114.311998,16.7669969 113.670005,16.458 112.734,16.458 C112.433999,16.458 112.110002,16.5269993 111.762,16.665 C111.413998,16.8030007 111.090002,16.9979987 110.79,17.25 L110.79,21.984 Z M109.062,27.942 L109.062,15.27 L110.034,15.27 L110.412,16.008 C110.796002,15.7079985 111.233998,15.462001 111.726,15.27 C112.218002,15.077999 112.667998,14.982 113.076,14.982 C114.360006,14.982 115.325997,15.4229956 115.974,16.305 C116.622003,17.1870044 116.946,18.2879934 116.946,19.608 C116.946,20.9280066 116.619003,22.0259956 115.965,22.902 C115.310997,23.7780044 114.348006,24.216 113.076,24.216 C112.715998,24.216 112.332002,24.1470007 111.924,24.009 C111.515998,23.8709993 111.138002,23.6820012 110.79,23.442 L110.79,27.744 L109.062,27.942 Z M120.888,21.984 C121.188002,22.2240012 121.511998,22.4129993 121.86,22.551 C122.208002,22.6890007 122.531999,22.758 122.832,22.758 C123.732005,22.758 124.364998,22.4430031 124.731,21.813 C125.097002,21.1829968 125.28,20.4540041 125.28,19.626 C125.28,18.7499956 125.106002,18.0030031 124.758,17.385 C124.409998,16.7669969 123.768005,16.458 122.832,16.458 C122.531999,16.458 122.208002,16.5269993 121.86,16.665 C121.511998,16.8030007 121.188002,16.9979987 120.888,17.25 L120.888,21.984 Z M119.16,27.942 L119.16,15.27 L120.132,15.27 L120.51,16.008 C120.894002,15.7079985 121.331998,15.462001 121.824,15.27 C122.316002,15.077999 122.765998,14.982 123.174,14.982 C124.458006,14.982 125.423997,15.4229956 126.072,16.305 C126.720003,17.1870044 127.044,18.2879934 127.044,19.608 C127.044,20.9280066 126.717003,22.0259956 126.063,22.902 C125.408997,23.7780044 124.446006,24.216 123.174,24.216 C122.813998,24.216 122.430002,24.1470007 122.022,24.009 C121.613998,23.8709993 121.236002,23.6820012 120.888,23.442 L120.888,27.744 L119.16,27.942 Z M129.258,24 L129.258,11.49 L130.986,11.292 L130.986,24 L129.258,24 Z M134.55,13.704 C134.249999,13.704 133.998001,13.5990011 133.794,13.389 C133.589999,13.178999 133.488,12.9240015 133.488,12.624 C133.476,12.3239985 133.574999,12.0690011 133.785,11.859 C133.995001,11.6489989 134.249999,11.544 134.55,11.544 C134.850002,11.544 135.107999,11.6489989 135.324,11.859 C135.540001,12.0690011 135.648,12.3239985 135.648,12.624 C135.648,12.9240015 135.540001,13.178999 135.324,13.389 C135.107999,13.5990011 134.850002,13.704 134.55,13.704 Z M133.686,24 L133.686,15.27 L135.432,15.27 L135.432,24 L133.686,24 Z M141.804,16.512 C140.987996,16.512 140.379002,16.808997 139.977,17.403 C139.574998,17.997003 139.368,18.7319956 139.356,19.608 C139.356,20.5200046 139.547998,21.272997 139.932,21.867 C140.316002,22.461003 140.921996,22.758 141.75,22.758 C142.278003,22.758 142.694998,22.7040005 143.001,22.596 C143.307002,22.4879995 143.645998,22.3440009 144.018,22.164 L144.54,23.406 C144.155998,23.6700013 143.688003,23.8739993 143.136,24.018 C142.583997,24.1620007 142.122002,24.234 141.75,24.234 C140.405993,24.234 139.377004,23.8080043 138.663,22.956 C137.948996,22.1039957 137.592,20.9940068 137.592,19.626 C137.604,18.2699932 137.972996,17.1660043 138.699,16.314 C139.425004,15.4619957 140.465993,15.036 141.822,15.036 C142.182002,15.036 142.634997,15.1109992 143.181,15.261 C143.727003,15.4110007 144.191998,15.6179987 144.576,15.882 L144.072,17.106 C143.699998,16.9499992 143.358002,16.8120006 143.046,16.692 C142.733998,16.5719994 142.320003,16.512 141.804,16.512 Z M147.726,21.48 C147.726,21.8160017 147.845999,22.1279986 148.086,22.416 C148.326001,22.7040014 148.691998,22.848 149.184,22.848 C149.628002,22.848 150.044998,22.7400011 150.435,22.524 C150.825002,22.3079989 151.169999,22.0320017 151.47,21.696 L151.47,19.932 L149.346,19.932 C148.817997,19.932 148.416001,20.0879984 148.14,20.4 C147.863999,20.7120016 147.726,21.071998 147.726,21.48 Z M146.7,15.81 C147.036002,15.5819989 147.521997,15.3960007 148.158,15.252 C148.794003,15.1079993 149.297998,15.036 149.67,15.036 C150.678005,15.036 151.517997,15.3179972 152.19,15.882 C152.862003,16.4460028 153.198,17.1779955 153.198,18.078 L153.198,24 L152.226,24 C152.142,23.8679993 152.064,23.7300007 151.992,23.586 C151.92,23.4419993 151.848,23.3040007 151.776,23.172 C151.475999,23.4360013 151.092002,23.6759989 150.624,23.892 C150.155998,24.1080011 149.688002,24.216 149.22,24.216 C148.187995,24.216 147.423002,23.9580026 146.925,23.442 C146.426998,22.9259974 146.178,22.272004 146.178,21.48 C146.178,20.6039956 146.474997,19.9350023 147.069,19.473 C147.663003,19.0109977 148.433995,18.78 149.382,18.78 L151.452,18.78 C151.452,18.179997 151.332001,17.6640022 151.092,17.232 C150.851999,16.7999978 150.390003,16.584 149.706,16.584 C149.189997,16.584 148.722002,16.6469994 148.302,16.773 C147.881998,16.8990006 147.510002,17.0339993 147.186,17.178 L146.7,15.81 Z M160.164,23.928 C160.007999,24.0120004 159.789001,24.0959996 159.507,24.18 C159.224999,24.2640004 158.952001,24.306 158.688,24.306 C157.835996,24.306 157.158003,24.0720023 156.654,23.604 C156.149997,23.1359977 155.898,22.4580044 155.898,21.57 L155.898,16.692 L154.674,16.692 L154.656,15.378 L155.898,15.378 L155.898,13.2 L157.626,12.804 L157.626,15.378 L159.21,15.378 L159.75,16.692 L157.626,16.692 L157.626,21.3 C157.626,21.7440022 157.724999,22.1069986 157.923,22.389 C158.121001,22.6710014 158.435998,22.812 158.868,22.812 C159.012001,22.812 159.158999,22.7910002 159.309,22.749 C159.459001,22.7069998 159.593999,22.6620002 159.714,22.614 L160.164,23.928 Z M162.738,13.704 C162.437999,13.704 162.186001,13.5990011 161.982,13.389 C161.777999,13.178999 161.676,12.9240015 161.676,12.624 C161.664,12.3239985 161.762999,12.0690011 161.973,11.859 C162.183001,11.6489989 162.437999,11.544 162.738,11.544 C163.038002,11.544 163.295999,11.6489989 163.512,11.859 C163.728001,12.0690011 163.836,12.3239985 163.836,12.624 C163.836,12.9240015 163.728001,13.178999 163.512,13.389 C163.295999,13.5990011 163.038002,13.704 162.738,13.704 Z M161.874,24 L161.874,15.27 L163.62,15.27 L163.62,24 L161.874,24 Z M169.812,24.234 C168.491993,24.2219999 167.490003,23.7870043 166.806,22.929 C166.121997,22.0709957 165.78,20.9640068 165.78,19.608 C165.792,18.2639933 166.163996,17.1690042 166.896,16.323 C167.628004,15.4769958 168.653993,15.0480001 169.974,15.036 C171.342007,15.036 172.376996,15.4709956 173.079,16.341 C173.781004,17.2110043 174.132,18.3299932 174.132,19.698 C174.132,21.0540068 173.748004,22.1459959 172.98,22.974 C172.211996,23.8020041 171.156007,24.2219999 169.812,24.234 Z M172.386,19.698 C172.386,18.7619953 172.200002,17.997003 171.828,17.403 C171.455998,16.808997 170.856004,16.512 170.028,16.512 C169.199996,16.512 168.582002,16.7909972 168.174,17.349 C167.765998,17.9070028 167.556,18.6539953 167.544,19.59 C167.544,20.5620049 167.720998,21.3329972 168.075,21.903 C168.429002,22.4730029 169.019996,22.758 169.848,22.758 C170.664004,22.758 171.287998,22.4880027 171.72,21.948 C172.152002,21.4079973 172.374,20.6580048 172.386,19.698 Z M177.822,16.422 C178.194002,16.013998 178.673997,15.6720014 179.262,15.396 C179.850003,15.1199986 180.395997,14.982 180.9,14.982 C181.968005,14.982 182.744998,15.2909969 183.231,15.909 C183.717002,16.5270031 183.96,17.3039953 183.96,18.24 L183.96,24 L182.232,24 L182.232,18.402 C182.232,17.8139971 182.091001,17.3460017 181.809,16.998 C181.526999,16.6499983 181.104003,16.4700001 180.54,16.458 C180.179998,16.458 179.760002,16.5719989 179.28,16.8 C178.799998,17.0280011 178.386002,17.3279981 178.038,17.7 L178.038,24 L176.31,24 L176.31,15.27 L177.282,15.27 L177.822,16.422 Z" id="path-12"></path>
        <path d="M5.058,16.458 C4.1579955,16.458 3.52500183,16.7759968 3.159,17.412 C2.79299817,18.0480032 2.61,18.7799959 2.61,19.608 C2.61,20.4840044 2.78399826,21.2279969 3.132,21.84 C3.48000174,22.4520031 4.12199532,22.758 5.058,22.758 C5.38200162,22.758 5.72099823,22.6830007 6.075,22.533 C6.42900177,22.3829992 6.76799838,22.1760013 7.092,21.912 L7.092,17.304 C6.76799838,17.0399987 6.42900177,16.8330008 6.075,16.683 C5.72099823,16.5329992 5.38200162,16.458 5.058,16.458 Z M8.838,11.31 L8.838,24 L7.848,24 L7.38,23.19 C7.00799814,23.5140016 6.57300249,23.7689991 6.075,23.955 C5.57699751,24.1410009 5.1180021,24.234 4.698,24.234 C3.42599364,24.234 2.46600324,23.7960044 1.818,22.92 C1.16999676,22.0439956 0.846,20.9460066 0.846,19.626 C0.846,18.2939933 1.17899667,17.1870044 1.845,16.305 C2.51100333,15.4229956 3.47999364,14.982 4.752,14.982 C5.1120018,14.982 5.5019979,15.0569993 5.922,15.207 C6.3420021,15.3570007 6.7319982,15.5519988 7.092,15.792 L7.092,11.49 L8.838,11.31 Z M12.402,13.704 C12.1019985,13.704 11.850001,13.5990011 11.646,13.389 C11.441999,13.178999 11.34,12.9240015 11.34,12.624 C11.3279999,12.3239985 11.426999,12.0690011 11.637,11.859 C11.8470011,11.6489989 12.1019985,11.544 12.402,11.544 C12.7020015,11.544 12.9599989,11.6489989 13.176,11.859 C13.3920011,12.0690011 13.5,12.3239985 13.5,12.624 C13.5,12.9240015 13.3920011,13.178999 13.176,13.389 C12.9599989,13.5990011 12.7020015,13.704 12.402,13.704 Z M11.538,24 L11.538,15.27 L13.284,15.27 L13.284,24 L11.538,24 Z M15.912,24 L15.912,15.27 L16.884,15.27 L17.442,16.512 C17.7780017,16.2239986 18.2009975,15.9450013 18.711,15.675 C19.2210026,15.4049986 19.7099977,15.27 20.178,15.27 L20.556,16.656 C20.0759976,16.656 19.5750026,16.7849987 19.053,17.043 C18.5309974,17.3010013 18.0600021,17.633998 17.64,18.042 L17.64,24 L15.912,24 Z M29.538,20.022 L23.346,20.022 C23.4060003,20.826004 23.6579978,21.4859974 24.102,22.002 C24.5460022,22.5180026 25.2119956,22.776 26.1,22.776 C26.6160026,22.776 27.0509982,22.7190006 27.405,22.605 C27.7590018,22.4909994 28.1159982,22.3500008 28.476,22.182 L29.016,23.442 C28.6319981,23.7060013 28.143003,23.9009994 27.549,24.027 C26.954997,24.1530006 26.4720019,24.216 26.1,24.216 C24.6359927,24.216 23.5110039,23.7930042 22.725,22.947 C21.9389961,22.1009958 21.546,20.9940068 21.546,19.626 C21.546,18.2699932 21.9149963,17.1660043 22.653,16.314 C23.3910037,15.4619957 24.4139935,15.036 25.722,15.036 C27.1380071,15.036 28.1279972,15.533995 28.692,16.53 C29.2560028,17.526005 29.538,18.6899933 29.538,20.022 Z M27.864,18.852 C27.7559995,18.1319964 27.5280017,17.5620021 27.18,17.142 C26.8319983,16.7219979 26.3280033,16.512 25.668,16.512 C24.9959966,16.512 24.4680019,16.7249979 24.084,17.151 C23.6999981,17.5770021 23.4660004,18.1439965 23.382,18.852 L27.864,18.852 Z M35.352,16.512 C34.5359959,16.512 33.927002,16.808997 33.525,17.403 C33.122998,17.997003 32.9160001,18.7319956 32.904,19.608 C32.904,20.5200046 33.0959981,21.272997 33.48,21.867 C33.8640019,22.461003 34.4699959,22.758 35.298,22.758 C35.8260026,22.758 36.2429985,22.7040005 36.549,22.596 C36.8550015,22.4879995 37.1939981,22.3440009 37.566,22.164 L38.088,23.406 C37.7039981,23.6700013 37.2360028,23.8739993 36.684,24.018 C36.1319972,24.1620007 35.6700019,24.234 35.298,24.234 C33.9539933,24.234 32.9250036,23.8080043 32.211,22.956 C31.4969964,22.1039957 31.14,20.9940068 31.14,19.626 C31.1520001,18.2699932 31.5209964,17.1660043 32.247,16.314 C32.9730036,15.4619957 34.0139932,15.036 35.37,15.036 C35.7300018,15.036 36.1829973,15.1109992 36.729,15.261 C37.2750027,15.4110007 37.7399981,15.6179987 38.124,15.882 L37.62,17.106 C37.2479981,16.9499992 36.9060016,16.8120006 36.594,16.692 C36.2819984,16.5719994 35.8680026,16.512 35.352,16.512 Z M44.568,23.928 C44.4119992,24.0120004 44.1930014,24.0959996 43.911,24.18 C43.6289986,24.2640004 43.3560013,24.306 43.092,24.306 C42.2399957,24.306 41.5620025,24.0720023 41.058,23.604 C40.5539975,23.1359977 40.302,22.4580044 40.302,21.57 L40.302,16.692 L39.078,16.692 L39.06,15.378 L40.302,15.378 L40.302,13.2 L42.03,12.804 L42.03,15.378 L43.614,15.378 L44.154,16.692 L42.03,16.692 L42.03,21.3 C42.03,21.7440022 42.128999,22.1069986 42.327,22.389 C42.525001,22.6710014 42.8399978,22.812 43.272,22.812 C43.4160007,22.812 43.5629993,22.7910002 43.713,22.749 C43.8630008,22.7069998 43.9979994,22.6620002 44.118,22.614 L44.568,23.928 Z M54.252,16.512 C53.4359959,16.512 52.827002,16.808997 52.425,17.403 C52.022998,17.997003 51.8160001,18.7319956 51.804,19.608 C51.804,20.5200046 51.9959981,21.272997 52.38,21.867 C52.7640019,22.461003 53.3699959,22.758 54.198,22.758 C54.7260026,22.758 55.1429985,22.7040005 55.449,22.596 C55.7550015,22.4879995 56.0939981,22.3440009 56.466,22.164 L56.988,23.406 C56.6039981,23.6700013 56.1360028,23.8739993 55.584,24.018 C55.0319972,24.1620007 54.5700019,24.234 54.198,24.234 C52.8539933,24.234 51.8250036,23.8080043 51.111,22.956 C50.3969964,22.1039957 50.04,20.9940068 50.04,19.626 C50.0520001,18.2699932 50.4209964,17.1660043 51.147,16.314 C51.8730036,15.4619957 52.9139932,15.036 54.27,15.036 C54.6300018,15.036 55.0829973,15.1109992 55.629,15.261 C56.1750027,15.4110007 56.6399981,15.6179987 57.024,15.882 L56.52,17.106 C56.1479981,16.9499992 55.8060016,16.8120006 55.494,16.692 C55.1819984,16.5719994 54.7680026,16.512 54.252,16.512 Z M60.174,21.48 C60.174,21.8160017 60.2939988,22.1279986 60.534,22.416 C60.7740012,22.7040014 61.1399975,22.848 61.632,22.848 C62.0760022,22.848 62.4929981,22.7400011 62.883,22.524 C63.273002,22.3079989 63.6179985,22.0320017 63.918,21.696 L63.918,19.932 L61.794,19.932 C61.2659974,19.932 60.8640014,20.0879984 60.588,20.4 C60.3119986,20.7120016 60.174,21.071998 60.174,21.48 Z M59.148,15.81 C59.4840017,15.5819989 59.9699968,15.3960007 60.606,15.252 C61.2420032,15.1079993 61.7459981,15.036 62.118,15.036 C63.126005,15.036 63.9659966,15.3179972 64.638,15.882 C65.3100034,16.4460028 65.646,17.1779955 65.646,18.078 L65.646,24 L64.674,24 C64.5899996,23.8679993 64.5120004,23.7300007 64.44,23.586 C64.3679996,23.4419993 64.2960004,23.3040007 64.224,23.172 C63.9239985,23.4360013 63.5400023,23.6759989 63.072,23.892 C62.6039977,24.1080011 62.1360023,24.216 61.668,24.216 C60.6359948,24.216 59.8710025,23.9580026 59.373,23.442 C58.8749975,22.9259974 58.626,22.272004 58.626,21.48 C58.626,20.6039956 58.922997,19.9350023 59.517,19.473 C60.111003,19.0109977 60.8819953,18.78 61.83,18.78 L63.9,18.78 C63.9,18.179997 63.7800012,17.6640022 63.54,17.232 C63.2999988,16.7999978 62.8380034,16.584 62.154,16.584 C61.6379974,16.584 61.1700021,16.6469994 60.75,16.773 C60.3299979,16.8990006 59.9580016,17.0339993 59.634,17.178 L59.148,15.81 Z M68.238,24 L68.238,11.49 L69.966,11.292 L69.966,24 L68.238,24 Z M72.702,24 L72.702,11.49 L74.43,11.292 L74.43,24 L72.702,24 Z M82.116,17.106 C81.7799983,16.9499992 81.4290018,16.8120006 81.063,16.692 C80.6969982,16.5719994 80.2800023,16.512 79.812,16.512 C79.3559977,16.512 78.9930014,16.6049991 78.723,16.791 C78.4529987,16.9770009 78.318,17.2259984 78.318,17.538 C78.3300001,17.8020013 78.4889985,18.032999 78.795,18.231 C79.1010015,18.429001 79.5179974,18.6179991 80.046,18.798 C80.7660036,19.0620013 81.4379969,19.4189977 82.062,19.869 C82.6860031,20.3190023 82.998,20.9039964 82.998,21.624 C82.998,22.4400041 82.695003,23.0789977 82.089,23.541 C81.482997,24.0030023 80.6040058,24.234 79.452,24.234 C79.0799981,24.234 78.6000029,24.1680007 78.012,24.036 C77.4239971,23.9039993 76.9440019,23.7060013 76.572,23.442 L77.112,22.164 C77.4840019,22.3440009 77.867998,22.4879995 78.264,22.596 C78.660002,22.7040005 79.055998,22.758 79.452,22.758 C80.0280029,22.758 80.4749984,22.6680009 80.793,22.488 C81.1110016,22.3079991 81.27,22.0500017 81.27,21.714 C81.27,21.3779983 81.0990017,21.0870012 80.757,20.841 C80.4149983,20.5949988 79.9620028,20.3820009 79.398,20.202 C78.7139966,19.9739989 78.0660031,19.656002 77.454,19.248 C76.8419969,18.839998 76.536,18.2820035 76.536,17.574 C76.536,16.781996 76.832997,16.1610022 77.427,15.711 C78.021003,15.2609978 78.8279949,15.036 79.848,15.036 C80.2200019,15.036 80.6879972,15.1079993 81.252,15.252 C81.8160028,15.3960007 82.2839981,15.5999987 82.656,15.864 L82.116,17.106 Z" id="path-13"></path>
        <path d="M3.024,25.098 L3.528,23.766 L0.234,15.522 L1.98,15.27 L4.41,21.534 L6.714,15.27 L8.496,15.27 L5.562,22.956 L4.626,25.584 C4.39799886,26.184003 4.00500279,26.6939979 3.447,27.114 C2.88899721,27.5340021 2.27400336,27.8219992 1.602,27.978 L1.026,26.646 C1.45800216,26.453999 1.85999814,26.2500011 2.232,26.034 C2.60400186,25.8179989 2.86799922,25.506002 3.024,25.098 Z M13.59,24.234 C12.2699934,24.2219999 11.2680034,23.7870043 10.584,22.929 C9.89999658,22.0709957 9.558,20.9640068 9.558,19.608 C9.57000006,18.2639933 9.94199634,17.1690042 10.674,16.323 C11.4060037,15.4769958 12.4319934,15.0480001 13.752,15.036 C15.1200068,15.036 16.1549965,15.4709956 16.857,16.341 C17.5590035,17.2110043 17.91,18.3299932 17.91,19.698 C17.91,21.0540068 17.5260038,22.1459959 16.758,22.974 C15.9899962,23.8020041 14.9340067,24.2219999 13.59,24.234 Z M16.164,19.698 C16.164,18.7619953 15.9780019,17.997003 15.606,17.403 C15.2339981,16.808997 14.6340041,16.512 13.806,16.512 C12.9779959,16.512 12.360002,16.7909972 11.952,17.349 C11.543998,17.9070028 11.3340001,18.6539953 11.322,19.59 C11.322,20.5620049 11.4989982,21.3329972 11.853,21.903 C12.2070018,22.4730029 12.7979959,22.758 13.626,22.758 C14.4420041,22.758 15.0659978,22.4880027 15.498,21.948 C15.9300022,21.4079973 16.1519999,20.6580048 16.164,19.698 Z M25.92,23.082 C25.5359981,23.4420018 25.0770027,23.7329989 24.543,23.955 C24.0089973,24.1770011 23.5080023,24.288 23.04,24.288 C21.9719947,24.288 21.1950024,23.9790031 20.709,23.361 C20.2229976,22.7429969 19.98,21.9660047 19.98,21.03 L19.98,15.27 L21.726,15.27 L21.726,20.904 C21.726,21.4680028 21.8669986,21.9269982 22.149,22.281 C22.4310014,22.6350018 22.8479972,22.812 23.4,22.812 C23.7240016,22.812 24.0959979,22.7250009 24.516,22.551 C24.9360021,22.3769991 25.3259982,22.1400015 25.686,21.84 L25.686,15.27 L27.414,15.27 L27.414,24 L26.424,24 L25.92,23.082 Z M30.042,24 L30.042,15.27 L31.014,15.27 L31.572,16.512 C31.9080017,16.2239986 32.3309974,15.9450013 32.841,15.675 C33.3510026,15.4049986 33.8399977,15.27 34.308,15.27 L34.686,16.656 C34.2059976,16.656 33.7050026,16.7849987 33.183,17.043 C32.6609974,17.3010013 32.1900021,17.633998 31.77,18.042 L31.77,24 L30.042,24 Z M47.934,24 L45.828,17.79 L43.83,24 L42.246,24 L39.312,15.522 L41.076,15.27 L43.056,21.426 L44.946,15.27 L46.764,15.27 L48.744,21.426 L50.634,15.27 L52.416,15.27 L49.518,24 L47.934,24 Z M61.488,20.022 L55.296,20.022 C55.3560003,20.826004 55.6079978,21.4859974 56.052,22.002 C56.4960022,22.5180026 57.1619956,22.776 58.05,22.776 C58.5660026,22.776 59.0009982,22.7190006 59.355,22.605 C59.7090018,22.4909994 60.0659982,22.3500008 60.426,22.182 L60.966,23.442 C60.5819981,23.7060013 60.093003,23.9009994 59.499,24.027 C58.904997,24.1530006 58.4220019,24.216 58.05,24.216 C56.5859927,24.216 55.4610039,23.7930042 54.675,22.947 C53.8889961,22.1009958 53.496,20.9940068 53.496,19.626 C53.496,18.2699932 53.8649963,17.1660043 54.603,16.314 C55.3410037,15.4619957 56.3639935,15.036 57.672,15.036 C59.0880071,15.036 60.0779972,15.533995 60.642,16.53 C61.2060028,17.526005 61.488,18.6899933 61.488,20.022 Z M59.814,18.852 C59.7059995,18.1319964 59.4780017,17.5620021 59.13,17.142 C58.7819983,16.7219979 58.2780033,16.512 57.618,16.512 C56.9459966,16.512 56.4180019,16.7249979 56.034,17.151 C55.6499981,17.5770021 55.4160004,18.1439965 55.332,18.852 L59.814,18.852 Z M63.612,24 L63.612,11.49 L65.34,11.292 L65.34,15.774 C65.6880017,15.5459989 66.065998,15.3570007 66.474,15.207 C66.882002,15.0569993 67.2659982,14.982 67.626,14.982 C68.9100064,14.982 69.8759968,15.4229956 70.524,16.305 C71.1720032,17.1870044 71.496,18.2879934 71.496,19.608 C71.496,20.9280066 71.1690033,22.0259956 70.515,22.902 C69.8609967,23.7780044 68.8980064,24.216 67.626,24.216 C67.217998,24.216 66.7740024,24.1290009 66.294,23.955 C65.8139976,23.7809991 65.3820019,23.5440015 64.998,23.244 L64.584,24 L63.612,24 Z M65.34,21.984 C65.6400015,22.2240012 65.9639983,22.4129993 66.312,22.551 C66.6600017,22.6890007 66.9839985,22.758 67.284,22.758 C68.1840045,22.758 68.8169982,22.4430031 69.183,21.813 C69.5490018,21.1829968 69.732,20.4540041 69.732,19.626 C69.732,18.7499956 69.5580017,18.0030031 69.21,17.385 C68.8619983,16.7669969 68.2200047,16.458 67.284,16.458 C66.9839985,16.458 66.6600017,16.5269993 66.312,16.665 C65.9639983,16.8030007 65.6400015,16.9979987 65.34,17.25 L65.34,21.984 Z M79.038,21.48 C79.038,21.8160017 79.1579988,22.1279986 79.398,22.416 C79.6380012,22.7040014 80.0039975,22.848 80.496,22.848 C80.9400022,22.848 81.3569981,22.7400011 81.747,22.524 C82.137002,22.3079989 82.4819985,22.0320017 82.782,21.696 L82.782,19.932 L80.658,19.932 C80.1299974,19.932 79.7280014,20.0879984 79.452,20.4 C79.1759986,20.7120016 79.038,21.071998 79.038,21.48 Z M78.012,15.81 C78.3480017,15.5819989 78.8339968,15.3960007 79.47,15.252 C80.1060032,15.1079993 80.6099981,15.036 80.982,15.036 C81.990005,15.036 82.8299966,15.3179972 83.502,15.882 C84.1740034,16.4460028 84.51,17.1779955 84.51,18.078 L84.51,24 L83.538,24 C83.4539996,23.8679993 83.3760004,23.7300007 83.304,23.586 C83.2319996,23.4419993 83.1600004,23.3040007 83.088,23.172 C82.7879985,23.4360013 82.4040023,23.6759989 81.936,23.892 C81.4679977,24.1080011 81.0000023,24.216 80.532,24.216 C79.4999948,24.216 78.7350025,23.9580026 78.237,23.442 C77.7389975,22.9259974 77.49,22.272004 77.49,21.48 C77.49,20.6039956 77.786997,19.9350023 78.381,19.473 C78.975003,19.0109977 79.7459953,18.78 80.694,18.78 L82.764,18.78 C82.764,18.179997 82.6440012,17.6640022 82.404,17.232 C82.1639988,16.7999978 81.7020034,16.584 81.018,16.584 C80.5019974,16.584 80.0340021,16.6469994 79.614,16.773 C79.1939979,16.8990006 78.8220016,17.0339993 78.498,17.178 L78.012,15.81 Z M88.83,21.984 C89.1300015,22.2240012 89.4539983,22.4129993 89.802,22.551 C90.1500017,22.6890007 90.4739985,22.758 90.774,22.758 C91.6740045,22.758 92.3069982,22.4430031 92.673,21.813 C93.0390018,21.1829968 93.222,20.4540041 93.222,19.626 C93.222,18.7499956 93.0480017,18.0030031 92.7,17.385 C92.3519983,16.7669969 91.7100047,16.458 90.774,16.458 C90.4739985,16.458 90.1500017,16.5269993 89.802,16.665 C89.4539983,16.8030007 89.1300015,16.9979987 88.83,17.25 L88.83,21.984 Z M87.102,27.942 L87.102,15.27 L88.074,15.27 L88.452,16.008 C88.8360019,15.7079985 89.2739975,15.462001 89.766,15.27 C90.2580025,15.077999 90.707998,14.982 91.116,14.982 C92.4000064,14.982 93.3659968,15.4229956 94.014,16.305 C94.6620032,17.1870044 94.986,18.2879934 94.986,19.608 C94.986,20.9280066 94.6590033,22.0259956 94.005,22.902 C93.3509967,23.7780044 92.3880064,24.216 91.116,24.216 C90.7559982,24.216 90.372002,24.1470007 89.964,24.009 C89.555998,23.8709993 89.1780017,23.6820012 88.83,23.442 L88.83,27.744 L87.102,27.942 Z M98.928,21.984 C99.2280015,22.2240012 99.5519983,22.4129993 99.9,22.551 C100.248002,22.6890007 100.571999,22.758 100.872,22.758 C101.772005,22.758 102.404998,22.4430031 102.771,21.813 C103.137002,21.1829968 103.32,20.4540041 103.32,19.626 C103.32,18.7499956 103.146002,18.0030031 102.798,17.385 C102.449998,16.7669969 101.808005,16.458 100.872,16.458 C100.571999,16.458 100.248002,16.5269993 99.9,16.665 C99.5519983,16.8030007 99.2280015,16.9979987 98.928,17.25 L98.928,21.984 Z M97.2,27.942 L97.2,15.27 L98.172,15.27 L98.55,16.008 C98.9340019,15.7079985 99.3719975,15.462001 99.864,15.27 C100.356002,15.077999 100.805998,14.982 101.214,14.982 C102.498006,14.982 103.463997,15.4229956 104.112,16.305 C104.760003,17.1870044 105.084,18.2879934 105.084,19.608 C105.084,20.9280066 104.757003,22.0259956 104.103,22.902 C103.448997,23.7780044 102.486006,24.216 101.214,24.216 C100.853998,24.216 100.470002,24.1470007 100.062,24.009 C99.653998,23.8709993 99.2760017,23.6820012 98.928,23.442 L98.928,27.744 L97.2,27.942 Z M107.298,24 L107.298,11.49 L109.026,11.292 L109.026,24 L107.298,24 Z M112.59,13.704 C112.289998,13.704 112.038001,13.5990011 111.834,13.389 C111.629999,13.178999 111.528,12.9240015 111.528,12.624 C111.516,12.3239985 111.614999,12.0690011 111.825,11.859 C112.035001,11.6489989 112.289998,11.544 112.59,11.544 C112.890001,11.544 113.147999,11.6489989 113.364,11.859 C113.580001,12.0690011 113.688,12.3239985 113.688,12.624 C113.688,12.9240015 113.580001,13.178999 113.364,13.389 C113.147999,13.5990011 112.890001,13.704 112.59,13.704 Z M111.726,24 L111.726,15.27 L113.472,15.27 L113.472,24 L111.726,24 Z M119.844,16.512 C119.027996,16.512 118.419002,16.808997 118.017,17.403 C117.614998,17.997003 117.408,18.7319956 117.396,19.608 C117.396,20.5200046 117.587998,21.272997 117.972,21.867 C118.356002,22.461003 118.961996,22.758 119.79,22.758 C120.318003,22.758 120.734998,22.7040005 121.041,22.596 C121.347002,22.4879995 121.685998,22.3440009 122.058,22.164 L122.58,23.406 C122.195998,23.6700013 121.728003,23.8739993 121.176,24.018 C120.623997,24.1620007 120.162002,24.234 119.79,24.234 C118.445993,24.234 117.417004,23.8080043 116.703,22.956 C115.988996,22.1039957 115.632,20.9940068 115.632,19.626 C115.644,18.2699932 116.012996,17.1660043 116.739,16.314 C117.465004,15.4619957 118.505993,15.036 119.862,15.036 C120.222002,15.036 120.674997,15.1109992 121.221,15.261 C121.767003,15.4110007 122.231998,15.6179987 122.616,15.882 L122.112,17.106 C121.739998,16.9499992 121.398002,16.8120006 121.086,16.692 C120.773998,16.5719994 120.360003,16.512 119.844,16.512 Z M125.766,21.48 C125.766,21.8160017 125.885999,22.1279986 126.126,22.416 C126.366001,22.7040014 126.731998,22.848 127.224,22.848 C127.668002,22.848 128.084998,22.7400011 128.475,22.524 C128.865002,22.3079989 129.209999,22.0320017 129.51,21.696 L129.51,19.932 L127.386,19.932 C126.857997,19.932 126.456001,20.0879984 126.18,20.4 C125.903999,20.7120016 125.766,21.071998 125.766,21.48 Z M124.74,15.81 C125.076002,15.5819989 125.561997,15.3960007 126.198,15.252 C126.834003,15.1079993 127.337998,15.036 127.71,15.036 C128.718005,15.036 129.557997,15.3179972 130.23,15.882 C130.902003,16.4460028 131.238,17.1779955 131.238,18.078 L131.238,24 L130.266,24 C130.182,23.8679993 130.104,23.7300007 130.032,23.586 C129.96,23.4419993 129.888,23.3040007 129.816,23.172 C129.515998,23.4360013 129.132002,23.6759989 128.664,23.892 C128.195998,24.1080011 127.728002,24.216 127.26,24.216 C126.227995,24.216 125.463002,23.9580026 124.965,23.442 C124.466998,22.9259974 124.218,22.272004 124.218,21.48 C124.218,20.6039956 124.514997,19.9350023 125.109,19.473 C125.703003,19.0109977 126.473995,18.78 127.422,18.78 L129.492,18.78 C129.492,18.179997 129.372001,17.6640022 129.132,17.232 C128.891999,16.7999978 128.430003,16.584 127.746,16.584 C127.229997,16.584 126.762002,16.6469994 126.342,16.773 C125.921998,16.8990006 125.550002,17.0339993 125.226,17.178 L124.74,15.81 Z M138.204,23.928 C138.047999,24.0120004 137.829001,24.0959996 137.547,24.18 C137.264999,24.2640004 136.992001,24.306 136.728,24.306 C135.875996,24.306 135.198003,24.0720023 134.694,23.604 C134.189997,23.1359977 133.938,22.4580044 133.938,21.57 L133.938,16.692 L132.714,16.692 L132.696,15.378 L133.938,15.378 L133.938,13.2 L135.666,12.804 L135.666,15.378 L137.25,15.378 L137.79,16.692 L135.666,16.692 L135.666,21.3 C135.666,21.7440022 135.764999,22.1069986 135.963,22.389 C136.161001,22.6710014 136.475998,22.812 136.908,22.812 C137.052001,22.812 137.198999,22.7910002 137.349,22.749 C137.499001,22.7069998 137.633999,22.6620002 137.754,22.614 L138.204,23.928 Z M140.778,13.704 C140.477999,13.704 140.226001,13.5990011 140.022,13.389 C139.817999,13.178999 139.716,12.9240015 139.716,12.624 C139.704,12.3239985 139.802999,12.0690011 140.013,11.859 C140.223001,11.6489989 140.477999,11.544 140.778,11.544 C141.078001,11.544 141.335999,11.6489989 141.552,11.859 C141.768001,12.0690011 141.876,12.3239985 141.876,12.624 C141.876,12.9240015 141.768001,13.178999 141.552,13.389 C141.335999,13.5990011 141.078001,13.704 140.778,13.704 Z M139.914,24 L139.914,15.27 L141.66,15.27 L141.66,24 L139.914,24 Z M147.852,24.234 C146.531993,24.2219999 145.530003,23.7870043 144.846,22.929 C144.161997,22.0709957 143.82,20.9640068 143.82,19.608 C143.832,18.2639933 144.203996,17.1690042 144.936,16.323 C145.668004,15.4769958 146.693993,15.0480001 148.014,15.036 C149.382007,15.036 150.416996,15.4709956 151.119,16.341 C151.821004,17.2110043 152.172,18.3299932 152.172,19.698 C152.172,21.0540068 151.788004,22.1459959 151.02,22.974 C150.251996,23.8020041 149.196007,24.2219999 147.852,24.234 Z M150.426,19.698 C150.426,18.7619953 150.240002,17.997003 149.868,17.403 C149.495998,16.808997 148.896004,16.512 148.068,16.512 C147.239996,16.512 146.622002,16.7909972 146.214,17.349 C145.805998,17.9070028 145.596,18.6539953 145.584,19.59 C145.584,20.5620049 145.760998,21.3329972 146.115,21.903 C146.469002,22.4730029 147.059996,22.758 147.888,22.758 C148.704004,22.758 149.327998,22.4880027 149.76,21.948 C150.192002,21.4079973 150.414,20.6580048 150.426,19.698 Z M155.862,16.422 C156.234002,16.013998 156.713997,15.6720014 157.302,15.396 C157.890003,15.1199986 158.435997,14.982 158.94,14.982 C160.008005,14.982 160.784998,15.2909969 161.271,15.909 C161.757002,16.5270031 162,17.3039953 162,18.24 L162,24 L160.272,24 L160.272,18.402 C160.272,17.8139971 160.131001,17.3460017 159.849,16.998 C159.566999,16.6499983 159.144003,16.4700001 158.58,16.458 C158.219998,16.458 157.800002,16.5719989 157.32,16.8 C156.839998,17.0280011 156.426002,17.3279981 156.078,17.7 L156.078,24 L154.35,24 L154.35,15.27 L155.322,15.27 L155.862,16.422 Z" id="path-14"></path>
    </defs>
    <g id="Page-1" stroke="none" stroke-width="1" fill="none" fill-rule="evenodd">
        <g id="hybrix-diagram" transform="translate(0.000000, -3.000000)">
            <path d="M340.769263,98 C332.869484,99.902983 327,107.016046 327,115.5 C327,125.441125 335.058875,133.5 345,133.5 C345.676018,133.5 346.343332,133.462733 347,133.390142 L347,133.5 L348,133.5 L348,133 L476,133 L476,163 L348,163 L348,162.737182 C346.357103,162.910913 344.688955,163 343,163 C317.042617,163 296,141.957383 296,116 C296,109.623758 297.269719,103.544074 299.570107,97.9999991 L222,98 L222,68 L476,68 L476,98 L340.769263,98 Z M199,32.9460328 C190.984045,34.7649495 185,41.9336504 185,50.5 C185,58.983954 190.869484,66.0970166 198.769263,68 L214,68 L214,98 L101.555588,98 C103.140844,93.2893707 104,88.2450187 104,83 C104,77.7549813 103.140844,72.7106293 101.555588,68 L157.168639,68 C155.122444,62.7279538 154,56.9950573 154,51 C154,25.7126506 173.970298,5.08961424 199,4.04178488 L199,4 L476,4 L476,33 L199,33 L199,32.9460328 Z M484,3 L748,3 L748,33 L484,33 L484,3 Z M484,68 L748,68 L748,98 L484,98 L484,68 Z M484,133 L748,133 L748,163 L484,163 L484,133 Z M47,130 C21.0426168,130 0,108.957383 0,83 C0,57.0426168 21.0426168,36 47,36 C72.9573832,36 94,57.0426168 94,83 C94,108.957383 72.9573832,130 47,130 Z" id="Shape" fill="#FFFFFF" fill-rule="nonzero"></path>
            <path d="M340.769263,98 C332.869484,99.902983 327,107.016046 327,115.5 C327,125.441125 335.058875,133.5 345,133.5 C345.676018,133.5 346.343332,133.462733 347,133.390142 L347,133.5 L348,133.5 L348,133 L476,133 L476,163 L348,163 L348,162.737182 C346.357103,162.910913 344.688955,163 343,163 C317.042617,163 296,141.957383 296,116 C296,109.623758 297.269719,103.544074 299.570107,97.9999991 L222,98 L222,68 L476,68 L476,98 L340.769263,98 Z M199,32.9460328 C190.984045,34.7649495 185,41.9336504 185,50.5 C185,58.983954 190.869484,66.0970166 198.769263,68 L214,68 L214,98 L101.555588,98 C103.140844,93.2893707 104,88.2450187 104,83 C104,77.7549813 103.140844,72.7106293 101.555588,68 L157.168639,68 C155.122444,62.7279538 154,56.9950573 154,51 C154,25.7126506 173.970298,5.08961424 199,4.04178488 L199,4 L476,4 L476,33 L199,33 L199,32.9460328 Z M484,3 L748,3 L748,33 L484,33 L484,3 Z M484,68 L748,68 L748,98 L484,98 L484,68 Z M484,133 L748,133 L748,163 L484,163 L484,133 Z M47,130 C21.0426168,130 0,108.957383 0,83 C0,57.0426168 21.0426168,36 47,36 C72.9573832,36 94,57.0426168 94,83 C94,108.957383 72.9573832,130 47,130 Z" id="Shape" fill-opacity="0.500990716" fill="#8F7BB6" fill-rule="nonzero"></path>
            <path d="M340.769263,98 C332.869484,99.902983 327,107.016046 327,115.5 C327,125.441125 335.058875,133.5 345,133.5 C345.676018,133.5 346.343332,133.462733 347,133.390142 L347,133.5 L348,133.5 L348,133 L476,133 L476,163 L348,163 L348,162.737182 C346.357103,162.910913 344.688955,163 343,163 C317.042617,163 296,141.957383 296,116 C296,109.623758 297.269719,103.544074 299.570107,97.9999991 L222,98 L222,68 L476,68 L476,98 L340.769263,98 Z M199,32.9460328 C190.984045,34.7649495 185,41.9336504 185,50.5 C185,58.983954 190.869484,66.0970166 198.769263,68 L214,68 L214,98 L101.555588,98 C103.140844,93.2893707 104,88.2450187 104,83 C104,77.7549813 103.140844,72.7106293 101.555588,68 L157.168639,68 C155.122444,62.7279538 154,56.9950573 154,51 C154,25.7126506 173.970298,5.08961424 199,4.04178488 L199,4 L476,4 L476,33 L199,33 L199,32.9460328 Z M484,3 L748,3 L748,33 L484,33 L484,3 Z M484,68 L748,68 L748,98 L484,98 L484,68 Z M484,133 L748,133 L748,163 L484,163 L484,133 Z M47,130 C21.0426168,130 0,108.957383 0,83 C0,57.0426168 21.0426168,36 47,36 C72.9573832,36 94,57.0426168 94,83 C94,108.957383 72.9573832,130 47,130 Z" id="Shape" fill="url(#radialGradient-1)" fill-rule="nonzero"></path>
            <path d="M340.769263,98 C332.869484,99.902983 327,107.016046 327,115.5 C327,125.441125 335.058875,133.5 345,133.5 C345.676018,133.5 346.343332,133.462733 347,133.390142 L347,133.5 L348,133.5 L348,133 L476,133 L476,163 L348,163 L348,162.737182 C346.357103,162.910913 344.688955,163 343,163 C317.042617,163 296,141.957383 296,116 C296,109.623758 297.269719,103.544074 299.570107,97.9999991 L222,98 L222,68 L476,68 L476,98 L340.769263,98 Z M199,32.9460328 C190.984045,34.7649495 185,41.9336504 185,50.5 C185,58.983954 190.869484,66.0970166 198.769263,68 L214,68 L214,98 L101.555588,98 C103.140844,93.2893707 104,88.2450187 104,83 C104,77.7549813 103.140844,72.7106293 101.555588,68 L157.168639,68 C155.122444,62.7279538 154,56.9950573 154,51 C154,25.7126506 173.970298,5.08961424 199,4.04178488 L199,4 L476,4 L476,33 L199,33 L199,32.9460328 Z M484,3 L748,3 L748,33 L484,33 L484,3 Z M484,68 L748,68 L748,98 L484,98 L484,68 Z M484,133 L748,133 L748,163 L484,163 L484,133 Z M47,130 C21.0426168,130 0,108.957383 0,83 C0,57.0426168 21.0426168,36 47,36 C72.9573832,36 94,57.0426168 94,83 C94,108.957383 72.9573832,130 47,130 Z" id="Shape" fill="url(#radialGradient-2)" fill-rule="nonzero"></path>
            <path d="M340.769263,98 C332.869484,99.902983 327,107.016046 327,115.5 C327,125.441125 335.058875,133.5 345,133.5 C345.676018,133.5 346.343332,133.462733 347,133.390142 L347,133.5 L348,133.5 L348,133 L476,133 L476,163 L348,163 L348,162.737182 C346.357103,162.910913 344.688955,163 343,163 C317.042617,163 296,141.957383 296,116 C296,109.623758 297.269719,103.544074 299.570107,97.9999991 L222,98 L222,68 L476,68 L476,98 L340.769263,98 Z M199,32.9460328 C190.984045,34.7649495 185,41.9336504 185,50.5 C185,58.983954 190.869484,66.0970166 198.769263,68 L214,68 L214,98 L101.555588,98 C103.140844,93.2893707 104,88.2450187 104,83 C104,77.7549813 103.140844,72.7106293 101.555588,68 L157.168639,68 C155.122444,62.7279538 154,56.9950573 154,51 C154,25.7126506 173.970298,5.08961424 199,4.04178488 L199,4 L476,4 L476,33 L199,33 L199,32.9460328 Z M484,3 L748,3 L748,33 L484,33 L484,3 Z M484,68 L748,68 L748,98 L484,98 L484,68 Z M484,133 L748,133 L748,163 L484,163 L484,133 Z M47,130 C21.0426168,130 0,108.957383 0,83 C0,57.0426168 21.0426168,36 47,36 C72.9573832,36 94,57.0426168 94,83 C94,108.957383 72.9573832,130 47,130 Z" id="Shape" fill="url(#radialGradient-3)" fill-rule="nonzero"></path>
            <path d="M340.769263,98 C332.869484,99.902983 327,107.016046 327,115.5 C327,125.441125 335.058875,133.5 345,133.5 C345.676018,133.5 346.343332,133.462733 347,133.390142 L347,133.5 L348,133.5 L348,133 L476,133 L476,163 L348,163 L348,162.737182 C346.357103,162.910913 344.688955,163 343,163 C317.042617,163 296,141.957383 296,116 C296,109.623758 297.269719,103.544074 299.570107,97.9999991 L222,98 L222,68 L476,68 L476,98 L340.769263,98 Z M199,32.9460328 C190.984045,34.7649495 185,41.9336504 185,50.5 C185,58.983954 190.869484,66.0970166 198.769263,68 L214,68 L214,98 L101.555588,98 C103.140844,93.2893707 104,88.2450187 104,83 C104,77.7549813 103.140844,72.7106293 101.555588,68 L157.168639,68 C155.122444,62.7279538 154,56.9950573 154,51 C154,25.7126506 173.970298,5.08961424 199,4.04178488 L199,4 L476,4 L476,33 L199,33 L199,32.9460328 Z M484,3 L748,3 L748,33 L484,33 L484,3 Z M484,68 L748,68 L748,98 L484,98 L484,68 Z M484,133 L748,133 L748,163 L484,163 L484,133 Z M47,130 C21.0426168,130 0,108.957383 0,83 C0,57.0426168 21.0426168,36 47,36 C72.9573832,36 94,57.0426168 94,83 C94,108.957383 72.9573832,130 47,130 Z" id="Shape" fill="url(#radialGradient-4)" fill-rule="nonzero"></path>
            <path d="M340.769263,98 C332.869484,99.902983 327,107.016046 327,115.5 C327,125.441125 335.058875,133.5 345,133.5 C345.676018,133.5 346.343332,133.462733 347,133.390142 L347,133.5 L348,133.5 L348,133 L476,133 L476,163 L348,163 L348,162.737182 C346.357103,162.910913 344.688955,163 343,163 C317.042617,163 296,141.957383 296,116 C296,109.623758 297.269719,103.544074 299.570107,97.9999991 L222,98 L222,68 L476,68 L476,98 L340.769263,98 Z M199,32.9460328 C190.984045,34.7649495 185,41.9336504 185,50.5 C185,58.983954 190.869484,66.0970166 198.769263,68 L214,68 L214,98 L101.555588,98 C103.140844,93.2893707 104,88.2450187 104,83 C104,77.7549813 103.140844,72.7106293 101.555588,68 L157.168639,68 C155.122444,62.7279538 154,56.9950573 154,51 C154,25.7126506 173.970298,5.08961424 199,4.04178488 L199,4 L476,4 L476,33 L199,33 L199,32.9460328 Z M484,3 L748,3 L748,33 L484,33 L484,3 Z M484,68 L748,68 L748,98 L484,98 L484,68 Z M484,133 L748,133 L748,163 L484,163 L484,133 Z M47,130 C21.0426168,130 0,108.957383 0,83 C0,57.0426168 21.0426168,36 47,36 C72.9573832,36 94,57.0426168 94,83 C94,108.957383 72.9573832,130 47,130 Z" id="Shape" fill="url(#radialGradient-5)" fill-rule="nonzero"></path>
            <path d="M340.769263,98 C332.869484,99.902983 327,107.016046 327,115.5 C327,125.441125 335.058875,133.5 345,133.5 C345.676018,133.5 346.343332,133.462733 347,133.390142 L347,133.5 L348,133.5 L348,133 L476,133 L476,163 L348,163 L348,162.737182 C346.357103,162.910913 344.688955,163 343,163 C317.042617,163 296,141.957383 296,116 C296,109.623758 297.269719,103.544074 299.570107,97.9999991 L222,98 L222,68 L476,68 L476,98 L340.769263,98 Z M199,32.9460328 C190.984045,34.7649495 185,41.9336504 185,50.5 C185,58.983954 190.869484,66.0970166 198.769263,68 L214,68 L214,98 L101.555588,98 C103.140844,93.2893707 104,88.2450187 104,83 C104,77.7549813 103.140844,72.7106293 101.555588,68 L157.168639,68 C155.122444,62.7279538 154,56.9950573 154,51 C154,25.7126506 173.970298,5.08961424 199,4.04178488 L199,4 L476,4 L476,33 L199,33 L199,32.9460328 Z M484,3 L748,3 L748,33 L484,33 L484,3 Z M484,68 L748,68 L748,98 L484,98 L484,68 Z M484,133 L748,133 L748,163 L484,163 L484,133 Z M47,130 C21.0426168,130 0,108.957383 0,83 C0,57.0426168 21.0426168,36 47,36 C72.9573832,36 94,57.0426168 94,83 C94,108.957383 72.9573832,130 47,130 Z" id="Shape" fill="url(#radialGradient-6)" fill-rule="nonzero"></path>
            <path d="M340.769263,98 C332.869484,99.902983 327,107.016046 327,115.5 C327,125.441125 335.058875,133.5 345,133.5 C345.676018,133.5 346.343332,133.462733 347,133.390142 L347,133.5 L348,133.5 L348,133 L476,133 L476,163 L348,163 L348,162.737182 C346.357103,162.910913 344.688955,163 343,163 C317.042617,163 296,141.957383 296,116 C296,109.623758 297.269719,103.544074 299.570107,97.9999991 L222,98 L222,68 L476,68 L476,98 L340.769263,98 Z M199,32.9460328 C190.984045,34.7649495 185,41.9336504 185,50.5 C185,58.983954 190.869484,66.0970166 198.769263,68 L214,68 L214,98 L101.555588,98 C103.140844,93.2893707 104,88.2450187 104,83 C104,77.7549813 103.140844,72.7106293 101.555588,68 L157.168639,68 C155.122444,62.7279538 154,56.9950573 154,51 C154,25.7126506 173.970298,5.08961424 199,4.04178488 L199,4 L476,4 L476,33 L199,33 L199,32.9460328 Z M484,3 L748,3 L748,33 L484,33 L484,3 Z M484,68 L748,68 L748,98 L484,98 L484,68 Z M484,133 L748,133 L748,163 L484,163 L484,133 Z M47,130 C21.0426168,130 0,108.957383 0,83 C0,57.0426168 21.0426168,36 47,36 C72.9573832,36 94,57.0426168 94,83 C94,108.957383 72.9573832,130 47,130 Z" id="Shape" fill="url(#radialGradient-7)" fill-rule="nonzero"></path>
            <path d="M340.769263,98 C332.869484,99.902983 327,107.016046 327,115.5 C327,125.441125 335.058875,133.5 345,133.5 C345.676018,133.5 346.343332,133.462733 347,133.390142 L347,133.5 L348,133.5 L348,133 L476,133 L476,163 L348,163 L348,162.737182 C346.357103,162.910913 344.688955,163 343,163 C317.042617,163 296,141.957383 296,116 C296,109.623758 297.269719,103.544074 299.570107,97.9999991 L222,98 L222,68 L476,68 L476,98 L340.769263,98 Z M199,32.9460328 C190.984045,34.7649495 185,41.9336504 185,50.5 C185,58.983954 190.869484,66.0970166 198.769263,68 L214,68 L214,98 L101.555588,98 C103.140844,93.2893707 104,88.2450187 104,83 C104,77.7549813 103.140844,72.7106293 101.555588,68 L157.168639,68 C155.122444,62.7279538 154,56.9950573 154,51 C154,25.7126506 173.970298,5.08961424 199,4.04178488 L199,4 L476,4 L476,33 L199,33 L199,32.9460328 Z M484,3 L748,3 L748,33 L484,33 L484,3 Z M484,68 L748,68 L748,98 L484,98 L484,68 Z M484,133 L748,133 L748,163 L484,163 L484,133 Z M47,130 C21.0426168,130 0,108.957383 0,83 C0,57.0426168 21.0426168,36 47,36 C72.9573832,36 94,57.0426168 94,83 C94,108.957383 72.9573832,130 47,130 Z" id="Shape" fill="url(#radialGradient-8)" fill-rule="nonzero" opacity="0.856933594"></path>
            <g id="Group" transform="translate(17.000000, 66.000000)">
                <g id="hybrixd">
                    <use fill="#000000" xlink:href="#path-9"></use>
                    <use fill="#FFFFFF" xlink:href="#path-9"></use>
                </g>
            </g>
            <g id="Group" transform="translate(118.000000, 66.000000)">
                <g id="REST-API">
                    <use fill="#000000" xlink:href="#path-10"></use>
                    <use fill="#FFFFFF" xlink:href="#path-10"></use>
                </g>
            </g>
            <g id="Group" transform="translate(235.000000, 66.000000)">
                <g id="lib.js">
                    <use fill="#000000" xlink:href="#path-11"></use>
                    <use fill="#FFFFFF" xlink:href="#path-11"></use>
                </g>
            </g>
            <g id="Group" transform="translate(498.000000, 66.000000)">
                <g id="your-node.js-application">
                    <use fill="#000000" xlink:href="#path-12"></use>
                    <use fill="#FFFFFF" xlink:href="#path-12"></use>
                </g>
            </g>
            <g id="Group" transform="translate(498.000000, 0.000000)">
                <g id="direct-calls">
                    <use fill="#000000" xlink:href="#path-13"></use>
                    <use fill="#FFFFFF" xlink:href="#path-13"></use>
                </g>
            </g>
            <g id="Group" transform="translate(498.000000, 130.000000)">
                <g id="your-web-application">
                    <use fill="#000000" xlink:href="#path-14"></use>
                    <use fill="#FFFFFF" xlink:href="#path-14"></use>
                </g>
            </g>
        </g>
    </g>
</svg>