<svg class="logo" viewBox="0 0 2070 839" version="1.1" xmlns="http://www.w3.org/2000/svg" xmlns:xlink="http://www.w3.org/1999/xlink">
                    <defs>
                        <radialGradient cx="74.8280232%" cy="94.3295877%" fx="74.8280232%" fy="94.3295877%" r="55.5402692%" gradientTransform="translate(0.748280,0.943296),scale(0.405168,1.000000),rotate(-103.463924),scale(1.000000,3.068031),translate(-0.748280,-0.943296)" id="radialGradient-1">
                            <stop stop-color="#69E1CD" offset="0%"></stop>
                            <stop stop-color="#69E1CE" stop-opacity="0" offset="100%"></stop>
                        </radialGradient>
                        <radialGradient cx="2.43573207%" cy="10.0784095%" fx="2.43573207%" fy="10.0784095%" r="177.087164%" gradientTransform="translate(0.024357,0.100784),scale(0.405168,1.000000),rotate(-140.508079),scale(1.000000,1.714322),translate(-0.024357,-0.100784)" id="radialGradient-2">
                            <stop stop-color="#EAA05B" offset="0%"></stop>
                            <stop stop-color="#EAA05B" stop-opacity="0.914968297" offset="6.17548772%"></stop>
                            <stop stop-color="#EAA05B" stop-opacity="0" offset="100%"></stop>
                            <stop stop-color="#EAA05B" stop-opacity="0" offset="100%"></stop>
                        </radialGradient>
                        <radialGradient cx="93.7433601%" cy="0%" fx="93.7433601%" fy="0%" r="230.126538%" gradientTransform="translate(0.937434,0.000000),scale(0.405168,1.000000),rotate(145.390210),scale(1.000000,1.466156),translate(-0.937434,-0.000000)" id="radialGradient-3">
                            <stop stop-color="#F252BC" offset="0%"></stop>
                            <stop stop-color="#F252BC" stop-opacity="0.891502491" offset="31.6104241%"></stop>
                            <stop stop-color="#F251BD" stop-opacity="0" offset="100%"></stop>
                        </radialGradient>
                        <radialGradient cx="1.95055786%" cy="17.1506499%" fx="1.95055786%" fy="17.1506499%" r="92.519592%" gradientTransform="translate(0.019506,0.171506),scale(0.405168,1.000000),rotate(-116.284375),scale(1.000000,1.779837),translate(-0.019506,-0.171506)" id="radialGradient-4">
                            <stop stop-color="#EAA05B" offset="0%"></stop>
                            <stop stop-color="#EAA05B" stop-opacity="0.914968297" offset="6.17548772%"></stop>
                            <stop stop-color="#EAA05B" stop-opacity="0" offset="100%"></stop>
                            <stop stop-color="#EAA05B" stop-opacity="0" offset="100%"></stop>
                        </radialGradient>
                        <radialGradient cx="60.5274555%" cy="111.294064%" fx="60.5274555%" fy="111.294064%" r="69.1214675%" gradientTransform="translate(0.605275,1.112941),scale(0.405168,1.000000),rotate(-96.719363),scale(1.000000,1.766288),translate(-0.605275,-1.112941)" id="radialGradient-5">
                            <stop stop-color="#69E1CD" offset="0%"></stop>
                            <stop stop-color="#69E1CE" stop-opacity="0" offset="100%"></stop>
                            <stop stop-color="#69E1CE" stop-opacity="0" offset="100%"></stop>
                        </radialGradient>
                        <radialGradient cx="21.7131541%" cy="100%" fx="21.7131541%" fy="100%" r="69.1214675%" gradientTransform="translate(0.217132,1.000000),scale(0.405168,1.000000),rotate(-96.719363),scale(1.000000,1.766288),translate(-0.217132,-1.000000)" id="radialGradient-6">
                            <stop stop-color="#69E1CD" stop-opacity="0.120669158" offset="0%"></stop>
                            <stop stop-color="#69E1CE" stop-opacity="0" offset="100%"></stop>
                            <stop stop-color="#69E1CE" stop-opacity="0" offset="100%"></stop>
                        </radialGradient>
                        <radialGradient cx="56.5147907%" cy="124.171979%" fx="56.5147907%" fy="124.171979%" r="55.1388182%" gradientTransform="translate(0.565148,1.241720),scale(0.405168,1.000000),rotate(-96.149962),scale(1.000000,3.608864),translate(-0.565148,-1.241720)" id="radialGradient-7">
                            <stop stop-color="#69E1CD" offset="0%"></stop>
                            <stop stop-color="#69E1CE" stop-opacity="0" offset="100%"></stop>
                        </radialGradient>
                        <radialGradient cx="85.0772955%" cy="73.9650222%" fx="85.0772955%" fy="73.9650222%" r="37.8033745%" gradientTransform="translate(0.850773,0.739650),scale(0.405168,1.000000),rotate(-90.000000),scale(1.000000,2.958850),translate(-0.850773,-0.739650)" id="radialGradient-8">
                            <stop stop-color="#60BDC8" offset="0%"></stop>
                            <stop stop-color="#60BCC8" stop-opacity="0" offset="100%"></stop>
                        </radialGradient>
                        <radialGradient cx="29.2186775%" cy="111.848772%" fx="29.2186775%" fy="111.848772%" r="42.4086048%" gradientTransform="translate(0.292187,1.118488),scale(0.405168,1.000000),rotate(-90.000000),scale(1.000000,2.958850),translate(-0.292187,-1.118488)" id="radialGradient-9">
                            <stop stop-color="#7BD2B8" offset="0%"></stop>
                            <stop stop-color="#7DD1B6" stop-opacity="0" offset="100%"></stop>
                        </radialGradient>
                    </defs>
                    <g stroke="none" stroke-width="1" fill="none" fill-rule="evenodd">
                        <g id="hybrix-logo-gradient" fill-rule="nonzero">
                            <path d="M906.316006,221.38826 C1008.08388,221.38826 1090.8814,308.226676 1090.8814,414.944854 C1090.8814,521.663032 1008.08388,608.486387 906.316006,608.486387 C877.109551,608.487511 848.3595,601.242708 822.644551,587.40179 L822.644551,606.754438 L709.741578,606.754438 L709.741578,0 L822.644551,0 L822.644551,242.472857 C848.3595,228.631939 877.109551,221.387136 906.316006,221.38826 Z M906.316006,490.111439 C945.868963,490.111439 978.023633,456.376085 978.023633,414.914733 C978.023633,373.45338 945.853895,339.718027 906.316006,339.718027 C866.778117,339.718027 834.608379,373.43832 834.608379,414.914733 C834.608379,456.391146 866.778117,490.111439 906.316006,490.111439 Z M1253.1816,218.749423 L1253.1816,239.554449 C1278.87131,226.132511 1307.38779,219.006472 1336.37748,218.764467 L1336.37748,337.502041 C1291.24842,338.419688 1254.68741,377.321927 1253.1816,425.671422 L1253.1816,609.441624 L1139.59852,609.441624 L1139.59852,218.749423 L1253.1816,218.749423 Z M657.631754,217.794186 L657.601641,430.385906 L658.158745,430.385906 C657.993119,432.10157 657.812437,433.817233 657.601641,435.517846 L657.601641,838.698662 L538.516846,838.698662 L538.516846,591.582984 C515.115433,601.220391 490.048139,606.170094 464.738176,606.151071 C363.811968,606.151071 280.622754,528.855935 271.287494,430.385906 L391.531668,430.385906 C399.949933,463.757124 429.892034,487.207115 464.323635,487.394963 C498.755237,487.58281 528.951663,464.460917 537.733888,431.183539 L536.815419,431.183539 L536.649794,430.446105 L538.456618,423.116913 L538.546959,426.367643 L538.546959,217.794186 L657.631754,217.794186 Z M1397.51269,215.88371 L1513.09645,215.88371 L1513.09645,606.575911 L1397.51269,606.575911 L1397.51269,215.88371 Z M193.510957,216.861703 C294.032998,216.861703 377.002855,293.516291 386.871251,391.420314 L266.341225,391.420314 C257.400653,358.536714 227.534009,335.713327 193.443158,335.713327 C159.352308,335.713327 129.485664,358.536714 120.545092,391.420314 L119.309659,396.435241 L119.309659,609.441624 L0.286258811,609.441624 L0.286258811,391.420314 L0,391.420314 C0.0753312662,390.561903 0.195861292,389.718552 0.286258811,388.875201 L0.286258811,0 L119.309659,0 L119.309659,231.575167 C142.833152,221.835561 168.049324,216.835416 193.510957,216.861703 Z M1868.29408,335.632555 L1868.44485,335.632555 C1826.95586,336.21644 1793.62927,369.959814 1793.62927,411.3838 C1793.62927,452.807787 1826.95586,486.55116 1868.44485,487.135045 L1868.44485,605.9136 C1812.3854,605.931452 1759.04692,581.789435 1722.11743,539.683003 C1685.16492,582.184256 1631.55957,606.589105 1575.18689,606.575911 L1575.18689,487.782299 C1617.08881,487.782299 1651.05703,453.870681 1651.05703,412.03858 C1651.05703,370.206479 1617.08881,336.294861 1575.18689,336.294861 L1575.18689,217.501254 C1631.21749,217.516899 1684.51955,241.654872 1721.43894,283.731851 C1758.37419,241.25044 1811.94772,216.847558 1868.29408,216.838948 L1868.29408,335.632555 Z M1994.05861,614.217813 C1952.11733,614.217813 1918.11721,580.217693 1918.11721,538.276419 C1918.11721,496.335145 1952.11733,462.335025 1994.05861,462.335025 C2035.99988,462.335025 2070,496.335145 2070,538.276419 C2070,580.217693 2035.99988,614.217813 1994.05861,614.217813 Z" fill="#FFFFFF"></path>
                            <path d="M906.316006,221.38826 C1008.08388,221.38826 1090.8814,308.226676 1090.8814,414.944854 C1090.8814,521.663032 1008.08388,608.486387 906.316006,608.486387 C877.109551,608.487511 848.3595,601.242708 822.644551,587.40179 L822.644551,606.754438 L709.741578,606.754438 L709.741578,0 L822.644551,0 L822.644551,242.472857 C848.3595,228.631939 877.109551,221.387136 906.316006,221.38826 Z M906.316006,490.111439 C945.868963,490.111439 978.023633,456.376085 978.023633,414.914733 C978.023633,373.45338 945.853895,339.718027 906.316006,339.718027 C866.778117,339.718027 834.608379,373.43832 834.608379,414.914733 C834.608379,456.391146 866.778117,490.111439 906.316006,490.111439 Z M1253.1816,218.749423 L1253.1816,239.554449 C1278.87131,226.132511 1307.38779,219.006472 1336.37748,218.764467 L1336.37748,337.502041 C1291.24842,338.419688 1254.68741,377.321927 1253.1816,425.671422 L1253.1816,609.441624 L1139.59852,609.441624 L1139.59852,218.749423 L1253.1816,218.749423 Z M657.631754,217.794186 L657.601641,430.385906 L658.158745,430.385906 C657.993119,432.10157 657.812437,433.817233 657.601641,435.517846 L657.601641,838.698662 L538.516846,838.698662 L538.516846,591.582984 C515.115433,601.220391 490.048139,606.170094 464.738176,606.151071 C363.811968,606.151071 280.622754,528.855935 271.287494,430.385906 L391.531668,430.385906 C399.949933,463.757124 429.892034,487.207115 464.323635,487.394963 C498.755237,487.58281 528.951663,464.460917 537.733888,431.183539 L536.815419,431.183539 L536.649794,430.446105 L538.456618,423.116913 L538.546959,426.367643 L538.546959,217.794186 L657.631754,217.794186 Z M1397.51269,215.88371 L1513.09645,215.88371 L1513.09645,606.575911 L1397.51269,606.575911 L1397.51269,215.88371 Z M193.510957,216.861703 C294.032998,216.861703 377.002855,293.516291 386.871251,391.420314 L266.341225,391.420314 C257.400653,358.536714 227.534009,335.713327 193.443158,335.713327 C159.352308,335.713327 129.485664,358.536714 120.545092,391.420314 L119.309659,396.435241 L119.309659,609.441624 L0.286258811,609.441624 L0.286258811,391.420314 L0,391.420314 C0.0753312662,390.561903 0.195861292,389.718552 0.286258811,388.875201 L0.286258811,0 L119.309659,0 L119.309659,231.575167 C142.833152,221.835561 168.049324,216.835416 193.510957,216.861703 Z M1868.29408,335.632555 L1868.44485,335.632555 C1826.95586,336.21644 1793.62927,369.959814 1793.62927,411.3838 C1793.62927,452.807787 1826.95586,486.55116 1868.44485,487.135045 L1868.44485,605.9136 C1812.3854,605.931452 1759.04692,581.789435 1722.11743,539.683003 C1685.16492,582.184256 1631.55957,606.589105 1575.18689,606.575911 L1575.18689,487.782299 C1617.08881,487.782299 1651.05703,453.870681 1651.05703,412.03858 C1651.05703,370.206479 1617.08881,336.294861 1575.18689,336.294861 L1575.18689,217.501254 C1631.21749,217.516899 1684.51955,241.654872 1721.43894,283.731851 C1758.37419,241.25044 1811.94772,216.847558 1868.29408,216.838948 L1868.29408,335.632555 Z M1994.05861,614.217813 C1952.11733,614.217813 1918.11721,580.217693 1918.11721,538.276419 C1918.11721,496.335145 1952.11733,462.335025 1994.05861,462.335025 C2035.99988,462.335025 2070,496.335145 2070,538.276419 C2070,580.217693 2035.99988,614.217813 1994.05861,614.217813 Z" fill-opacity="0.500990716" fill="#8F7BB6"></path>
                            <path d="M906.316006,221.38826 C1008.08388,221.38826 1090.8814,308.226676 1090.8814,414.944854 C1090.8814,521.663032 1008.08388,608.486387 906.316006,608.486387 C877.109551,608.487511 848.3595,601.242708 822.644551,587.40179 L822.644551,606.754438 L709.741578,606.754438 L709.741578,0 L822.644551,0 L822.644551,242.472857 C848.3595,228.631939 877.109551,221.387136 906.316006,221.38826 Z M906.316006,490.111439 C945.868963,490.111439 978.023633,456.376085 978.023633,414.914733 C978.023633,373.45338 945.853895,339.718027 906.316006,339.718027 C866.778117,339.718027 834.608379,373.43832 834.608379,414.914733 C834.608379,456.391146 866.778117,490.111439 906.316006,490.111439 Z M1253.1816,218.749423 L1253.1816,239.554449 C1278.87131,226.132511 1307.38779,219.006472 1336.37748,218.764467 L1336.37748,337.502041 C1291.24842,338.419688 1254.68741,377.321927 1253.1816,425.671422 L1253.1816,609.441624 L1139.59852,609.441624 L1139.59852,218.749423 L1253.1816,218.749423 Z M657.631754,217.794186 L657.601641,430.385906 L658.158745,430.385906 C657.993119,432.10157 657.812437,433.817233 657.601641,435.517846 L657.601641,838.698662 L538.516846,838.698662 L538.516846,591.582984 C515.115433,601.220391 490.048139,606.170094 464.738176,606.151071 C363.811968,606.151071 280.622754,528.855935 271.287494,430.385906 L391.531668,430.385906 C399.949933,463.757124 429.892034,487.207115 464.323635,487.394963 C498.755237,487.58281 528.951663,464.460917 537.733888,431.183539 L536.815419,431.183539 L536.649794,430.446105 L538.456618,423.116913 L538.546959,426.367643 L538.546959,217.794186 L657.631754,217.794186 Z M1397.51269,215.88371 L1513.09645,215.88371 L1513.09645,606.575911 L1397.51269,606.575911 L1397.51269,215.88371 Z M193.510957,216.861703 C294.032998,216.861703 377.002855,293.516291 386.871251,391.420314 L266.341225,391.420314 C257.400653,358.536714 227.534009,335.713327 193.443158,335.713327 C159.352308,335.713327 129.485664,358.536714 120.545092,391.420314 L119.309659,396.435241 L119.309659,609.441624 L0.286258811,609.441624 L0.286258811,391.420314 L0,391.420314 C0.0753312662,390.561903 0.195861292,389.718552 0.286258811,388.875201 L0.286258811,0 L119.309659,0 L119.309659,231.575167 C142.833152,221.835561 168.049324,216.835416 193.510957,216.861703 Z M1868.29408,335.632555 L1868.44485,335.632555 C1826.95586,336.21644 1793.62927,369.959814 1793.62927,411.3838 C1793.62927,452.807787 1826.95586,486.55116 1868.44485,487.135045 L1868.44485,605.9136 C1812.3854,605.931452 1759.04692,581.789435 1722.11743,539.683003 C1685.16492,582.184256 1631.55957,606.589105 1575.18689,606.575911 L1575.18689,487.782299 C1617.08881,487.782299 1651.05703,453.870681 1651.05703,412.03858 C1651.05703,370.206479 1617.08881,336.294861 1575.18689,336.294861 L1575.18689,217.501254 C1631.21749,217.516899 1684.51955,241.654872 1721.43894,283.731851 C1758.37419,241.25044 1811.94772,216.847558 1868.29408,216.838948 L1868.29408,335.632555 Z M1994.05861,614.217813 C1952.11733,614.217813 1918.11721,580.217693 1918.11721,538.276419 C1918.11721,496.335145 1952.11733,462.335025 1994.05861,462.335025 C2035.99988,462.335025 2070,496.335145 2070,538.276419 C2070,580.217693 2035.99988,614.217813 1994.05861,614.217813 Z" fill="url(/#radialGradient-1)"></path>
                            <path d="M906.316006,221.38826 C1008.08388,221.38826 1090.8814,308.226676 1090.8814,414.944854 C1090.8814,521.663032 1008.08388,608.486387 906.316006,608.486387 C877.109551,608.487511 848.3595,601.242708 822.644551,587.40179 L822.644551,606.754438 L709.741578,606.754438 L709.741578,0 L822.644551,0 L822.644551,242.472857 C848.3595,228.631939 877.109551,221.387136 906.316006,221.38826 Z M906.316006,490.111439 C945.868963,490.111439 978.023633,456.376085 978.023633,414.914733 C978.023633,373.45338 945.853895,339.718027 906.316006,339.718027 C866.778117,339.718027 834.608379,373.43832 834.608379,414.914733 C834.608379,456.391146 866.778117,490.111439 906.316006,490.111439 Z M1253.1816,218.749423 L1253.1816,239.554449 C1278.87131,226.132511 1307.38779,219.006472 1336.37748,218.764467 L1336.37748,337.502041 C1291.24842,338.419688 1254.68741,377.321927 1253.1816,425.671422 L1253.1816,609.441624 L1139.59852,609.441624 L1139.59852,218.749423 L1253.1816,218.749423 Z M657.631754,217.794186 L657.601641,430.385906 L658.158745,430.385906 C657.993119,432.10157 657.812437,433.817233 657.601641,435.517846 L657.601641,838.698662 L538.516846,838.698662 L538.516846,591.582984 C515.115433,601.220391 490.048139,606.170094 464.738176,606.151071 C363.811968,606.151071 280.622754,528.855935 271.287494,430.385906 L391.531668,430.385906 C399.949933,463.757124 429.892034,487.207115 464.323635,487.394963 C498.755237,487.58281 528.951663,464.460917 537.733888,431.183539 L536.815419,431.183539 L536.649794,430.446105 L538.456618,423.116913 L538.546959,426.367643 L538.546959,217.794186 L657.631754,217.794186 Z M1397.51269,215.88371 L1513.09645,215.88371 L1513.09645,606.575911 L1397.51269,606.575911 L1397.51269,215.88371 Z M193.510957,216.861703 C294.032998,216.861703 377.002855,293.516291 386.871251,391.420314 L266.341225,391.420314 C257.400653,358.536714 227.534009,335.713327 193.443158,335.713327 C159.352308,335.713327 129.485664,358.536714 120.545092,391.420314 L119.309659,396.435241 L119.309659,609.441624 L0.286258811,609.441624 L0.286258811,391.420314 L0,391.420314 C0.0753312662,390.561903 0.195861292,389.718552 0.286258811,388.875201 L0.286258811,0 L119.309659,0 L119.309659,231.575167 C142.833152,221.835561 168.049324,216.835416 193.510957,216.861703 Z M1868.29408,335.632555 L1868.44485,335.632555 C1826.95586,336.21644 1793.62927,369.959814 1793.62927,411.3838 C1793.62927,452.807787 1826.95586,486.55116 1868.44485,487.135045 L1868.44485,605.9136 C1812.3854,605.931452 1759.04692,581.789435 1722.11743,539.683003 C1685.16492,582.184256 1631.55957,606.589105 1575.18689,606.575911 L1575.18689,487.782299 C1617.08881,487.782299 1651.05703,453.870681 1651.05703,412.03858 C1651.05703,370.206479 1617.08881,336.294861 1575.18689,336.294861 L1575.18689,217.501254 C1631.21749,217.516899 1684.51955,241.654872 1721.43894,283.731851 C1758.37419,241.25044 1811.94772,216.847558 1868.29408,216.838948 L1868.29408,335.632555 Z M1994.05861,614.217813 C1952.11733,614.217813 1918.11721,580.217693 1918.11721,538.276419 C1918.11721,496.335145 1952.11733,462.335025 1994.05861,462.335025 C2035.99988,462.335025 2070,496.335145 2070,538.276419 C2070,580.217693 2035.99988,614.217813 1994.05861,614.217813 Z" fill="url(#radialGradient-2)"></path>
                            <path d="M906.316006,221.38826 C1008.08388,221.38826 1090.8814,308.226676 1090.8814,414.944854 C1090.8814,521.663032 1008.08388,608.486387 906.316006,608.486387 C877.109551,608.487511 848.3595,601.242708 822.644551,587.40179 L822.644551,606.754438 L709.741578,606.754438 L709.741578,0 L822.644551,0 L822.644551,242.472857 C848.3595,228.631939 877.109551,221.387136 906.316006,221.38826 Z M906.316006,490.111439 C945.868963,490.111439 978.023633,456.376085 978.023633,414.914733 C978.023633,373.45338 945.853895,339.718027 906.316006,339.718027 C866.778117,339.718027 834.608379,373.43832 834.608379,414.914733 C834.608379,456.391146 866.778117,490.111439 906.316006,490.111439 Z M1253.1816,218.749423 L1253.1816,239.554449 C1278.87131,226.132511 1307.38779,219.006472 1336.37748,218.764467 L1336.37748,337.502041 C1291.24842,338.419688 1254.68741,377.321927 1253.1816,425.671422 L1253.1816,609.441624 L1139.59852,609.441624 L1139.59852,218.749423 L1253.1816,218.749423 Z M657.631754,217.794186 L657.601641,430.385906 L658.158745,430.385906 C657.993119,432.10157 657.812437,433.817233 657.601641,435.517846 L657.601641,838.698662 L538.516846,838.698662 L538.516846,591.582984 C515.115433,601.220391 490.048139,606.170094 464.738176,606.151071 C363.811968,606.151071 280.622754,528.855935 271.287494,430.385906 L391.531668,430.385906 C399.949933,463.757124 429.892034,487.207115 464.323635,487.394963 C498.755237,487.58281 528.951663,464.460917 537.733888,431.183539 L536.815419,431.183539 L536.649794,430.446105 L538.456618,423.116913 L538.546959,426.367643 L538.546959,217.794186 L657.631754,217.794186 Z M1397.51269,215.88371 L1513.09645,215.88371 L1513.09645,606.575911 L1397.51269,606.575911 L1397.51269,215.88371 Z M193.510957,216.861703 C294.032998,216.861703 377.002855,293.516291 386.871251,391.420314 L266.341225,391.420314 C257.400653,358.536714 227.534009,335.713327 193.443158,335.713327 C159.352308,335.713327 129.485664,358.536714 120.545092,391.420314 L119.309659,396.435241 L119.309659,609.441624 L0.286258811,609.441624 L0.286258811,391.420314 L0,391.420314 C0.0753312662,390.561903 0.195861292,389.718552 0.286258811,388.875201 L0.286258811,0 L119.309659,0 L119.309659,231.575167 C142.833152,221.835561 168.049324,216.835416 193.510957,216.861703 Z M1868.29408,335.632555 L1868.44485,335.632555 C1826.95586,336.21644 1793.62927,369.959814 1793.62927,411.3838 C1793.62927,452.807787 1826.95586,486.55116 1868.44485,487.135045 L1868.44485,605.9136 C1812.3854,605.931452 1759.04692,581.789435 1722.11743,539.683003 C1685.16492,582.184256 1631.55957,606.589105 1575.18689,606.575911 L1575.18689,487.782299 C1617.08881,487.782299 1651.05703,453.870681 1651.05703,412.03858 C1651.05703,370.206479 1617.08881,336.294861 1575.18689,336.294861 L1575.18689,217.501254 C1631.21749,217.516899 1684.51955,241.654872 1721.43894,283.731851 C1758.37419,241.25044 1811.94772,216.847558 1868.29408,216.838948 L1868.29408,335.632555 Z M1994.05861,614.217813 C1952.11733,614.217813 1918.11721,580.217693 1918.11721,538.276419 C1918.11721,496.335145 1952.11733,462.335025 1994.05861,462.335025 C2035.99988,462.335025 2070,496.335145 2070,538.276419 C2070,580.217693 2035.99988,614.217813 1994.05861,614.217813 Z" fill="url(#radialGradient-3)"></path>
                            <path d="M906.316006,221.38826 C1008.08388,221.38826 1090.8814,308.226676 1090.8814,414.944854 C1090.8814,521.663032 1008.08388,608.486387 906.316006,608.486387 C877.109551,608.487511 848.3595,601.242708 822.644551,587.40179 L822.644551,606.754438 L709.741578,606.754438 L709.741578,0 L822.644551,0 L822.644551,242.472857 C848.3595,228.631939 877.109551,221.387136 906.316006,221.38826 Z M906.316006,490.111439 C945.868963,490.111439 978.023633,456.376085 978.023633,414.914733 C978.023633,373.45338 945.853895,339.718027 906.316006,339.718027 C866.778117,339.718027 834.608379,373.43832 834.608379,414.914733 C834.608379,456.391146 866.778117,490.111439 906.316006,490.111439 Z M1253.1816,218.749423 L1253.1816,239.554449 C1278.87131,226.132511 1307.38779,219.006472 1336.37748,218.764467 L1336.37748,337.502041 C1291.24842,338.419688 1254.68741,377.321927 1253.1816,425.671422 L1253.1816,609.441624 L1139.59852,609.441624 L1139.59852,218.749423 L1253.1816,218.749423 Z M657.631754,217.794186 L657.601641,430.385906 L658.158745,430.385906 C657.993119,432.10157 657.812437,433.817233 657.601641,435.517846 L657.601641,838.698662 L538.516846,838.698662 L538.516846,591.582984 C515.115433,601.220391 490.048139,606.170094 464.738176,606.151071 C363.811968,606.151071 280.622754,528.855935 271.287494,430.385906 L391.531668,430.385906 C399.949933,463.757124 429.892034,487.207115 464.323635,487.394963 C498.755237,487.58281 528.951663,464.460917 537.733888,431.183539 L536.815419,431.183539 L536.649794,430.446105 L538.456618,423.116913 L538.546959,426.367643 L538.546959,217.794186 L657.631754,217.794186 Z M1397.51269,215.88371 L1513.09645,215.88371 L1513.09645,606.575911 L1397.51269,606.575911 L1397.51269,215.88371 Z M193.510957,216.861703 C294.032998,216.861703 377.002855,293.516291 386.871251,391.420314 L266.341225,391.420314 C257.400653,358.536714 227.534009,335.713327 193.443158,335.713327 C159.352308,335.713327 129.485664,358.536714 120.545092,391.420314 L119.309659,396.435241 L119.309659,609.441624 L0.286258811,609.441624 L0.286258811,391.420314 L0,391.420314 C0.0753312662,390.561903 0.195861292,389.718552 0.286258811,388.875201 L0.286258811,0 L119.309659,0 L119.309659,231.575167 C142.833152,221.835561 168.049324,216.835416 193.510957,216.861703 Z M1868.29408,335.632555 L1868.44485,335.632555 C1826.95586,336.21644 1793.62927,369.959814 1793.62927,411.3838 C1793.62927,452.807787 1826.95586,486.55116 1868.44485,487.135045 L1868.44485,605.9136 C1812.3854,605.931452 1759.04692,581.789435 1722.11743,539.683003 C1685.16492,582.184256 1631.55957,606.589105 1575.18689,606.575911 L1575.18689,487.782299 C1617.08881,487.782299 1651.05703,453.870681 1651.05703,412.03858 C1651.05703,370.206479 1617.08881,336.294861 1575.18689,336.294861 L1575.18689,217.501254 C1631.21749,217.516899 1684.51955,241.654872 1721.43894,283.731851 C1758.37419,241.25044 1811.94772,216.847558 1868.29408,216.838948 L1868.29408,335.632555 Z M1994.05861,614.217813 C1952.11733,614.217813 1918.11721,580.217693 1918.11721,538.276419 C1918.11721,496.335145 1952.11733,462.335025 1994.05861,462.335025 C2035.99988,462.335025 2070,496.335145 2070,538.276419 C2070,580.217693 2035.99988,614.217813 1994.05861,614.217813 Z" fill="url(#radialGradient-4)"></path>
                            <path d="M906.316006,221.38826 C1008.08388,221.38826 1090.8814,308.226676 1090.8814,414.944854 C1090.8814,521.663032 1008.08388,608.486387 906.316006,608.486387 C877.109551,608.487511 848.3595,601.242708 822.644551,587.40179 L822.644551,606.754438 L709.741578,606.754438 L709.741578,0 L822.644551,0 L822.644551,242.472857 C848.3595,228.631939 877.109551,221.387136 906.316006,221.38826 Z M906.316006,490.111439 C945.868963,490.111439 978.023633,456.376085 978.023633,414.914733 C978.023633,373.45338 945.853895,339.718027 906.316006,339.718027 C866.778117,339.718027 834.608379,373.43832 834.608379,414.914733 C834.608379,456.391146 866.778117,490.111439 906.316006,490.111439 Z M1253.1816,218.749423 L1253.1816,239.554449 C1278.87131,226.132511 1307.38779,219.006472 1336.37748,218.764467 L1336.37748,337.502041 C1291.24842,338.419688 1254.68741,377.321927 1253.1816,425.671422 L1253.1816,609.441624 L1139.59852,609.441624 L1139.59852,218.749423 L1253.1816,218.749423 Z M657.631754,217.794186 L657.601641,430.385906 L658.158745,430.385906 C657.993119,432.10157 657.812437,433.817233 657.601641,435.517846 L657.601641,838.698662 L538.516846,838.698662 L538.516846,591.582984 C515.115433,601.220391 490.048139,606.170094 464.738176,606.151071 C363.811968,606.151071 280.622754,528.855935 271.287494,430.385906 L391.531668,430.385906 C399.949933,463.757124 429.892034,487.207115 464.323635,487.394963 C498.755237,487.58281 528.951663,464.460917 537.733888,431.183539 L536.815419,431.183539 L536.649794,430.446105 L538.456618,423.116913 L538.546959,426.367643 L538.546959,217.794186 L657.631754,217.794186 Z M1397.51269,215.88371 L1513.09645,215.88371 L1513.09645,606.575911 L1397.51269,606.575911 L1397.51269,215.88371 Z M193.510957,216.861703 C294.032998,216.861703 377.002855,293.516291 386.871251,391.420314 L266.341225,391.420314 C257.400653,358.536714 227.534009,335.713327 193.443158,335.713327 C159.352308,335.713327 129.485664,358.536714 120.545092,391.420314 L119.309659,396.435241 L119.309659,609.441624 L0.286258811,609.441624 L0.286258811,391.420314 L0,391.420314 C0.0753312662,390.561903 0.195861292,389.718552 0.286258811,388.875201 L0.286258811,0 L119.309659,0 L119.309659,231.575167 C142.833152,221.835561 168.049324,216.835416 193.510957,216.861703 Z M1868.29408,335.632555 L1868.44485,335.632555 C1826.95586,336.21644 1793.62927,369.959814 1793.62927,411.3838 C1793.62927,452.807787 1826.95586,486.55116 1868.44485,487.135045 L1868.44485,605.9136 C1812.3854,605.931452 1759.04692,581.789435 1722.11743,539.683003 C1685.16492,582.184256 1631.55957,606.589105 1575.18689,606.575911 L1575.18689,487.782299 C1617.08881,487.782299 1651.05703,453.870681 1651.05703,412.03858 C1651.05703,370.206479 1617.08881,336.294861 1575.18689,336.294861 L1575.18689,217.501254 C1631.21749,217.516899 1684.51955,241.654872 1721.43894,283.731851 C1758.37419,241.25044 1811.94772,216.847558 1868.29408,216.838948 L1868.29408,335.632555 Z M1994.05861,614.217813 C1952.11733,614.217813 1918.11721,580.217693 1918.11721,538.276419 C1918.11721,496.335145 1952.11733,462.335025 1994.05861,462.335025 C2035.99988,462.335025 2070,496.335145 2070,538.276419 C2070,580.217693 2035.99988,614.217813 1994.05861,614.217813 Z" fill="url(#radialGradient-5)"></path>
                            <path d="M906.316006,221.38826 C1008.08388,221.38826 1090.8814,308.226676 1090.8814,414.944854 C1090.8814,521.663032 1008.08388,608.486387 906.316006,608.486387 C877.109551,608.487511 848.3595,601.242708 822.644551,587.40179 L822.644551,606.754438 L709.741578,606.754438 L709.741578,0 L822.644551,0 L822.644551,242.472857 C848.3595,228.631939 877.109551,221.387136 906.316006,221.38826 Z M906.316006,490.111439 C945.868963,490.111439 978.023633,456.376085 978.023633,414.914733 C978.023633,373.45338 945.853895,339.718027 906.316006,339.718027 C866.778117,339.718027 834.608379,373.43832 834.608379,414.914733 C834.608379,456.391146 866.778117,490.111439 906.316006,490.111439 Z M1253.1816,218.749423 L1253.1816,239.554449 C1278.87131,226.132511 1307.38779,219.006472 1336.37748,218.764467 L1336.37748,337.502041 C1291.24842,338.419688 1254.68741,377.321927 1253.1816,425.671422 L1253.1816,609.441624 L1139.59852,609.441624 L1139.59852,218.749423 L1253.1816,218.749423 Z M657.631754,217.794186 L657.601641,430.385906 L658.158745,430.385906 C657.993119,432.10157 657.812437,433.817233 657.601641,435.517846 L657.601641,838.698662 L538.516846,838.698662 L538.516846,591.582984 C515.115433,601.220391 490.048139,606.170094 464.738176,606.151071 C363.811968,606.151071 280.622754,528.855935 271.287494,430.385906 L391.531668,430.385906 C399.949933,463.757124 429.892034,487.207115 464.323635,487.394963 C498.755237,487.58281 528.951663,464.460917 537.733888,431.183539 L536.815419,431.183539 L536.649794,430.446105 L538.456618,423.116913 L538.546959,426.367643 L538.546959,217.794186 L657.631754,217.794186 Z M1397.51269,215.88371 L1513.09645,215.88371 L1513.09645,606.575911 L1397.51269,606.575911 L1397.51269,215.88371 Z M193.510957,216.861703 C294.032998,216.861703 377.002855,293.516291 386.871251,391.420314 L266.341225,391.420314 C257.400653,358.536714 227.534009,335.713327 193.443158,335.713327 C159.352308,335.713327 129.485664,358.536714 120.545092,391.420314 L119.309659,396.435241 L119.309659,609.441624 L0.286258811,609.441624 L0.286258811,391.420314 L0,391.420314 C0.0753312662,390.561903 0.195861292,389.718552 0.286258811,388.875201 L0.286258811,0 L119.309659,0 L119.309659,231.575167 C142.833152,221.835561 168.049324,216.835416 193.510957,216.861703 Z M1868.29408,335.632555 L1868.44485,335.632555 C1826.95586,336.21644 1793.62927,369.959814 1793.62927,411.3838 C1793.62927,452.807787 1826.95586,486.55116 1868.44485,487.135045 L1868.44485,605.9136 C1812.3854,605.931452 1759.04692,581.789435 1722.11743,539.683003 C1685.16492,582.184256 1631.55957,606.589105 1575.18689,606.575911 L1575.18689,487.782299 C1617.08881,487.782299 1651.05703,453.870681 1651.05703,412.03858 C1651.05703,370.206479 1617.08881,336.294861 1575.18689,336.294861 L1575.18689,217.501254 C1631.21749,217.516899 1684.51955,241.654872 1721.43894,283.731851 C1758.37419,241.25044 1811.94772,216.847558 1868.29408,216.838948 L1868.29408,335.632555 Z M1994.05861,614.217813 C1952.11733,614.217813 1918.11721,580.217693 1918.11721,538.276419 C1918.11721,496.335145 1952.11733,462.335025 1994.05861,462.335025 C2035.99988,462.335025 2070,496.335145 2070,538.276419 C2070,580.217693 2035.99988,614.217813 1994.05861,614.217813 Z" fill="url(#radialGradient-6)"></path>
                            <path d="M906.316006,221.38826 C1008.08388,221.38826 1090.8814,308.226676 1090.8814,414.944854 C1090.8814,521.663032 1008.08388,608.486387 906.316006,608.486387 C877.109551,608.487511 848.3595,601.242708 822.644551,587.40179 L822.644551,606.754438 L709.741578,606.754438 L709.741578,0 L822.644551,0 L822.644551,242.472857 C848.3595,228.631939 877.109551,221.387136 906.316006,221.38826 Z M906.316006,490.111439 C945.868963,490.111439 978.023633,456.376085 978.023633,414.914733 C978.023633,373.45338 945.853895,339.718027 906.316006,339.718027 C866.778117,339.718027 834.608379,373.43832 834.608379,414.914733 C834.608379,456.391146 866.778117,490.111439 906.316006,490.111439 Z M1253.1816,218.749423 L1253.1816,239.554449 C1278.87131,226.132511 1307.38779,219.006472 1336.37748,218.764467 L1336.37748,337.502041 C1291.24842,338.419688 1254.68741,377.321927 1253.1816,425.671422 L1253.1816,609.441624 L1139.59852,609.441624 L1139.59852,218.749423 L1253.1816,218.749423 Z M657.631754,217.794186 L657.601641,430.385906 L658.158745,430.385906 C657.993119,432.10157 657.812437,433.817233 657.601641,435.517846 L657.601641,838.698662 L538.516846,838.698662 L538.516846,591.582984 C515.115433,601.220391 490.048139,606.170094 464.738176,606.151071 C363.811968,606.151071 280.622754,528.855935 271.287494,430.385906 L391.531668,430.385906 C399.949933,463.757124 429.892034,487.207115 464.323635,487.394963 C498.755237,487.58281 528.951663,464.460917 537.733888,431.183539 L536.815419,431.183539 L536.649794,430.446105 L538.456618,423.116913 L538.546959,426.367643 L538.546959,217.794186 L657.631754,217.794186 Z M1397.51269,215.88371 L1513.09645,215.88371 L1513.09645,606.575911 L1397.51269,606.575911 L1397.51269,215.88371 Z M193.510957,216.861703 C294.032998,216.861703 377.002855,293.516291 386.871251,391.420314 L266.341225,391.420314 C257.400653,358.536714 227.534009,335.713327 193.443158,335.713327 C159.352308,335.713327 129.485664,358.536714 120.545092,391.420314 L119.309659,396.435241 L119.309659,609.441624 L0.286258811,609.441624 L0.286258811,391.420314 L0,391.420314 C0.0753312662,390.561903 0.195861292,389.718552 0.286258811,388.875201 L0.286258811,0 L119.309659,0 L119.309659,231.575167 C142.833152,221.835561 168.049324,216.835416 193.510957,216.861703 Z M1868.29408,335.632555 L1868.44485,335.632555 C1826.95586,336.21644 1793.62927,369.959814 1793.62927,411.3838 C1793.62927,452.807787 1826.95586,486.55116 1868.44485,487.135045 L1868.44485,605.9136 C1812.3854,605.931452 1759.04692,581.789435 1722.11743,539.683003 C1685.16492,582.184256 1631.55957,606.589105 1575.18689,606.575911 L1575.18689,487.782299 C1617.08881,487.782299 1651.05703,453.870681 1651.05703,412.03858 C1651.05703,370.206479 1617.08881,336.294861 1575.18689,336.294861 L1575.18689,217.501254 C1631.21749,217.516899 1684.51955,241.654872 1721.43894,283.731851 C1758.37419,241.25044 1811.94772,216.847558 1868.29408,216.838948 L1868.29408,335.632555 Z M1994.05861,614.217813 C1952.11733,614.217813 1918.11721,580.217693 1918.11721,538.276419 C1918.11721,496.335145 1952.11733,462.335025 1994.05861,462.335025 C2035.99988,462.335025 2070,496.335145 2070,538.276419 C2070,580.217693 2035.99988,614.217813 1994.05861,614.217813 Z" fill="url(#radialGradient-7)"></path>
                            <path d="M906.316006,221.38826 C1008.08388,221.38826 1090.8814,308.226676 1090.8814,414.944854 C1090.8814,521.663032 1008.08388,608.486387 906.316006,608.486387 C877.109551,608.487511 848.3595,601.242708 822.644551,587.40179 L822.644551,606.754438 L709.741578,606.754438 L709.741578,0 L822.644551,0 L822.644551,242.472857 C848.3595,228.631939 877.109551,221.387136 906.316006,221.38826 Z M906.316006,490.111439 C945.868963,490.111439 978.023633,456.376085 978.023633,414.914733 C978.023633,373.45338 945.853895,339.718027 906.316006,339.718027 C866.778117,339.718027 834.608379,373.43832 834.608379,414.914733 C834.608379,456.391146 866.778117,490.111439 906.316006,490.111439 Z M1253.1816,218.749423 L1253.1816,239.554449 C1278.87131,226.132511 1307.38779,219.006472 1336.37748,218.764467 L1336.37748,337.502041 C1291.24842,338.419688 1254.68741,377.321927 1253.1816,425.671422 L1253.1816,609.441624 L1139.59852,609.441624 L1139.59852,218.749423 L1253.1816,218.749423 Z M657.631754,217.794186 L657.601641,430.385906 L658.158745,430.385906 C657.993119,432.10157 657.812437,433.817233 657.601641,435.517846 L657.601641,838.698662 L538.516846,838.698662 L538.516846,591.582984 C515.115433,601.220391 490.048139,606.170094 464.738176,606.151071 C363.811968,606.151071 280.622754,528.855935 271.287494,430.385906 L391.531668,430.385906 C399.949933,463.757124 429.892034,487.207115 464.323635,487.394963 C498.755237,487.58281 528.951663,464.460917 537.733888,431.183539 L536.815419,431.183539 L536.649794,430.446105 L538.456618,423.116913 L538.546959,426.367643 L538.546959,217.794186 L657.631754,217.794186 Z M1397.51269,215.88371 L1513.09645,215.88371 L1513.09645,606.575911 L1397.51269,606.575911 L1397.51269,215.88371 Z M193.510957,216.861703 C294.032998,216.861703 377.002855,293.516291 386.871251,391.420314 L266.341225,391.420314 C257.400653,358.536714 227.534009,335.713327 193.443158,335.713327 C159.352308,335.713327 129.485664,358.536714 120.545092,391.420314 L119.309659,396.435241 L119.309659,609.441624 L0.286258811,609.441624 L0.286258811,391.420314 L0,391.420314 C0.0753312662,390.561903 0.195861292,389.718552 0.286258811,388.875201 L0.286258811,0 L119.309659,0 L119.309659,231.575167 C142.833152,221.835561 168.049324,216.835416 193.510957,216.861703 Z M1868.29408,335.632555 L1868.44485,335.632555 C1826.95586,336.21644 1793.62927,369.959814 1793.62927,411.3838 C1793.62927,452.807787 1826.95586,486.55116 1868.44485,487.135045 L1868.44485,605.9136 C1812.3854,605.931452 1759.04692,581.789435 1722.11743,539.683003 C1685.16492,582.184256 1631.55957,606.589105 1575.18689,606.575911 L1575.18689,487.782299 C1617.08881,487.782299 1651.05703,453.870681 1651.05703,412.03858 C1651.05703,370.206479 1617.08881,336.294861 1575.18689,336.294861 L1575.18689,217.501254 C1631.21749,217.516899 1684.51955,241.654872 1721.43894,283.731851 C1758.37419,241.25044 1811.94772,216.847558 1868.29408,216.838948 L1868.29408,335.632555 Z M1994.05861,614.217813 C1952.11733,614.217813 1918.11721,580.217693 1918.11721,538.276419 C1918.11721,496.335145 1952.11733,462.335025 1994.05861,462.335025 C2035.99988,462.335025 2070,496.335145 2070,538.276419 C2070,580.217693 2035.99988,614.217813 1994.05861,614.217813 Z" fill="url(#radialGradient-8)"></path>
                            <path d="M906.316006,221.38826 C1008.08388,221.38826 1090.8814,308.226676 1090.8814,414.944854 C1090.8814,521.663032 1008.08388,608.486387 906.316006,608.486387 C877.109551,608.487511 848.3595,601.242708 822.644551,587.40179 L822.644551,606.754438 L709.741578,606.754438 L709.741578,0 L822.644551,0 L822.644551,242.472857 C848.3595,228.631939 877.109551,221.387136 906.316006,221.38826 Z M906.316006,490.111439 C945.868963,490.111439 978.023633,456.376085 978.023633,414.914733 C978.023633,373.45338 945.853895,339.718027 906.316006,339.718027 C866.778117,339.718027 834.608379,373.43832 834.608379,414.914733 C834.608379,456.391146 866.778117,490.111439 906.316006,490.111439 Z M1253.1816,218.749423 L1253.1816,239.554449 C1278.87131,226.132511 1307.38779,219.006472 1336.37748,218.764467 L1336.37748,337.502041 C1291.24842,338.419688 1254.68741,377.321927 1253.1816,425.671422 L1253.1816,609.441624 L1139.59852,609.441624 L1139.59852,218.749423 L1253.1816,218.749423 Z M657.631754,217.794186 L657.601641,430.385906 L658.158745,430.385906 C657.993119,432.10157 657.812437,433.817233 657.601641,435.517846 L657.601641,838.698662 L538.516846,838.698662 L538.516846,591.582984 C515.115433,601.220391 490.048139,606.170094 464.738176,606.151071 C363.811968,606.151071 280.622754,528.855935 271.287494,430.385906 L391.531668,430.385906 C399.949933,463.757124 429.892034,487.207115 464.323635,487.394963 C498.755237,487.58281 528.951663,464.460917 537.733888,431.183539 L536.815419,431.183539 L536.649794,430.446105 L538.456618,423.116913 L538.546959,426.367643 L538.546959,217.794186 L657.631754,217.794186 Z M1397.51269,215.88371 L1513.09645,215.88371 L1513.09645,606.575911 L1397.51269,606.575911 L1397.51269,215.88371 Z M193.510957,216.861703 C294.032998,216.861703 377.002855,293.516291 386.871251,391.420314 L266.341225,391.420314 C257.400653,358.536714 227.534009,335.713327 193.443158,335.713327 C159.352308,335.713327 129.485664,358.536714 120.545092,391.420314 L119.309659,396.435241 L119.309659,609.441624 L0.286258811,609.441624 L0.286258811,391.420314 L0,391.420314 C0.0753312662,390.561903 0.195861292,389.718552 0.286258811,388.875201 L0.286258811,0 L119.309659,0 L119.309659,231.575167 C142.833152,221.835561 168.049324,216.835416 193.510957,216.861703 Z M1868.29408,335.632555 L1868.44485,335.632555 C1826.95586,336.21644 1793.62927,369.959814 1793.62927,411.3838 C1793.62927,452.807787 1826.95586,486.55116 1868.44485,487.135045 L1868.44485,605.9136 C1812.3854,605.931452 1759.04692,581.789435 1722.11743,539.683003 C1685.16492,582.184256 1631.55957,606.589105 1575.18689,606.575911 L1575.18689,487.782299 C1617.08881,487.782299 1651.05703,453.870681 1651.05703,412.03858 C1651.05703,370.206479 1617.08881,336.294861 1575.18689,336.294861 L1575.18689,217.501254 C1631.21749,217.516899 1684.51955,241.654872 1721.43894,283.731851 C1758.37419,241.25044 1811.94772,216.847558 1868.29408,216.838948 L1868.29408,335.632555 Z M1994.05861,614.217813 C1952.11733,614.217813 1918.11721,580.217693 1918.11721,538.276419 C1918.11721,496.335145 1952.11733,462.335025 1994.05861,462.335025 C2035.99988,462.335025 2070,496.335145 2070,538.276419 C2070,580.217693 2035.99988,614.217813 1994.05861,614.217813 Z" fill="url(#radialGradient-9)"></path>
                            <circle id="Oval" fill="#68B6C7" cx="1994.05861" cy="538.276419" r="75.9413936"></circle>
                        </g>
                    </g>
                </svg>