<?xml version="1.0" encoding="UTF-8"?>
<svg width="748px" height="160px" viewBox="0 0 748 160" version="1.1" xmlns="http://www.w3.org/2000/svg" xmlns:xlink="http://www.w3.org/1999/xlink">
    <!-- Generator: Sketch 52.3 (67297) - http://www.bohemiancoding.com/sketch -->
    <title>hybrix-gradient</title>
    <desc>Created with Sketch.</desc>
    <defs>
        <radialGradient cx="74.8280232%" cy="94.3295877%" fx="74.8280232%" fy="94.3295877%" r="59.3083388%" gradientTransform="translate(0.748280,0.943296),scale(0.213904,1.000000),rotate(-114.393673),scale(1.000000,3.068031),translate(-0.748280,-0.943296)" id="radialGradient-1">
            <stop stop-color="#69E1CD" offset="0%"></stop>
            <stop stop-color="#69E1CE" stop-opacity="0" offset="100%"></stop>
        </radialGradient>
        <radialGradient cx="2.43573207%" cy="10.0784095%" fx="2.43573207%" fy="10.0784095%" r="282.295853%" gradientTransform="translate(0.024357,0.100784),scale(0.213904,1.000000),rotate(-156.487426),scale(1.000000,1.714322),translate(-0.024357,-0.100784)" id="radialGradient-2">
            <stop stop-color="#EAA05B" offset="0%"></stop>
            <stop stop-color="#EAA05B" stop-opacity="0.914968297" offset="6.17548772%"></stop>
            <stop stop-color="#EAA05B" stop-opacity="0" offset="100%"></stop>
            <stop stop-color="#EAA05B" stop-opacity="0" offset="100%"></stop>
        </radialGradient>
        <radialGradient cx="93.7433601%" cy="0%" fx="93.7433601%" fy="0%" r="381.829396%" gradientTransform="translate(0.937434,0.000000),scale(0.213904,1.000000),rotate(159.981646),scale(1.000000,1.466156),translate(-0.937434,-0.000000)" id="radialGradient-3">
            <stop stop-color="#F252BC" offset="0%"></stop>
            <stop stop-color="#F252BC" stop-opacity="0.891502491" offset="31.6104241%"></stop>
            <stop stop-color="#F251BD" stop-opacity="0" offset="100%"></stop>
        </radialGradient>
        <radialGradient cx="-13.2123836%" cy="50%" fx="-13.2123836%" fy="50%" r="113.594542%" gradientTransform="translate(-0.132124,0.500000),scale(0.213904,1.000000),rotate(-133.091669),scale(1.000000,1.779837),translate(0.132124,-0.500000)" id="radialGradient-4">
            <stop stop-color="#EAA05B" offset="0%"></stop>
            <stop stop-color="#EAA05B" stop-opacity="0.914968297" offset="30.7593863%"></stop>
            <stop stop-color="#EAA05B" stop-opacity="0" offset="100%"></stop>
            <stop stop-color="#EAA05B" stop-opacity="0" offset="100%"></stop>
        </radialGradient>
        <radialGradient cx="107.528737%" cy="38.4541724%" fx="107.528737%" fy="38.4541724%" r="215.412939%" gradientTransform="translate(1.075287,0.384542),scale(0.213904,1.000000),rotate(176.927555),scale(1.000000,1.766288),translate(-1.075287,-0.384542)" id="radialGradient-5">
            <stop stop-color="#69E1CD" offset="0%"></stop>
            <stop stop-color="#69E1CE" stop-opacity="0" offset="100%"></stop>
            <stop stop-color="#69E1CE" stop-opacity="0" offset="100%"></stop>
        </radialGradient>
        <radialGradient cx="21.7131541%" cy="100%" fx="21.7131541%" fy="100%" r="70.3352609%" gradientTransform="translate(0.217132,1.000000),scale(0.213904,1.000000),rotate(-102.580105),scale(1.000000,1.766288),translate(-0.217132,-1.000000)" id="radialGradient-6">
            <stop stop-color="#69E1CD" stop-opacity="0.120669158" offset="0%"></stop>
            <stop stop-color="#69E1CE" stop-opacity="0" offset="100%"></stop>
            <stop stop-color="#69E1CE" stop-opacity="0" offset="100%"></stop>
        </radialGradient>
        <radialGradient cx="126.184477%" cy="93.8354752%" fx="126.184477%" fy="93.8354752%" r="170.354103%" gradientTransform="translate(1.261845,0.938355),scale(0.213904,1.000000),rotate(-150.949072),scale(1.000000,8.814447),translate(-1.261845,-0.938355)" id="radialGradient-7">
            <stop stop-color="#69E1CD" offset="0%"></stop>
            <stop stop-color="#69E1CE" stop-opacity="0" offset="100%"></stop>
        </radialGradient>
        <radialGradient cx="80.0194762%" cy="50%" fx="80.0194762%" fy="50%" r="166.825594%" gradientTransform="translate(0.800195,0.500000),scale(0.213904,1.000000),rotate(-135.961595),scale(1.000000,0.721540),translate(-0.800195,-0.500000)" id="radialGradient-8">
            <stop stop-color="#7BBBD2" offset="0%"></stop>
            <stop stop-color="#7BBCD1" stop-opacity="0.977791687" offset="6.4154292%"></stop>
            <stop stop-color="#7DD1B6" stop-opacity="0" offset="100%"></stop>
        </radialGradient>
    </defs>
    <g id="Page-1" stroke="none" stroke-width="1" fill="none" fill-rule="evenodd">
        <g id="Artboard" transform="translate(-477.000000, -437.000000)">
            <g id="hybrix-gradient" transform="translate(477.000000, 433.000000)">
                <path d="M340.769263,99 C332.869484,100.902983 327,108.016046 327,116.5 C327,126.441125 335.058875,134.5 345,134.5 C345.676018,134.5 346.343332,134.462733 347,134.390142 L347,134.5 L348,134.5 L348,134 L476,134 L476,164 L348,164 L348,163.737182 C346.357103,163.910913 344.688955,164 343,164 C317.042617,164 296,142.957383 296,117 C296,110.623758 297.269719,104.544074 299.570107,98.9999991 L222,99 L222,69 L476,69 L476,99 L340.769263,99 Z M199,33.9460328 C190.984045,35.7649495 185,42.9336504 185,51.5 C185,59.983954 190.869484,67.0970166 198.769263,69 L214,69 L214,99 L101.555588,99 C103.140844,94.2893707 104,89.2450187 104,84 C104,78.7549813 103.140844,73.7106293 101.555588,69 L157.168639,69 C155.122444,63.7279538 154,57.9950573 154,52 C154,26.7126506 173.970298,6.08961424 199,5.04178488 L199,5 L476,5 L476,34 L199,34 L199,33.9460328 Z M484,4 L748,4 L748,34 L484,34 L484,4 Z M484,69 L748,69 L748,99 L484,99 L484,69 Z M484,134 L748,134 L748,164 L484,164 L484,134 Z M47,131 C21.0426168,131 0,109.957383 0,84 C0,58.0426168 21.0426168,37 47,37 C72.9573832,37 94,58.0426168 94,84 C94,109.957383 72.9573832,131 47,131 Z" id="Combined-Shape" fill="#FFFFFF" fill-rule="nonzero"></path>
                <path d="M340.769263,99 C332.869484,100.902983 327,108.016046 327,116.5 C327,126.441125 335.058875,134.5 345,134.5 C345.676018,134.5 346.343332,134.462733 347,134.390142 L347,134.5 L348,134.5 L348,134 L476,134 L476,164 L348,164 L348,163.737182 C346.357103,163.910913 344.688955,164 343,164 C317.042617,164 296,142.957383 296,117 C296,110.623758 297.269719,104.544074 299.570107,98.9999991 L222,99 L222,69 L476,69 L476,99 L340.769263,99 Z M199,33.9460328 C190.984045,35.7649495 185,42.9336504 185,51.5 C185,59.983954 190.869484,67.0970166 198.769263,69 L214,69 L214,99 L101.555588,99 C103.140844,94.2893707 104,89.2450187 104,84 C104,78.7549813 103.140844,73.7106293 101.555588,69 L157.168639,69 C155.122444,63.7279538 154,57.9950573 154,52 C154,26.7126506 173.970298,6.08961424 199,5.04178488 L199,5 L476,5 L476,34 L199,34 L199,33.9460328 Z M484,4 L748,4 L748,34 L484,34 L484,4 Z M484,69 L748,69 L748,99 L484,99 L484,69 Z M484,134 L748,134 L748,164 L484,164 L484,134 Z M47,131 C21.0426168,131 0,109.957383 0,84 C0,58.0426168 21.0426168,37 47,37 C72.9573832,37 94,58.0426168 94,84 C94,109.957383 72.9573832,131 47,131 Z" id="Combined-Shape" fill-opacity="0.500990716" fill="#8F7BB6" fill-rule="nonzero"></path>
                <path d="M340.769263,99 C332.869484,100.902983 327,108.016046 327,116.5 C327,126.441125 335.058875,134.5 345,134.5 C345.676018,134.5 346.343332,134.462733 347,134.390142 L347,134.5 L348,134.5 L348,134 L476,134 L476,164 L348,164 L348,163.737182 C346.357103,163.910913 344.688955,164 343,164 C317.042617,164 296,142.957383 296,117 C296,110.623758 297.269719,104.544074 299.570107,98.9999991 L222,99 L222,69 L476,69 L476,99 L340.769263,99 Z M199,33.9460328 C190.984045,35.7649495 185,42.9336504 185,51.5 C185,59.983954 190.869484,67.0970166 198.769263,69 L214,69 L214,99 L101.555588,99 C103.140844,94.2893707 104,89.2450187 104,84 C104,78.7549813 103.140844,73.7106293 101.555588,69 L157.168639,69 C155.122444,63.7279538 154,57.9950573 154,52 C154,26.7126506 173.970298,6.08961424 199,5.04178488 L199,5 L476,5 L476,34 L199,34 L199,33.9460328 Z M484,4 L748,4 L748,34 L484,34 L484,4 Z M484,69 L748,69 L748,99 L484,99 L484,69 Z M484,134 L748,134 L748,164 L484,164 L484,134 Z M47,131 C21.0426168,131 0,109.957383 0,84 C0,58.0426168 21.0426168,37 47,37 C72.9573832,37 94,58.0426168 94,84 C94,109.957383 72.9573832,131 47,131 Z" id="Combined-Shape" fill="url(#radialGradient-1)" fill-rule="nonzero"></path>
                <path d="M340.769263,99 C332.869484,100.902983 327,108.016046 327,116.5 C327,126.441125 335.058875,134.5 345,134.5 C345.676018,134.5 346.343332,134.462733 347,134.390142 L347,134.5 L348,134.5 L348,134 L476,134 L476,164 L348,164 L348,163.737182 C346.357103,163.910913 344.688955,164 343,164 C317.042617,164 296,142.957383 296,117 C296,110.623758 297.269719,104.544074 299.570107,98.9999991 L222,99 L222,69 L476,69 L476,99 L340.769263,99 Z M199,33.9460328 C190.984045,35.7649495 185,42.9336504 185,51.5 C185,59.983954 190.869484,67.0970166 198.769263,69 L214,69 L214,99 L101.555588,99 C103.140844,94.2893707 104,89.2450187 104,84 C104,78.7549813 103.140844,73.7106293 101.555588,69 L157.168639,69 C155.122444,63.7279538 154,57.9950573 154,52 C154,26.7126506 173.970298,6.08961424 199,5.04178488 L199,5 L476,5 L476,34 L199,34 L199,33.9460328 Z M484,4 L748,4 L748,34 L484,34 L484,4 Z M484,69 L748,69 L748,99 L484,99 L484,69 Z M484,134 L748,134 L748,164 L484,164 L484,134 Z M47,131 C21.0426168,131 0,109.957383 0,84 C0,58.0426168 21.0426168,37 47,37 C72.9573832,37 94,58.0426168 94,84 C94,109.957383 72.9573832,131 47,131 Z" id="Combined-Shape" fill="url(#radialGradient-2)" fill-rule="nonzero"></path>
                <path d="M340.769263,99 C332.869484,100.902983 327,108.016046 327,116.5 C327,126.441125 335.058875,134.5 345,134.5 C345.676018,134.5 346.343332,134.462733 347,134.390142 L347,134.5 L348,134.5 L348,134 L476,134 L476,164 L348,164 L348,163.737182 C346.357103,163.910913 344.688955,164 343,164 C317.042617,164 296,142.957383 296,117 C296,110.623758 297.269719,104.544074 299.570107,98.9999991 L222,99 L222,69 L476,69 L476,99 L340.769263,99 Z M199,33.9460328 C190.984045,35.7649495 185,42.9336504 185,51.5 C185,59.983954 190.869484,67.0970166 198.769263,69 L214,69 L214,99 L101.555588,99 C103.140844,94.2893707 104,89.2450187 104,84 C104,78.7549813 103.140844,73.7106293 101.555588,69 L157.168639,69 C155.122444,63.7279538 154,57.9950573 154,52 C154,26.7126506 173.970298,6.08961424 199,5.04178488 L199,5 L476,5 L476,34 L199,34 L199,33.9460328 Z M484,4 L748,4 L748,34 L484,34 L484,4 Z M484,69 L748,69 L748,99 L484,99 L484,69 Z M484,134 L748,134 L748,164 L484,164 L484,134 Z M47,131 C21.0426168,131 0,109.957383 0,84 C0,58.0426168 21.0426168,37 47,37 C72.9573832,37 94,58.0426168 94,84 C94,109.957383 72.9573832,131 47,131 Z" id="Combined-Shape" fill="url(#radialGradient-3)" fill-rule="nonzero"></path>
                <path d="M340.769263,99 C332.869484,100.902983 327,108.016046 327,116.5 C327,126.441125 335.058875,134.5 345,134.5 C345.676018,134.5 346.343332,134.462733 347,134.390142 L347,134.5 L348,134.5 L348,134 L476,134 L476,164 L348,164 L348,163.737182 C346.357103,163.910913 344.688955,164 343,164 C317.042617,164 296,142.957383 296,117 C296,110.623758 297.269719,104.544074 299.570107,98.9999991 L222,99 L222,69 L476,69 L476,99 L340.769263,99 Z M199,33.9460328 C190.984045,35.7649495 185,42.9336504 185,51.5 C185,59.983954 190.869484,67.0970166 198.769263,69 L214,69 L214,99 L101.555588,99 C103.140844,94.2893707 104,89.2450187 104,84 C104,78.7549813 103.140844,73.7106293 101.555588,69 L157.168639,69 C155.122444,63.7279538 154,57.9950573 154,52 C154,26.7126506 173.970298,6.08961424 199,5.04178488 L199,5 L476,5 L476,34 L199,34 L199,33.9460328 Z M484,4 L748,4 L748,34 L484,34 L484,4 Z M484,69 L748,69 L748,99 L484,99 L484,69 Z M484,134 L748,134 L748,164 L484,164 L484,134 Z M47,131 C21.0426168,131 0,109.957383 0,84 C0,58.0426168 21.0426168,37 47,37 C72.9573832,37 94,58.0426168 94,84 C94,109.957383 72.9573832,131 47,131 Z" id="Combined-Shape" fill="url(#radialGradient-4)" fill-rule="nonzero"></path>
                <path d="M340.769263,99 C332.869484,100.902983 327,108.016046 327,116.5 C327,126.441125 335.058875,134.5 345,134.5 C345.676018,134.5 346.343332,134.462733 347,134.390142 L347,134.5 L348,134.5 L348,134 L476,134 L476,164 L348,164 L348,163.737182 C346.357103,163.910913 344.688955,164 343,164 C317.042617,164 296,142.957383 296,117 C296,110.623758 297.269719,104.544074 299.570107,98.9999991 L222,99 L222,69 L476,69 L476,99 L340.769263,99 Z M199,33.9460328 C190.984045,35.7649495 185,42.9336504 185,51.5 C185,59.983954 190.869484,67.0970166 198.769263,69 L214,69 L214,99 L101.555588,99 C103.140844,94.2893707 104,89.2450187 104,84 C104,78.7549813 103.140844,73.7106293 101.555588,69 L157.168639,69 C155.122444,63.7279538 154,57.9950573 154,52 C154,26.7126506 173.970298,6.08961424 199,5.04178488 L199,5 L476,5 L476,34 L199,34 L199,33.9460328 Z M484,4 L748,4 L748,34 L484,34 L484,4 Z M484,69 L748,69 L748,99 L484,99 L484,69 Z M484,134 L748,134 L748,164 L484,164 L484,134 Z M47,131 C21.0426168,131 0,109.957383 0,84 C0,58.0426168 21.0426168,37 47,37 C72.9573832,37 94,58.0426168 94,84 C94,109.957383 72.9573832,131 47,131 Z" id="Combined-Shape" fill="url(#radialGradient-5)" fill-rule="nonzero"></path>
                <path d="M340.769263,99 C332.869484,100.902983 327,108.016046 327,116.5 C327,126.441125 335.058875,134.5 345,134.5 C345.676018,134.5 346.343332,134.462733 347,134.390142 L347,134.5 L348,134.5 L348,134 L476,134 L476,164 L348,164 L348,163.737182 C346.357103,163.910913 344.688955,164 343,164 C317.042617,164 296,142.957383 296,117 C296,110.623758 297.269719,104.544074 299.570107,98.9999991 L222,99 L222,69 L476,69 L476,99 L340.769263,99 Z M199,33.9460328 C190.984045,35.7649495 185,42.9336504 185,51.5 C185,59.983954 190.869484,67.0970166 198.769263,69 L214,69 L214,99 L101.555588,99 C103.140844,94.2893707 104,89.2450187 104,84 C104,78.7549813 103.140844,73.7106293 101.555588,69 L157.168639,69 C155.122444,63.7279538 154,57.9950573 154,52 C154,26.7126506 173.970298,6.08961424 199,5.04178488 L199,5 L476,5 L476,34 L199,34 L199,33.9460328 Z M484,4 L748,4 L748,34 L484,34 L484,4 Z M484,69 L748,69 L748,99 L484,99 L484,69 Z M484,134 L748,134 L748,164 L484,164 L484,134 Z M47,131 C21.0426168,131 0,109.957383 0,84 C0,58.0426168 21.0426168,37 47,37 C72.9573832,37 94,58.0426168 94,84 C94,109.957383 72.9573832,131 47,131 Z" id="Combined-Shape" fill="url(#radialGradient-6)" fill-rule="nonzero"></path>
                <path d="M340.769263,99 C332.869484,100.902983 327,108.016046 327,116.5 C327,126.441125 335.058875,134.5 345,134.5 C345.676018,134.5 346.343332,134.462733 347,134.390142 L347,134.5 L348,134.5 L348,134 L476,134 L476,164 L348,164 L348,163.737182 C346.357103,163.910913 344.688955,164 343,164 C317.042617,164 296,142.957383 296,117 C296,110.623758 297.269719,104.544074 299.570107,98.9999991 L222,99 L222,69 L476,69 L476,99 L340.769263,99 Z M199,33.9460328 C190.984045,35.7649495 185,42.9336504 185,51.5 C185,59.983954 190.869484,67.0970166 198.769263,69 L214,69 L214,99 L101.555588,99 C103.140844,94.2893707 104,89.2450187 104,84 C104,78.7549813 103.140844,73.7106293 101.555588,69 L157.168639,69 C155.122444,63.7279538 154,57.9950573 154,52 C154,26.7126506 173.970298,6.08961424 199,5.04178488 L199,5 L476,5 L476,34 L199,34 L199,33.9460328 Z M484,4 L748,4 L748,34 L484,34 L484,4 Z M484,69 L748,69 L748,99 L484,99 L484,69 Z M484,134 L748,134 L748,164 L484,164 L484,134 Z M47,131 C21.0426168,131 0,109.957383 0,84 C0,58.0426168 21.0426168,37 47,37 C72.9573832,37 94,58.0426168 94,84 C94,109.957383 72.9573832,131 47,131 Z" id="Combined-Shape" fill="url(#radialGradient-7)" fill-rule="nonzero"></path>
                <path d="M340.769263,99 C332.869484,100.902983 327,108.016046 327,116.5 C327,126.441125 335.058875,134.5 345,134.5 C345.676018,134.5 346.343332,134.462733 347,134.390142 L347,134.5 L348,134.5 L348,134 L476,134 L476,164 L348,164 L348,163.737182 C346.357103,163.910913 344.688955,164 343,164 C317.042617,164 296,142.957383 296,117 C296,110.623758 297.269719,104.544074 299.570107,98.9999991 L222,99 L222,69 L476,69 L476,99 L340.769263,99 Z M199,33.9460328 C190.984045,35.7649495 185,42.9336504 185,51.5 C185,59.983954 190.869484,67.0970166 198.769263,69 L214,69 L214,99 L101.555588,99 C103.140844,94.2893707 104,89.2450187 104,84 C104,78.7549813 103.140844,73.7106293 101.555588,69 L157.168639,69 C155.122444,63.7279538 154,57.9950573 154,52 C154,26.7126506 173.970298,6.08961424 199,5.04178488 L199,5 L476,5 L476,34 L199,34 L199,33.9460328 Z M484,4 L748,4 L748,34 L484,34 L484,4 Z M484,69 L748,69 L748,99 L484,99 L484,69 Z M484,134 L748,134 L748,164 L484,164 L484,134 Z M47,131 C21.0426168,131 0,109.957383 0,84 C0,58.0426168 21.0426168,37 47,37 C72.9573832,37 94,58.0426168 94,84 C94,109.957383 72.9573832,131 47,131 Z" id="Combined-Shape" fill="url(#radialGradient-8)" fill-rule="nonzero" opacity="0.856933594"></path>
                <text id="hybrixd" fill="#FFFFFF" font-family="Palanquin-Bold, Palanquin" font-size="18" font-weight="bold">
                    <tspan x="17" y="90">hybrixd</tspan>
                </text>
                <text id="REST-API" fill="#FFFFFF" font-family="Palanquin-Bold, Palanquin" font-size="18" font-weight="bold">
                    <tspan x="118" y="90">REST API</tspan>
                </text>
                <text id="lib.js" fill="#FFFFFF" font-family="Palanquin-Bold, Palanquin" font-size="18" font-weight="bold">
                    <tspan x="235" y="90">lib.js</tspan>
                </text>
                <text id="your-node.js-applica" fill="#FFFFFF" font-family="Palanquin-Bold, Palanquin" font-size="18" font-weight="bold">
                    <tspan x="498" y="90">your node.js application</tspan>
                </text>
                <text id="direct-calls" fill="#FFFFFF" font-family="Palanquin-Bold, Palanquin" font-size="18" font-weight="bold">
                    <tspan x="498" y="24">direct calls</tspan>
                </text>
                <text id="your-web-application" fill="#FFFFFF" font-family="Palanquin-Bold, Palanquin" font-size="18" font-weight="bold">
                    <tspan x="498" y="154">your web application</tspan>
                </text>
            </g>
        </g>
    </g>
</svg>