<?xml version="1.0" encoding="UTF-8"?>
<svg width="748px" height="160px" viewBox="0 0 748 160" version="1.1" xmlns="http://www.w3.org/2000/svg" xmlns:xlink="http://www.w3.org/1999/xlink">
    <!-- Generator: Sketch 52.3 (67297) - http://www.bohemiancoding.com/sketch -->
    <title>hybrix-diagram</title>
    <desc>Created with Sketch.</desc>
    <defs>
        <radialGradient cx="74.8279998%" cy="94.3296108%" fx="74.8279998%" fy="94.3296108%" r="59.372154%" gradientTransform="translate(0.748280,0.943296),scale(0.212567,1.000000),rotate(-114.529120),translate(-0.748280,-0.943296)" id="radialGradient-1">
            <stop stop-color="#69E1CD" offset="0%"></stop>
            <stop stop-color="#69E1CE" stop-opacity="0" offset="100%"></stop>
        </radialGradient>
        <radialGradient cx="2.4356986%" cy="10.0784274%" fx="2.4356986%" fy="10.0784274%" r="283.673984%" gradientTransform="translate(0.024357,0.100784),scale(0.212670,1.000000),rotate(-156.608474),translate(-0.024357,-0.100784)" id="radialGradient-2">
            <stop stop-color="#EAA05B" offset="0%"></stop>
            <stop stop-color="#EAA05B" stop-opacity="0.914968297" offset="6.17548772%"></stop>
            <stop stop-color="#EAA05B" stop-opacity="0" offset="100%"></stop>
            <stop stop-color="#EAA05B" stop-opacity="0" offset="100%"></stop>
        </radialGradient>
        <radialGradient cx="93.7433994%" cy="1.55719695e-05%" fx="93.7433994%" fy="1.55719695e-05%" r="383.951021%" gradientTransform="translate(0.937434,0.000000),scale(0.212567,1.000000),rotate(160.096953),translate(-0.937434,-0.000000)" id="radialGradient-3">
            <stop stop-color="#F252BC" offset="0%"></stop>
            <stop stop-color="#F252BC" stop-opacity="0.891502491" offset="31.6104241%"></stop>
            <stop stop-color="#F251BD" stop-opacity="0" offset="100%"></stop>
        </radialGradient>
        <radialGradient cx="-13.2124015%" cy="50.00001%" fx="-13.2124015%" fy="50.00001%" r="113.928666%" gradientTransform="translate(-0.132124,0.500000),scale(0.212567,1.000000),rotate(-133.270986),translate(0.132124,-0.500000)" id="radialGradient-4">
            <stop stop-color="#EAA05B" offset="0%"></stop>
            <stop stop-color="#EAA05B" stop-opacity="0.914968297" offset="30.7593863%"></stop>
            <stop stop-color="#EAA05B" stop-opacity="0" offset="100%"></stop>
            <stop stop-color="#EAA05B" stop-opacity="0" offset="100%"></stop>
        </radialGradient>
        <radialGradient cx="107.528702%" cy="38.4543489%" fx="107.528702%" fy="38.4543489%" r="216.659461%" gradientTransform="translate(1.075287,0.384543),scale(0.212670,1.000000),rotate(176.945249),translate(-1.075287,-0.384543)" id="radialGradient-5">
            <stop stop-color="#69E1CD" offset="0%"></stop>
            <stop stop-color="#69E1CE" stop-opacity="0" offset="100%"></stop>
            <stop stop-color="#69E1CE" stop-opacity="0" offset="100%"></stop>
        </radialGradient>
        <radialGradient cx="21.7132093%" cy="99.9999881%" fx="21.7132093%" fy="99.9999881%" r="70.3563169%" gradientTransform="translate(0.217132,1.000000),scale(0.212567,1.000000),rotate(-102.656714),translate(-0.217132,-1.000000)" id="radialGradient-6">
            <stop stop-color="#69E1CD" stop-opacity="0.120669158" offset="0%"></stop>
            <stop stop-color="#69E1CE" stop-opacity="0" offset="100%"></stop>
            <stop stop-color="#69E1CE" stop-opacity="0" offset="100%"></stop>
        </radialGradient>
        <radialGradient cx="126.184504%" cy="93.8357067%" fx="126.184504%" fy="93.8357067%" r="171.173799%" gradientTransform="translate(1.261845,0.938357),scale(0.212567,1.000000),rotate(-151.101365),translate(-1.261845,-0.938357)" id="radialGradient-7">
            <stop stop-color="#69E1CD" offset="0%"></stop>
            <stop stop-color="#69E1CE" stop-opacity="0" offset="100%"></stop>
        </radialGradient>
        <radialGradient cx="80.0195019%" cy="49.9999856%" fx="80.0195019%" fy="49.9999856%" r="167.326606%" gradientTransform="translate(0.800195,0.500000),scale(0.212670,1.000000),rotate(-136.127256),translate(-0.800195,-0.500000)" id="radialGradient-8">
            <stop stop-color="#7BBBD2" offset="0%"></stop>
            <stop stop-color="#7BBCD1" stop-opacity="0.977791687" offset="6.4154292%"></stop>
            <stop stop-color="#7DD1B6" stop-opacity="0" offset="100%"></stop>
        </radialGradient>
    </defs>
    <g id="Page-1" stroke="none" stroke-width="1" fill="none" fill-rule="evenodd">
        <g id="hybrix-diagram" fill-rule="nonzero">
            <path d="M340.769263,94 C332.869484,95.902983 327,103.016046 327,111.5 C327,121.441125 335.058875,130 345,130 C345.676018,130 346.343332,130.072591 347,130 L348,130 L476,130 L476,159 L348,159 C345.792637,159 344.12597,159 343,159 C317.042617,159 296,137.957383 296,112 C296,105.623758 297.269719,99.544074 299.570107,93.9999991 L222,94 L222,64 L476,64 L476,94 L340.769263,94 Z M199,28.9460328 C190.984045,30.7649495 185,37.9336504 185,46.5 C185,54.983954 190.869484,62.0970166 198.769263,64 L214,64 L214,94 L101.555588,94 C103.140844,89.2893707 104,84.2450187 104,79 C104,73.7549813 103.140844,68.7106293 101.555588,64 L157.168639,64 C155.122444,58.7279538 154,52.9950573 154,47 C154,21.7126506 173.970298,1.08961424 199,0.04178488 L199,0 L476,0 L476,29 L199,29 L199,28.9460328 Z M484,0 L748,0 L748,29 L484,29 L484,0 Z M484,64 L748,64 L748,94 L484,94 L484,64 Z M484,130 L748,130 L748,159 L484,159 L484,130 Z M47,126 C21.0426168,126 0,104.957383 0,79 C0,53.0426168 21.0426168,32 47,32 C72.9573832,32 94,53.0426168 94,79 C94,104.957383 72.9573832,126 47,126 Z" id="Shape" fill-opacity="0.500990716" fill="#8F7BB6"></path>
            <path d="M340.769263,94 C332.869484,95.902983 327,103.016046 327,111.5 C327,121.441125 335.058875,130 345,130 C345.676018,130 346.343332,130.072591 347,130 L348,130 L476,130 L476,159 L348,159 C345.792637,159 344.12597,159 343,159 C317.042617,159 296,137.957383 296,112 C296,105.623758 297.269719,99.544074 299.570107,93.9999991 L222,94 L222,64 L476,64 L476,94 L340.769263,94 Z M199,28.9460328 C190.984045,30.7649495 185,37.9336504 185,46.5 C185,54.983954 190.869484,62.0970166 198.769263,64 L214,64 L214,94 L101.555588,94 C103.140844,89.2893707 104,84.2450187 104,79 C104,73.7549813 103.140844,68.7106293 101.555588,64 L157.168639,64 C155.122444,58.7279538 154,52.9950573 154,47 C154,21.7126506 173.970298,1.08961424 199,0.04178488 L199,0 L476,0 L476,29 L199,29 L199,28.9460328 Z M484,0 L748,0 L748,30 L484,30 L484,0 Z M484,64 L748,64 L748,94 L484,94 L484,64 Z M484,130 L748,130 L748,159 L484,159 L484,130 Z M47,126 C21.0426168,126 0,104.957383 0,79 C0,53.0426168 21.0426168,32 47,32 C72.9573832,32 94,53.0426168 94,79 C94,104.957383 72.9573832,126 47,126 Z" id="Shape" fill="url(#radialGradient-1)"></path>
            <path d="M340.769263,94 C332.869484,95.902983 327,103.016046 327,111.5 C327,121.441125 335.058875,130 345,130 C345.676018,130 346.343332,130.072591 347,130 C347.437779,129.951606 347.771112,129.951606 348,130 L476,130 L476,159 L348,159 C346.357103,159.173731 344.688955,159 343,159 C317.042617,159 296,137.957383 296,112 C296,105.623758 297.269719,99.544074 299.570107,93.9999991 L222,94 L222,64 L476,64 L476,94 L340.769263,94 Z M199,28.9460328 C190.984045,30.7649495 185,37.9336504 185,46.5 C185,54.983954 190.869484,62.0970166 198.769263,64 L214,64 L214,94 L101.555588,94 C103.140844,89.2893707 104,84.2450187 104,79 C104,73.7549813 103.140844,68.7106293 101.555588,64 L157.168639,64 C155.122444,58.7279538 154,52.9950573 154,47 C154,21.7126506 173.970298,1.08961424 199,0.04178488 L199,0 L476,0 L476,29 L199,29 L199,28.9460328 Z M484,0 L748,0 L748,30 L484,30 L484,0 Z M484,64 L748,64 L748,94 L484,94 L484,64 Z M484,130 L748,130 L748,159 L484,159 L484,130 Z M47,126 C21.0426168,126 0,104.957383 0,79 C0,53.0426168 21.0426168,32 47,32 C72.9573832,32 94,53.0426168 94,79 C94,104.957383 72.9573832,126 47,126 Z" id="Shape" fill="url(#radialGradient-2)"></path>
            <path d="M340.769263,94 C332.869484,95.902983 327,103.016046 327,111.5 C327,121.441125 335.058875,130 345,130 C345.676018,130 346.343332,130.072591 347,130 L348,130 L476,130 L476,159 L348,159 C345.792637,159 344.12597,159 343,159 C317.042617,159 296,137.957383 296,112 C296,105.623758 297.269719,99.544074 299.570107,93.9999991 L222,94 L222,64 L476,64 L476,94 L340.769263,94 Z M199,28.9460328 C190.984045,30.7649495 185,37.9336504 185,46.5 C185,54.983954 190.869484,62.0970166 198.769263,64 L214,64 L214,94 L101.555588,94 C103.140844,89.2893707 104,84.2450187 104,79 C104,73.7549813 103.140844,68.7106293 101.555588,64 L157.168639,64 C155.122444,58.7279538 154,52.9950573 154,47 C154,21.7126506 173.970298,1.08961424 199,0.04178488 L199,0 L476,0 L476,29 L199,29 L199,28.9460328 Z M484,0 L748,0 L748,29 L484,29 L484,0 Z M484,64 L748,64 L748,94 L484,94 L484,64 Z M484,130 L748,130 L748,159 L484,159 L484,130 Z M47,126 C21.0426168,126 0,104.957383 0,79 C0,53.0426168 21.0426168,32 47,32 C72.9573832,32 94,53.0426168 94,79 C94,104.957383 72.9573832,126 47,126 Z" id="Shape" fill="url(#radialGradient-3)"></path>
            <path d="M340.769263,94 C332.869484,95.902983 327,103.016046 327,111.5 C327,121.441125 335.058875,130 345,130 C345.676018,130 346.343332,130.072591 347,130 L348,130 L476,130 L476,159 L348,159 C345.792637,159 344.12597,159 343,159 C317.042617,159 296,137.957383 296,112 C296,105.623758 297.269719,99.544074 299.570107,93.9999991 L222,94 L222,64 L476,64 L476,94 L340.769263,94 Z M199,28.9460328 C190.984045,30.7649495 185,37.9336504 185,46.5 C185,54.983954 190.869484,62.0970166 198.769263,64 L214,64 L214,94 L101.555588,94 C103.140844,89.2893707 104,84.2450187 104,79 C104,73.7549813 103.140844,68.7106293 101.555588,64 L157.168639,64 C155.122444,58.7279538 154,52.9950573 154,47 C154,21.7126506 173.970298,1.08961424 199,0.04178488 L199,0 L476,0 L476,29 L199,29 L199,28.9460328 Z M484,0 L748,0 L748,29 L484,29 L484,0 Z M484,64 L748,64 L748,94 L484,94 L484,64 Z M484,130 L748,130 L748,159 L484,159 L484,130 Z M47,126 C21.0426168,126 0,104.957383 0,79 C0,53.0426168 21.0426168,32 47,32 C72.9573832,32 94,53.0426168 94,79 C94,104.957383 72.9573832,126 47,126 Z" id="Shape" fill="url(#radialGradient-4)"></path>
            <path d="M340.769263,94 C332.869484,95.902983 327,103.016046 327,111.5 C327,121.441125 335.058875,130 345,130 C345.676018,130 346.343332,130.072591 347,130 L348,130 L476,130 L476,159 L348,159 C346.357103,159.173731 344.688955,159 343,159 C317.042617,159 296,137.957383 296,112 C296,105.623758 297.269719,99.544074 299.570107,93.9999991 L222,94 L222,64 L476,64 L476,94 L340.769263,94 Z M199,28.9460328 C190.984045,30.7649495 185,37.9336504 185,46.5 C185,54.983954 190.869484,62.0970166 198.769263,64 L214,64 L214,94 L101.555588,94 C103.140844,89.2893707 104,84.2450187 104,79 C104,73.7549813 103.140844,68.7106293 101.555588,64 L157.168639,64 C155.122444,58.7279538 154,52.9950573 154,47 C154,21.7126506 173.970298,1.08961424 199,0.04178488 L199,0 L476,0 L476,29 L199,29 L199,28.9460328 Z M484,0 L748,0 L748,29 L484,29 L484,0 Z M484,64 L748,64 L748,94 L484,94 L484,64 Z M484,130 L748,130 L748,159 L484,159 L484,130 Z M47,126 C21.0426168,126 0,104.957383 0,79 C0,53.0426168 21.0426168,32 47,32 C72.9573832,32 94,53.0426168 94,79 C94,104.957383 72.9573832,126 47,126 Z" id="Shape" fill="url(#radialGradient-5)"></path>
            <path d="M340.769263,94 C332.869484,95.902983 327,103.016046 327,111.5 C327,121.441125 335.058875,130 345,130 C345.676018,130 346.343332,130.072591 347,130 L348,130 L476,130 L476,159 L348,159 C345.792637,159 344.12597,159 343,159 C317.042617,159 296,137.957383 296,112 C296,105.623758 297.269719,99.544074 299.570107,93.9999991 L222,94 L222,64 L476,64 L476,94 L340.769263,94 Z M199,28.9460328 C190.984045,30.7649495 185,37.9336504 185,46.5 C185,54.983954 190.869484,62.0970166 198.769263,64 L214,64 L214,94 L101.555588,94 C103.140844,89.2893707 104,84.2450187 104,79 C104,73.7549813 103.140844,68.7106293 101.555588,64 L157.168639,64 C155.122444,58.7279538 154,52.9950573 154,47 C154,21.7126506 173.970298,1.08961424 199,0.04178488 L199,0 L476,0 L476,29 L199,29 L199,28.9460328 Z M484,0 L748,0 L748,29 L484,29 L484,0 Z M484,64 L748,64 L748,94 L484,94 L484,64 Z M484,130 L748,130 L748,159 L484,159 L484,130 Z M47,126 C21.0426168,126 0,104.957383 0,79 C0,53.0426168 21.0426168,32 47,32 C72.9573832,32 94,53.0426168 94,79 C94,104.957383 72.9573832,126 47,126 Z" id="Shape" fill="url(#radialGradient-6)"></path>
            <path d="M340.769263,94 C332.869484,95.902983 327,103.016046 327,111.5 C327,121.441125 335.058875,130 345,130 C345.676018,130 346.343332,130.072591 347,130 L348,130 L476,130 L476,159 L348,159 C345.792637,159 344.12597,159 343,159 C317.042617,159 296,137.957383 296,112 C296,105.623758 297.269719,99.544074 299.570107,93.9999991 L222,94 L222,64 L476,64 L476,94 L340.769263,94 Z M199,28.9460328 C190.984045,30.7649495 185,37.9336504 185,46.5 C185,54.983954 190.869484,62.0970166 198.769263,64 L214,64 L214,94 L101.555588,94 C103.140844,89.2893707 104,84.2450187 104,79 C104,73.7549813 103.140844,68.7106293 101.555588,64 L157.168639,64 C155.122444,58.7279538 154,52.9950573 154,47 C154,21.7126506 173.970298,1.08961424 199,0.04178488 L199,0 L476,0 L476,29 L199,29 L199,28.9460328 Z M484,0 L748,0 L748,29 L484,29 L484,0 Z M484,64 L748,64 L748,94 L484,94 L484,64 Z M484,130 L748,130 L748,159 L484,159 L484,130 Z M47,126 C21.0426168,126 0,104.957383 0,79 C0,53.0426168 21.0426168,32 47,32 C72.9573832,32 94,53.0426168 94,79 C94,104.957383 72.9573832,126 47,126 Z" id="Shape" fill="url(#radialGradient-7)"></path>
            <path d="M340.769263,94 C332.869484,95.902983 327,103.016046 327,111.5 C327,121.441125 335.058875,130 345,130 C345.450679,130 346.450679,130 348,130 L476,130 L476,159 L348,159 C346.357103,159.173731 344.688955,159 343,159 C317.042617,159 296,137.957383 296,112 C296,105.623758 297.269719,99.544074 299.570107,93.9999991 L222,94 L222,64 L476,64 L476,94 L340.769263,94 Z M199,28.9460328 C190.984045,30.7649495 185,37.9336504 185,46.5 C185,54.983954 190.869484,62.0970166 198.769263,64 L214,64 L214,94 L101.555588,94 C103.140844,89.2893707 104,84.2450187 104,79 C104,73.7549813 103.140844,68.7106293 101.555588,64 L157.168639,64 C155.122444,58.7279538 154,52.9950573 154,47 C154,21.7126506 173.970298,1.08961424 199,0.04178488 L199,0 L476,0 L476,29 L199,29 L199,28.9460328 Z M484,0 L748,0 L748,29 L484,29 L484,0 Z M484,64 L748,64 L748,94 L484,94 L484,64 Z M484,130 L748,130 L748,159 L484,159 L484,130 Z M47,126 C21.0426168,126 0,104.957383 0,79 C0,53.0426168 21.0426168,32 47,32 C72.9573832,32 94,53.0426168 94,79 C94,104.957383 72.9573832,126 47,126 Z" id="Shape" fill="url(#radialGradient-8)" opacity="0.856933594"></path>
            <path d="M19.728,76.932 C20.1000019,76.5719982 20.5529973,76.2750012 21.087,76.041 C21.6210027,75.8069988 22.1219977,75.69 22.59,75.69 C23.6580053,75.69 24.4349976,75.9989969 24.921,76.617 C25.4070024,77.2350031 25.65,78.0119953 25.65,78.948 L25.65,84.708 L23.922,84.708 L23.922,79.11 C23.922,78.5219971 23.7810014,78.0540017 23.499,77.706 C23.2169986,77.3579983 22.7880029,77.1780001 22.212,77.166 C21.8519982,77.166 21.4350024,77.2799989 20.961,77.508 C20.4869976,77.7360011 20.0760017,78.0359981 19.728,78.408 L19.728,84.708 L18,84.708 L18,72.198 L19.728,72 L19.728,76.932 Z M29.88,85.806 L30.384,84.474 L27.09,76.23 L28.836,75.978 L31.266,82.242 L33.57,75.978 L35.352,75.978 L32.418,83.664 L31.482,86.292 C31.2539989,86.892003 30.8610028,87.4019979 30.303,87.822 C29.7449972,88.2420021 29.1300034,88.5299992 28.458,88.686 L27.882,87.354 C28.3140022,87.161999 28.7159981,86.9580011 29.088,86.742 C29.4600019,86.5259989 29.7239992,86.214002 29.88,85.806 Z M36.936,84.708 L36.936,72.198 L38.664,72 L38.664,76.482 C39.0120017,76.2539989 39.389998,76.0650007 39.798,75.915 C40.206002,75.7649993 40.5899982,75.69 40.95,75.69 C42.2340064,75.69 43.1999968,76.1309956 43.848,77.013 C44.4960032,77.8950044 44.82,78.9959934 44.82,80.316 C44.82,81.6360066 44.4930033,82.7339956 43.839,83.61 C43.1849967,84.4860044 42.2220064,84.924 40.95,84.924 C40.541998,84.924 40.0980024,84.8370009 39.618,84.663 C39.1379976,84.4889991 38.7060019,84.2520015 38.322,83.952 L37.908,84.708 L36.936,84.708 Z M38.664,82.692 C38.9640015,82.9320012 39.2879983,83.1209993 39.636,83.259 C39.9840017,83.3970007 40.3079985,83.466 40.608,83.466 C41.5080045,83.466 42.1409982,83.1510031 42.507,82.521 C42.8730018,81.8909968 43.056,81.1620041 43.056,80.334 C43.056,79.4579956 42.8820017,78.7110031 42.534,78.093 C42.1859983,77.4749969 41.5440047,77.166 40.608,77.166 C40.3079985,77.166 39.9840017,77.2349993 39.636,77.373 C39.2879983,77.5110007 38.9640015,77.7059987 38.664,77.958 L38.664,82.692 Z M46.98,84.708 L46.98,75.978 L47.952,75.978 L48.51,77.22 C48.8460017,76.9319986 49.2689975,76.6530013 49.779,76.383 C50.2890026,76.1129986 50.7779977,75.978 51.246,75.978 L51.624,77.364 C51.1439976,77.364 50.6430026,77.4929987 50.121,77.751 C49.5989974,78.0090013 49.1280021,78.341998 48.708,78.75 L48.708,84.708 L46.98,84.708 Z M53.964,74.412 C53.6639985,74.412 53.412001,74.3070011 53.208,74.097 C53.003999,73.886999 52.902,73.6320015 52.902,73.332 C52.8899999,73.0319985 52.988999,72.7770011 53.199,72.567 C53.4090011,72.3569989 53.6639985,72.252 53.964,72.252 C54.2640015,72.252 54.5219989,72.3569989 54.738,72.567 C54.9540011,72.7770011 55.062,73.0319985 55.062,73.332 C55.062,73.6320015 54.9540011,73.886999 54.738,74.097 C54.5219989,74.3070011 54.2640015,74.412 53.964,74.412 Z M53.1,84.708 L53.1,75.978 L54.846,75.978 L54.846,84.708 L53.1,84.708 Z M56.358,84.708 L59.652,80.298 L56.628,76.248 L58.41,75.978 L60.822,79.236 L63.288,75.978 L65.178,75.978 L61.812,80.568 L64.908,84.708 L63,84.708 L60.642,81.612 L58.284,84.708 L56.358,84.708 Z M70.434,77.166 C69.5339955,77.166 68.9010018,77.4839968 68.535,78.12 C68.1689982,78.7560032 67.986,79.4879959 67.986,80.316 C67.986,81.1920044 68.1599983,81.9359969 68.508,82.548 C68.8560017,83.1600031 69.4979953,83.466 70.434,83.466 C70.7580016,83.466 71.0969982,83.3910007 71.451,83.241 C71.8050018,83.0909992 72.1439984,82.8840013 72.468,82.62 L72.468,78.012 C72.1439984,77.7479987 71.8050018,77.5410008 71.451,77.391 C71.0969982,77.2409992 70.7580016,77.166 70.434,77.166 Z M74.214,72.018 L74.214,84.708 L73.224,84.708 L72.756,83.898 C72.3839981,84.2220016 71.9490025,84.4769991 71.451,84.663 C70.9529975,84.8490009 70.4940021,84.942 70.074,84.942 C68.8019936,84.942 67.8420032,84.5040044 67.194,83.628 C66.5459968,82.7519956 66.222,81.6540066 66.222,80.334 C66.222,79.0019933 66.5549967,77.8950044 67.221,77.013 C67.8870033,76.1309956 68.8559936,75.69 70.128,75.69 C70.4880018,75.69 70.8779979,75.7649993 71.298,75.915 C71.7180021,76.0650007 72.1079982,76.2599988 72.468,76.5 L72.468,72.198 L74.214,72.018 Z" id="path-9" stroke="#FFFFFF" stroke-width="0.5" fill="#FFFFFF"></path>
            <path d="M123.492,75.746 L121.728,75.746 L121.728,80.228 L123.402,80.228 C124.206004,80.228 124.892997,80.0630016 125.463,79.733 C126.033003,79.4029983 126.324,78.8240041 126.336,77.996 C126.336,77.1319957 126.075003,76.5410016 125.553,76.223 C125.030997,75.9049984 124.344004,75.746 123.492,75.746 Z M127.2,86.528 L124.464,81.578 C124.271999,81.5900001 124.083001,81.6019999 123.897,81.614 C123.710999,81.6260001 123.522001,81.632 123.33,81.632 L121.728,81.632 L121.728,86.528 L120,86.528 L120,74.288 L123.51,74.288 C124.806006,74.288 125.900996,74.5729971 126.795,75.143 C127.689004,75.7130029 128.136,76.6399936 128.136,77.924 C128.124,78.728004 127.920002,79.3969973 127.524,79.931 C127.127998,80.4650027 126.618003,80.8639987 125.994,81.128 L129.072,86.528 L127.2,86.528 Z M131.34,86.528 L131.34,74.288 L138.234,74.288 C138.282,74.5160011 138.321,74.7379989 138.351,74.954 C138.381,75.1700011 138.42,75.3919989 138.468,75.62 L133.068,75.62 L133.068,79.634 L136.506,79.634 C136.542,79.8620011 136.578,80.0869989 136.614,80.309 C136.65,80.5310011 136.692,80.7499989 136.74,80.966 L133.068,80.966 L133.068,85.178 L138.882,85.178 L139.116,86.528 L131.34,86.528 Z M141.042,84.494 C141.378002,84.6620008 141.827997,84.8329991 142.392,85.007 C142.956003,85.1810009 143.513997,85.268 144.066,85.268 C144.942004,85.268 145.607998,85.1060016 146.064,84.782 C146.520002,84.4579984 146.748,84.0320026 146.748,83.504 C146.748,82.2919939 145.69501,81.3950029 143.589,80.813 C141.48299,80.2309971 140.43,79.0160092 140.43,77.168 C140.43,76.2799956 140.786996,75.5300031 141.501,74.918 C142.215004,74.3059969 143.195994,74 144.444,74 C145.056003,74 145.646997,74.0839992 146.217,74.252 C146.787003,74.4200008 147.275998,74.605999 147.684,74.81 C147.6,75.0380011 147.504,75.2659989 147.396,75.494 C147.288,75.7220011 147.192,75.9499989 147.108,76.178 C146.795998,76.0219992 146.439002,75.8750007 146.037,75.737 C145.634998,75.5989993 145.146003,75.53 144.57,75.53 C143.885997,75.53 143.313002,75.6619987 142.851,75.926 C142.388998,76.1900013 142.158,76.5919973 142.158,77.132 C142.158,78.3680062 143.213989,79.285997 145.326,79.886 C147.438011,80.486003 148.494,81.6799911 148.494,83.468 C148.494,84.4280048 148.113004,85.2169969 147.351,85.835 C146.588996,86.4530031 145.500007,86.762 144.084,86.762 C143.567997,86.762 142.926004,86.666001 142.158,86.474 C141.389996,86.281999 140.886001,86.0780011 140.646,85.862 C140.706,85.6339989 140.769,85.4060011 140.835,85.178 C140.901,84.9499989 140.97,84.7220011 141.042,84.494 Z M159.06,75.656 L155.028,75.656 L155.028,86.528 L153.282,86.528 L153.282,75.656 L149.484,75.656 L149.484,74.288 L158.826,74.288 L158.934,74.972 C158.97,75.2000011 159.012,75.4279989 159.06,75.656 Z M168.924,76.61 L166.962,81.866 L170.94,81.866 L168.924,76.61 Z M169.734,74.288 L174.45,86.276 L172.74,86.528 L171.462,83.252 L166.476,83.252 L165.252,86.528 L163.56,86.528 L168.168,74.288 L169.734,74.288 Z M176.25,86.528 L176.25,74.288 L179.76,74.288 C181.056006,74.288 182.150995,74.5819971 183.045,75.17 C183.939005,75.7580029 184.386,76.7359932 184.386,78.104 C184.374,79.4600068 183.891005,80.4529968 182.937,81.083 C181.982995,81.7130032 180.864006,82.028 179.58,82.028 L177.978,82.028 L177.978,86.528 L176.25,86.528 Z M179.742,75.746 L177.978,75.746 L177.978,80.588 L179.652,80.588 C180.480004,80.588 181.166997,80.3990019 181.713,80.021 C182.259003,79.6429981 182.55,79.0280043 182.586,78.176 C182.586,77.2519954 182.331003,76.6160017 181.821,76.268 C181.310998,75.9199983 180.618004,75.746 179.742,75.746 Z M186.906,86.528 L186.906,74.288 L188.634,74.288 L188.634,86.528 L186.906,86.528 Z" id="path-10" stroke="#FFFFFF" stroke-width="0.5" fill="#FFFFFF"></path>
            <path d="M236,84.708 L236,72.198 L237.728,72 L237.728,84.708 L236,84.708 Z M241.292,74.412 C240.991998,74.412 240.740001,74.3070011 240.536,74.097 C240.331999,73.886999 240.23,73.6320015 240.23,73.332 C240.218,73.0319985 240.316999,72.7770011 240.527,72.567 C240.737001,72.3569989 240.991998,72.252 241.292,72.252 C241.592002,72.252 241.849999,72.3569989 242.066,72.567 C242.282001,72.7770011 242.39,73.0319985 242.39,73.332 C242.39,73.6320015 242.282001,73.886999 242.066,74.097 C241.849999,74.3070011 241.592002,74.412 241.292,74.412 Z M240.428,84.708 L240.428,75.978 L242.174,75.978 L242.174,84.708 L240.428,84.708 Z M244.856,84.708 L244.856,72.198 L246.584,72 L246.584,76.482 C246.932002,76.2539989 247.309998,76.0650007 247.718,75.915 C248.126002,75.7649993 248.509998,75.69 248.87,75.69 C250.154006,75.69 251.119997,76.1309956 251.768,77.013 C252.416003,77.8950044 252.74,78.9959934 252.74,80.316 C252.74,81.6360066 252.413003,82.7339956 251.759,83.61 C251.104997,84.4860044 250.142006,84.924 248.87,84.924 C248.461998,84.924 248.018002,84.8370009 247.538,84.663 C247.057998,84.4889991 246.626002,84.2520015 246.242,83.952 L245.828,84.708 L244.856,84.708 Z M246.584,82.692 C246.884002,82.9320012 247.207998,83.1209993 247.556,83.259 C247.904002,83.3970007 248.227999,83.466 248.528,83.466 C249.428004,83.466 250.060998,83.1510031 250.427,82.521 C250.793002,81.8909968 250.976,81.1620041 250.976,80.334 C250.976,79.4579956 250.802002,78.7110031 250.454,78.093 C250.105998,77.4749969 249.464005,77.166 248.528,77.166 C248.227999,77.166 247.904002,77.2349993 247.556,77.373 C247.207998,77.5110007 246.884002,77.7059987 246.584,77.958 L246.584,82.692 Z M254.918,82.548 C255.218002,82.548 255.469999,82.6529989 255.674,82.863 C255.878001,83.0730011 255.98,83.3279985 255.98,83.628 C255.98,83.9280015 255.878001,84.1829989 255.674,84.393 C255.469999,84.6030011 255.218002,84.708 254.918,84.708 C254.605998,84.708 254.345001,84.6030011 254.135,84.393 C253.924999,84.1829989 253.82,83.9280015 253.82,83.628 C253.82,83.3279985 253.924999,83.0730011 254.135,82.863 C254.345001,82.6529989 254.605998,82.548 254.918,82.548 Z M258.572,74.412 C258.271998,74.412 258.017001,74.3070011 257.807,74.097 C257.596999,73.886999 257.492,73.6320015 257.492,73.332 C257.492,73.0319985 257.596999,72.7770011 257.807,72.567 C258.017001,72.3569989 258.271998,72.252 258.572,72.252 C258.872002,72.252 259.129999,72.3569989 259.346,72.567 C259.562001,72.7770011 259.67,73.0319985 259.67,73.332 C259.67,73.6320015 259.562001,73.886999 259.346,74.097 C259.129999,74.3070011 258.872002,74.412 258.572,74.412 Z M257.708,84.942 L257.708,75.978 L259.454,75.978 L259.454,84.672 C259.454,85.7160052 259.274002,86.5109973 258.914,87.057 C258.553998,87.6030027 257.804006,88.0559982 256.664,88.416 L255.998,87.138 C256.622003,86.9099989 257.062999,86.6400016 257.321,86.328 C257.579001,86.0159984 257.708,85.5540031 257.708,84.942 Z M267.14,77.814 C266.803998,77.6579992 266.453002,77.5200006 266.087,77.4 C265.720998,77.2799994 265.304002,77.22 264.836,77.22 C264.379998,77.22 264.017001,77.3129991 263.747,77.499 C263.476999,77.6850009 263.342,77.9339984 263.342,78.246 C263.354,78.5100013 263.512998,78.740999 263.819,78.939 C264.125001,79.137001 264.541997,79.3259991 265.07,79.506 C265.790004,79.7700013 266.461997,80.1269977 267.086,80.577 C267.710003,81.0270023 268.022,81.6119964 268.022,82.332 C268.022,83.1480041 267.719003,83.7869977 267.113,84.249 C266.506997,84.7110023 265.628006,84.942 264.476,84.942 C264.103998,84.942 263.624003,84.8760007 263.036,84.744 C262.447997,84.6119993 261.968002,84.4140013 261.596,84.15 L262.136,82.872 C262.508002,83.0520009 262.891998,83.1959995 263.288,83.304 C263.684002,83.4120005 264.079998,83.466 264.476,83.466 C265.052003,83.466 265.498998,83.3760009 265.817,83.196 C266.135002,83.0159991 266.294,82.7580017 266.294,82.422 C266.294,82.0859983 266.123002,81.7950012 265.781,81.549 C265.438998,81.3029988 264.986003,81.0900009 264.422,80.91 C263.737997,80.6819989 263.090003,80.364002 262.478,79.956 C261.865997,79.547998 261.56,78.9900035 261.56,78.282 C261.56,77.489996 261.856997,76.8690022 262.451,76.419 C263.045003,75.9689978 263.851995,75.744 264.872,75.744 C265.244002,75.744 265.711997,75.8159993 266.276,75.96 C266.840003,76.1040007 267.307998,76.3079987 267.68,76.572 L267.14,77.814 Z" id="path-11" stroke="#FFFFFF" stroke-width="0.5" fill="#FFFFFF"></path>
            <path d="M500.79,85.806 L501.294,84.474 L498,76.23 L499.746,75.978 L502.176,82.242 L504.48,75.978 L506.262,75.978 L503.328,83.664 L502.392,86.292 C502.163999,86.892003 501.771003,87.4019979 501.213,87.822 C500.654997,88.2420021 500.040003,88.5299992 499.368,88.686 L498.792,87.354 C499.224002,87.161999 499.625998,86.9580011 499.998,86.742 C500.370002,86.5259989 500.633999,86.214002 500.79,85.806 Z M511.356,84.942 C510.035993,84.9299999 509.034003,84.4950043 508.35,83.637 C507.665997,82.7789957 507.324,81.6720068 507.324,80.316 C507.336,78.9719933 507.707996,77.8770042 508.44,77.031 C509.172004,76.1849958 510.197993,75.7560001 511.518,75.744 C512.886007,75.744 513.920997,76.1789956 514.623,77.049 C515.325003,77.9190043 515.676,79.0379932 515.676,80.406 C515.676,81.7620068 515.292004,82.8539959 514.524,83.682 C513.755996,84.5100041 512.700007,84.9299999 511.356,84.942 Z M513.93,80.406 C513.93,79.4699953 513.744002,78.705003 513.372,78.111 C512.999998,77.516997 512.400004,77.22 511.572,77.22 C510.743996,77.22 510.126002,77.4989972 509.718,78.057 C509.309998,78.6150028 509.1,79.3619953 509.088,80.298 C509.088,81.2700049 509.264998,82.0409972 509.619,82.611 C509.973002,83.1810029 510.563996,83.466 511.392,83.466 C512.208004,83.466 512.831998,83.1960027 513.264,82.656 C513.696002,82.1159973 513.918,81.3660048 513.93,80.406 Z M523.686,83.79 C523.301998,84.1500018 522.843003,84.4409989 522.309,84.663 C521.774997,84.8850011 521.274002,84.996 520.806,84.996 C519.737995,84.996 518.961002,84.6870031 518.475,84.069 C517.988998,83.4509969 517.746,82.6740047 517.746,81.738 L517.746,75.978 L519.492,75.978 L519.492,81.612 C519.492,82.1760028 519.632999,82.6349982 519.915,82.989 C520.197001,83.3430018 520.613997,83.52 521.166,83.52 C521.490002,83.52 521.861998,83.4330009 522.282,83.259 C522.702002,83.0849991 523.091998,82.8480015 523.452,82.548 L523.452,75.978 L525.18,75.978 L525.18,84.708 L524.19,84.708 L523.686,83.79 Z M527.808,84.708 L527.808,75.978 L528.78,75.978 L529.338,77.22 C529.674002,76.9319986 530.096997,76.6530013 530.607,76.383 C531.117003,76.1129986 531.605998,75.978 532.074,75.978 L532.452,77.364 C531.971998,77.364 531.471003,77.4929987 530.949,77.751 C530.426997,78.0090013 529.956002,78.341998 529.536,78.75 L529.536,84.708 L527.808,84.708 Z M539.67,77.13 C540.042002,76.721998 540.521997,76.3800014 541.11,76.104 C541.698003,75.8279986 542.243997,75.69 542.748,75.69 C543.816005,75.69 544.592998,75.9989969 545.079,76.617 C545.565002,77.2350031 545.808,78.0119953 545.808,78.948 L545.808,84.708 L544.08,84.708 L544.08,79.11 C544.08,78.5219971 543.939001,78.0540017 543.657,77.706 C543.374999,77.3579983 542.952003,77.1780001 542.388,77.166 C542.027998,77.166 541.608002,77.2799989 541.128,77.508 C540.647998,77.7360011 540.234002,78.0359981 539.886,78.408 L539.886,84.708 L538.158,84.708 L538.158,75.978 L539.13,75.978 L539.67,77.13 Z M551.91,84.942 C550.589993,84.9299999 549.588003,84.4950043 548.904,83.637 C548.219997,82.7789957 547.878,81.6720068 547.878,80.316 C547.89,78.9719933 548.261996,77.8770042 548.994,77.031 C549.726004,76.1849958 550.751993,75.7560001 552.072,75.744 C553.440007,75.744 554.474996,76.1789956 555.177,77.049 C555.879003,77.9190043 556.23,79.0379932 556.23,80.406 C556.23,81.7620068 555.846004,82.8539959 555.078,83.682 C554.309996,84.5100041 553.254007,84.9299999 551.91,84.942 Z M554.484,80.406 C554.484,79.4699953 554.298002,78.705003 553.926,78.111 C553.553998,77.516997 552.954004,77.22 552.126,77.22 C551.297996,77.22 550.680002,77.4989972 550.272,78.057 C549.863998,78.6150028 549.654,79.3619953 549.642,80.298 C549.642,81.2700049 549.818998,82.0409972 550.173,82.611 C550.527002,83.1810029 551.117996,83.466 551.946,83.466 C552.762004,83.466 553.385998,83.1960027 553.818,82.656 C554.250002,82.1159973 554.472,81.3660048 554.484,80.406 Z M562.152,77.166 C561.251996,77.166 560.619002,77.4839968 560.253,78.12 C559.886998,78.7560032 559.704,79.4879959 559.704,80.316 C559.704,81.1920044 559.877998,81.9359969 560.226,82.548 C560.574002,83.1600031 561.215995,83.466 562.152,83.466 C562.476002,83.466 562.814998,83.3910007 563.169,83.241 C563.523002,83.0909992 563.861998,82.8840013 564.186,82.62 L564.186,78.012 C563.861998,77.7479987 563.523002,77.5410008 563.169,77.391 C562.814998,77.2409992 562.476002,77.166 562.152,77.166 Z M565.932,72.018 L565.932,84.708 L564.942,84.708 L564.474,83.898 C564.101998,84.2220016 563.667002,84.4769991 563.169,84.663 C562.670997,84.8490009 562.212002,84.942 561.792,84.942 C560.519994,84.942 559.560003,84.5040044 558.912,83.628 C558.263997,82.7519956 557.94,81.6540066 557.94,80.334 C557.94,79.0019933 558.272997,77.8950044 558.939,77.013 C559.605003,76.1309956 560.573994,75.69 561.846,75.69 C562.206002,75.69 562.595998,75.7649993 563.016,75.915 C563.436002,76.0650007 563.825998,76.2599988 564.186,76.5 L564.186,72.198 L565.932,72.018 Z M576.138,80.73 L569.946,80.73 C570.006,81.534004 570.257998,82.1939974 570.702,82.71 C571.146002,83.2260026 571.811996,83.484 572.7,83.484 C573.216003,83.484 573.650998,83.4270006 574.005,83.313 C574.359002,83.1989994 574.715998,83.0580008 575.076,82.89 L575.616,84.15 C575.231998,84.4140013 574.743003,84.6089994 574.149,84.735 C573.554997,84.8610006 573.072002,84.924 572.7,84.924 C571.235993,84.924 570.111004,84.5010042 569.325,83.655 C568.538996,82.8089958 568.146,81.7020068 568.146,80.334 C568.146,78.9779932 568.514996,77.8740043 569.253,77.022 C569.991004,76.1699957 571.013993,75.744 572.322,75.744 C573.738007,75.744 574.727997,76.241995 575.292,77.238 C575.856003,78.234005 576.138,79.3979933 576.138,80.73 Z M574.464,79.56 C574.356,78.8399964 574.128002,78.2700021 573.78,77.85 C573.431998,77.4299979 572.928003,77.22 572.268,77.22 C571.595997,77.22 571.068002,77.4329979 570.684,77.859 C570.299998,78.2850021 570.066,78.8519965 569.982,79.56 L574.464,79.56 Z M578.226,82.548 C578.526002,82.548 578.777999,82.6529989 578.982,82.863 C579.186001,83.0730011 579.288,83.3279985 579.288,83.628 C579.288,83.9280015 579.186001,84.1829989 578.982,84.393 C578.777999,84.6030011 578.526002,84.708 578.226,84.708 C577.913998,84.708 577.653001,84.6030011 577.443,84.393 C577.232999,84.1829989 577.128,83.9280015 577.128,83.628 C577.128,83.3279985 577.232999,83.0730011 577.443,82.863 C577.653001,82.6529989 577.913998,82.548 578.226,82.548 Z M581.88,74.412 C581.579998,74.412 581.325001,74.3070011 581.115,74.097 C580.904999,73.886999 580.8,73.6320015 580.8,73.332 C580.8,73.0319985 580.904999,72.7770011 581.115,72.567 C581.325001,72.3569989 581.579998,72.252 581.88,72.252 C582.180002,72.252 582.437999,72.3569989 582.654,72.567 C582.870001,72.7770011 582.978,73.0319985 582.978,73.332 C582.978,73.6320015 582.870001,73.886999 582.654,74.097 C582.437999,74.3070011 582.180002,74.412 581.88,74.412 Z M581.016,84.942 L581.016,75.978 L582.762,75.978 L582.762,84.672 C582.762,85.7160052 582.582002,86.5109973 582.222,87.057 C581.861998,87.6030027 581.112006,88.0559982 579.972,88.416 L579.306,87.138 C579.930003,86.9099989 580.370999,86.6400016 580.629,86.328 C580.887001,86.0159984 581.016,85.5540031 581.016,84.942 Z M590.448,77.814 C590.111998,77.6579992 589.761002,77.5200006 589.395,77.4 C589.028998,77.2799994 588.612002,77.22 588.144,77.22 C587.687998,77.22 587.325001,77.3129991 587.055,77.499 C586.784999,77.6850009 586.65,77.9339984 586.65,78.246 C586.662,78.5100013 586.820998,78.740999 587.127,78.939 C587.433002,79.137001 587.849997,79.3259991 588.378,79.506 C589.098004,79.7700013 589.769997,80.1269977 590.394,80.577 C591.018003,81.0270023 591.33,81.6119964 591.33,82.332 C591.33,83.1480041 591.027003,83.7869977 590.421,84.249 C589.814997,84.7110023 588.936006,84.942 587.784,84.942 C587.411998,84.942 586.932003,84.8760007 586.344,84.744 C585.755997,84.6119993 585.276002,84.4140013 584.904,84.15 L585.444,82.872 C585.816002,83.0520009 586.199998,83.1959995 586.596,83.304 C586.992002,83.4120005 587.387998,83.466 587.784,83.466 C588.360003,83.466 588.806998,83.3760009 589.125,83.196 C589.443002,83.0159991 589.602,82.7580017 589.602,82.422 C589.602,82.0859983 589.431002,81.7950012 589.089,81.549 C588.746998,81.3029988 588.294003,81.0900009 587.73,80.91 C587.045997,80.6819989 586.398003,80.364002 585.786,79.956 C585.173997,79.547998 584.868,78.9900035 584.868,78.282 C584.868,77.489996 585.164997,76.8690022 585.759,76.419 C586.353003,75.9689978 587.159995,75.744 588.18,75.744 C588.552002,75.744 589.019997,75.8159993 589.584,75.96 C590.148003,76.1040007 590.615998,76.3079987 590.988,76.572 L590.448,77.814 Z M598.764,82.188 C598.764,82.5240017 598.883999,82.8359986 599.124,83.124 C599.364001,83.4120014 599.729998,83.556 600.222,83.556 C600.666002,83.556 601.082998,83.4480011 601.473,83.232 C601.863002,83.0159989 602.207999,82.7400017 602.508,82.404 L602.508,80.64 L600.384,80.64 C599.855997,80.64 599.454001,80.7959984 599.178,81.108 C598.901999,81.4200016 598.764,81.779998 598.764,82.188 Z M597.738,76.518 C598.074002,76.2899989 598.559997,76.1040007 599.196,75.96 C599.832003,75.8159993 600.335998,75.744 600.708,75.744 C601.716005,75.744 602.555997,76.0259972 603.228,76.59 C603.900003,77.1540028 604.236,77.8859955 604.236,78.786 L604.236,84.708 L603.264,84.708 C603.18,84.5759993 603.102,84.4380007 603.03,84.294 C602.958,84.1499993 602.886,84.0120007 602.814,83.88 C602.513999,84.1440013 602.130002,84.3839989 601.662,84.6 C601.193998,84.8160011 600.726002,84.924 600.258,84.924 C599.225995,84.924 598.461002,84.6660026 597.963,84.15 C597.464997,83.6339974 597.216,82.980004 597.216,82.188 C597.216,81.3119956 597.512997,80.6430023 598.107,80.181 C598.701003,79.7189977 599.471995,79.488 600.42,79.488 L602.49,79.488 C602.49,78.887997 602.370001,78.3720022 602.13,77.94 C601.889999,77.5079978 601.428003,77.292 600.744,77.292 C600.227997,77.292 599.760002,77.3549994 599.34,77.481 C598.919998,77.6070006 598.548002,77.7419993 598.224,77.886 L597.738,76.518 Z M608.556,82.692 C608.856002,82.9320012 609.179998,83.1209993 609.528,83.259 C609.876002,83.3970007 610.199999,83.466 610.5,83.466 C611.400005,83.466 612.032998,83.1510031 612.399,82.521 C612.765002,81.8909968 612.948,81.1620041 612.948,80.334 C612.948,79.4579956 612.774002,78.7110031 612.426,78.093 C612.077998,77.4749969 611.436005,77.166 610.5,77.166 C610.199999,77.166 609.876002,77.2349993 609.528,77.373 C609.179998,77.5110007 608.856002,77.7059987 608.556,77.958 L608.556,82.692 Z M606.828,88.65 L606.828,75.978 L607.8,75.978 L608.178,76.716 C608.562002,76.4159985 608.999998,76.170001 609.492,75.978 C609.984002,75.785999 610.433998,75.69 610.842,75.69 C612.126006,75.69 613.091997,76.1309956 613.74,77.013 C614.388003,77.8950044 614.712,78.9959934 614.712,80.316 C614.712,81.6360066 614.385003,82.7339956 613.731,83.61 C613.076997,84.4860044 612.114006,84.924 610.842,84.924 C610.481998,84.924 610.098002,84.8550007 609.69,84.717 C609.281998,84.5789993 608.904002,84.3900012 608.556,84.15 L608.556,88.452 L606.828,88.65 Z M618.654,82.692 C618.954002,82.9320012 619.277998,83.1209993 619.626,83.259 C619.974002,83.3970007 620.297999,83.466 620.598,83.466 C621.498005,83.466 622.130998,83.1510031 622.497,82.521 C622.863002,81.8909968 623.046,81.1620041 623.046,80.334 C623.046,79.4579956 622.872002,78.7110031 622.524,78.093 C622.175998,77.4749969 621.534005,77.166 620.598,77.166 C620.297999,77.166 619.974002,77.2349993 619.626,77.373 C619.277998,77.5110007 618.954002,77.7059987 618.654,77.958 L618.654,82.692 Z M616.926,88.65 L616.926,75.978 L617.898,75.978 L618.276,76.716 C618.660002,76.4159985 619.097998,76.170001 619.59,75.978 C620.082002,75.785999 620.531998,75.69 620.94,75.69 C622.224006,75.69 623.189997,76.1309956 623.838,77.013 C624.486003,77.8950044 624.81,78.9959934 624.81,80.316 C624.81,81.6360066 624.483003,82.7339956 623.829,83.61 C623.174997,84.4860044 622.212006,84.924 620.94,84.924 C620.579998,84.924 620.196002,84.8550007 619.788,84.717 C619.379998,84.5789993 619.002002,84.3900012 618.654,84.15 L618.654,88.452 L616.926,88.65 Z M627.024,84.708 L627.024,72.198 L628.752,72 L628.752,84.708 L627.024,84.708 Z M632.316,74.412 C632.015999,74.412 631.764001,74.3070011 631.56,74.097 C631.355999,73.886999 631.254,73.6320015 631.254,73.332 C631.242,73.0319985 631.340999,72.7770011 631.551,72.567 C631.761001,72.3569989 632.015999,72.252 632.316,72.252 C632.616002,72.252 632.873999,72.3569989 633.09,72.567 C633.306001,72.7770011 633.414,73.0319985 633.414,73.332 C633.414,73.6320015 633.306001,73.886999 633.09,74.097 C632.873999,74.3070011 632.616002,74.412 632.316,74.412 Z M631.452,84.708 L631.452,75.978 L633.198,75.978 L633.198,84.708 L631.452,84.708 Z M639.57,77.22 C638.753996,77.22 638.145002,77.516997 637.743,78.111 C637.340998,78.705003 637.134,79.4399956 637.122,80.316 C637.122,81.2280046 637.313998,81.980997 637.698,82.575 C638.082002,83.169003 638.687996,83.466 639.516,83.466 C640.044003,83.466 640.460998,83.4120005 640.767,83.304 C641.073002,83.1959995 641.411998,83.0520009 641.784,82.872 L642.306,84.114 C641.921998,84.3780013 641.454003,84.5819993 640.902,84.726 C640.349997,84.8700007 639.888002,84.942 639.516,84.942 C638.171993,84.942 637.143004,84.5160043 636.429,83.664 C635.714996,82.8119957 635.358,81.7020068 635.358,80.334 C635.37,78.9779932 635.738996,77.8740043 636.465,77.022 C637.191004,76.1699957 638.231993,75.744 639.588,75.744 C639.948002,75.744 640.400997,75.8189992 640.947,75.969 C641.493003,76.1190007 641.957998,76.3259987 642.342,76.59 L641.838,77.814 C641.465998,77.6579992 641.124002,77.5200006 640.812,77.4 C640.499998,77.2799994 640.086003,77.22 639.57,77.22 Z M645.492,82.188 C645.492,82.5240017 645.611999,82.8359986 645.852,83.124 C646.092001,83.4120014 646.457998,83.556 646.95,83.556 C647.394002,83.556 647.810998,83.4480011 648.201,83.232 C648.591002,83.0159989 648.935999,82.7400017 649.236,82.404 L649.236,80.64 L647.112,80.64 C646.583997,80.64 646.182001,80.7959984 645.906,81.108 C645.629999,81.4200016 645.492,81.779998 645.492,82.188 Z M644.466,76.518 C644.802002,76.2899989 645.287997,76.1040007 645.924,75.96 C646.560003,75.8159993 647.063998,75.744 647.436,75.744 C648.444005,75.744 649.283997,76.0259972 649.956,76.59 C650.628003,77.1540028 650.964,77.8859955 650.964,78.786 L650.964,84.708 L649.992,84.708 C649.908,84.5759993 649.83,84.4380007 649.758,84.294 C649.686,84.1499993 649.614,84.0120007 649.542,83.88 C649.241999,84.1440013 648.858002,84.3839989 648.39,84.6 C647.921998,84.8160011 647.454002,84.924 646.986,84.924 C645.953995,84.924 645.189002,84.6660026 644.691,84.15 C644.192998,83.6339974 643.944,82.980004 643.944,82.188 C643.944,81.3119956 644.240997,80.6430023 644.835,80.181 C645.429003,79.7189977 646.199995,79.488 647.148,79.488 L649.218,79.488 C649.218,78.887997 649.098001,78.3720022 648.858,77.94 C648.617999,77.5079978 648.156003,77.292 647.472,77.292 C646.955997,77.292 646.488002,77.3549994 646.068,77.481 C645.647998,77.6070006 645.276002,77.7419993 644.952,77.886 L644.466,76.518 Z M657.93,84.636 C657.773999,84.7200004 657.555001,84.8039996 657.273,84.888 C656.990999,84.9720004 656.718001,85.014 656.454,85.014 C655.601996,85.014 654.924003,84.7800023 654.42,84.312 C653.915997,83.8439977 653.664,83.1660044 653.664,82.278 L653.664,77.4 L652.44,77.4 L652.422,76.086 L653.664,76.086 L653.664,73.908 L655.392,73.512 L655.392,76.086 L656.976,76.086 L657.516,77.4 L655.392,77.4 L655.392,82.008 C655.392,82.4520022 655.490999,82.8149986 655.689,83.097 C655.887001,83.3790014 656.201998,83.52 656.634,83.52 C656.778001,83.52 656.924999,83.4990002 657.075,83.457 C657.225001,83.4149998 657.359999,83.3700002 657.48,83.322 L657.93,84.636 Z M660.504,74.412 C660.203999,74.412 659.952001,74.3070011 659.748,74.097 C659.543999,73.886999 659.442,73.6320015 659.442,73.332 C659.43,73.0319985 659.528999,72.7770011 659.739,72.567 C659.949001,72.3569989 660.203999,72.252 660.504,72.252 C660.804002,72.252 661.061999,72.3569989 661.278,72.567 C661.494001,72.7770011 661.602,73.0319985 661.602,73.332 C661.602,73.6320015 661.494001,73.886999 661.278,74.097 C661.061999,74.3070011 660.804002,74.412 660.504,74.412 Z M659.64,84.708 L659.64,75.978 L661.386,75.978 L661.386,84.708 L659.64,84.708 Z M667.578,84.942 C666.257993,84.9299999 665.256003,84.4950043 664.572,83.637 C663.887997,82.7789957 663.546,81.6720068 663.546,80.316 C663.558,78.9719933 663.929996,77.8770042 664.662,77.031 C665.394004,76.1849958 666.419993,75.7560001 667.74,75.744 C669.108007,75.744 670.142996,76.1789956 670.845,77.049 C671.547004,77.9190043 671.898,79.0379932 671.898,80.406 C671.898,81.7620068 671.514004,82.8539959 670.746,83.682 C669.977996,84.5100041 668.922007,84.9299999 667.578,84.942 Z M670.152,80.406 C670.152,79.4699953 669.966002,78.705003 669.594,78.111 C669.221998,77.516997 668.622004,77.22 667.794,77.22 C666.965996,77.22 666.348002,77.4989972 665.94,78.057 C665.531998,78.6150028 665.322,79.3619953 665.31,80.298 C665.31,81.2700049 665.486998,82.0409972 665.841,82.611 C666.195002,83.1810029 666.785996,83.466 667.614,83.466 C668.430004,83.466 669.053998,83.1960027 669.486,82.656 C669.918002,82.1159973 670.14,81.3660048 670.152,80.406 Z M675.588,77.13 C675.960002,76.721998 676.439997,76.3800014 677.028,76.104 C677.616003,75.8279986 678.161997,75.69 678.666,75.69 C679.734005,75.69 680.510998,75.9989969 680.997,76.617 C681.483002,77.2350031 681.726,78.0119953 681.726,78.948 L681.726,84.708 L679.998,84.708 L679.998,79.11 C679.998,78.5219971 679.857001,78.0540017 679.575,77.706 C679.292999,77.3579983 678.870003,77.1780001 678.306,77.166 C677.945998,77.166 677.526002,77.2799989 677.046,77.508 C676.565998,77.7360011 676.152002,78.0359981 675.804,78.408 L675.804,84.708 L674.076,84.708 L674.076,75.978 L675.048,75.978 L675.588,77.13 Z" id="path-12" stroke="#FFFFFF" stroke-width="0.5" fill="#FFFFFF"></path>
            <path d="M502.212,13.166 C501.311996,13.166 500.679002,13.4839968 500.313,14.12 C499.946998,14.7560032 499.764,15.4879959 499.764,16.316 C499.764,17.1920044 499.937998,17.9359969 500.286,18.548 C500.634002,19.1600031 501.275995,19.466 502.212,19.466 C502.536002,19.466 502.874998,19.3910007 503.229,19.241 C503.583002,19.0909992 503.921998,18.8840013 504.246,18.62 L504.246,14.012 C503.921998,13.7479987 503.583002,13.5410008 503.229,13.391 C502.874998,13.2409992 502.536002,13.166 502.212,13.166 Z M505.992,8.018 L505.992,20.708 L505.002,20.708 L504.534,19.898 C504.161998,20.2220016 503.727002,20.4769991 503.229,20.663 C502.730998,20.8490009 502.272002,20.942 501.852,20.942 C500.579994,20.942 499.620003,20.5040044 498.972,19.628 C498.323997,18.7519956 498,17.6540066 498,16.334 C498,15.0019933 498.332997,13.8950044 498.999,13.013 C499.665003,12.1309956 500.633994,11.69 501.906,11.69 C502.266002,11.69 502.655998,11.7649993 503.076,11.915 C503.496002,12.0650007 503.885998,12.2599988 504.246,12.5 L504.246,8.198 L505.992,8.018 Z M509.556,10.412 C509.255998,10.412 509.004001,10.3070011 508.8,10.097 C508.595999,9.886999 508.494,9.6320015 508.494,9.332 C508.482,9.0319985 508.580999,8.7770011 508.791,8.567 C509.001001,8.3569989 509.255998,8.252 509.556,8.252 C509.856001,8.252 510.113999,8.3569989 510.33,8.567 C510.546001,8.7770011 510.654,9.0319985 510.654,9.332 C510.654,9.6320015 510.546001,9.886999 510.33,10.097 C510.113999,10.3070011 509.856001,10.412 509.556,10.412 Z M508.692,20.708 L508.692,11.978 L510.438,11.978 L510.438,20.708 L508.692,20.708 Z M513.066,20.708 L513.066,11.978 L514.038,11.978 L514.596,13.22 C514.932002,12.9319986 515.354997,12.6530013 515.865,12.383 C516.375003,12.1129986 516.863998,11.978 517.332,11.978 L517.71,13.364 C517.229998,13.364 516.729003,13.4929987 516.207,13.751 C515.684997,14.0090013 515.214002,14.341998 514.794,14.75 L514.794,20.708 L513.066,20.708 Z M526.692,16.73 L520.5,16.73 C520.56,17.534004 520.811998,18.1939974 521.256,18.71 C521.700002,19.2260026 522.365996,19.484 523.254,19.484 C523.770003,19.484 524.204998,19.4270006 524.559,19.313 C524.913002,19.1989994 525.269998,19.0580008 525.63,18.89 L526.17,20.15 C525.785998,20.4140013 525.297003,20.6089994 524.703,20.735 C524.108997,20.8610006 523.626002,20.924 523.254,20.924 C521.789993,20.924 520.665004,20.5010042 519.879,19.655 C519.092996,18.8089958 518.7,17.7020068 518.7,16.334 C518.7,14.9779932 519.068996,13.8740043 519.807,13.022 C520.545004,12.1699957 521.567994,11.744 522.876,11.744 C524.292007,11.744 525.281997,12.241995 525.846,13.238 C526.410003,14.234005 526.692,15.3979933 526.692,16.73 Z M525.018,15.56 C524.91,14.8399964 524.682002,14.2700021 524.334,13.85 C523.985998,13.4299979 523.482003,13.22 522.822,13.22 C522.149997,13.22 521.622002,13.4329979 521.238,13.859 C520.853998,14.2850021 520.62,14.8519965 520.536,15.56 L525.018,15.56 Z M532.506,13.22 C531.689996,13.22 531.081002,13.516997 530.679,14.111 C530.276998,14.705003 530.07,15.4399956 530.058,16.316 C530.058,17.2280046 530.249998,17.980997 530.634,18.575 C531.018002,19.169003 531.623996,19.466 532.452,19.466 C532.980003,19.466 533.396998,19.4120005 533.703,19.304 C534.009001,19.1959995 534.347998,19.0520009 534.72,18.872 L535.242,20.114 C534.857998,20.3780013 534.390003,20.5819993 533.838,20.726 C533.285997,20.8700007 532.824002,20.942 532.452,20.942 C531.107993,20.942 530.079004,20.5160043 529.365,19.664 C528.650996,18.8119957 528.294,17.7020068 528.294,16.334 C528.306,14.9779932 528.674996,13.8740043 529.401,13.022 C530.127004,12.1699957 531.167993,11.744 532.524,11.744 C532.884002,11.744 533.336997,11.8189992 533.883,11.969 C534.429003,12.1190007 534.893998,12.3259987 535.278,12.59 L534.774,13.814 C534.401998,13.6579992 534.060002,13.5200006 533.748,13.4 C533.435998,13.2799994 533.022003,13.22 532.506,13.22 Z M541.722,20.636 C541.565999,20.7200004 541.347001,20.8039996 541.065,20.888 C540.782999,20.9720004 540.510001,21.014 540.246,21.014 C539.393996,21.014 538.716003,20.7800023 538.212,20.312 C537.707998,19.8439977 537.456,19.1660044 537.456,18.278 L537.456,13.4 L536.232,13.4 L536.214,12.086 L537.456,12.086 L537.456,9.908 L539.184,9.512 L539.184,12.086 L540.768,12.086 L541.308,13.4 L539.184,13.4 L539.184,18.008 C539.184,18.4520022 539.282999,18.8149986 539.481,19.097 C539.679001,19.3790014 539.993998,19.52 540.426,19.52 C540.570001,19.52 540.716999,19.4990002 540.867,19.457 C541.017001,19.4149998 541.151999,19.3700002 541.272,19.322 L541.722,20.636 Z M551.406,13.22 C550.589996,13.22 549.981002,13.516997 549.579,14.111 C549.176998,14.705003 548.97,15.4399956 548.958,16.316 C548.958,17.2280046 549.149998,17.980997 549.534,18.575 C549.918002,19.169003 550.523996,19.466 551.352,19.466 C551.880003,19.466 552.296998,19.4120005 552.603,19.304 C552.909002,19.1959995 553.247998,19.0520009 553.62,18.872 L554.142,20.114 C553.757998,20.3780013 553.290003,20.5819993 552.738,20.726 C552.185997,20.8700007 551.724002,20.942 551.352,20.942 C550.007993,20.942 548.979004,20.5160043 548.265,19.664 C547.550996,18.8119957 547.194,17.7020068 547.194,16.334 C547.206,14.9779932 547.574996,13.8740043 548.301,13.022 C549.027004,12.1699957 550.067993,11.744 551.424,11.744 C551.784002,11.744 552.236997,11.8189992 552.783,11.969 C553.329003,12.1190007 553.793998,12.3259987 554.178,12.59 L553.674,13.814 C553.301998,13.6579992 552.960002,13.5200006 552.648,13.4 C552.335998,13.2799994 551.922003,13.22 551.406,13.22 Z M557.328,18.188 C557.328,18.5240017 557.447999,18.8359986 557.688,19.124 C557.928001,19.4120014 558.293998,19.556 558.786,19.556 C559.230002,19.556 559.646998,19.4480011 560.037,19.232 C560.427002,19.0159989 560.771998,18.7400017 561.072,18.404 L561.072,16.64 L558.948,16.64 C558.419997,16.64 558.018001,16.7959984 557.742,17.108 C557.465999,17.4200016 557.328,17.779998 557.328,18.188 Z M556.302,12.518 C556.638002,12.2899989 557.123997,12.1040007 557.76,11.96 C558.396003,11.8159993 558.899998,11.744 559.272,11.744 C560.280005,11.744 561.119997,12.0259972 561.792,12.59 C562.464003,13.1540028 562.8,13.8859955 562.8,14.786 L562.8,20.708 L561.828,20.708 C561.744,20.5759993 561.666,20.4380007 561.594,20.294 C561.522,20.1499993 561.45,20.0120007 561.378,19.88 C561.077999,20.1440013 560.694002,20.3839989 560.226,20.6 C559.757998,20.8160011 559.290002,20.924 558.822,20.924 C557.789995,20.924 557.025003,20.6660026 556.527,20.15 C556.028998,19.6339974 555.78,18.980004 555.78,18.188 C555.78,17.3119956 556.076997,16.6430023 556.671,16.181 C557.265003,15.7189977 558.035995,15.488 558.984,15.488 L561.054,15.488 C561.054,14.887997 560.934001,14.3720022 560.694,13.94 C560.453999,13.5079978 559.992003,13.292 559.308,13.292 C558.791997,13.292 558.324002,13.3549994 557.904,13.481 C557.483998,13.6070006 557.112002,13.7419993 556.788,13.886 L556.302,12.518 Z M565.392,20.708 L565.392,8.198 L567.12,8 L567.12,20.708 L565.392,20.708 Z M569.856,20.708 L569.856,8.198 L571.584,8 L571.584,20.708 L569.856,20.708 Z M579.27,13.814 C578.933998,13.6579992 578.583002,13.5200006 578.217,13.4 C577.850998,13.2799994 577.434002,13.22 576.966,13.22 C576.509998,13.22 576.147001,13.3129991 575.877,13.499 C575.606999,13.6850009 575.472,13.9339984 575.472,14.246 C575.484,14.5100013 575.642998,14.740999 575.949,14.939 C576.255001,15.137001 576.671997,15.3259991 577.2,15.506 C577.920004,15.7700013 578.591997,16.1269977 579.216,16.577 C579.840003,17.0270023 580.152,17.6119964 580.152,18.332 C580.152,19.1480041 579.849003,19.7869977 579.243,20.249 C578.636997,20.7110023 577.758006,20.942 576.606,20.942 C576.233998,20.942 575.754003,20.8760007 575.166,20.744 C574.577997,20.6119993 574.098002,20.4140013 573.726,20.15 L574.266,18.872 C574.638002,19.0520009 575.021998,19.1959995 575.418,19.304 C575.814002,19.4120005 576.209998,19.466 576.606,19.466 C577.182003,19.466 577.628998,19.3760009 577.947,19.196 C578.265002,19.0159991 578.424,18.7580017 578.424,18.422 C578.424,18.0859983 578.253002,17.7950012 577.911,17.549 C577.568998,17.3029988 577.116003,17.0900009 576.552,16.91 C575.867997,16.6819989 575.220003,16.364002 574.608,15.956 C573.995997,15.547998 573.69,14.9900035 573.69,14.282 C573.69,13.489996 573.986997,12.8690022 574.581,12.419 C575.175003,11.9689978 575.981995,11.744 577.002,11.744 C577.374002,11.744 577.841997,11.8159993 578.406,11.96 C578.970003,12.1040007 579.437998,12.3079987 579.81,12.572 L579.27,13.814 Z" id="path-13" stroke="#FFFFFF" stroke-width="0.5" fill="#FFFFFF"></path>
            <path d="M500.79,149.806 L501.294,148.474 L498,140.23 L499.746,139.978 L502.176,146.242 L504.48,139.978 L506.262,139.978 L503.328,147.664 L502.392,150.292 C502.163999,150.892003 501.771003,151.401998 501.213,151.822 C500.654997,152.242002 500.040003,152.529999 499.368,152.686 L498.792,151.354 C499.224002,151.161999 499.625998,150.958001 499.998,150.742 C500.370002,150.525999 500.633999,150.214002 500.79,149.806 Z M511.356,148.942 C510.035993,148.93 509.034003,148.495004 508.35,147.637 C507.665997,146.778996 507.324,145.672007 507.324,144.316 C507.336,142.971993 507.707996,141.877004 508.44,141.031 C509.172004,140.184996 510.197993,139.756 511.518,139.744 C512.886007,139.744 513.920997,140.178996 514.623,141.049 C515.325003,141.919004 515.676,143.037993 515.676,144.406 C515.676,145.762007 515.292004,146.853996 514.524,147.682 C513.755996,148.510004 512.700007,148.93 511.356,148.942 Z M513.93,144.406 C513.93,143.469995 513.744002,142.705003 513.372,142.111 C512.999998,141.516997 512.400004,141.22 511.572,141.22 C510.743996,141.22 510.126002,141.498997 509.718,142.057 C509.309998,142.615003 509.1,143.361995 509.088,144.298 C509.088,145.270005 509.264998,146.040997 509.619,146.611 C509.973002,147.181003 510.563996,147.466 511.392,147.466 C512.208004,147.466 512.831998,147.196003 513.264,146.656 C513.696002,146.115997 513.918,145.366005 513.93,144.406 Z M523.686,147.79 C523.301998,148.150002 522.843003,148.440999 522.309,148.663 C521.774997,148.885001 521.274002,148.996 520.806,148.996 C519.737995,148.996 518.961002,148.687003 518.475,148.069 C517.988998,147.450997 517.746,146.674005 517.746,145.738 L517.746,139.978 L519.492,139.978 L519.492,145.612 C519.492,146.176003 519.632999,146.634998 519.915,146.989 C520.197001,147.343002 520.613997,147.52 521.166,147.52 C521.490002,147.52 521.861998,147.433001 522.282,147.259 C522.702002,147.084999 523.091998,146.848002 523.452,146.548 L523.452,139.978 L525.18,139.978 L525.18,148.708 L524.19,148.708 L523.686,147.79 Z M527.808,148.708 L527.808,139.978 L528.78,139.978 L529.338,141.22 C529.674002,140.931999 530.096997,140.653001 530.607,140.383 C531.117003,140.112999 531.605998,139.978 532.074,139.978 L532.452,141.364 C531.971998,141.364 531.471003,141.492999 530.949,141.751 C530.426997,142.009001 529.956002,142.341998 529.536,142.75 L529.536,148.708 L527.808,148.708 Z M545.7,148.708 L543.594,142.498 L541.596,148.708 L540.012,148.708 L537.078,140.23 L538.842,139.978 L540.822,146.134 L542.712,139.978 L544.53,139.978 L546.51,146.134 L548.4,139.978 L550.182,139.978 L547.284,148.708 L545.7,148.708 Z M559.254,144.73 L553.062,144.73 C553.122,145.534004 553.373998,146.193997 553.818,146.71 C554.262002,147.226003 554.927996,147.484 555.816,147.484 C556.332003,147.484 556.766998,147.427001 557.121,147.313 C557.475002,147.198999 557.831998,147.058001 558.192,146.89 L558.732,148.15 C558.347998,148.414001 557.859003,148.608999 557.265,148.735 C556.670997,148.861001 556.188002,148.924 555.816,148.924 C554.351993,148.924 553.227004,148.501004 552.441,147.655 C551.654996,146.808996 551.262,145.702007 551.262,144.334 C551.262,142.977993 551.630996,141.874004 552.369,141.022 C553.107004,140.169996 554.129993,139.744 555.438,139.744 C556.854007,139.744 557.843997,140.241995 558.408,141.238 C558.972003,142.234005 559.254,143.397993 559.254,144.73 Z M557.58,143.56 C557.472,142.839996 557.244002,142.270002 556.896,141.85 C556.547998,141.429998 556.044003,141.22 555.384,141.22 C554.711997,141.22 554.184002,141.432998 553.8,141.859 C553.415998,142.285002 553.182,142.851997 553.098,143.56 L557.58,143.56 Z M561.378,148.708 L561.378,136.198 L563.106,136 L563.106,140.482 C563.454002,140.253999 563.831998,140.065001 564.24,139.915 C564.648002,139.764999 565.031998,139.69 565.392,139.69 C566.676006,139.69 567.641997,140.130996 568.29,141.013 C568.938003,141.895004 569.262,142.995993 569.262,144.316 C569.262,145.636007 568.935003,146.733996 568.281,147.61 C567.626997,148.486004 566.664006,148.924 565.392,148.924 C564.983998,148.924 564.540002,148.837001 564.06,148.663 C563.579998,148.488999 563.148002,148.252002 562.764,147.952 L562.35,148.708 L561.378,148.708 Z M563.106,146.692 C563.406002,146.932001 563.729998,147.120999 564.078,147.259 C564.426002,147.397001 564.749998,147.466 565.05,147.466 C565.950004,147.466 566.582998,147.151003 566.949,146.521 C567.315002,145.890997 567.498,145.162004 567.498,144.334 C567.498,143.457996 567.324002,142.711003 566.976,142.093 C566.627998,141.474997 565.986005,141.166 565.05,141.166 C564.749998,141.166 564.426002,141.234999 564.078,141.373 C563.729998,141.511001 563.406002,141.705999 563.106,141.958 L563.106,146.692 Z M576.804,146.188 C576.804,146.524002 576.923999,146.835999 577.164,147.124 C577.404001,147.412001 577.769998,147.556 578.262,147.556 C578.706002,147.556 579.122998,147.448001 579.513,147.232 C579.903002,147.015999 580.247998,146.740002 580.548,146.404 L580.548,144.64 L578.424,144.64 C577.895997,144.64 577.494001,144.795998 577.218,145.108 C576.941999,145.420002 576.804,145.779998 576.804,146.188 Z M575.778,140.518 C576.114002,140.289999 576.599997,140.104001 577.236,139.96 C577.872003,139.815999 578.375998,139.744 578.748,139.744 C579.756005,139.744 580.595997,140.025997 581.268,140.59 C581.940003,141.154003 582.276,141.885996 582.276,142.786 L582.276,148.708 L581.304,148.708 C581.22,148.575999 581.142,148.438001 581.07,148.294 C580.998,148.149999 580.926,148.012001 580.854,147.88 C580.553999,148.144001 580.170002,148.383999 579.702,148.6 C579.233998,148.816001 578.766002,148.924 578.298,148.924 C577.265995,148.924 576.501003,148.666003 576.003,148.15 C575.504997,147.633997 575.256,146.980004 575.256,146.188 C575.256,145.311996 575.552997,144.643002 576.147,144.181 C576.741003,143.718998 577.511995,143.488 578.46,143.488 L580.53,143.488 C580.53,142.887997 580.410001,142.372002 580.17,141.94 C579.929999,141.507998 579.468003,141.292 578.784,141.292 C578.267997,141.292 577.800002,141.354999 577.38,141.481 C576.959998,141.607001 576.588002,141.741999 576.264,141.886 L575.778,140.518 Z M586.596,146.692 C586.896002,146.932001 587.219998,147.120999 587.568,147.259 C587.916002,147.397001 588.239998,147.466 588.54,147.466 C589.440004,147.466 590.072998,147.151003 590.439,146.521 C590.805002,145.890997 590.988,145.162004 590.988,144.334 C590.988,143.457996 590.814002,142.711003 590.466,142.093 C590.117998,141.474997 589.476005,141.166 588.54,141.166 C588.239998,141.166 587.916002,141.234999 587.568,141.373 C587.219998,141.511001 586.896002,141.705999 586.596,141.958 L586.596,146.692 Z M584.868,152.65 L584.868,139.978 L585.84,139.978 L586.218,140.716 C586.602002,140.415999 587.039998,140.170001 587.532,139.978 C588.024003,139.785999 588.473998,139.69 588.882,139.69 C590.166006,139.69 591.131997,140.130996 591.78,141.013 C592.428003,141.895004 592.752,142.995993 592.752,144.316 C592.752,145.636007 592.425003,146.733996 591.771,147.61 C591.116997,148.486004 590.154006,148.924 588.882,148.924 C588.521998,148.924 588.138002,148.855001 587.73,148.717 C587.321998,148.578999 586.944002,148.390001 586.596,148.15 L586.596,152.452 L584.868,152.65 Z M596.694,146.692 C596.994001,146.932001 597.317998,147.120999 597.666,147.259 C598.014002,147.397001 598.337999,147.466 598.638,147.466 C599.538005,147.466 600.170998,147.151003 600.537,146.521 C600.903002,145.890997 601.086,145.162004 601.086,144.334 C601.086,143.457996 600.912002,142.711003 600.564,142.093 C600.215998,141.474997 599.574005,141.166 598.638,141.166 C598.337999,141.166 598.014002,141.234999 597.666,141.373 C597.317998,141.511001 596.994001,141.705999 596.694,141.958 L596.694,146.692 Z M594.966,152.65 L594.966,139.978 L595.938,139.978 L596.316,140.716 C596.700002,140.415999 597.137997,140.170001 597.63,139.978 C598.122002,139.785999 598.571998,139.69 598.98,139.69 C600.264006,139.69 601.229997,140.130996 601.878,141.013 C602.526003,141.895004 602.85,142.995993 602.85,144.316 C602.85,145.636007 602.523003,146.733996 601.869,147.61 C601.214997,148.486004 600.252006,148.924 598.98,148.924 C598.619998,148.924 598.236002,148.855001 597.828,148.717 C597.419998,148.578999 597.042002,148.390001 596.694,148.15 L596.694,152.452 L594.966,152.65 Z M605.064,148.708 L605.064,136.198 L606.792,136 L606.792,148.708 L605.064,148.708 Z M610.356,138.412 C610.055998,138.412 609.804001,138.307001 609.6,138.097 C609.395999,137.886999 609.294,137.632002 609.294,137.332 C609.282,137.031998 609.380999,136.777001 609.591,136.567 C609.801001,136.356999 610.055998,136.252 610.356,136.252 C610.656001,136.252 610.913999,136.356999 611.13,136.567 C611.346001,136.777001 611.454,137.031998 611.454,137.332 C611.454,137.632002 611.346001,137.886999 611.13,138.097 C610.913999,138.307001 610.656001,138.412 610.356,138.412 Z M609.492,148.708 L609.492,139.978 L611.238,139.978 L611.238,148.708 L609.492,148.708 Z M617.61,141.22 C616.793996,141.22 616.185002,141.516997 615.783,142.111 C615.380998,142.705003 615.174,143.439996 615.162,144.316 C615.162,145.228005 615.353998,145.980997 615.738,146.575 C616.122002,147.169003 616.727996,147.466 617.556,147.466 C618.084003,147.466 618.500998,147.412001 618.807,147.304 C619.113002,147.195999 619.451998,147.052001 619.824,146.872 L620.346,148.114 C619.961998,148.378001 619.494003,148.581999 618.942,148.726 C618.389997,148.870001 617.928002,148.942 617.556,148.942 C616.211993,148.942 615.183004,148.516004 614.469,147.664 C613.754996,146.811996 613.398,145.702007 613.398,144.334 C613.41,142.977993 613.778996,141.874004 614.505,141.022 C615.231004,140.169996 616.271993,139.744 617.628,139.744 C617.988002,139.744 618.440997,139.818999 618.987,139.969 C619.533003,140.119001 619.997998,140.325999 620.382,140.59 L619.878,141.814 C619.505998,141.657999 619.164002,141.520001 618.852,141.4 C618.539998,141.279999 618.126003,141.22 617.61,141.22 Z M623.532,146.188 C623.532,146.524002 623.651999,146.835999 623.892,147.124 C624.132001,147.412001 624.497998,147.556 624.99,147.556 C625.434002,147.556 625.850998,147.448001 626.241,147.232 C626.631002,147.015999 626.975999,146.740002 627.276,146.404 L627.276,144.64 L625.152,144.64 C624.623997,144.64 624.222001,144.795998 623.946,145.108 C623.669999,145.420002 623.532,145.779998 623.532,146.188 Z M622.506,140.518 C622.842002,140.289999 623.327997,140.104001 623.964,139.96 C624.600003,139.815999 625.103998,139.744 625.476,139.744 C626.484005,139.744 627.323997,140.025997 627.996,140.59 C628.668003,141.154003 629.004,141.885996 629.004,142.786 L629.004,148.708 L628.032,148.708 C627.948,148.575999 627.87,148.438001 627.798,148.294 C627.726,148.149999 627.654,148.012001 627.582,147.88 C627.281998,148.144001 626.898002,148.383999 626.43,148.6 C625.961998,148.816001 625.494002,148.924 625.026,148.924 C623.993995,148.924 623.229002,148.666003 622.731,148.15 C622.232998,147.633997 621.984,146.980004 621.984,146.188 C621.984,145.311996 622.280997,144.643002 622.875,144.181 C623.469003,143.718998 624.239995,143.488 625.188,143.488 L627.258,143.488 C627.258,142.887997 627.138001,142.372002 626.898,141.94 C626.657999,141.507998 626.196003,141.292 625.512,141.292 C624.995997,141.292 624.528002,141.354999 624.108,141.481 C623.687998,141.607001 623.316002,141.741999 622.992,141.886 L622.506,140.518 Z M635.97,148.636 C635.813999,148.72 635.595001,148.804 635.313,148.888 C635.030999,148.972 634.758001,149.014 634.494,149.014 C633.641996,149.014 632.964003,148.780002 632.46,148.312 C631.955997,147.843998 631.704,147.166004 631.704,146.278 L631.704,141.4 L630.48,141.4 L630.462,140.086 L631.704,140.086 L631.704,137.908 L633.432,137.512 L633.432,140.086 L635.016,140.086 L635.556,141.4 L633.432,141.4 L633.432,146.008 C633.432,146.452002 633.530999,146.814999 633.729,147.097 C633.927001,147.379001 634.241998,147.52 634.674,147.52 C634.818001,147.52 634.964999,147.499 635.115,147.457 C635.265001,147.415 635.399999,147.37 635.52,147.322 L635.97,148.636 Z M638.544,138.412 C638.243999,138.412 637.992001,138.307001 637.788,138.097 C637.583999,137.886999 637.482,137.632002 637.482,137.332 C637.47,137.031998 637.568999,136.777001 637.779,136.567 C637.989001,136.356999 638.243999,136.252 638.544,136.252 C638.844001,136.252 639.101999,136.356999 639.318,136.567 C639.534001,136.777001 639.642,137.031998 639.642,137.332 C639.642,137.632002 639.534001,137.886999 639.318,138.097 C639.101999,138.307001 638.844001,138.412 638.544,138.412 Z M637.68,148.708 L637.68,139.978 L639.426,139.978 L639.426,148.708 L637.68,148.708 Z M645.618,148.942 C644.297993,148.93 643.296003,148.495004 642.612,147.637 C641.927997,146.778996 641.586,145.672007 641.586,144.316 C641.598,142.971993 641.969996,141.877004 642.702,141.031 C643.434004,140.184996 644.459993,139.756 645.78,139.744 C647.148007,139.744 648.182996,140.178996 648.885,141.049 C649.587004,141.919004 649.938,143.037993 649.938,144.406 C649.938,145.762007 649.554004,146.853996 648.786,147.682 C648.017996,148.510004 646.962007,148.93 645.618,148.942 Z M648.192,144.406 C648.192,143.469995 648.006002,142.705003 647.634,142.111 C647.261998,141.516997 646.662004,141.22 645.834,141.22 C645.005996,141.22 644.388002,141.498997 643.98,142.057 C643.571998,142.615003 643.362,143.361995 643.35,144.298 C643.35,145.270005 643.526998,146.040997 643.881,146.611 C644.235002,147.181003 644.825996,147.466 645.654,147.466 C646.470004,147.466 647.093998,147.196003 647.526,146.656 C647.958002,146.115997 648.18,145.366005 648.192,144.406 Z M653.628,141.13 C654.000002,140.721998 654.479997,140.380001 655.068,140.104 C655.656003,139.827999 656.201997,139.69 656.706,139.69 C657.774005,139.69 658.550998,139.998997 659.037,140.617 C659.523002,141.235003 659.766,142.011995 659.766,142.948 L659.766,148.708 L658.038,148.708 L658.038,143.11 C658.038,142.521997 657.897001,142.054002 657.615,141.706 C657.332999,141.357998 656.910003,141.178 656.346,141.166 C655.985998,141.166 655.566002,141.279999 655.086,141.508 C654.605998,141.736001 654.192002,142.035998 653.844,142.408 L653.844,148.708 L652.116,148.708 L652.116,139.978 L653.088,139.978 L653.628,141.13 Z" id="path-14" stroke="#FFFFFF" stroke-width="0.5" fill="#FFFFFF"></path>
        </g>
    </g>
</svg>