<?xml version="1.0" encoding="UTF-8"?>
<svg width="18px" height="18px" viewBox="0 0 18 18" version="1.1" xmlns="http://www.w3.org/2000/svg" xmlns:xlink="http://www.w3.org/1999/xlink">
    <!-- Generator: Sketch 55.1 (78136) - https://sketchapp.com -->
    <title>help-circle</title>
    <desc>Created with Sketch.</desc>
    <g id="Page-1" stroke="none" stroke-width="1" fill="none" fill-rule="evenodd">
        <g id="Artboard" transform="translate(-1035.000000, -608.000000)" fill="#FFFFFF" fill-rule="nonzero">
            <g id="help-circle" transform="translate(1035.000000, 608.000000)">
                <path d="M18,9 C18,7.78254545 17.7578182,6.61909091 17.3184545,5.55790909 C16.8619091,4.45581818 16.1934545,3.465 15.3646364,2.63618182 C14.5358182,1.80736364 13.545,1.13809091 12.4429091,0.682363636 C11.3809091,0.242181818 10.2174545,0 9,0 C7.78254545,0 6.61909091,0.242181818 5.55790909,0.681545455 C4.45581818,1.13809091 3.465,1.80654545 2.63618182,2.63618182 C1.80736364,3.46581818 1.13809091,4.45581818 0.681545455,5.55790909 C0.242181818,6.61909091 1.77635684e-15,7.78254545 1.77635684e-15,9 C1.77635684e-15,10.2174545 0.242181818,11.3809091 0.681545455,12.4420909 C1.13809091,13.5441818 1.80654545,14.535 2.63536364,15.3638182 C3.46418182,16.1926364 4.455,16.8619091 5.55709091,17.3176364 C6.61909091,17.7578182 7.78254545,18 9,18 C10.2174545,18 11.3809091,17.7578182 12.4420909,17.3184545 C13.5441818,16.8619091 14.535,16.1934545 15.3638182,15.3646364 C16.1926364,14.5358182 16.8619091,13.545 17.3176364,12.4429091 C17.7578182,11.3809091 18,10.2174545 18,9 Z M16.3636364,9 C16.3636364,9.999 16.1648182,10.9497273 15.8064545,11.8161818 C15.4333636,12.717 14.8868182,13.5278182 14.2069091,14.2069091 C13.527,14.886 12.7161818,15.4333636 11.8161818,15.8064545 C10.9497273,16.1648182 9.999,16.3636364 9,16.3636364 C8.001,16.3636364 7.05027273,16.1648182 6.18381818,15.8064545 C5.283,15.4333636 4.47218182,14.8868182 3.79309091,14.2069091 C3.11318182,13.527 2.56663636,12.7161818 2.19354545,11.8161818 C1.83518182,10.9497273 1.63636364,9.999 1.63636364,9 C1.63636364,8.001 1.83518182,7.05027273 2.19354545,6.18381818 C2.56663636,5.283 3.11318182,4.47218182 3.79309091,3.79309091 C4.473,3.114 5.28381818,2.56663636 6.18381818,2.19354545 C7.05027273,1.83518182 8.001,1.63636364 9,1.63636364 C9.999,1.63636364 10.9497273,1.83518182 11.8161818,2.19354545 C12.717,2.56663636 13.5278182,3.11318182 14.2069091,3.79309091 C14.8868182,4.473 15.4333636,5.28381818 15.8064545,6.18381818 C16.1648182,7.05027273 16.3636364,8.001 16.3636364,9 L16.3636364,9 Z M7.39063636,6.81709091 C7.46509091,6.60681818 7.57636364,6.42272727 7.71463636,6.26809091 C7.85863636,6.10690909 8.03372727,5.97763636 8.22681818,5.88436364 C8.41990909,5.79109091 8.63018182,5.73709091 8.84618182,5.72481818 C9.05318182,5.71336364 9.26672727,5.742 9.477,5.81563636 C9.66272727,5.88109091 9.82718182,5.97518182 9.96954545,6.09136364 C10.116,6.21163636 10.2395455,6.35645455 10.3360909,6.51845455 C10.4858182,6.76963636 10.5692727,7.06254545 10.5700909,7.36690909 C10.5700909,7.42663636 10.5627273,7.48718182 10.5488182,7.54609091 C10.5332727,7.61236364 10.5087273,7.67863636 10.4743636,7.74736364 C10.4089091,7.87827273 10.3082727,8.01327273 10.1732727,8.14827273 C10.0055455,8.316 9.801,8.46818182 9.58581818,8.60072727 C9.40745455,8.71118182 9.23072727,8.802 9.07854545,8.87318182 C8.97136364,8.92309091 8.87809091,8.96236364 8.80772727,8.991 C8.76436364,9.00818182 8.73,9.02127273 8.70709091,9.02945455 C8.24645455,9.18409091 8.01409091,9.64718182 8.15727273,10.0759091 C8.30045455,10.5046364 8.76354545,10.7361818 9.19227273,10.593 C9.21272727,10.5864545 9.44672727,10.5070909 9.77236364,10.3549091 C9.96872727,10.2632727 10.2027273,10.1421818 10.4457273,9.99245455 C10.7337273,9.81490909 11.0479091,9.58663636 11.3293636,9.30518182 C11.5576364,9.07690909 11.7752727,8.80281818 11.9372727,8.47881818 C12.0231818,8.307 12.0935455,8.12127273 12.1401818,7.92163636 C12.1827273,7.74327273 12.2056364,7.55672727 12.2056364,7.35872727 C12.2023636,6.76063636 12.0387273,6.183 11.7417273,5.68227273 C11.5494545,5.35909091 11.3015455,5.06863636 11.0053636,4.82563636 C10.7181818,4.59 10.3868182,4.401 10.0194545,4.27172727 C9.603,4.12527273 9.17427273,4.068 8.75618182,4.09009091 C8.32254545,4.11381818 7.902,4.22345455 7.51827273,4.40754545 C7.13454545,4.59163636 6.78681818,4.85181818 6.49636364,5.17581818 C6.21736364,5.48672727 5.994,5.85736364 5.84754545,6.27381818 C5.697,6.70009091 5.92118182,7.16727273 6.34745455,7.317 C6.77372727,7.46672727 7.24090909,7.24254545 7.39063636,6.81709091 L7.39063636,6.81709091 Z M9.81818182,13.0909091 C9.81818182,12.6392727 9.45163636,12.2727273 9,12.2727273 C8.54836364,12.2727273 8.18181818,12.6392727 8.18181818,13.0909091 C8.18181818,13.5425455 8.54836364,13.9090909 9,13.9090909 C9.45163636,13.9090909 9.81818182,13.5425455 9.81818182,13.0909091 Z" id="Shape"></path>
            </g>
        </g>
    </g>
</svg>