<?xml version="1.0" encoding="UTF-8"?>
<svg width="20px" height="20px" viewBox="0 0 20 20" version="1.1" xmlns="http://www.w3.org/2000/svg" xmlns:xlink="http://www.w3.org/1999/xlink">
    <g stroke="none" stroke-width="1" fill="none" fill-rule="evenodd">
        <g transform="translate(-144.000000, -315.000000)" fill="#000000">
            <path d="M154,335 C157.632885,335 160.813308,333.062779 162.564606,330.165 C162.580616,330.13851 162.535517,330.16677 162.429309,330.150218 C162.093688,330.097913 160.217251,330.097913 156.8,330.150218 L156.8,333 L152,328.6 L156.8,323.8 L156.8,326.960099 L163.743344,326.960099 C163.798799,326.896428 163.82849,326.853994 163.832417,326.832794 C163.942473,326.238631 164,325.626034 164,325 C164,319.477153 159.522847,315 154,315 C150.072222,315 146.673343,317.264486 145.03769,320.559131 C145.031202,320.572201 145.085305,320.585824 145.2,320.6 L150.8,320.6 L150.8,317.8 L155.2,322.2 L150.8,326.6 L150.8,323.8 C146.318042,323.767436 144.074838,323.769873 144.070388,323.807311 C144.023909,324.198397 144,324.596406 144,325 C144,330.522847 148.477153,335 154,335 Z"></path>
        </g>
    </g>
</svg>