<?xml version="1.0" encoding="UTF-8"?>
<svg width="19px" height="17px" viewBox="0 0 19 17" version="1.1" xmlns="http://www.w3.org/2000/svg" xmlns:xlink="http://www.w3.org/1999/xlink">
    <!-- Generator: Sketch 55.1 (78136) - https://sketchapp.com -->
    <title>archive</title>
    <desc>Created with Sketch.</desc>
    <g id="Page-1" stroke="none" stroke-width="1" fill="none" fill-rule="evenodd">
        <g id="Artboard" transform="translate(-742.000000, -541.000000)" fill="#FFFFFF" fill-rule="nonzero">
            <g id="archive" transform="translate(742.000000, 541.000000)">
                <path d="M3.16646875,6.07142857 L15.8329375,6.07142857 L15.8329375,14.9763929 L3.16646875,14.9763929 L3.16646875,6.07142857 Z M0.79146875,0.404964286 C0.35446875,0.404964286 0,0.767428571 0,1.21428571 L0,5.26210714 C0,5.70896429 0.35446875,6.07142857 0.79146875,6.07142857 L1.5829375,6.07142857 L1.5829375,15.7857143 C1.5829375,16.2325714 1.93740625,16.5950357 2.37440625,16.5950357 L16.6244062,16.5950357 C17.0614063,16.5950357 17.415875,16.2325714 17.415875,15.7857143 L17.415875,6.07142857 L18.2073437,6.07142857 C18.6443438,6.07142857 18.9988125,5.70896429 18.9988125,5.26210714 L18.9988125,1.21428571 C18.9988125,0.767428571 18.6443437,0.404964286 18.2073437,0.404964286 L0.79146875,0.404964286 Z M1.58353125,2.02360714 L17.4170625,2.02360714 L17.4170625,4.45217857 L1.58353125,4.45217857 L1.58353125,2.02360714 Z M7.91646875,9.30932143 L11.0829375,9.30932143 C11.5199375,9.30932143 11.8744062,8.94685714 11.8744062,8.5 C11.8744062,8.05314286 11.5199375,7.69067857 11.0829375,7.69067857 L7.91646875,7.69067857 C7.47946875,7.69067857 7.125,8.05314286 7.125,8.5 C7.125,8.94685714 7.47946875,9.30932143 7.91646875,9.30932143 Z" id="Shape"></path>
            </g>
        </g>
    </g>
</svg>