<?xml version="1.0" encoding="UTF-8"?>
<svg width="17px" height="19px" viewBox="0 0 17 19" version="1.1" xmlns="http://www.w3.org/2000/svg" xmlns:xlink="http://www.w3.org/1999/xlink">
    <!-- Generator: Sketch 55.1 (78136) - https://sketchapp.com -->
    <title>share-2</title>
    <desc>Created with Sketch.</desc>
    <g id="Page-1" stroke="none" stroke-width="1" fill="none" fill-rule="evenodd">
        <g id="Artboard" transform="translate(-452.000000, -468.000000)" fill="#FFFFFF" fill-rule="nonzero">
            <g id="share-2" transform="translate(452.000000, 468.000000)">
                <path d="M13.6,12.0909091 C12.665,12.0909091 11.815,12.5227273 11.22,13.1272727 L6.715,10.45 C6.715,10.1045455 6.8,9.84545455 6.8,9.5 C6.8,9.15454545 6.715,8.89545455 6.63,8.55 L11.135,5.87272727 C11.815,6.47727273 12.665,6.90909091 13.6,6.90909091 C15.47,6.90909091 17,5.35454545 17,3.45454545 C17,1.55454545 15.47,0 13.6,0 C11.73,0 10.2,1.55454545 10.2,3.45454545 C10.2,3.8 10.285,4.05909091 10.37,4.40454545 L5.78,7.08181818 C5.185,6.47727273 4.335,6.04545455 3.4,6.04545455 C1.53,6.04545455 -3.55271368e-15,7.6 -3.55271368e-15,9.5 C-3.55271368e-15,11.4 1.53,12.9545455 3.4,12.9545455 C4.335,12.9545455 5.185,12.5227273 5.78,11.9181818 L10.285,14.5954545 C10.285,14.9409091 10.2,15.2 10.2,15.5454545 C10.2,17.4454545 11.73,19 13.6,19 C15.47,19 17,17.4454545 17,15.5454545 C17,13.6454545 15.47,12.0909091 13.6,12.0909091 L13.6,12.0909091 Z M13.6,1.72727273 C14.535,1.72727273 15.3,2.50454545 15.3,3.45454545 C15.3,4.40454545 14.535,5.18181818 13.6,5.18181818 C12.665,5.18181818 11.9,4.40454545 11.9,3.45454545 C11.9,2.50454545 12.665,1.72727273 13.6,1.72727273 Z M3.4,11.2272727 C2.465,11.2272727 1.7,10.45 1.7,9.5 C1.7,8.55 2.465,7.77272727 3.4,7.77272727 C4.335,7.77272727 5.1,8.55 5.1,9.5 C5.1,10.45 4.335,11.2272727 3.4,11.2272727 Z M13.6,17.2727273 C12.665,17.2727273 11.9,16.4954545 11.9,15.5454545 C11.9,15.2 11.985,14.9409091 12.155,14.6818182 C12.155,14.6818182 12.155,14.6818182 12.155,14.6818182 C12.155,14.6818182 12.155,14.6818182 12.155,14.6818182 C12.41,14.1636364 13.005,13.8181818 13.6,13.8181818 C14.535,13.8181818 15.3,14.5954545 15.3,15.5454545 C15.3,16.4954545 14.535,17.2727273 13.6,17.2727273 Z" id="Shape"></path>
            </g>
        </g>
    </g>
</svg>