<?xml version="1.0" encoding="UTF-8"?>
<svg width="19px" height="14px" viewBox="0 0 19 14" version="1.1" xmlns="http://www.w3.org/2000/svg" xmlns:xlink="http://www.w3.org/1999/xlink">
    <!-- Generator: Sketch 55.1 (78136) - https://sketchapp.com -->
    <title>credit-card</title>
    <desc>Created with Sketch.</desc>
    <g id="Page-1" stroke="none" stroke-width="1" fill="none" fill-rule="evenodd">
        <g id="Artboard" transform="translate(-1037.000000, -540.000000)" fill="#FFFFFF" fill-rule="nonzero">
            <g id="credit-card" transform="translate(1037.000000, 540.000000)">
                <path d="M16.625,0 L2.375,0 C1.02916667,0 0,1.01111111 0,2.33333333 L0,11.6666667 C0,12.9888889 1.02916667,14 2.375,14 L16.625,14 C17.9708333,14 19,12.9888889 19,11.6666667 L19,2.33333333 C19,1.01111111 17.9708333,0 16.625,0 Z M2.375,1.55555556 L16.625,1.55555556 C17.1,1.55555556 17.4166667,1.86666667 17.4166667,2.33333333 L17.4166667,4.66666667 L1.58333333,4.66666667 L1.58333333,2.33333333 C1.58333333,1.86666667 1.9,1.55555556 2.375,1.55555556 Z M16.625,12.4444444 L2.375,12.4444444 C1.9,12.4444444 1.58333333,12.1333333 1.58333333,11.6666667 L1.58333333,6.22222222 L17.4166667,6.22222222 L17.4166667,11.6666667 C17.4166667,12.1333333 17.1,12.4444444 16.625,12.4444444 Z" id="Shape"></path>
            </g>
        </g>
    </g>
</svg>