<?xml version="1.0" encoding="UTF-8"?>
<svg width="20px" height="20px" viewBox="0 0 20 21" version="1.1" xmlns="http://www.w3.org/2000/svg" xmlns:xlink="http://www.w3.org/1999/xlink">
    <g stroke="none" stroke-width="1" fill="none" fill-rule="evenodd">
        <g transform="translate(-144.000000, -168.000000)" fill="#000000">
            <path d="M154,188.174143 C148.477153,188.174143 144,183.658007 144,178.087072 C144,172.516136 148.477153,168 154,168 C159.522847,168 164,172.516136 164,178.087072 C164,183.658007 159.522847,188.174143 154,188.174143 Z M154,184 C157.313708,184 160,181.313708 160,178 C160,174.686292 157.313708,172 154,172 C150.686292,172 148,174.686292 148,178 C148,181.313708 150.686292,184 154,184 Z M154,182 C151.790861,182 150,180.209139 150,178 C150,175.790861 151.790861,174 154,174 C156.209139,174 158,175.790861 158,178 C158,180.209139 156.209139,182 154,182 Z M154,180 C155.104569,180 156,179.104569 156,178 C156,176.895431 155.104569,176 154,176 C152.895431,176 152,176.895431 152,178 C152,179.104569 152.895431,180 154,180 Z"></path>
        </g>
    </g>
</svg>