<?xml version="1.0" encoding="UTF-8"?>
<svg width="20px" height="20px" viewBox="0 0 20 20" version="1.1" xmlns="http://www.w3.org/2000/svg" xmlns:xlink="http://www.w3.org/1999/xlink">
    <g stroke="none" stroke-width="1" fill="none" fill-rule="evenodd">
        <g transform="translate(-144.000000, -455.000000)" fill="#000000">
            <path d="M152.140114,475 C147.506007,474.120767 144,470.01692 144,465.087072 C144,459.516136 148.477153,455 154,455 C159.522847,455 164,459.516136 164,465.087072 C164,468.149547 162.647022,470.893266 160.511114,472.743216 L160.8,470.685245 L160.8,470.533543 C160.8,470.042124 160.5,469.625749 160.0872,469.436928 L156.4504,467.584223 C156.3,467.546298 156.188,467.508372 156.0376,467.508372 L155.4,467.508372 L155.4,462.666808 C155.4,461.985762 154.8752,461.456417 154.2,461.456417 C153.5248,461.456417 153,461.985762 153,462.666808 L153,471.328366 L150.2624,470.761096 C150.188,470.761096 150.1504,470.72317 150.0752,470.72317 C149.8128,470.72317 149.588,470.83614 149.4376,470.987843 L148.8,471.630964 L152.140114,475 Z M152.212,465.691979 L152.212,462.666001 C152.212,461.569387 153.112,460.661594 154.1992,460.661594 C155.2864,460.661594 156.224,461.569387 156.224,462.666001 L156.224,465.691979 C157.1992,465.048858 157.7992,463.914318 157.7992,462.666001 C157.7992,460.661594 156.1864,459.034829 154.1992,459.034829 C152.212,459.034829 150.5992,460.661594 150.5992,462.666001 C150.5992,463.914318 151.2368,465.048858 152.212,465.691979 Z"></path>
        </g>
    </g>
</svg>