<?xml version="1.0" encoding="UTF-8"?>
<svg width="20px" height="20px" viewBox="0 0 20 20" version="1.1" xmlns="http://www.w3.org/2000/svg" xmlns:xlink="http://www.w3.org/1999/xlink">
    <g stroke="none" stroke-width="1" fill="none" fill-rule="evenodd">
        <g transform="translate(-144.000000, -219.000000)" fill="#000000">
            <path d="M158.679026,233.935747 L158.672961,232.724806 C158.16756,232.937074 157.61364,233.054328 157.031417,233.058371 C154.785413,233.0705 152.925536,231.358201 152.707203,229.166782 L155.383809,229.152631 C155.571818,229.880409 156.234905,230.418155 157.019288,230.414112 C157.769303,230.410069 158.404087,229.912754 158.614334,229.231474 L158.654767,228.970687 L158.654767,228.843326 L158.654767,228.778634 L158.652745,228.255039 L158.632529,224.401861 L161.282854,224.38771 L161.30307,228.240888 L161.307113,229.122307 L161.319243,229.122307 C161.3152,229.160718 161.311156,229.199128 161.307113,229.235517 L161.331372,233.921596 L161.34148,235.79158 C163.00324,233.996395 164.012021,231.590686 164,228.950471 C163.971589,223.427448 159.471495,218.971832 153.948469,219 C152.262449,219.008221 150.675489,219.434779 149.284624,220.178729 L149.302819,223.575025 L149.308884,224.743512 C149.816307,224.529222 150.37427,224.409947 150.958514,224.407926 C153.19441,224.395796 155.048222,226.091922 155.280707,228.26919 L152.600058,228.283341 C152.40194,227.571737 151.74694,227.048141 150.972665,227.052184 C150.19839,227.056227 149.547433,227.585888 149.357402,228.299514 C149.357402,228.299514 149.321013,228.687662 149.333143,228.79885 C149.333143,228.806937 149.333143,228.813002 149.3291,228.819066 L149.331121,229.178912 L149.351337,233.149343 L146.705056,233.163494 L146.68484,229.193063 L146.680796,228.311644 L146.674732,228.311644 C146.676753,228.293449 146.678775,228.273233 146.680796,228.255039 L146.656537,223.587154 L146.650472,222.216507 C144.992756,224.011691 143.985996,226.415379 144,229.049529 C144.02845,234.572552 148.528544,239.028168 154.05157,239 C155.733546,238.991779 157.316464,238.567243 158.705307,237.827335 L158.679026,233.935747 Z"></path>
        </g>
    </g>
</svg>