<?xml version="1.0" encoding="UTF-8"?>
<svg width="16px" height="16px" viewBox="0 0 16 16" version="1.1" xmlns="http://www.w3.org/2000/svg" xmlns:xlink="http://www.w3.org/1999/xlink">
    <!-- Generator: Sketch 55.1 (78136) - https://sketchapp.com -->
    <title>search</title>
    <desc>Created with Sketch.</desc>
    <g id="Page-1" stroke="none" stroke-width="1" fill="none" fill-rule="evenodd">
        <g id="Artboard" transform="translate(-1037.000000, -470.000000)" fill="#FFFFFF" fill-rule="nonzero">
            <g id="search" transform="translate(1037.000000, 470.000000)">
                <path d="M15.76,14.64 L12.8,11.68 C13.76,10.48 14.4,8.88 14.4,7.2 C14.4,3.2 11.2,1.77635684e-15 7.2,1.77635684e-15 C3.2,1.77635684e-15 0,3.2 0,7.2 C0,11.2 3.2,14.4 7.2,14.4 C8.88,14.4 10.48,13.84 11.68,12.8 L14.64,15.76 C14.8,15.92 15.04,16 15.2,16 C15.36,16 15.6,15.92 15.76,15.76 C16.08,15.44 16.08,14.96 15.76,14.64 Z M1.6,7.2 C1.6,4.08 4.08,1.6 7.2,1.6 C10.32,1.6 12.8,4.08 12.8,7.2 C12.8,8.72 12.16,10.16 11.2,11.12 C11.2,11.12 11.2,11.12 11.2,11.12 C11.2,11.12 11.2,11.12 11.2,11.12 C10.16,12.16 8.8,12.72 7.28,12.72 C4.08,12.8 1.6,10.32 1.6,7.2 Z" id="Shape"></path>
            </g>
        </g>
    </g>
</svg>