<?xml version="1.0" encoding="UTF-8"?>
<svg width="34px" height="34px" viewBox="0 0 34 34" version="1.1" xmlns="http://www.w3.org/2000/svg" xmlns:xlink="http://www.w3.org/1999/xlink">
    <!-- Generator: Sketch 55.1 (78136) - https://sketchapp.com -->
    <title>riot</title>
    <desc>Created with Sketch.</desc>
    <g id="riot" stroke="none" stroke-width="1" fill="none" fill-rule="evenodd">
        <path d="M14.1508761,10.5328049 L14.1508761,14.8791053 L18.2602167,14.8745614 C18.312401,14.8745614 18.3600163,14.8730467 18.4073911,14.869765 C19.4878725,14.7932749 20.3324421,13.8418195 20.3324421,12.7038093 C20.3324421,11.5064751 19.4049066,10.5328049 18.2643048,10.5328049 L14.1508761,10.5328049 Z M10.086746,32 C7.84233617,32 6.02261591,30.0900209 6.02261591,27.7337237 L6.02261591,19.6028071 C6.00794657,19.4553808 6.00000522,19.30543 6.00000522,19.1537121 C5.99977021,18.9992174 6.00746561,18.8467422 6.02261591,18.6962865 L6.02261591,6.26652866 C6.02261591,3.91023148 7.84233617,2 10.086746,2 L18.2643048,2 C23.8867523,2 28.4609427,6.8017065 28.4609427,12.7038093 C28.4609427,18.3153509 24.2857104,23.0059828 18.9556879,23.3826268 C18.7291547,23.3990356 18.4956476,23.4073662 18.2643048,23.4073662 L14.1508761,23.4116577 L14.1508761,27.7337237 C14.1508761,30.0900209 12.3313963,32 10.086746,32 Z" id="Stroke-3" stroke="#000000" stroke-width="1.5"></path>
        <path d="M13.4016966,3.81785645 C14.0249461,4.7512766 14.2642875,5.8839038 14.075701,7.00567436 C13.8868739,8.12820235 13.2927301,9.10605906 12.4027173,9.7597309 C10.5652015,11.1092388 8.02337277,10.6393727 6.73670279,8.71218959 C6.11345323,7.77876946 5.87411192,6.64639472 6.06293898,5.52411919 C6.2515255,4.40184368 6.84566924,3.4237345 7.73592266,2.77031514 C9.57343845,1.42080724 12.1150266,1.89067332 13.4016966,3.81785645 Z M24.3989604,32 C23.117823,32 21.8573723,31.366274 21.0662229,30.1813833 L15.320829,21.5753354 C14.0324752,19.645375 14.4786844,16.9844837 16.3171623,15.632451 C18.1556403,14.2794083 20.6907337,14.748012 21.9790875,16.6779725 L27.7244815,25.2840204 C29.0130759,27.2139808 28.5668667,29.8748721 26.7283887,31.2269048 C26.0183028,31.7492868 25.2045424,32 24.3989604,32 Z" id="Combined-Shape" fill="#000000" fill-rule="nonzero"></path>
    </g>
</svg>