<?xml version="1.0" encoding="UTF-8"?>
<svg width="34px" height="34px" viewBox="0 0 34 34" version="1.1" xmlns="http://www.w3.org/2000/svg" xmlns:xlink="http://www.w3.org/1999/xlink">
    <!-- Generator: Sketch 55.1 (78136) - https://sketchapp.com -->
    <title>slack</title>
    <desc>Created with Sketch.</desc>
    <g id="slack" stroke="none" stroke-width="1" fill="none" fill-rule="evenodd">
        <path d="M7.723,20.22 C7.719,22.075 6.218,23.578 4.364,23.584 L4.363,23.584 C2.507,23.579 1.004,22.076 1,20.22 L1,20.22 C1.005,18.366 2.508,16.864 4.362,16.86 L7.722,16.86 L7.722,20.22 L7.723,20.22 Z M9.417,20.22 C9.422,18.366 10.924,16.865 12.778,16.86 L12.778,16.86 C14.632,16.865 16.134,18.366 16.139,20.22 L16.139,28.638 C16.134,30.493 14.632,31.995 12.778,32.001 L12.777,32.001 C10.922,31.996 9.42,30.493 9.416,28.639 L9.416,20.221 L9.417,20.22 Z M12.779,6.723 C10.925,6.718 9.424,5.217 9.418,3.364 L9.418,3.363 C9.423,1.508 10.925,0.006 12.779,0 L12.78,0 C14.635,0.005 16.137,1.508 16.141,3.362 L16.141,6.722 L12.78,6.722 L12.779,6.723 Z M12.779,8.417 C14.633,8.422 16.135,9.924 16.14,11.778 L16.14,11.779 C16.135,13.633 14.633,15.135 12.779,15.14 L4.362,15.14 C2.507,15.135 1.005,13.633 0.999,11.779 L0.999,11.778 C1.004,9.923 2.507,8.421 4.361,8.417 L12.777,8.417 L12.779,8.417 Z" id="Shape" fill="#000000" fill-rule="nonzero"></path>
        <path d="M26.275,11.779 C26.28,9.924 27.783,8.422 29.637,8.418 L29.637,8.418 C31.492,8.423 32.994,9.925 33,11.779 L33,11.78 C32.995,13.635 31.492,15.137 29.638,15.141 L26.275,15.141 L26.275,11.78 L26.275,11.779 Z M24.584,11.779 C24.579,13.634 23.075,15.137 21.22,15.14 L21.22,15.14 C19.366,15.135 17.865,13.633 17.86,11.779 L17.86,3.363 C17.864,1.508 19.366,0.006 21.22,0 L21.22,0 C23.076,0.004 24.579,1.507 24.584,3.362 L24.584,11.778 L24.584,11.779 Z" id="Shape" fill="#000000" fill-rule="nonzero"></path>
        <path d="M21.22,25.275 C23.076,25.279 24.579,26.782 24.584,28.637 L24.584,28.637 C24.579,30.493 23.076,31.996 21.22,32 L21.22,32 C19.366,31.995 17.864,30.492 17.86,28.638 L17.86,25.275 L21.22,25.275 Z M21.22,23.584 C19.365,23.579 17.863,22.075 17.86,20.22 L17.86,20.22 C17.865,18.366 19.366,16.865 21.22,16.86 L29.638,16.86 C31.493,16.864 32.995,18.366 33.001,20.22 L33.001,20.22 C32.997,22.076 31.494,23.579 29.639,23.584 L21.221,23.584 L21.22,23.584 Z" id="Shape" fill="#000000" fill-rule="nonzero"></path>
    </g>
</svg>