<?xml version="1.0" encoding="UTF-8"?>
<svg width="34px" height="34px" viewBox="0 0 34 34" version="1.1" xmlns="http://www.w3.org/2000/svg" xmlns:xlink="http://www.w3.org/1999/xlink">
    <!-- Generator: Sketch 55.1 (78136) - https://sketchapp.com -->
    <title>twitter</title>
    <desc>Created with Sketch.</desc>
    <g id="twitter" stroke="none" stroke-width="1" fill="none" fill-rule="evenodd">
        <path d="M32.939,7.092 C31.759,7.611 30.499,7.964 29.172,8.125 C30.524,7.31 31.564,6.026 32.056,4.494 C30.788,5.234 29.383,5.773 27.887,6.073 C26.692,4.794 24.99,3.994 23.099,3.994 C19.476,3.994 16.539,6.931 16.539,10.55 C16.539,11.07 16.599,11.57 16.708,12.049 C11.255,11.792 6.421,9.173 3.187,5.214 C2.618,6.177 2.299,7.295 2.299,8.514 C2.299,10.794 3.459,12.798 5.216,13.975 C4.14,13.94 3.128,13.644 2.245,13.154 L2.245,13.235 C2.245,16.415 4.502,19.067 7.506,19.671 C6.955,19.819 6.374,19.899 5.778,19.899 C5.359,19.899 4.958,19.859 4.557,19.784 C5.398,22.388 7.817,24.287 10.696,24.34 C8.456,26.099 5.617,27.147 2.56,27.147 C2.04,27.147 1.521,27.116 1,27.058 C3.919,28.917 7.357,30.003 11.076,30.003 C23.148,30.003 29.741,20.008 29.741,11.355 C29.741,11.076 29.741,10.795 29.721,10.515 C31.002,9.596 32.121,8.435 33.001,7.118 L32.938,7.091 L32.939,7.092 Z" id="Path" fill="#000000" fill-rule="nonzero"></path>
    </g>
</svg>