<?xml version="1.0" encoding="UTF-8"?>
<svg width="11px" height="25px" viewBox="0 0 11 25" version="1.1" xmlns="http://www.w3.org/2000/svg" xmlns:xlink="http://www.w3.org/1999/xlink">
    <!-- Generator: Sketch 55 (78076) - https://sketchapp.com -->
    <title>Group 2</title>
    <desc>Created with Sketch.</desc>
    <g id="Page-1" stroke="none" stroke-width="1" fill="none" fill-rule="evenodd">
        <g id="3" transform="translate(-780.000000, -88.000000)" fill="#D1D3D2">
            <g id="Group-26" transform="translate(620.000000, 79.000000)">
                <g id="Group-2" transform="translate(160.551062, 9.302600)">
                    <path d="M6.09408446,24.0506533 L10.0749687,17.6531072 C10.5394439,16.9065465 10.002322,15.9405 9.12360616,15.9405 L1.16183764,15.9405 C0.282348941,15.9405 -0.254000055,16.9065465 0.210475084,17.6531072 L4.19135935,24.0506533 C4.62955802,24.7554808 5.65588578,24.7554808 6.09408446,24.0506533" id="Fill-12"></path>
                    <path d="M4.2227102,0.510967335 L0.165165048,7.0312202 C-0.283866852,7.75276801 0.235616605,8.68799308 1.08568044,8.68799308 L9.19999656,8.68799308 C10.0500604,8.68799308 10.5695439,7.75276801 10.120512,7.0312202 L6.0629668,0.510967335 C5.63870907,-0.170322445 4.64696793,-0.170322445 4.2227102,0.510967335" id="Fill-14"></path>
                </g>
            </g>
        </g>
    </g>
</svg>