<?xml version="1.0" encoding="UTF-8"?>
<svg width="18px" height="18px" viewBox="0 0 18 18" version="1.1" xmlns="http://www.w3.org/2000/svg" xmlns:xlink="http://www.w3.org/1999/xlink">
    <!-- Generator: Sketch 55 (78076) - https://sketchapp.com -->
    <title>copy</title>
    <desc>Created with Sketch.</desc>
    <g id="Page-1" stroke="none" stroke-width="1" fill="none" fill-rule="evenodd">
        <g id="3" transform="translate(-478.000000, -249.000000)" fill="#FFFFFF" fill-rule="nonzero">
            <g id="copy" transform="translate(478.000000, 249.000000)">
                <path d="M15.6,6 L8.4,6 C7.04,6 6,7.04 6,8.4 L6,15.6 C6,16.96 7.04,18 8.4,18 L15.6,18 C16.96,18 18,16.96 18,15.6 L18,8.4 C18,7.04 16.96,6 15.6,6 Z M16.4,15.6 C16.4,16.08 16.08,16.4 15.6,16.4 L8.4,16.4 C7.92,16.4 7.6,16.08 7.6,15.6 L7.6,8.4 C7.6,7.92 7.92,7.6 8.4,7.6 L15.6,7.6 C16.08,7.6 16.4,7.92 16.4,8.4 L16.4,15.6 Z" id="Shape"></path>
                <path d="M3.2,10.4 L2.4,10.4 C1.92,10.4 1.6,10.08 1.6,9.6 L1.6,2.4 C1.6,1.92 1.92,1.6 2.4,1.6 L9.6,1.6 C10.08,1.6 10.4,1.92 10.4,2.4 L10.4,3.2 C10.4,3.68 10.72,4 11.2,4 C11.68,4 12,3.68 12,3.2 L12,2.4 C12,1.04 10.96,0 9.6,0 L2.4,0 C1.04,0 0,1.04 0,2.4 L0,9.6 C0,10.96 1.04,12 2.4,12 L3.2,12 C3.68,12 4,11.68 4,11.2 C4,10.72 3.68,10.4 3.2,10.4 Z" id="Path"></path>
            </g>
        </g>
    </g>
</svg>