<?xml version="1.0" encoding="UTF-8"?>
<svg width="26px" height="19px" viewBox="0 0 26 19" version="1.1" xmlns="http://www.w3.org/2000/svg" xmlns:xlink="http://www.w3.org/1999/xlink">
    <!-- Generator: Sketch 55 (78076) - https://sketchapp.com -->
    <title>menu</title>
    <desc>Created with Sketch.</desc>
    <g id="Page-1" stroke="none" stroke-width="1" fill="none" fill-rule="evenodd">
        <g id="3" transform="translate(-1395.000000, -91.000000)" fill="#000000" fill-rule="nonzero">
            <g id="menu" transform="translate(1395.000000, 91.000000)">
                <path d="M24.7,8 L1.3,8 C0.52,8 0,8.6 0,9.5 C0,10.4 0.52,11 1.3,11 L24.7,11 C25.48,11 26,10.4 26,9.5 C26,8.6 25.48,8 24.7,8 Z" id="Path"></path>
                <path d="M1.3,3 L24.7,3 C25.48,3 26,2.4 26,1.5 C26,0.6 25.48,0 24.7,0 L1.3,0 C0.52,0 0,0.6 0,1.5 C0,2.4 0.52,3 1.3,3 Z" id="Path"></path>
                <path d="M24.7,16 L1.3,16 C0.52,16 0,16.6 0,17.5 C0,18.4 0.52,19 1.3,19 L24.7,19 C25.48,19 26,18.4 26,17.5 C26,16.6 25.48,16 24.7,16 Z" id="Path"></path>
            </g>
        </g>
    </g>
</svg>