<?xml version="1.0" encoding="UTF-8"?>
<svg width="18px" height="18px" viewBox="0 0 18 18" version="1.1" xmlns="http://www.w3.org/2000/svg" xmlns:xlink="http://www.w3.org/1999/xlink">
    <!-- Generator: Sketch 55 (78076) - https://sketchapp.com -->
    <title>corner-left-down</title>
    <desc>Created with Sketch.</desc>
    <defs>
        <linearGradient x1="100%" y1="-38.4918338%" x2="4.22391858%" y2="131.289043%" id="linearGradient-1">
            <stop stop-color="#47F695" offset="0%"></stop>
            <stop stop-color="#53A36F" offset="100%"></stop>
        </linearGradient>
    </defs>
    <g id="Page-1" stroke="none" stroke-width="1" fill="none" fill-rule="evenodd">
        <g id="3" transform="translate(-1013.000000, -440.000000)" fill="url(#linearGradient-1)" fill-rule="nonzero">
            <g id="corner-left-down" transform="translate(1013.000000, 440.000000)">
                <path d="M17,0 L10,0 C7.2,0 5,2.2 5,5 L5,14.6 L1.7,11.3 C1.3,10.9 0.7,10.9 0.3,11.3 C-0.1,11.7 -0.1,12.3 0.3,12.7 L5.3,17.7 C5.4,17.8 5.5,17.9 5.6,17.9 C5.7,18 5.9,18 6,18 C6.1,18 6.3,18 6.4,17.9 C6.5,17.8 6.6,17.8 6.7,17.7 L11.7,12.7 C12.1,12.3 12.1,11.7 11.7,11.3 C11.3,10.9 10.7,10.9 10.3,11.3 L7,14.6 L7,5 C7,3.3 8.3,2 10,2 L17,2 C17.6,2 18,1.6 18,1 C18,0.4 17.6,1.77635684e-15 17,0 Z" id="Path"></path>
            </g>
        </g>
    </g>
</svg>