<?xml version="1.0" encoding="UTF-8"?>
<svg width="18px" height="18px" viewBox="0 0 18 18" version="1.1" xmlns="http://www.w3.org/2000/svg" xmlns:xlink="http://www.w3.org/1999/xlink">
    <!-- Generator: Sketch 55 (78076) - https://sketchapp.com -->
    <title>corner-up-right</title>
    <desc>Created with Sketch.</desc>
    <defs>
        <linearGradient x1="99.8612076%" y1="-38.4918338%" x2="4.35098606%" y2="131.289043%" id="linearGradient-1">
            <stop stop-color="#FFB09A" offset="0%"></stop>
            <stop stop-color="#D13232" offset="100%"></stop>
        </linearGradient>
    </defs>
    <g id="Page-1" stroke="none" stroke-width="1" fill="none" fill-rule="evenodd">
        <g id="3" transform="translate(-1013.000000, -378.000000)" fill="url(#linearGradient-1)" fill-rule="nonzero">
            <g id="corner-up-right" transform="translate(1013.000000, 378.000000)">
                <path d="M17.9,6.4 C18,6.2 18,5.9 17.9,5.6 C17.8,5.5 17.8,5.4 17.7,5.3 L12.7,0.3 C12.3,-0.1 11.7,-0.1 11.3,0.3 C10.9,0.7 10.9,1.3 11.3,1.7 L14.6,5 L5,5 C2.2,5 -1.77635684e-15,7.2 -1.77635684e-15,10 L-1.77635684e-15,17 C-1.77635684e-15,17.6 0.4,18 1,18 C1.6,18 2,17.6 2,17 L2,10 C2,8.3 3.3,7 5,7 L14.6,7 L11.3,10.3 C10.9,10.7 10.9,11.3 11.3,11.7 C11.5,11.9 11.8,12 12,12 C12.2,12 12.5,11.9 12.7,11.7 L17.7,6.7 C17.8,6.6 17.9,6.5 17.9,6.4 Z" id="Path"></path>
            </g>
        </g>
    </g>
</svg>