<?xml version="1.0" encoding="UTF-8"?>
<svg width="95px" height="40px" viewBox="0 0 95 40" version="1.1" xmlns="http://www.w3.org/2000/svg" xmlns:xlink="http://www.w3.org/1999/xlink">
    <!-- Generator: Sketch 55 (78076) - https://sketchapp.com -->
    <title>hybrix - powered by - gradient</title>
    <desc>Created with Sketch.</desc>
    <defs>
        <radialGradient cx="74.2156976%" cy="95.204496%" fx="74.2156976%" fy="95.204496%" r="55.9652767%" gradientTransform="translate(0.742157,0.952045),scale(0.409891,1.000000),rotate(-103.314560),translate(-0.742157,-0.952045)" id="radialGradient-1">
            <stop stop-color="#69E1CD" offset="0%"></stop>
            <stop stop-color="#69E1CE" stop-opacity="0" offset="100%"></stop>
        </radialGradient>
        <radialGradient cx="2.29179756%" cy="10.4679511%" fx="2.29179756%" fy="10.4679511%" r="175.787753%" gradientTransform="translate(0.022918,0.104680),scale(0.409891,1.000000),rotate(-140.181476),translate(-0.022918,-0.104680)" id="radialGradient-2">
            <stop stop-color="#EAA05B" offset="0%"></stop>
            <stop stop-color="#EAA05B" stop-opacity="0.91" offset="6%"></stop>
            <stop stop-color="#EAA05B" stop-opacity="0" offset="100%"></stop>
        </radialGradient>
        <radialGradient cx="93.8898847%" cy="0.00801092336%" fx="93.8898847%" fy="0.00801092336%" r="228.208076%" gradientTransform="translate(0.938899,0.000080),scale(0.409891,1.000000),rotate(145.079025),translate(-0.938899,-0.000080)" id="radialGradient-3">
            <stop stop-color="#F252BC" offset="0%"></stop>
            <stop stop-color="#F252BC" stop-opacity="0.89" offset="32%"></stop>
            <stop stop-color="#F251BD" stop-opacity="0" offset="100%"></stop>
        </radialGradient>
        <radialGradient cx="1.7506766%" cy="17.2985795%" fx="1.7506766%" fy="17.2985795%" r="92.7904984%" gradientTransform="translate(0.017507,0.172986),scale(0.409891,1.000000),rotate(-116.021926),translate(-0.017507,-0.172986)" id="radialGradient-4">
            <stop stop-color="#EAA05B" offset="0%"></stop>
            <stop stop-color="#EAA05B" stop-opacity="0.91" offset="6%"></stop>
            <stop stop-color="#EAA05B" stop-opacity="0" offset="100%"></stop>
        </radialGradient>
        <radialGradient cx="60.5430084%" cy="110.648754%" fx="60.5430084%" fy="110.648754%" r="68.9892219%" gradientTransform="translate(0.605430,1.106488),scale(0.409891,1.000000),rotate(-96.642427),translate(-0.605430,-1.106488)" id="radialGradient-5">
            <stop stop-color="#69E1CD" offset="0%"></stop>
            <stop stop-color="#69E1CE" stop-opacity="0" offset="100%"></stop>
        </radialGradient>
        <radialGradient cx="21.9463012%" cy="99.4794904%" fx="21.9463012%" fy="99.4794904%" r="68.9892219%" gradientTransform="translate(0.219463,0.994795),scale(0.409891,1.000000),rotate(-96.642427),translate(-0.219463,-0.994795)" id="radialGradient-6">
            <stop stop-color="#69E1CD" stop-opacity="0.12" offset="0%"></stop>
            <stop stop-color="#69E1CE" stop-opacity="0" offset="100%"></stop>
        </radialGradient>
        <radialGradient cx="56.4283011%" cy="124.233624%" fx="56.4283011%" fy="124.233624%" r="54.9925549%" gradientTransform="translate(0.564283,1.242336),scale(0.409891,1.000000),rotate(-96.079614),translate(-0.564283,-1.242336)" id="radialGradient-7">
            <stop stop-color="#69E1CD" offset="0%"></stop>
            <stop stop-color="#69E1CE" stop-opacity="0" offset="100%"></stop>
        </radialGradient>
        <radialGradient cx="84.7627975%" cy="73.8053464%" fx="84.7627975%" fy="73.8053464%" r="38%" gradientTransform="translate(0.847628,0.738053),scale(0.409891,1.000000),rotate(-90.000000),translate(-0.847628,-0.738053)" id="radialGradient-8">
            <stop stop-color="#60BDC8" offset="0%"></stop>
            <stop stop-color="#60BCC8" stop-opacity="0" offset="100%"></stop>
        </radialGradient>
        <radialGradient cx="29.0434194%" cy="111.830951%" fx="29.0434194%" fy="111.830951%" r="42%" gradientTransform="translate(0.290434,1.118310),scale(0.409891,1.000000),rotate(-90.000000),translate(-0.290434,-1.118310)" id="radialGradient-9">
            <stop stop-color="#7BD2B8" offset="0%"></stop>
            <stop stop-color="#7DD1B6" stop-opacity="0" offset="100%"></stop>
        </radialGradient>
    </defs>
    <g id="Page-1" stroke="none" stroke-width="1" fill="none" fill-rule="evenodd">
        <g id="2" transform="translate(-687.000000, -828.000000)" fill-rule="nonzero">
            <g id="hybrix---powered-by---gradient" transform="translate(687.000000, 828.000000)">
                <g id="Group" transform="translate(0.000000, 1.000000)">
                    <path d="M41.5943961,10.29925 C46.2645411,10.29925 50.0645411,14.3311071 50.0645411,19.2855 C50.0645411,24.2398929 46.2645411,28.27175 41.5943961,28.27175 C40.2539208,28.2716841 38.9343931,27.9352457 37.7540097,27.2925714 L37.7540097,28.1909643 L32.5726087,28.1909643 L32.5726087,0.0204285714 L37.7540097,0.0204285714 L37.7540097,11.2779643 C38.9344275,10.6354333 40.2539577,10.2991538 41.5943961,10.29925 Z M41.5943961,22.7755357 C43.4094928,22.7755357 44.8849758,21.2095 44.8849758,19.2841071 C44.8849758,17.3587143 43.4085749,15.7931429 41.5943961,15.7931429 C39.7802174,15.7931429 38.3033575,17.3587143 38.3033575,19.2841071 C38.3033575,21.2095 39.7797585,22.7755357 41.5943961,22.7755357 Z M57.5130918,10.1766786 L57.5130918,11.1423929 C58.6924071,10.5194047 60.0010807,10.1885825 61.3314493,10.1771429 L61.3314493,15.6900714 C59.2602657,15.7327857 57.5823913,17.5388571 57.5130918,19.7836786 L57.5130918,28.3158571 L52.3004831,28.3158571 L52.3004831,10.1766786 L57.5130918,10.1766786 Z M30.181087,10.13025 L30.181087,20.0009643 L30.2067874,20.0009643 C30.1989855,20.0803571 30.1907246,20.1602143 30.181087,20.2391429 L30.181087,38.9600714 L24.714686,38.9600714 L24.714686,27.4866429 C23.6406679,27.934218 22.490219,28.1640553 21.3286473,28.1631071 C16.6965942,28.1631071 12.8786957,24.5746429 12.4505072,20.0028214 L17.9687681,20.0028214 C18.3555978,21.5525069 19.7296604,22.6412351 21.3095583,22.6498717 C22.8894562,22.6585082 24.2750686,21.5848659 24.67843,20.0395 L24.6366667,20.0395 L24.6288647,20.0056071 L24.7119324,19.6652857 L24.7160628,19.8161786 L24.7160628,10.1321071 L30.181087,10.13025 Z M64.1369324,10.0415714 L69.4417874,10.0415714 L69.4417874,28.1812143 L64.1369324,28.1812143 L64.1369324,10.0415714 Z M8.88089372,10.088 C13.4927536,10.0889286 17.3019324,13.6481429 17.7549034,18.1935 L12.2233333,18.1935 C11.8123488,16.6668475 10.4419398,15.6075443 8.87791063,15.6075443 C7.31388143,15.6075443 5.94347243,16.6668475 5.53248792,18.1935 L5.47557971,18.4256429 L5.47557971,28.3149286 L0.0133091787,28.3149286 L0.0133091787,18.1935 L0,18.1935 C0.00367149758,18.1535714 0.00917874396,18.1145714 0.0133091787,18.0755714 L0.0133091787,0.0204285714 L5.47466184,0.0204285714 L5.47466184,10.7723571 C6.5545697,10.3200568 7.71209559,10.0878101 8.88089372,10.0889286 L8.88089372,10.088 Z M85.7427778,15.60325 L85.7496618,15.60325 C83.8451257,15.6253872 82.3126991,17.1935873 82.3126991,19.1204464 C82.3126991,21.0473055 83.8451257,22.6155057 85.7496618,22.6376429 L85.7496618,28.1519643 C83.1779664,28.1532674 80.7306241,27.0325972 79.0344928,25.077 C77.3370539,27.0508507 74.8774717,28.1837964 72.2913285,28.1830721 L72.2913285,22.6673571 C73.54278,22.6819042 74.7053717,22.0148186 75.3352855,20.9207593 C75.9651988,19.8267 75.9651988,18.47455 75.3352855,17.3804907 C74.7053717,16.2864314 73.54278,15.6193458 72.2913285,15.6338929 L72.2913285,10.1186429 C74.8617609,10.1189415 77.3074914,11.2394098 79.003285,13.1936071 C80.6998193,11.2207065 83.1579365,10.0879883 85.7427778,10.088 L85.7427778,15.60325 Z M91.5148309,28.5377857 C89.5900254,28.5377857 88.0296618,26.9592377 88.0296618,25.012 C88.0296618,23.0647623 89.5900254,21.4862143 91.5148309,21.4862143 C93.4396365,21.4862143 95,23.0647623 95,25.012 C95,25.9470965 94.6328135,26.8438939 93.9792177,27.505107 C93.3256218,28.1663201 92.4391552,28.5377857 91.5148309,28.5377857 Z" id="Shape" fill="#FFFFFF"></path>
                    <path d="M41.5943961,10.29925 C46.2645411,10.29925 50.0645411,14.3311071 50.0645411,19.2855 C50.0645411,24.2398929 46.2645411,28.27175 41.5943961,28.27175 C40.2539208,28.2716841 38.9343931,27.9352457 37.7540097,27.2925714 L37.7540097,28.1909643 L32.5726087,28.1909643 L32.5726087,0.0204285714 L37.7540097,0.0204285714 L37.7540097,11.2779643 C38.9344275,10.6354333 40.2539577,10.2991538 41.5943961,10.29925 Z M41.5943961,22.7755357 C43.4094928,22.7755357 44.8849758,21.2095 44.8849758,19.2841071 C44.8849758,17.3587143 43.4085749,15.7931429 41.5943961,15.7931429 C39.7802174,15.7931429 38.3033575,17.3587143 38.3033575,19.2841071 C38.3033575,21.2095 39.7797585,22.7755357 41.5943961,22.7755357 Z M57.5130918,10.1766786 L57.5130918,11.1423929 C58.6924071,10.5194047 60.0010807,10.1885825 61.3314493,10.1771429 L61.3314493,15.6900714 C59.2602657,15.7327857 57.5823913,17.5388571 57.5130918,19.7836786 L57.5130918,28.3158571 L52.3004831,28.3158571 L52.3004831,10.1766786 L57.5130918,10.1766786 Z M30.181087,10.13025 L30.181087,20.0009643 L30.2067874,20.0009643 C30.1989855,20.0803571 30.1907246,20.1602143 30.181087,20.2391429 L30.181087,38.9600714 L24.714686,38.9600714 L24.714686,27.4866429 C23.6406679,27.934218 22.490219,28.1640553 21.3286473,28.1631071 C16.6965942,28.1631071 12.8786957,24.5746429 12.4505072,20.0028214 L17.9687681,20.0028214 C18.3555978,21.5525069 19.7296604,22.6412351 21.3095583,22.6498717 C22.8894562,22.6585082 24.2750686,21.5848659 24.67843,20.0395 L24.6366667,20.0395 L24.6288647,20.0056071 L24.7119324,19.6652857 L24.7160628,19.8161786 L24.7160628,10.1321071 L30.181087,10.13025 Z M64.1369324,10.0415714 L69.4417874,10.0415714 L69.4417874,28.1812143 L64.1369324,28.1812143 L64.1369324,10.0415714 Z M8.88089372,10.088 C13.4927536,10.0889286 17.3019324,13.6481429 17.7549034,18.1935 L12.2233333,18.1935 C11.8123488,16.6668475 10.4419398,15.6075443 8.87791063,15.6075443 C7.31388143,15.6075443 5.94347243,16.6668475 5.53248792,18.1935 L5.47557971,18.4256429 L5.47557971,28.3149286 L0.0133091787,28.3149286 L0.0133091787,18.1935 L0,18.1935 C0.00367149758,18.1535714 0.00917874396,18.1145714 0.0133091787,18.0755714 L0.0133091787,0.0204285714 L5.47466184,0.0204285714 L5.47466184,10.7723571 C6.5545697,10.3200568 7.71209559,10.0878101 8.88089372,10.0889286 L8.88089372,10.088 Z M85.7427778,15.60325 L85.7496618,15.60325 C83.8451257,15.6253872 82.3126991,17.1935873 82.3126991,19.1204464 C82.3126991,21.0473055 83.8451257,22.6155057 85.7496618,22.6376429 L85.7496618,28.1519643 C83.1779664,28.1532674 80.7306241,27.0325972 79.0344928,25.077 C77.3370539,27.0508507 74.8774717,28.1837964 72.2913285,28.1830721 L72.2913285,22.6673571 C73.54278,22.6819042 74.7053717,22.0148186 75.3352855,20.9207593 C75.9651988,19.8267 75.9651988,18.47455 75.3352855,17.3804907 C74.7053717,16.2864314 73.54278,15.6193458 72.2913285,15.6338929 L72.2913285,10.1186429 C74.8617609,10.1189415 77.3074914,11.2394098 79.003285,13.1936071 C80.6998193,11.2207065 83.1579365,10.0879883 85.7427778,10.088 L85.7427778,15.60325 Z M91.5148309,28.5377857 C89.5900254,28.5377857 88.0296618,26.9592377 88.0296618,25.012 C88.0296618,23.0647623 89.5900254,21.4862143 91.5148309,21.4862143 C93.4396365,21.4862143 95,23.0647623 95,25.012 C95,25.9470965 94.6328135,26.8438939 93.9792177,27.505107 C93.3256218,28.1663201 92.4391552,28.5377857 91.5148309,28.5377857 Z" id="Shape" fill-opacity="0.5" fill="#8F7BB6"></path>
                    <path d="M41.5943961,10.29925 C46.2645411,10.29925 50.0645411,14.3311071 50.0645411,19.2855 C50.0645411,24.2398929 46.2645411,28.27175 41.5943961,28.27175 C40.2539208,28.2716841 38.9343931,27.9352457 37.7540097,27.2925714 L37.7540097,28.1909643 L32.5726087,28.1909643 L32.5726087,0.0204285714 L37.7540097,0.0204285714 L37.7540097,11.2779643 C38.9344275,10.6354333 40.2539577,10.2991538 41.5943961,10.29925 Z M41.5943961,22.7755357 C43.4094928,22.7755357 44.8849758,21.2095 44.8849758,19.2841071 C44.8849758,17.3587143 43.4085749,15.7931429 41.5943961,15.7931429 C39.7802174,15.7931429 38.3033575,17.3587143 38.3033575,19.2841071 C38.3033575,21.2095 39.7797585,22.7755357 41.5943961,22.7755357 Z M57.5130918,10.1766786 L57.5130918,11.1423929 C58.6924071,10.5194047 60.0010807,10.1885825 61.3314493,10.1771429 L61.3314493,15.6900714 C59.2602657,15.7327857 57.5823913,17.5388571 57.5130918,19.7836786 L57.5130918,28.3158571 L52.3004831,28.3158571 L52.3004831,10.1766786 L57.5130918,10.1766786 Z M30.181087,10.13025 L30.181087,20.0009643 L30.2067874,20.0009643 C30.1989855,20.0803571 30.1907246,20.1602143 30.181087,20.2391429 L30.181087,38.9600714 L24.714686,38.9600714 L24.714686,27.4866429 C23.6406679,27.934218 22.490219,28.1640553 21.3286473,28.1631071 C16.6965942,28.1631071 12.8786957,24.5746429 12.4505072,20.0028214 L17.9687681,20.0028214 C18.3555978,21.5525069 19.7296604,22.6412351 21.3095583,22.6498717 C22.8894562,22.6585082 24.2750686,21.5848659 24.67843,20.0395 L24.6366667,20.0395 L24.6288647,20.0056071 L24.7119324,19.6652857 L24.7160628,19.8161786 L24.7160628,10.1321071 L30.181087,10.13025 Z M64.1369324,10.0415714 L69.4417874,10.0415714 L69.4417874,28.1812143 L64.1369324,28.1812143 L64.1369324,10.0415714 Z M8.88089372,10.088 C13.4927536,10.0889286 17.3019324,13.6481429 17.7549034,18.1935 L12.2233333,18.1935 C11.8123488,16.6668475 10.4419398,15.6075443 8.87791063,15.6075443 C7.31388143,15.6075443 5.94347243,16.6668475 5.53248792,18.1935 L5.47557971,18.4256429 L5.47557971,28.3149286 L0.0133091787,28.3149286 L0.0133091787,18.1935 L0,18.1935 C0.00367149758,18.1535714 0.00917874396,18.1145714 0.0133091787,18.0755714 L0.0133091787,0.0204285714 L5.47466184,0.0204285714 L5.47466184,10.7723571 C6.5545697,10.3200568 7.71209559,10.0878101 8.88089372,10.0889286 L8.88089372,10.088 Z M85.7427778,15.60325 L85.7496618,15.60325 C83.8451257,15.6253872 82.3126991,17.1935873 82.3126991,19.1204464 C82.3126991,21.0473055 83.8451257,22.6155057 85.7496618,22.6376429 L85.7496618,28.1519643 C83.1779664,28.1532674 80.7306241,27.0325972 79.0344928,25.077 C77.3370539,27.0508507 74.8774717,28.1837964 72.2913285,28.1830721 L72.2913285,22.6673571 C73.54278,22.6819042 74.7053717,22.0148186 75.3352855,20.9207593 C75.9651988,19.8267 75.9651988,18.47455 75.3352855,17.3804907 C74.7053717,16.2864314 73.54278,15.6193458 72.2913285,15.6338929 L72.2913285,10.1186429 C74.8617609,10.1189415 77.3074914,11.2394098 79.003285,13.1936071 C80.6998193,11.2207065 83.1579365,10.0879883 85.7427778,10.088 L85.7427778,15.60325 Z M91.5148309,28.5377857 C89.5900254,28.5377857 88.0296618,26.9592377 88.0296618,25.012 C88.0296618,23.0647623 89.5900254,21.4862143 91.5148309,21.4862143 C93.4396365,21.4862143 95,23.0647623 95,25.012 C95,25.9470965 94.6328135,26.8438939 93.9792177,27.505107 C93.3256218,28.1663201 92.4391552,28.5377857 91.5148309,28.5377857 Z" id="Shape" fill="url(#radialGradient-1)"></path>
                    <path d="M41.5943961,10.29925 C46.2645411,10.29925 50.0645411,14.3311071 50.0645411,19.2855 C50.0645411,24.2398929 46.2645411,28.27175 41.5943961,28.27175 C40.2539208,28.2716841 38.9343931,27.9352457 37.7540097,27.2925714 L37.7540097,28.1909643 L32.5726087,28.1909643 L32.5726087,0.0204285714 L37.7540097,0.0204285714 L37.7540097,11.2779643 C38.9344275,10.6354333 40.2539577,10.2991538 41.5943961,10.29925 Z M41.5943961,22.7755357 C43.4094928,22.7755357 44.8849758,21.2095 44.8849758,19.2841071 C44.8849758,17.3587143 43.4085749,15.7931429 41.5943961,15.7931429 C39.7802174,15.7931429 38.3033575,17.3587143 38.3033575,19.2841071 C38.3033575,21.2095 39.7797585,22.7755357 41.5943961,22.7755357 Z M57.5130918,10.1766786 L57.5130918,11.1423929 C58.6924071,10.5194047 60.0010807,10.1885825 61.3314493,10.1771429 L61.3314493,15.6900714 C59.2602657,15.7327857 57.5823913,17.5388571 57.5130918,19.7836786 L57.5130918,28.3158571 L52.3004831,28.3158571 L52.3004831,10.1766786 L57.5130918,10.1766786 Z M30.181087,10.13025 L30.181087,20.0009643 L30.2067874,20.0009643 C30.1989855,20.0803571 30.1907246,20.1602143 30.181087,20.2391429 L30.181087,38.9600714 L24.714686,38.9600714 L24.714686,27.4866429 C23.6406679,27.934218 22.490219,28.1640553 21.3286473,28.1631071 C16.6965942,28.1631071 12.8786957,24.5746429 12.4505072,20.0028214 L17.9687681,20.0028214 C18.3555978,21.5525069 19.7296604,22.6412351 21.3095583,22.6498717 C22.8894562,22.6585082 24.2750686,21.5848659 24.67843,20.0395 L24.6366667,20.0395 L24.6288647,20.0056071 L24.7119324,19.6652857 L24.7160628,19.8161786 L24.7160628,10.1321071 L30.181087,10.13025 Z M64.1369324,10.0415714 L69.4417874,10.0415714 L69.4417874,28.1812143 L64.1369324,28.1812143 L64.1369324,10.0415714 Z M8.88089372,10.088 C13.4927536,10.0889286 17.3019324,13.6481429 17.7549034,18.1935 L12.2233333,18.1935 C11.8123488,16.6668475 10.4419398,15.6075443 8.87791063,15.6075443 C7.31388143,15.6075443 5.94347243,16.6668475 5.53248792,18.1935 L5.47557971,18.4256429 L5.47557971,28.3149286 L0.0133091787,28.3149286 L0.0133091787,18.1935 L0,18.1935 C0.00367149758,18.1535714 0.00917874396,18.1145714 0.0133091787,18.0755714 L0.0133091787,0.0204285714 L5.47466184,0.0204285714 L5.47466184,10.7723571 C6.5545697,10.3200568 7.71209559,10.0878101 8.88089372,10.0889286 L8.88089372,10.088 Z M85.7427778,15.60325 L85.7496618,15.60325 C83.8451257,15.6253872 82.3126991,17.1935873 82.3126991,19.1204464 C82.3126991,21.0473055 83.8451257,22.6155057 85.7496618,22.6376429 L85.7496618,28.1519643 C83.1779664,28.1532674 80.7306241,27.0325972 79.0344928,25.077 C77.3370539,27.0508507 74.8774717,28.1837964 72.2913285,28.1830721 L72.2913285,22.6673571 C73.54278,22.6819042 74.7053717,22.0148186 75.3352855,20.9207593 C75.9651988,19.8267 75.9651988,18.47455 75.3352855,17.3804907 C74.7053717,16.2864314 73.54278,15.6193458 72.2913285,15.6338929 L72.2913285,10.1186429 C74.8617609,10.1189415 77.3074914,11.2394098 79.003285,13.1936071 C80.6998193,11.2207065 83.1579365,10.0879883 85.7427778,10.088 L85.7427778,15.60325 Z M91.5148309,28.5377857 C89.5900254,28.5377857 88.0296618,26.9592377 88.0296618,25.012 C88.0296618,23.0647623 89.5900254,21.4862143 91.5148309,21.4862143 C93.4396365,21.4862143 95,23.0647623 95,25.012 C95,25.9470965 94.6328135,26.8438939 93.9792177,27.505107 C93.3256218,28.1663201 92.4391552,28.5377857 91.5148309,28.5377857 Z" id="Shape" fill="url(#radialGradient-2)"></path>
                    <path d="M41.5943961,10.29925 C46.2645411,10.29925 50.0645411,14.3311071 50.0645411,19.2855 C50.0645411,24.2398929 46.2645411,28.27175 41.5943961,28.27175 C40.2539208,28.2716841 38.9343931,27.9352457 37.7540097,27.2925714 L37.7540097,28.1909643 L32.5726087,28.1909643 L32.5726087,0.0204285714 L37.7540097,0.0204285714 L37.7540097,11.2779643 C38.9344275,10.6354333 40.2539577,10.2991538 41.5943961,10.29925 Z M41.5943961,22.7755357 C43.4094928,22.7755357 44.8849758,21.2095 44.8849758,19.2841071 C44.8849758,17.3587143 43.4085749,15.7931429 41.5943961,15.7931429 C39.7802174,15.7931429 38.3033575,17.3587143 38.3033575,19.2841071 C38.3033575,21.2095 39.7797585,22.7755357 41.5943961,22.7755357 Z M57.5130918,10.1766786 L57.5130918,11.1423929 C58.6924071,10.5194047 60.0010807,10.1885825 61.3314493,10.1771429 L61.3314493,15.6900714 C59.2602657,15.7327857 57.5823913,17.5388571 57.5130918,19.7836786 L57.5130918,28.3158571 L52.3004831,28.3158571 L52.3004831,10.1766786 L57.5130918,10.1766786 Z M30.181087,10.13025 L30.181087,20.0009643 L30.2067874,20.0009643 C30.1989855,20.0803571 30.1907246,20.1602143 30.181087,20.2391429 L30.181087,38.9600714 L24.714686,38.9600714 L24.714686,27.4866429 C23.6406679,27.934218 22.490219,28.1640553 21.3286473,28.1631071 C16.6965942,28.1631071 12.8786957,24.5746429 12.4505072,20.0028214 L17.9687681,20.0028214 C18.3555978,21.5525069 19.7296604,22.6412351 21.3095583,22.6498717 C22.8894562,22.6585082 24.2750686,21.5848659 24.67843,20.0395 L24.6366667,20.0395 L24.6288647,20.0056071 L24.7119324,19.6652857 L24.7160628,19.8161786 L24.7160628,10.1321071 L30.181087,10.13025 Z M64.1369324,10.0415714 L69.4417874,10.0415714 L69.4417874,28.1812143 L64.1369324,28.1812143 L64.1369324,10.0415714 Z M8.88089372,10.088 C13.4927536,10.0889286 17.3019324,13.6481429 17.7549034,18.1935 L12.2233333,18.1935 C11.8123488,16.6668475 10.4419398,15.6075443 8.87791063,15.6075443 C7.31388143,15.6075443 5.94347243,16.6668475 5.53248792,18.1935 L5.47557971,18.4256429 L5.47557971,28.3149286 L0.0133091787,28.3149286 L0.0133091787,18.1935 L0,18.1935 C0.00367149758,18.1535714 0.00917874396,18.1145714 0.0133091787,18.0755714 L0.0133091787,0.0204285714 L5.47466184,0.0204285714 L5.47466184,10.7723571 C6.5545697,10.3200568 7.71209559,10.0878101 8.88089372,10.0889286 L8.88089372,10.088 Z M85.7427778,15.60325 L85.7496618,15.60325 C83.8451257,15.6253872 82.3126991,17.1935873 82.3126991,19.1204464 C82.3126991,21.0473055 83.8451257,22.6155057 85.7496618,22.6376429 L85.7496618,28.1519643 C83.1779664,28.1532674 80.7306241,27.0325972 79.0344928,25.077 C77.3370539,27.0508507 74.8774717,28.1837964 72.2913285,28.1830721 L72.2913285,22.6673571 C73.54278,22.6819042 74.7053717,22.0148186 75.3352855,20.9207593 C75.9651988,19.8267 75.9651988,18.47455 75.3352855,17.3804907 C74.7053717,16.2864314 73.54278,15.6193458 72.2913285,15.6338929 L72.2913285,10.1186429 C74.8617609,10.1189415 77.3074914,11.2394098 79.003285,13.1936071 C80.6998193,11.2207065 83.1579365,10.0879883 85.7427778,10.088 L85.7427778,15.60325 Z M91.5148309,28.5377857 C89.5900254,28.5377857 88.0296618,26.9592377 88.0296618,25.012 C88.0296618,23.0647623 89.5900254,21.4862143 91.5148309,21.4862143 C93.4396365,21.4862143 95,23.0647623 95,25.012 C95,25.9470965 94.6328135,26.8438939 93.9792177,27.505107 C93.3256218,28.1663201 92.4391552,28.5377857 91.5148309,28.5377857 Z" id="Shape" fill="url(#radialGradient-3)"></path>
                    <path d="M41.5943961,10.29925 C46.2645411,10.29925 50.0645411,14.3311071 50.0645411,19.2855 C50.0645411,24.2398929 46.2645411,28.27175 41.5943961,28.27175 C40.2539208,28.2716841 38.9343931,27.9352457 37.7540097,27.2925714 L37.7540097,28.1909643 L32.5726087,28.1909643 L32.5726087,0.0204285714 L37.7540097,0.0204285714 L37.7540097,11.2779643 C38.9344275,10.6354333 40.2539577,10.2991538 41.5943961,10.29925 Z M41.5943961,22.7755357 C43.4094928,22.7755357 44.8849758,21.2095 44.8849758,19.2841071 C44.8849758,17.3587143 43.4085749,15.7931429 41.5943961,15.7931429 C39.7802174,15.7931429 38.3033575,17.3587143 38.3033575,19.2841071 C38.3033575,21.2095 39.7797585,22.7755357 41.5943961,22.7755357 Z M57.5130918,10.1766786 L57.5130918,11.1423929 C58.6924071,10.5194047 60.0010807,10.1885825 61.3314493,10.1771429 L61.3314493,15.6900714 C59.2602657,15.7327857 57.5823913,17.5388571 57.5130918,19.7836786 L57.5130918,28.3158571 L52.3004831,28.3158571 L52.3004831,10.1766786 L57.5130918,10.1766786 Z M30.181087,10.13025 L30.181087,20.0009643 L30.2067874,20.0009643 C30.1989855,20.0803571 30.1907246,20.1602143 30.181087,20.2391429 L30.181087,38.9600714 L24.714686,38.9600714 L24.714686,27.4866429 C23.6406679,27.934218 22.490219,28.1640553 21.3286473,28.1631071 C16.6965942,28.1631071 12.8786957,24.5746429 12.4505072,20.0028214 L17.9687681,20.0028214 C18.3555978,21.5525069 19.7296604,22.6412351 21.3095583,22.6498717 C22.8894562,22.6585082 24.2750686,21.5848659 24.67843,20.0395 L24.6366667,20.0395 L24.6288647,20.0056071 L24.7119324,19.6652857 L24.7160628,19.8161786 L24.7160628,10.1321071 L30.181087,10.13025 Z M64.1369324,10.0415714 L69.4417874,10.0415714 L69.4417874,28.1812143 L64.1369324,28.1812143 L64.1369324,10.0415714 Z M8.88089372,10.088 C13.4927536,10.0889286 17.3019324,13.6481429 17.7549034,18.1935 L12.2233333,18.1935 C11.8123488,16.6668475 10.4419398,15.6075443 8.87791063,15.6075443 C7.31388143,15.6075443 5.94347243,16.6668475 5.53248792,18.1935 L5.47557971,18.4256429 L5.47557971,28.3149286 L0.0133091787,28.3149286 L0.0133091787,18.1935 L0,18.1935 C0.00367149758,18.1535714 0.00917874396,18.1145714 0.0133091787,18.0755714 L0.0133091787,0.0204285714 L5.47466184,0.0204285714 L5.47466184,10.7723571 C6.5545697,10.3200568 7.71209559,10.0878101 8.88089372,10.0889286 L8.88089372,10.088 Z M85.7427778,15.60325 L85.7496618,15.60325 C83.8451257,15.6253872 82.3126991,17.1935873 82.3126991,19.1204464 C82.3126991,21.0473055 83.8451257,22.6155057 85.7496618,22.6376429 L85.7496618,28.1519643 C83.1779664,28.1532674 80.7306241,27.0325972 79.0344928,25.077 C77.3370539,27.0508507 74.8774717,28.1837964 72.2913285,28.1830721 L72.2913285,22.6673571 C73.54278,22.6819042 74.7053717,22.0148186 75.3352855,20.9207593 C75.9651988,19.8267 75.9651988,18.47455 75.3352855,17.3804907 C74.7053717,16.2864314 73.54278,15.6193458 72.2913285,15.6338929 L72.2913285,10.1186429 C74.8617609,10.1189415 77.3074914,11.2394098 79.003285,13.1936071 C80.6998193,11.2207065 83.1579365,10.0879883 85.7427778,10.088 L85.7427778,15.60325 Z M91.5148309,28.5377857 C89.5900254,28.5377857 88.0296618,26.9592377 88.0296618,25.012 C88.0296618,23.0647623 89.5900254,21.4862143 91.5148309,21.4862143 C93.4396365,21.4862143 95,23.0647623 95,25.012 C95,25.9470965 94.6328135,26.8438939 93.9792177,27.505107 C93.3256218,28.1663201 92.4391552,28.5377857 91.5148309,28.5377857 Z" id="Shape" fill="url(#radialGradient-4)"></path>
                    <path d="M41.5943961,10.29925 C46.2645411,10.29925 50.0645411,14.3311071 50.0645411,19.2855 C50.0645411,24.2398929 46.2645411,28.27175 41.5943961,28.27175 C40.2539208,28.2716841 38.9343931,27.9352457 37.7540097,27.2925714 L37.7540097,28.1909643 L32.5726087,28.1909643 L32.5726087,0.0204285714 L37.7540097,0.0204285714 L37.7540097,11.2779643 C38.9344275,10.6354333 40.2539577,10.2991538 41.5943961,10.29925 Z M41.5943961,22.7755357 C43.4094928,22.7755357 44.8849758,21.2095 44.8849758,19.2841071 C44.8849758,17.3587143 43.4085749,15.7931429 41.5943961,15.7931429 C39.7802174,15.7931429 38.3033575,17.3587143 38.3033575,19.2841071 C38.3033575,21.2095 39.7797585,22.7755357 41.5943961,22.7755357 Z M57.5130918,10.1766786 L57.5130918,11.1423929 C58.6924071,10.5194047 60.0010807,10.1885825 61.3314493,10.1771429 L61.3314493,15.6900714 C59.2602657,15.7327857 57.5823913,17.5388571 57.5130918,19.7836786 L57.5130918,28.3158571 L52.3004831,28.3158571 L52.3004831,10.1766786 L57.5130918,10.1766786 Z M30.181087,10.13025 L30.181087,20.0009643 L30.2067874,20.0009643 C30.1989855,20.0803571 30.1907246,20.1602143 30.181087,20.2391429 L30.181087,38.9600714 L24.714686,38.9600714 L24.714686,27.4866429 C23.6406679,27.934218 22.490219,28.1640553 21.3286473,28.1631071 C16.6965942,28.1631071 12.8786957,24.5746429 12.4505072,20.0028214 L17.9687681,20.0028214 C18.3555978,21.5525069 19.7296604,22.6412351 21.3095583,22.6498717 C22.8894562,22.6585082 24.2750686,21.5848659 24.67843,20.0395 L24.6366667,20.0395 L24.6288647,20.0056071 L24.7119324,19.6652857 L24.7160628,19.8161786 L24.7160628,10.1321071 L30.181087,10.13025 Z M64.1369324,10.0415714 L69.4417874,10.0415714 L69.4417874,28.1812143 L64.1369324,28.1812143 L64.1369324,10.0415714 Z M8.88089372,10.088 C13.4927536,10.0889286 17.3019324,13.6481429 17.7549034,18.1935 L12.2233333,18.1935 C11.8123488,16.6668475 10.4419398,15.6075443 8.87791063,15.6075443 C7.31388143,15.6075443 5.94347243,16.6668475 5.53248792,18.1935 L5.47557971,18.4256429 L5.47557971,28.3149286 L0.0133091787,28.3149286 L0.0133091787,18.1935 L0,18.1935 C0.00367149758,18.1535714 0.00917874396,18.1145714 0.0133091787,18.0755714 L0.0133091787,0.0204285714 L5.47466184,0.0204285714 L5.47466184,10.7723571 C6.5545697,10.3200568 7.71209559,10.0878101 8.88089372,10.0889286 L8.88089372,10.088 Z M85.7427778,15.60325 L85.7496618,15.60325 C83.8451257,15.6253872 82.3126991,17.1935873 82.3126991,19.1204464 C82.3126991,21.0473055 83.8451257,22.6155057 85.7496618,22.6376429 L85.7496618,28.1519643 C83.1779664,28.1532674 80.7306241,27.0325972 79.0344928,25.077 C77.3370539,27.0508507 74.8774717,28.1837964 72.2913285,28.1830721 L72.2913285,22.6673571 C73.54278,22.6819042 74.7053717,22.0148186 75.3352855,20.9207593 C75.9651988,19.8267 75.9651988,18.47455 75.3352855,17.3804907 C74.7053717,16.2864314 73.54278,15.6193458 72.2913285,15.6338929 L72.2913285,10.1186429 C74.8617609,10.1189415 77.3074914,11.2394098 79.003285,13.1936071 C80.6998193,11.2207065 83.1579365,10.0879883 85.7427778,10.088 L85.7427778,15.60325 Z M91.5148309,28.5377857 C89.5900254,28.5377857 88.0296618,26.9592377 88.0296618,25.012 C88.0296618,23.0647623 89.5900254,21.4862143 91.5148309,21.4862143 C93.4396365,21.4862143 95,23.0647623 95,25.012 C95,25.9470965 94.6328135,26.8438939 93.9792177,27.505107 C93.3256218,28.1663201 92.4391552,28.5377857 91.5148309,28.5377857 Z" id="Shape" fill="url(#radialGradient-5)"></path>
                    <path d="M41.5943961,10.29925 C46.2645411,10.29925 50.0645411,14.3311071 50.0645411,19.2855 C50.0645411,24.2398929 46.2645411,28.27175 41.5943961,28.27175 C40.2539208,28.2716841 38.9343931,27.9352457 37.7540097,27.2925714 L37.7540097,28.1909643 L32.5726087,28.1909643 L32.5726087,0.0204285714 L37.7540097,0.0204285714 L37.7540097,11.2779643 C38.9344275,10.6354333 40.2539577,10.2991538 41.5943961,10.29925 Z M41.5943961,22.7755357 C43.4094928,22.7755357 44.8849758,21.2095 44.8849758,19.2841071 C44.8849758,17.3587143 43.4085749,15.7931429 41.5943961,15.7931429 C39.7802174,15.7931429 38.3033575,17.3587143 38.3033575,19.2841071 C38.3033575,21.2095 39.7797585,22.7755357 41.5943961,22.7755357 Z M57.5130918,10.1766786 L57.5130918,11.1423929 C58.6924071,10.5194047 60.0010807,10.1885825 61.3314493,10.1771429 L61.3314493,15.6900714 C59.2602657,15.7327857 57.5823913,17.5388571 57.5130918,19.7836786 L57.5130918,28.3158571 L52.3004831,28.3158571 L52.3004831,10.1766786 L57.5130918,10.1766786 Z M30.181087,10.13025 L30.181087,20.0009643 L30.2067874,20.0009643 C30.1989855,20.0803571 30.1907246,20.1602143 30.181087,20.2391429 L30.181087,38.9600714 L24.714686,38.9600714 L24.714686,27.4866429 C23.6406679,27.934218 22.490219,28.1640553 21.3286473,28.1631071 C16.6965942,28.1631071 12.8786957,24.5746429 12.4505072,20.0028214 L17.9687681,20.0028214 C18.3555978,21.5525069 19.7296604,22.6412351 21.3095583,22.6498717 C22.8894562,22.6585082 24.2750686,21.5848659 24.67843,20.0395 L24.6366667,20.0395 L24.6288647,20.0056071 L24.7119324,19.6652857 L24.7160628,19.8161786 L24.7160628,10.1321071 L30.181087,10.13025 Z M64.1369324,10.0415714 L69.4417874,10.0415714 L69.4417874,28.1812143 L64.1369324,28.1812143 L64.1369324,10.0415714 Z M8.88089372,10.088 C13.4927536,10.0889286 17.3019324,13.6481429 17.7549034,18.1935 L12.2233333,18.1935 C11.8123488,16.6668475 10.4419398,15.6075443 8.87791063,15.6075443 C7.31388143,15.6075443 5.94347243,16.6668475 5.53248792,18.1935 L5.47557971,18.4256429 L5.47557971,28.3149286 L0.0133091787,28.3149286 L0.0133091787,18.1935 L0,18.1935 C0.00367149758,18.1535714 0.00917874396,18.1145714 0.0133091787,18.0755714 L0.0133091787,0.0204285714 L5.47466184,0.0204285714 L5.47466184,10.7723571 C6.5545697,10.3200568 7.71209559,10.0878101 8.88089372,10.0889286 L8.88089372,10.088 Z M85.7427778,15.60325 L85.7496618,15.60325 C83.8451257,15.6253872 82.3126991,17.1935873 82.3126991,19.1204464 C82.3126991,21.0473055 83.8451257,22.6155057 85.7496618,22.6376429 L85.7496618,28.1519643 C83.1779664,28.1532674 80.7306241,27.0325972 79.0344928,25.077 C77.3370539,27.0508507 74.8774717,28.1837964 72.2913285,28.1830721 L72.2913285,22.6673571 C73.54278,22.6819042 74.7053717,22.0148186 75.3352855,20.9207593 C75.9651988,19.8267 75.9651988,18.47455 75.3352855,17.3804907 C74.7053717,16.2864314 73.54278,15.6193458 72.2913285,15.6338929 L72.2913285,10.1186429 C74.8617609,10.1189415 77.3074914,11.2394098 79.003285,13.1936071 C80.6998193,11.2207065 83.1579365,10.0879883 85.7427778,10.088 L85.7427778,15.60325 Z M91.5148309,28.5377857 C89.5900254,28.5377857 88.0296618,26.9592377 88.0296618,25.012 C88.0296618,23.0647623 89.5900254,21.4862143 91.5148309,21.4862143 C93.4396365,21.4862143 95,23.0647623 95,25.012 C95,25.9470965 94.6328135,26.8438939 93.9792177,27.505107 C93.3256218,28.1663201 92.4391552,28.5377857 91.5148309,28.5377857 Z" id="Shape" fill="url(#radialGradient-6)"></path>
                    <path d="M41.5943961,10.29925 C46.2645411,10.29925 50.0645411,14.3311071 50.0645411,19.2855 C50.0645411,24.2398929 46.2645411,28.27175 41.5943961,28.27175 C40.2539208,28.2716841 38.9343931,27.9352457 37.7540097,27.2925714 L37.7540097,28.1909643 L32.5726087,28.1909643 L32.5726087,0.0204285714 L37.7540097,0.0204285714 L37.7540097,11.2779643 C38.9344275,10.6354333 40.2539577,10.2991538 41.5943961,10.29925 Z M41.5943961,22.7755357 C43.4094928,22.7755357 44.8849758,21.2095 44.8849758,19.2841071 C44.8849758,17.3587143 43.4085749,15.7931429 41.5943961,15.7931429 C39.7802174,15.7931429 38.3033575,17.3587143 38.3033575,19.2841071 C38.3033575,21.2095 39.7797585,22.7755357 41.5943961,22.7755357 Z M57.5130918,10.1766786 L57.5130918,11.1423929 C58.6924071,10.5194047 60.0010807,10.1885825 61.3314493,10.1771429 L61.3314493,15.6900714 C59.2602657,15.7327857 57.5823913,17.5388571 57.5130918,19.7836786 L57.5130918,28.3158571 L52.3004831,28.3158571 L52.3004831,10.1766786 L57.5130918,10.1766786 Z M30.181087,10.13025 L30.181087,20.0009643 L30.2067874,20.0009643 C30.1989855,20.0803571 30.1907246,20.1602143 30.181087,20.2391429 L30.181087,38.9600714 L24.714686,38.9600714 L24.714686,27.4866429 C23.6406679,27.934218 22.490219,28.1640553 21.3286473,28.1631071 C16.6965942,28.1631071 12.8786957,24.5746429 12.4505072,20.0028214 L17.9687681,20.0028214 C18.3555978,21.5525069 19.7296604,22.6412351 21.3095583,22.6498717 C22.8894562,22.6585082 24.2750686,21.5848659 24.67843,20.0395 L24.6366667,20.0395 L24.6288647,20.0056071 L24.7119324,19.6652857 L24.7160628,19.8161786 L24.7160628,10.1321071 L30.181087,10.13025 Z M64.1369324,10.0415714 L69.4417874,10.0415714 L69.4417874,28.1812143 L64.1369324,28.1812143 L64.1369324,10.0415714 Z M8.88089372,10.088 C13.4927536,10.0889286 17.3019324,13.6481429 17.7549034,18.1935 L12.2233333,18.1935 C11.8123488,16.6668475 10.4419398,15.6075443 8.87791063,15.6075443 C7.31388143,15.6075443 5.94347243,16.6668475 5.53248792,18.1935 L5.47557971,18.4256429 L5.47557971,28.3149286 L0.0133091787,28.3149286 L0.0133091787,18.1935 L0,18.1935 C0.00367149758,18.1535714 0.00917874396,18.1145714 0.0133091787,18.0755714 L0.0133091787,0.0204285714 L5.47466184,0.0204285714 L5.47466184,10.7723571 C6.5545697,10.3200568 7.71209559,10.0878101 8.88089372,10.0889286 L8.88089372,10.088 Z M85.7427778,15.60325 L85.7496618,15.60325 C83.8451257,15.6253872 82.3126991,17.1935873 82.3126991,19.1204464 C82.3126991,21.0473055 83.8451257,22.6155057 85.7496618,22.6376429 L85.7496618,28.1519643 C83.1779664,28.1532674 80.7306241,27.0325972 79.0344928,25.077 C77.3370539,27.0508507 74.8774717,28.1837964 72.2913285,28.1830721 L72.2913285,22.6673571 C73.54278,22.6819042 74.7053717,22.0148186 75.3352855,20.9207593 C75.9651988,19.8267 75.9651988,18.47455 75.3352855,17.3804907 C74.7053717,16.2864314 73.54278,15.6193458 72.2913285,15.6338929 L72.2913285,10.1186429 C74.8617609,10.1189415 77.3074914,11.2394098 79.003285,13.1936071 C80.6998193,11.2207065 83.1579365,10.0879883 85.7427778,10.088 L85.7427778,15.60325 Z M91.5148309,28.5377857 C89.5900254,28.5377857 88.0296618,26.9592377 88.0296618,25.012 C88.0296618,23.0647623 89.5900254,21.4862143 91.5148309,21.4862143 C93.4396365,21.4862143 95,23.0647623 95,25.012 C95,25.9470965 94.6328135,26.8438939 93.9792177,27.505107 C93.3256218,28.1663201 92.4391552,28.5377857 91.5148309,28.5377857 Z" id="Shape" fill="url(#radialGradient-7)"></path>
                    <path d="M41.5943961,10.29925 C46.2645411,10.29925 50.0645411,14.3311071 50.0645411,19.2855 C50.0645411,24.2398929 46.2645411,28.27175 41.5943961,28.27175 C40.2539208,28.2716841 38.9343931,27.9352457 37.7540097,27.2925714 L37.7540097,28.1909643 L32.5726087,28.1909643 L32.5726087,0.0204285714 L37.7540097,0.0204285714 L37.7540097,11.2779643 C38.9344275,10.6354333 40.2539577,10.2991538 41.5943961,10.29925 Z M41.5943961,22.7755357 C43.4094928,22.7755357 44.8849758,21.2095 44.8849758,19.2841071 C44.8849758,17.3587143 43.4085749,15.7931429 41.5943961,15.7931429 C39.7802174,15.7931429 38.3033575,17.3587143 38.3033575,19.2841071 C38.3033575,21.2095 39.7797585,22.7755357 41.5943961,22.7755357 Z M57.5130918,10.1766786 L57.5130918,11.1423929 C58.6924071,10.5194047 60.0010807,10.1885825 61.3314493,10.1771429 L61.3314493,15.6900714 C59.2602657,15.7327857 57.5823913,17.5388571 57.5130918,19.7836786 L57.5130918,28.3158571 L52.3004831,28.3158571 L52.3004831,10.1766786 L57.5130918,10.1766786 Z M30.181087,10.13025 L30.181087,20.0009643 L30.2067874,20.0009643 C30.1989855,20.0803571 30.1907246,20.1602143 30.181087,20.2391429 L30.181087,38.9600714 L24.714686,38.9600714 L24.714686,27.4866429 C23.6406679,27.934218 22.490219,28.1640553 21.3286473,28.1631071 C16.6965942,28.1631071 12.8786957,24.5746429 12.4505072,20.0028214 L17.9687681,20.0028214 C18.3555978,21.5525069 19.7296604,22.6412351 21.3095583,22.6498717 C22.8894562,22.6585082 24.2750686,21.5848659 24.67843,20.0395 L24.6366667,20.0395 L24.6288647,20.0056071 L24.7119324,19.6652857 L24.7160628,19.8161786 L24.7160628,10.1321071 L30.181087,10.13025 Z M64.1369324,10.0415714 L69.4417874,10.0415714 L69.4417874,28.1812143 L64.1369324,28.1812143 L64.1369324,10.0415714 Z M8.88089372,10.088 C13.4927536,10.0889286 17.3019324,13.6481429 17.7549034,18.1935 L12.2233333,18.1935 C11.8123488,16.6668475 10.4419398,15.6075443 8.87791063,15.6075443 C7.31388143,15.6075443 5.94347243,16.6668475 5.53248792,18.1935 L5.47557971,18.4256429 L5.47557971,28.3149286 L0.0133091787,28.3149286 L0.0133091787,18.1935 L0,18.1935 C0.00367149758,18.1535714 0.00917874396,18.1145714 0.0133091787,18.0755714 L0.0133091787,0.0204285714 L5.47466184,0.0204285714 L5.47466184,10.7723571 C6.5545697,10.3200568 7.71209559,10.0878101 8.88089372,10.0889286 L8.88089372,10.088 Z M85.7427778,15.60325 L85.7496618,15.60325 C83.8451257,15.6253872 82.3126991,17.1935873 82.3126991,19.1204464 C82.3126991,21.0473055 83.8451257,22.6155057 85.7496618,22.6376429 L85.7496618,28.1519643 C83.1779664,28.1532674 80.7306241,27.0325972 79.0344928,25.077 C77.3370539,27.0508507 74.8774717,28.1837964 72.2913285,28.1830721 L72.2913285,22.6673571 C73.54278,22.6819042 74.7053717,22.0148186 75.3352855,20.9207593 C75.9651988,19.8267 75.9651988,18.47455 75.3352855,17.3804907 C74.7053717,16.2864314 73.54278,15.6193458 72.2913285,15.6338929 L72.2913285,10.1186429 C74.8617609,10.1189415 77.3074914,11.2394098 79.003285,13.1936071 C80.6998193,11.2207065 83.1579365,10.0879883 85.7427778,10.088 L85.7427778,15.60325 Z M91.5148309,28.5377857 C89.5900254,28.5377857 88.0296618,26.9592377 88.0296618,25.012 C88.0296618,23.0647623 89.5900254,21.4862143 91.5148309,21.4862143 C93.4396365,21.4862143 95,23.0647623 95,25.012 C95,25.9470965 94.6328135,26.8438939 93.9792177,27.505107 C93.3256218,28.1663201 92.4391552,28.5377857 91.5148309,28.5377857 Z" id="Shape" fill="url(#radialGradient-8)"></path>
                    <path d="M41.5943961,10.29925 C46.2645411,10.29925 50.0645411,14.3311071 50.0645411,19.2855 C50.0645411,24.2398929 46.2645411,28.27175 41.5943961,28.27175 C40.2539208,28.2716841 38.9343931,27.9352457 37.7540097,27.2925714 L37.7540097,28.1909643 L32.5726087,28.1909643 L32.5726087,0.0204285714 L37.7540097,0.0204285714 L37.7540097,11.2779643 C38.9344275,10.6354333 40.2539577,10.2991538 41.5943961,10.29925 Z M41.5943961,22.7755357 C43.4094928,22.7755357 44.8849758,21.2095 44.8849758,19.2841071 C44.8849758,17.3587143 43.4085749,15.7931429 41.5943961,15.7931429 C39.7802174,15.7931429 38.3033575,17.3587143 38.3033575,19.2841071 C38.3033575,21.2095 39.7797585,22.7755357 41.5943961,22.7755357 Z M57.5130918,10.1766786 L57.5130918,11.1423929 C58.6924071,10.5194047 60.0010807,10.1885825 61.3314493,10.1771429 L61.3314493,15.6900714 C59.2602657,15.7327857 57.5823913,17.5388571 57.5130918,19.7836786 L57.5130918,28.3158571 L52.3004831,28.3158571 L52.3004831,10.1766786 L57.5130918,10.1766786 Z M30.181087,10.13025 L30.181087,20.0009643 L30.2067874,20.0009643 C30.1989855,20.0803571 30.1907246,20.1602143 30.181087,20.2391429 L30.181087,38.9600714 L24.714686,38.9600714 L24.714686,27.4866429 C23.6406679,27.934218 22.490219,28.1640553 21.3286473,28.1631071 C16.6965942,28.1631071 12.8786957,24.5746429 12.4505072,20.0028214 L17.9687681,20.0028214 C18.3555978,21.5525069 19.7296604,22.6412351 21.3095583,22.6498717 C22.8894562,22.6585082 24.2750686,21.5848659 24.67843,20.0395 L24.6366667,20.0395 L24.6288647,20.0056071 L24.7119324,19.6652857 L24.7160628,19.8161786 L24.7160628,10.1321071 L30.181087,10.13025 Z M64.1369324,10.0415714 L69.4417874,10.0415714 L69.4417874,28.1812143 L64.1369324,28.1812143 L64.1369324,10.0415714 Z M8.88089372,10.088 C13.4927536,10.0889286 17.3019324,13.6481429 17.7549034,18.1935 L12.2233333,18.1935 C11.8123488,16.6668475 10.4419398,15.6075443 8.87791063,15.6075443 C7.31388143,15.6075443 5.94347243,16.6668475 5.53248792,18.1935 L5.47557971,18.4256429 L5.47557971,28.3149286 L0.0133091787,28.3149286 L0.0133091787,18.1935 L0,18.1935 C0.00367149758,18.1535714 0.00917874396,18.1145714 0.0133091787,18.0755714 L0.0133091787,0.0204285714 L5.47466184,0.0204285714 L5.47466184,10.7723571 C6.5545697,10.3200568 7.71209559,10.0878101 8.88089372,10.0889286 L8.88089372,10.088 Z M85.7427778,15.60325 L85.7496618,15.60325 C83.8451257,15.6253872 82.3126991,17.1935873 82.3126991,19.1204464 C82.3126991,21.0473055 83.8451257,22.6155057 85.7496618,22.6376429 L85.7496618,28.1519643 C83.1779664,28.1532674 80.7306241,27.0325972 79.0344928,25.077 C77.3370539,27.0508507 74.8774717,28.1837964 72.2913285,28.1830721 L72.2913285,22.6673571 C73.54278,22.6819042 74.7053717,22.0148186 75.3352855,20.9207593 C75.9651988,19.8267 75.9651988,18.47455 75.3352855,17.3804907 C74.7053717,16.2864314 73.54278,15.6193458 72.2913285,15.6338929 L72.2913285,10.1186429 C74.8617609,10.1189415 77.3074914,11.2394098 79.003285,13.1936071 C80.6998193,11.2207065 83.1579365,10.0879883 85.7427778,10.088 L85.7427778,15.60325 Z M91.5148309,28.5377857 C89.5900254,28.5377857 88.0296618,26.9592377 88.0296618,25.012 C88.0296618,23.0647623 89.5900254,21.4862143 91.5148309,21.4862143 C93.4396365,21.4862143 95,23.0647623 95,25.012 C95,25.9470965 94.6328135,26.8438939 93.9792177,27.505107 C93.3256218,28.1663201 92.4391552,28.5377857 91.5148309,28.5377857 Z" id="Shape" fill="url(#radialGradient-9)"></path>
                    <ellipse id="Oval" fill="#68B6C7" cx="91.5148309" cy="25.0115357" rx="3.48516908" ry="3.52578571"></ellipse>
                </g>
                <g id="Group" transform="translate(44.000000, 0.000000)" fill="#FB64A4">
                    <path d="M0.0274509804,1.89756098 L0.558627451,1.89756098 L0.784183007,2.20682927 C0.972271282,2.0582218 1.18160251,1.94292101 1.40411765,1.86536585 C1.60547544,1.78576643 1.81763488,1.74161283 2.03228758,1.73463415 C2.6069281,1.73463415 3.04721133,1.94601626 3.35313725,2.36878049 C3.65906318,2.79154472 3.81156863,3.31821138 3.81065359,3.94878049 C3.81065359,4.57837399 3.65372549,5.10487805 3.33986928,5.52829268 C3.02601307,5.95170732 2.58969499,6.16308941 2.03091503,6.16243902 C1.87146958,6.1591962 1.71314345,6.13327624 1.56013072,6.08536585 C1.38829368,6.03608493 1.22245894,5.96552332 1.06601307,5.87512195 L1.06601307,7.85902439 L0.0274509804,7.94439024 L0.0274509804,1.89756098 Z M1.75869281,5.21170732 C2.11830065,5.21170732 2.37069717,5.07300815 2.51588235,4.79560976 C2.6554639,4.5383309 2.73032376,4.24696145 2.73320261,3.9497561 C2.73832535,3.64445155 2.67179978,3.34262302 2.5396732,3.07170732 C2.41126362,2.81447155 2.15093682,2.68569106 1.75869281,2.68536585 C1.63920392,2.68761955 1.52084854,2.71051839 1.40823529,2.75317073 C1.28771376,2.79640795 1.17274513,2.85556744 1.06601307,2.92926829 L1.06601307,4.97121951 C1.17434262,5.04078829 1.28900169,5.09848098 1.40823529,5.14341463 C1.52045141,5.18769361 1.63904145,5.21080293 1.75869281,5.21170732 Z" id="Shape"></path>
                    <path d="M6.45372549,6.16487805 C5.83607843,6.15902439 5.35416124,5.95869917 5.00797386,5.56390244 C4.66178648,5.16910571 4.48869281,4.63674797 4.48869281,3.96682927 C4.48869281,3.30308943 4.66986928,2.77365854 5.03222222,2.37853659 C5.39457516,1.98341463 5.88976033,1.78585366 6.51777778,1.78585366 C7.16745098,1.78585366 7.67071895,1.99056911 8.0275817,2.4 C8.38444444,2.80943089 8.56287582,3.34601626 8.56287582,4.0097561 C8.56287582,4.67382114 8.36965143,5.19756098 7.98320261,5.58097561 C7.5967538,5.96439024 7.0869281,6.15902439 6.45372549,6.16487805 Z M7.4845098,4.0097561 C7.4845098,3.61463415 7.40261438,3.30406504 7.23882353,3.07804878 C7.07503268,2.85203252 6.84291941,2.73902439 6.54248366,2.73902439 C6.23747275,2.73902439 5.99864922,2.83918699 5.82601307,3.0395122 C5.65337692,3.2398374 5.56736385,3.54617886 5.56797386,3.95853659 C5.56797386,4.37056911 5.64193901,4.68243902 5.78986928,4.89414634 C5.93779955,5.10585366 6.16457516,5.21170732 6.47019608,5.21170732 C6.77063182,5.21170732 7.01464052,5.11577234 7.20222222,4.92390244 C7.38980392,4.73203252 7.4838998,4.42731707 7.4845098,4.0097561 Z" id="Shape"></path>
                    <polygon id="Path" points="12.726732 6.06195122 11.913268 3.51170732 11.1322876 6.06195122 10.248366 6.06195122 8.95176471 2.05219512 10.0305882 1.89756098 10.7168627 4.31902439 11.3610458 1.89756098 12.5126144 1.89756098 13.1988889 4.31902439 13.8352941 1.89756098 14.938366 1.89756098 13.6115686 6.06195122"></polygon>
                    <path d="M17.5018301,6.16487805 C16.8256209,6.16487805 16.2929194,5.96747966 15.9037255,5.57268293 C15.5145316,5.1778862 15.3199346,4.64829268 15.3199346,3.98390244 C15.3199346,3.3201626 15.4957734,2.78780488 15.847451,2.38682927 C16.1991286,1.98585366 16.6781482,1.78552845 17.2845098,1.78585366 C17.8966667,1.78585366 18.3464052,2.00195122 18.6337255,2.43414634 C18.9210458,2.86634146 19.0645534,3.37723577 19.0642484,3.96682927 L19.0642484,4.30829268 L16.4307843,4.30829268 C16.4700706,4.56601389 16.5961333,4.7996241 16.7853595,4.96536585 C16.9732462,5.12796746 17.2201525,5.20926829 17.5260784,5.20926829 C17.6884616,5.2115219 17.8501962,5.18700493 18.0055556,5.13658537 C18.1742111,5.07649488 18.3394937,5.00613532 18.5005882,4.92585366 L18.8066667,5.73317073 C18.6086998,5.88962137 18.3825252,6.00072873 18.1423529,6.0595122 C17.9334261,6.12112805 17.7184593,6.15649 17.5018301,6.16487805 Z M18.0718954,3.56341463 C18.0182135,3.28308943 17.921525,3.07560976 17.7818301,2.94097561 C17.6382174,2.80471777 17.4510308,2.73242939 17.2588889,2.73902439 C17.060303,2.73269168 16.8670274,2.80795994 16.7190196,2.94926829 C16.5744444,3.0897561 16.4805011,3.29447155 16.4371895,3.56341463 L18.0718954,3.56341463 Z" id="Shape"></path>
                    <path d="M22.0115686,1.89756098 L22.2211111,2.79073171 C22.0438998,2.79073171 21.8386275,2.84504065 21.6052941,2.95365854 C21.3535257,3.07536312 21.1210677,3.23812599 20.9162745,3.43609756 L20.9162745,6.06195122 L19.8694771,6.06195122 L19.8694771,1.89756098 L20.4184967,1.89756098 L20.7648366,2.50731707 C20.9450643,2.34472081 21.1423482,2.20492763 21.3527451,2.09073171 C21.5544125,1.97033403 21.7805184,1.90403852 22.0115686,1.89756098 Z" id="Path"></path>
                    <path d="M24.7735948,6.16487805 C24.0973856,6.16487805 23.5645316,5.96747966 23.1750327,5.57268293 C22.7855338,5.1778862 22.5909368,4.64829268 22.5912418,3.98390244 C22.5912418,3.3201626 22.7670806,2.78780488 23.1187582,2.38682927 C23.4704357,1.98585366 23.9496078,1.78552845 24.5562745,1.78585366 C25.1684314,1.78585366 25.6180174,2.00195122 25.9050327,2.43414634 C26.1920479,2.86634146 26.335708,3.37723577 26.3360131,3.96682927 L26.3360131,4.30829268 L23.702549,4.30829268 C23.7418354,4.56601389 23.867898,4.7996241 24.0571242,4.96536585 C24.2447059,5.12796746 24.4916122,5.20926829 24.7978431,5.20926829 C24.9600742,5.21148722 25.121653,5.18697044 25.2768627,5.13658537 C25.4457003,5.07659059 25.6111402,5.00622907 25.7723529,4.92585366 L26.0784314,5.73560976 C25.8804646,5.89206039 25.6542899,6.00316776 25.4141176,6.06195122 C25.2050988,6.12274268 24.9901336,6.15728585 24.7735948,6.16487805 Z M25.3464052,3.56341463 C25.2924183,3.28308943 25.1957299,3.07560976 25.0563399,2.94097561 C24.9126113,2.80459988 24.7252394,2.73230322 24.5329412,2.73902439 C24.3343156,2.73224834 24.1408534,2.80717617 23.9926144,2.94829268 C23.8474292,3.08878049 23.7534858,3.29349594 23.7107843,3.56243902 L25.3464052,3.56341463 Z" id="Shape"></path>
                    <path d="M30.8617647,0 L30.8617647,6.06195122 L30.3127451,6.06195122 L30.0226797,5.65804878 C29.8382426,5.82285849 29.6266119,5.94957483 29.3986275,6.03170732 C29.1909907,6.11428059 28.9718747,6.15929029 28.7503268,6.16487805 C28.1814815,6.16487805 27.7439433,5.95349595 27.4377124,5.53073171 C27.1314815,5.10796746 26.978976,4.58146341 26.9801961,3.95121951 C26.9801961,3.32130081 27.1426144,2.79463415 27.467451,2.37121951 C27.7922876,1.94780488 28.2365359,1.73642277 28.8001961,1.73707317 C28.9665228,1.7406022 29.1316458,1.76800304 29.2911111,1.81853659 C29.4710225,1.87164848 29.6441776,1.9479858 29.806732,2.04585366 L29.806732,0.0946341463 L30.8617647,0 Z M29.0316993,2.68731707 C28.6656863,2.68731707 28.4120697,2.82471545 28.2708497,3.0995122 C28.1324022,3.35869299 28.0588238,3.65149238 28.0571895,3.9497561 C28.0523134,4.25425393 28.1188358,4.55522955 28.250719,4.82536585 C28.3791286,5.08292683 28.6394554,5.21170732 29.0316993,5.21170732 C29.1662477,5.20940537 29.2990385,5.17873483 29.4224183,5.12146341 C29.5554557,5.06349259 29.6834449,4.99313937 29.804902,4.91121951 L29.804902,2.98829268 C29.6854275,2.90143002 29.5571164,2.82926344 29.4224183,2.77317073 C29.2989261,2.71900999 29.1670394,2.6898938 29.0335294,2.68731707 L29.0316993,2.68731707 Z" id="Shape"></path>
                    <path d="M34.9043791,0 L34.9043791,2.02634146 C35.0609982,1.93451071 35.2271325,1.86247891 35.3994118,1.81170732 C35.5520817,1.76365335 35.7101239,1.73772953 35.869281,1.73463415 C36.4436165,1.73463415 36.8837473,1.94601626 37.1896732,2.36878049 C37.4955991,2.79154472 37.6481046,3.31821138 37.6471895,3.94878049 C37.6471895,4.57837399 37.4901089,5.10487805 37.1759477,5.52829268 C36.8617865,5.95170732 36.4256209,6.16308941 35.867451,6.16243902 C35.6586605,6.15752063 35.4519701,6.11683878 35.2552941,6.04195122 C35.0380377,5.96672615 34.8339685,5.85365102 34.6513725,5.70731707 L34.3933333,6.0595122 L33.8653595,6.0595122 L33.8653595,0.0946341463 L34.9043791,0 Z M35.5947712,5.21170732 C35.9543791,5.21170732 36.2067756,5.07300815 36.3519608,4.79560976 C36.4915423,4.5383309 36.5664022,4.24696145 36.569281,3.9497561 C36.5743322,3.64451738 36.5079765,3.3427462 36.3762092,3.07170732 C36.2471895,2.81447155 35.9867103,2.68569106 35.5947712,2.68536585 C35.4756112,2.68656532 35.3574178,2.70830961 35.2447712,2.7497561 C35.1241744,2.79279603 35.0091831,2.85196718 34.902549,2.92585366 L34.902549,4.97121951 C35.0108056,5.04080254 35.1254819,5.09834054 35.2447712,5.14292683 C35.3568103,5.18733576 35.475245,5.21061005 35.5947712,5.21170732 Z" id="Shape"></path>
                    <path d="M39.2443791,6.2595122 L39.4273856,5.77170732 L38.0365359,2.05219512 L39.1176471,1.89756098 L40.0194118,4.42195122 L40.8731373,1.89756098 L41.9762092,1.89756098 L40.4380392,6.06195122 L40.2289542,6.61121951 C40.0953171,6.96230615 39.867997,7.26386844 39.5751634,7.47853659 C39.281607,7.70950829 38.9475947,7.87537902 38.5928758,7.96634146 L38.2222876,7.04780488 C38.4101743,6.96195122 38.6102614,6.85756098 38.822549,6.73463415 C39.0348366,6.61170732 39.1754466,6.45333332 39.2443791,6.2595122 Z" id="Path"></path>
                </g>
            </g>
        </g>
    </g>
</svg>