<?xml version="1.0" encoding="UTF-8"?>
<svg width="179px" height="47px" viewBox="0 0 179 47" version="1.1" xmlns="http://www.w3.org/2000/svg" xmlns:xlink="http://www.w3.org/1999/xlink">
    <!-- Generator: Sketch 55 (78076) - https://sketchapp.com -->
    <title>search</title>
    <desc>Created with Sketch.</desc>
    <defs>
        <linearGradient x1="100%" y1="43.8991149%" x2="4.22391858%" y2="55.6043037%" id="linearGradient-1">
            <stop stop-color="#E89F5E" offset="0%"></stop>
            <stop stop-color="#E382A6" offset="100%"></stop>
        </linearGradient>
    </defs>
    <g id="Page-1" stroke="none" stroke-width="1" fill="none" fill-rule="evenodd">
        <g id="1" transform="translate(-645.000000, -313.000000)" fill="url(#linearGradient-1)" fill-rule="nonzero">
            <g id="Group-2" transform="translate(645.000000, 181.000000)">
                <path d="M19.8607242,153.426614 C18.6648037,152.866925 17.4155125,152.371822 16.1128134,151.941292 C14.8101142,151.510761 13.3259136,151.295499 11.6601671,151.295499 C10.0371321,151.295499 8.74513015,151.629155 7.78412256,152.296477 C6.82311497,152.9638 6.34261838,153.857137 6.34261838,154.976517 C6.38532983,155.923684 6.95124804,156.752443 8.04038997,157.462818 C9.12953191,158.173193 10.6137325,158.851269 12.4930362,159.497065 C15.0557231,160.444232 17.4475284,161.725041 19.6685237,163.33953 C21.889519,164.95402 23,167.052825 23,169.636008 C23,172.563615 21.9215521,174.856156 19.764624,176.513699 C17.6076958,178.171241 14.4791291,179 10.3788301,179 C9.05477518,179 7.34634287,178.763212 5.25348189,178.289628 C3.16062092,177.816045 1.45218861,177.10568 0.128133705,176.158513 L2.05013928,171.573386 C3.37419418,172.219181 4.74094003,172.73581 6.15041783,173.123288 C7.55989563,173.510765 8.96935228,173.704501 10.3788301,173.704501 C12.4289796,173.704501 14.0199572,173.381608 15.1518106,172.735812 C16.283664,172.090016 16.8495822,171.16439 16.8495822,169.958904 C16.8495822,168.753419 16.2409532,167.709398 15.0236769,166.82681 C13.8064006,165.944223 12.1940676,165.180042 10.1866295,164.534247 C7.75207696,163.716239 5.44569334,162.57535 3.26740947,161.111546 C1.0891256,159.647742 0,157.645805 0,155.105675 C0,152.264174 1.05709249,150.036212 3.17130919,148.421722 C5.28552589,146.807233 8.15782772,146 11.7883008,146 C13.1123557,146 14.7780772,146.258314 16.7855153,146.774951 C18.7929534,147.291588 20.4586749,148.023479 21.7827298,148.970646 L19.8607242,153.426614 Z M58,163.923529 L35.5315315,163.923529 C35.7492503,166.81374 36.6636556,169.186265 38.2747748,171.041176 C39.8858939,172.896088 42.3025364,173.823529 45.5247748,173.823529 C47.3971565,173.823529 48.9755942,173.61863 50.2601351,173.208824 C51.5446761,172.799018 52.8400836,172.29216 54.1463964,171.688235 L56.1058559,176.217647 C54.7124555,177.166671 52.9380738,177.867645 50.7826577,178.320588 C48.6272415,178.773532 46.8746314,179 45.5247748,179 C40.2124359,179 36.1302695,177.479427 33.2781532,174.438235 C30.4260368,171.397044 29,167.417672 29,162.5 C29,157.625466 30.3389506,153.656878 33.0168919,150.594118 C35.6948332,147.531357 39.4068832,146 44.1531532,146 C49.291317,146 52.8836234,147.790178 54.9301802,151.370588 C56.976737,154.950998 58,159.13527 58,163.923529 Z M52,159 C51.6144559,156.538449 50.8005417,154.589751 49.5582329,153.153846 C48.3159242,151.717942 46.5167454,151 44.1606426,151 C41.7617015,151 39.8768476,151.728198 38.5060241,153.184615 C37.1352006,154.641033 36.2998676,156.579475 36,159 L52,159 Z M69,168.839506 C69,170.107002 69.4487135,171.283945 70.3461538,172.37037 C71.2435942,173.456796 72.6121703,174 74.4519231,174 C76.1121878,174 77.6714671,173.592597 79.1298077,172.777778 C80.5881483,171.962959 81.8781995,170.921817 83,169.654321 L83,163 L75.0576923,163 C73.0833235,163 71.5801334,163.588471 70.5480769,164.765432 C69.5160205,165.942393 69,167.300404 69,168.839506 Z M65.8589744,148.782353 C67.0555615,147.962741 68.7863135,147.29412 71.0512821,146.776471 C73.3162506,146.258821 75.1111045,146 76.4358974,146 C80.025641,146 83.0170821,147.013715 85.4102564,149.041176 C87.8034308,151.068638 89,153.699984 89,156.935294 L89,178.223529 L85.5384615,178.223529 C85.2393147,177.749017 84.9615397,177.252944 84.7051282,176.735294 C84.4487167,176.217644 84.192309,175.721571 83.9358974,175.247059 C82.867516,176.196083 81.5000083,177.05882 79.8333333,177.835294 C78.1666583,178.611769 76.5,179 74.8333333,179 C71.1581013,179 68.4337696,178.072558 66.6602564,176.217647 C64.8867433,174.362736 64,172.011779 64,169.164706 C64,166.015671 65.0576817,163.610793 67.1730769,161.95 C69.2884721,160.289207 72.0341712,159.458824 75.4102564,159.458824 L82.7820513,159.458824 C82.7820513,157.30195 82.3547051,155.447067 81.5,153.894118 C80.6452949,152.341169 79.0000122,151.564706 76.5641026,151.564706 C74.7264865,151.564706 73.0598365,151.791174 71.5641026,152.244118 C70.0683686,152.697061 68.7435955,153.18235 67.5897436,153.7 L65.8589744,148.782353 Z M98,178 L98,146 L101.55814,146 L103.600775,150.552577 C104.830756,149.496902 106.37919,148.474232 108.246124,147.484536 C110.113058,146.49484 111.903092,146 113.616279,146 L115,151.080412 C113.242885,151.080412 111.408924,151.55326 109.498062,152.498969 C107.5872,153.444678 105.863057,154.665285 104.325581,156.160825 L104.325581,178 L98,178 Z M134.07732,151.295499 C131.156343,151.295499 128.976382,152.361046 127.537371,154.492172 C126.098361,156.623298 125.357389,159.260258 125.314433,162.403131 C125.314433,165.675163 126.001711,168.376702 127.376289,170.507828 C128.750866,172.638954 130.920088,173.704501 133.884021,173.704501 C135.774064,173.704501 137.266747,173.510765 138.362113,173.123288 C139.45748,172.73581 140.670956,172.219181 142.002577,171.573386 L143.871134,176.029354 C142.496557,176.976521 140.821316,177.708412 138.845361,178.225049 C136.869406,178.741686 135.215642,179 133.884021,179 C129.073,179 125.389618,177.47164 122.833763,174.414873 C120.277908,171.358106 119,167.375758 119,162.46771 C119.042956,157.602715 120.363819,153.641894 122.962629,150.585127 C125.561439,147.52836 129.287776,146 134.141753,146 C135.430419,146 137.051966,146.269078 139.006443,146.807241 C140.96092,147.345404 142.625423,148.088058 144,149.035225 L142.195876,153.426614 C140.864255,152.866925 139.64004,152.371822 138.523196,151.941292 C137.406352,151.510761 135.924408,151.295499 134.07732,151.295499 Z M157.324706,149.852691 C158.686281,148.549569 160.344304,147.474508 162.298824,146.627479 C164.253343,145.780449 166.08705,145.356941 167.8,145.356941 C171.709039,145.356941 174.552932,146.475437 176.331765,148.712465 C178.110597,150.949492 179,153.762023 179,157.150142 L179,178 L172.675294,178 L172.675294,157.736544 C172.675294,155.60811 172.159221,153.914076 171.127059,152.654391 C170.094897,151.394706 168.524716,150.743154 166.416471,150.699717 C165.098817,150.699717 163.572558,151.112366 161.837647,151.937677 C160.102736,152.762988 158.598438,153.848907 157.324706,155.195467 L157.324706,178 L151,178 L151,132.716714 L157.324706,132 L157.324706,149.852691 Z" id="search"></path>
            </g>
        </g>
    </g>
</svg>