<?xml version="1.0" encoding="UTF-8"?>
<svg width="140px" height="33px" viewBox="0 0 140 33" version="1.1" xmlns="http://www.w3.org/2000/svg" xmlns:xlink="http://www.w3.org/1999/xlink">
    <!-- Generator: Sketch 55 (78076) - https://sketchapp.com -->
    <title>Group 3</title>
    <desc>Created with Sketch.</desc>
    <defs>
        <radialGradient cx="74.8279602%" cy="94.3295806%" fx="74.8279602%" fy="94.3295806%" r="54.2673666%" id="radialGradient-1">
            <stop stop-color="#69E1CD" offset="0%"></stop>
            <stop stop-color="#69E1CE" stop-opacity="0" offset="100%"></stop>
        </radialGradient>
        <radialGradient cx="2.43570047%" cy="10.078364%" fx="2.43570047%" fy="10.078364%" r="125.4975%" id="radialGradient-2">
            <stop stop-color="#EAA05B" offset="0%"></stop>
            <stop stop-color="#EAA05B" stop-opacity="0.914968297" offset="6.17548772%"></stop>
            <stop stop-color="#EAA05B" stop-opacity="0" offset="100%"></stop>
            <stop stop-color="#EAA05B" stop-opacity="0" offset="100%"></stop>
        </radialGradient>
        <radialGradient cx="74.9941219%" cy="13.9343275%" fx="74.9941219%" fy="13.9343275%" r="123.841564%" id="radialGradient-3">
            <stop stop-color="#F252BC" offset="0%"></stop>
            <stop stop-color="#F252BC" stop-opacity="0.891502491" offset="31.6104241%"></stop>
            <stop stop-color="#F251BD" stop-opacity="0" offset="100%"></stop>
        </radialGradient>
        <radialGradient cx="1.95069536%" cy="17.1506239%" fx="1.95069536%" fy="17.1506239%" r="84.5983202%" id="radialGradient-4">
            <stop stop-color="#EAA05B" offset="0%"></stop>
            <stop stop-color="#EAA05B" stop-opacity="0.914968297" offset="6.17548772%"></stop>
            <stop stop-color="#EAA05B" stop-opacity="0" offset="100%"></stop>
            <stop stop-color="#EAA05B" stop-opacity="0" offset="100%"></stop>
        </radialGradient>
        <radialGradient cx="61.4390693%" cy="107.149144%" fx="61.4390693%" fy="107.149144%" r="68.7248498%" id="radialGradient-5">
            <stop stop-color="#69B2E1" stop-opacity="0.850486866" offset="0%"></stop>
            <stop stop-color="#69E1CE" stop-opacity="0" offset="100%"></stop>
            <stop stop-color="#69E1CE" stop-opacity="0" offset="100%"></stop>
        </radialGradient>
        <radialGradient cx="21.7132022%" cy="100.000046%" fx="21.7132022%" fy="100.000046%" r="68.7248498%" id="radialGradient-6">
            <stop stop-color="#69E1CD" stop-opacity="0.120669158" offset="0%"></stop>
            <stop stop-color="#69E1CE" stop-opacity="0" offset="100%"></stop>
            <stop stop-color="#69E1CE" stop-opacity="0" offset="100%"></stop>
        </radialGradient>
        <radialGradient cx="50.0000324%" cy="139.477899%" fx="50.0000324%" fy="139.477899%" r="54.8737081%" id="radialGradient-7">
            <stop stop-color="#69E1CD" offset="0%"></stop>
            <stop stop-color="#69E1CE" stop-opacity="0" offset="100%"></stop>
        </radialGradient>
        <radialGradient cx="24.0144487%" cy="125.205462%" fx="24.0144487%" fy="125.205462%" r="42.4086048%" id="radialGradient-8">
            <stop stop-color="#7BD2B8" offset="0%"></stop>
            <stop stop-color="#7DD1B6" stop-opacity="0" offset="100%"></stop>
        </radialGradient>
        <radialGradient cx="83.4197751%" cy="11.8393976%" fx="83.4197751%" fy="11.8393976%" r="64.2652867%" id="radialGradient-9">
            <stop stop-color="#EF5ABF" offset="0%"></stop>
            <stop stop-color="#F251BD" stop-opacity="0" offset="100%"></stop>
        </radialGradient>
        <linearGradient x1="100%" y1="44.0557979%" x2="4.22391858%" y2="55.4603739%" id="linearGradient-10">
            <stop stop-color="#E89F5E" offset="0%"></stop>
            <stop stop-color="#E382A6" offset="100%"></stop>
        </linearGradient>
    </defs>
    <g id="Page-1" stroke="none" stroke-width="1" fill="none" fill-rule="evenodd">
        <g id="Group-3" fill-rule="nonzero">
            <g id="hybrix-symbol-gradient" transform="translate(0.250000, 0.000000)">
                <path d="M24.2203926,24.6439826 L24.2103857,22.64593 C23.3764734,22.9961729 22.4625055,23.1896405 21.5018384,23.1963117 C17.7959321,23.2163256 14.7271347,20.3910325 14.3668845,16.7751909 L18.7832843,16.7518414 C19.0934996,17.9526744 20.1875926,18.8399565 21.4818246,18.8332852 C22.7193504,18.8266139 23.7667443,18.0060447 24.1136519,16.8819316 L24.1803649,16.4516332 L24.1803649,16.2414874 L24.1803649,16.1347467 L24.1770292,15.270814 L24.1436727,8.9130705 L28.516709,8.88972099 L28.5500655,15.2474645 L28.5567367,16.7018067 L28.5767507,16.7018067 C28.5700794,16.765184 28.563408,16.8285613 28.5567367,16.8886029 L28.5967645,24.6206331 L28.6134428,27.7061067 C31.3553465,24.744052 33.0198357,20.7746319 32.9998215,16.4182767 C32.9531226,7.30528856 25.5279672,-0.0464778099 16.4149732,0.000221250626 C13.6330417,0.0135638394 11.014557,0.717385393 8.71963028,1.94490355 L8.74965112,7.54879081 L8.75965805,9.47679488 C9.59690603,9.12321628 10.5175452,8.92641311 11.4815479,8.92307746 C15.170776,8.90306357 18.2295665,11.7016715 18.6131661,15.2941636 L14.1900951,15.3175131 C13.8632015,14.1433653 12.7824511,13.2794327 11.5048975,13.286104 C10.2273438,13.2927752 9.15326468,14.1667148 8.83971365,15.3441983 C8.83971365,15.3441983 8.77967197,15.9846425 8.79968585,16.1681031 C8.79968585,16.1814457 8.79968585,16.1914526 8.79301455,16.2014596 L8.7963502,16.7952048 L8.8297067,23.3464159 L4.46334174,23.3697654 L4.42998524,16.8185543 L4.42331393,15.3642122 L4.41330701,15.3642122 C4.41664263,15.3341913 4.41997828,15.3008349 4.42331393,15.270814 L4.38328616,7.56880469 L4.3732792,5.30723591 C1.63804676,8.26929061 -0.0231065988,12.2353751 0.000242946398,16.5817234 C0.0469420369,25.6947115 7.47209743,33.046478 16.5850914,32.9997787 C19.3603516,32.9864361 21.972165,32.2859503 24.2637561,31.0651034 L24.2203926,24.6439826 Z" id="Combined-Shape" fill="#FFFFFF"></path>
                <path d="M24.2203926,24.6439826 L24.2103857,22.64593 C23.3764734,22.9961729 22.4625055,23.1896405 21.5018384,23.1963117 C17.7959321,23.2163256 14.7271347,20.3910325 14.3668845,16.7751909 L18.7832843,16.7518414 C19.0934996,17.9526744 20.1875926,18.8399565 21.4818246,18.8332852 C22.7193504,18.8266139 23.7667443,18.0060447 24.1136519,16.8819316 L24.1803649,16.4516332 L24.1803649,16.2414874 L24.1803649,16.1347467 L24.1770292,15.270814 L24.1436727,8.9130705 L28.516709,8.88972099 L28.5500655,15.2474645 L28.5567367,16.7018067 L28.5767507,16.7018067 C28.5700794,16.765184 28.563408,16.8285613 28.5567367,16.8886029 L28.5967645,24.6206331 L28.6134428,27.7061067 C31.3553465,24.744052 33.0198357,20.7746319 32.9998215,16.4182767 C32.9531226,7.30528856 25.5279672,-0.0464778099 16.4149732,0.000221250626 C13.6330417,0.0135638394 11.014557,0.717385393 8.71963028,1.94490355 L8.74965112,7.54879081 L8.75965805,9.47679488 C9.59690603,9.12321628 10.5175452,8.92641311 11.4815479,8.92307746 C15.170776,8.90306357 18.2295665,11.7016715 18.6131661,15.2941636 L14.1900951,15.3175131 C13.8632015,14.1433653 12.7824511,13.2794327 11.5048975,13.286104 C10.2273438,13.2927752 9.15326468,14.1667148 8.83971365,15.3441983 C8.83971365,15.3441983 8.77967197,15.9846425 8.79968585,16.1681031 C8.79968585,16.1814457 8.79968585,16.1914526 8.79301455,16.2014596 L8.7963502,16.7952048 L8.8297067,23.3464159 L4.46334174,23.3697654 L4.42998524,16.8185543 L4.42331393,15.3642122 L4.41330701,15.3642122 C4.41664263,15.3341913 4.41997828,15.3008349 4.42331393,15.270814 L4.38328616,7.56880469 L4.3732792,5.30723591 C1.63804676,8.26929061 -0.0231065988,12.2353751 0.000242946398,16.5817234 C0.0469420369,25.6947115 7.47209743,33.046478 16.5850914,32.9997787 C19.3603516,32.9864361 21.972165,32.2859503 24.2637561,31.0651034 L24.2203926,24.6439826 Z" id="Combined-Shape" fill-opacity="0.500990716" fill="#8F7BB6"></path>
                <path d="M24.2203926,24.6439826 L24.2103857,22.64593 C23.3764734,22.9961729 22.4625055,23.1896405 21.5018384,23.1963117 C17.7959321,23.2163256 14.7271347,20.3910325 14.3668845,16.7751909 L18.7832843,16.7518414 C19.0934996,17.9526744 20.1875926,18.8399565 21.4818246,18.8332852 C22.7193504,18.8266139 23.7667443,18.0060447 24.1136519,16.8819316 L24.1803649,16.4516332 L24.1803649,16.2414874 L24.1803649,16.1347467 L24.1770292,15.270814 L24.1436727,8.9130705 L28.516709,8.88972099 L28.5500655,15.2474645 L28.5567367,16.7018067 L28.5767507,16.7018067 C28.5700794,16.765184 28.563408,16.8285613 28.5567367,16.8886029 L28.5967645,24.6206331 L28.6134428,27.7061067 C31.3553465,24.744052 33.0198357,20.7746319 32.9998215,16.4182767 C32.9531226,7.30528856 25.5279672,-0.0464778099 16.4149732,0.000221250626 C13.6330417,0.0135638394 11.014557,0.717385393 8.71963028,1.94490355 L8.74965112,7.54879081 L8.75965805,9.47679488 C9.59690603,9.12321628 10.5175452,8.92641311 11.4815479,8.92307746 C15.170776,8.90306357 18.2295665,11.7016715 18.6131661,15.2941636 L14.1900951,15.3175131 C13.8632015,14.1433653 12.7824511,13.2794327 11.5048975,13.286104 C10.2273438,13.2927752 9.15326468,14.1667148 8.83971365,15.3441983 C8.83971365,15.3441983 8.77967197,15.9846425 8.79968585,16.1681031 C8.79968585,16.1814457 8.79968585,16.1914526 8.79301455,16.2014596 L8.7963502,16.7952048 L8.8297067,23.3464159 L4.46334174,23.3697654 L4.42998524,16.8185543 L4.42331393,15.3642122 L4.41330701,15.3642122 C4.41664263,15.3341913 4.41997828,15.3008349 4.42331393,15.270814 L4.38328616,7.56880469 L4.3732792,5.30723591 C1.63804676,8.26929061 -0.0231065988,12.2353751 0.000242946398,16.5817234 C0.0469420369,25.6947115 7.47209743,33.046478 16.5850914,32.9997787 C19.3603516,32.9864361 21.972165,32.2859503 24.2637561,31.0651034 L24.2203926,24.6439826 Z" id="Combined-Shape" fill="url(#radialGradient-1)"></path>
                <path d="M24.2203926,24.6439826 L24.2103857,22.64593 C23.3764734,22.9961729 22.4625055,23.1896405 21.5018384,23.1963117 C17.7959321,23.2163256 14.7271347,20.3910325 14.3668845,16.7751909 L18.7832843,16.7518414 C19.0934996,17.9526744 20.1875926,18.8399565 21.4818246,18.8332852 C22.7193504,18.8266139 23.7667443,18.0060447 24.1136519,16.8819316 L24.1803649,16.4516332 L24.1803649,16.2414874 L24.1803649,16.1347467 L24.1770292,15.270814 L24.1436727,8.9130705 L28.516709,8.88972099 L28.5500655,15.2474645 L28.5567367,16.7018067 L28.5767507,16.7018067 C28.5700794,16.765184 28.563408,16.8285613 28.5567367,16.8886029 L28.5967645,24.6206331 L28.6134428,27.7061067 C31.3553465,24.744052 33.0198357,20.7746319 32.9998215,16.4182767 C32.9531226,7.30528856 25.5279672,-0.0464778099 16.4149732,0.000221250626 C13.6330417,0.0135638394 11.014557,0.717385393 8.71963028,1.94490355 L8.74965112,7.54879081 L8.75965805,9.47679488 C9.59690603,9.12321628 10.5175452,8.92641311 11.4815479,8.92307746 C15.170776,8.90306357 18.2295665,11.7016715 18.6131661,15.2941636 L14.1900951,15.3175131 C13.8632015,14.1433653 12.7824511,13.2794327 11.5048975,13.286104 C10.2273438,13.2927752 9.15326468,14.1667148 8.83971365,15.3441983 C8.83971365,15.3441983 8.77967197,15.9846425 8.79968585,16.1681031 C8.79968585,16.1814457 8.79968585,16.1914526 8.79301455,16.2014596 L8.7963502,16.7952048 L8.8297067,23.3464159 L4.46334174,23.3697654 L4.42998524,16.8185543 L4.42331393,15.3642122 L4.41330701,15.3642122 C4.41664263,15.3341913 4.41997828,15.3008349 4.42331393,15.270814 L4.38328616,7.56880469 L4.3732792,5.30723591 C1.63804676,8.26929061 -0.0231065988,12.2353751 0.000242946398,16.5817234 C0.0469420369,25.6947115 7.47209743,33.046478 16.5850914,32.9997787 C19.3603516,32.9864361 21.972165,32.2859503 24.2637561,31.0651034 L24.2203926,24.6439826 Z" id="Combined-Shape" fill="url(#radialGradient-2)"></path>
                <path d="M24.2203926,24.6439826 L24.2103857,22.64593 C23.3764734,22.9961729 22.4625055,23.1896405 21.5018384,23.1963117 C17.7959321,23.2163256 14.7271347,20.3910325 14.3668845,16.7751909 L18.7832843,16.7518414 C19.0934996,17.9526744 20.1875926,18.8399565 21.4818246,18.8332852 C22.7193504,18.8266139 23.7667443,18.0060447 24.1136519,16.8819316 L24.1803649,16.4516332 L24.1803649,16.2414874 L24.1803649,16.1347467 L24.1770292,15.270814 L24.1436727,8.9130705 L28.516709,8.88972099 L28.5500655,15.2474645 L28.5567367,16.7018067 L28.5767507,16.7018067 C28.5700794,16.765184 28.563408,16.8285613 28.5567367,16.8886029 L28.5967645,24.6206331 L28.6134428,27.7061067 C31.3553465,24.744052 33.0198357,20.7746319 32.9998215,16.4182767 C32.9531226,7.30528856 25.5279672,-0.0464778099 16.4149732,0.000221250626 C13.6330417,0.0135638394 11.014557,0.717385393 8.71963028,1.94490355 L8.74965112,7.54879081 L8.75965805,9.47679488 C9.59690603,9.12321628 10.5175452,8.92641311 11.4815479,8.92307746 C15.170776,8.90306357 18.2295665,11.7016715 18.6131661,15.2941636 L14.1900951,15.3175131 C13.8632015,14.1433653 12.7824511,13.2794327 11.5048975,13.286104 C10.2273438,13.2927752 9.15326468,14.1667148 8.83971365,15.3441983 C8.83971365,15.3441983 8.77967197,15.9846425 8.79968585,16.1681031 C8.79968585,16.1814457 8.79968585,16.1914526 8.79301455,16.2014596 L8.7963502,16.7952048 L8.8297067,23.3464159 L4.46334174,23.3697654 L4.42998524,16.8185543 L4.42331393,15.3642122 L4.41330701,15.3642122 C4.41664263,15.3341913 4.41997828,15.3008349 4.42331393,15.270814 L4.38328616,7.56880469 L4.3732792,5.30723591 C1.63804676,8.26929061 -0.0231065988,12.2353751 0.000242946398,16.5817234 C0.0469420369,25.6947115 7.47209743,33.046478 16.5850914,32.9997787 C19.3603516,32.9864361 21.972165,32.2859503 24.2637561,31.0651034 L24.2203926,24.6439826 Z" id="Combined-Shape" fill="url(#radialGradient-3)"></path>
                <path d="M24.2203926,24.6439826 L24.2103857,22.64593 C23.3764734,22.9961729 22.4625055,23.1896405 21.5018384,23.1963117 C17.7959321,23.2163256 14.7271347,20.3910325 14.3668845,16.7751909 L18.7832843,16.7518414 C19.0934996,17.9526744 20.1875926,18.8399565 21.4818246,18.8332852 C22.7193504,18.8266139 23.7667443,18.0060447 24.1136519,16.8819316 L24.1803649,16.4516332 L24.1803649,16.2414874 L24.1803649,16.1347467 L24.1770292,15.270814 L24.1436727,8.9130705 L28.516709,8.88972099 L28.5500655,15.2474645 L28.5567367,16.7018067 L28.5767507,16.7018067 C28.5700794,16.765184 28.563408,16.8285613 28.5567367,16.8886029 L28.5967645,24.6206331 L28.6134428,27.7061067 C31.3553465,24.744052 33.0198357,20.7746319 32.9998215,16.4182767 C32.9531226,7.30528856 25.5279672,-0.0464778099 16.4149732,0.000221250626 C13.6330417,0.0135638394 11.014557,0.717385393 8.71963028,1.94490355 L8.74965112,7.54879081 L8.75965805,9.47679488 C9.59690603,9.12321628 10.5175452,8.92641311 11.4815479,8.92307746 C15.170776,8.90306357 18.2295665,11.7016715 18.6131661,15.2941636 L14.1900951,15.3175131 C13.8632015,14.1433653 12.7824511,13.2794327 11.5048975,13.286104 C10.2273438,13.2927752 9.15326468,14.1667148 8.83971365,15.3441983 C8.83971365,15.3441983 8.77967197,15.9846425 8.79968585,16.1681031 C8.79968585,16.1814457 8.79968585,16.1914526 8.79301455,16.2014596 L8.7963502,16.7952048 L8.8297067,23.3464159 L4.46334174,23.3697654 L4.42998524,16.8185543 L4.42331393,15.3642122 L4.41330701,15.3642122 C4.41664263,15.3341913 4.41997828,15.3008349 4.42331393,15.270814 L4.38328616,7.56880469 L4.3732792,5.30723591 C1.63804676,8.26929061 -0.0231065988,12.2353751 0.000242946398,16.5817234 C0.0469420369,25.6947115 7.47209743,33.046478 16.5850914,32.9997787 C19.3603516,32.9864361 21.972165,32.2859503 24.2637561,31.0651034 L24.2203926,24.6439826 Z" id="Combined-Shape" fill="url(#radialGradient-4)"></path>
                <path d="M24.2203926,24.6439826 L24.2103857,22.64593 C23.3764734,22.9961729 22.4625055,23.1896405 21.5018384,23.1963117 C17.7959321,23.2163256 14.7271347,20.3910325 14.3668845,16.7751909 L18.7832843,16.7518414 C19.0934996,17.9526744 20.1875926,18.8399565 21.4818246,18.8332852 C22.7193504,18.8266139 23.7667443,18.0060447 24.1136519,16.8819316 L24.1803649,16.4516332 L24.1803649,16.2414874 L24.1803649,16.1347467 L24.1770292,15.270814 L24.1436727,8.9130705 L28.516709,8.88972099 L28.5500655,15.2474645 L28.5567367,16.7018067 L28.5767507,16.7018067 C28.5700794,16.765184 28.563408,16.8285613 28.5567367,16.8886029 L28.5967645,24.6206331 L28.6134428,27.7061067 C31.3553465,24.744052 33.0198357,20.7746319 32.9998215,16.4182767 C32.9531226,7.30528856 25.5279672,-0.0464778099 16.4149732,0.000221250626 C13.6330417,0.0135638394 11.014557,0.717385393 8.71963028,1.94490355 L8.74965112,7.54879081 L8.75965805,9.47679488 C9.59690603,9.12321628 10.5175452,8.92641311 11.4815479,8.92307746 C15.170776,8.90306357 18.2295665,11.7016715 18.6131661,15.2941636 L14.1900951,15.3175131 C13.8632015,14.1433653 12.7824511,13.2794327 11.5048975,13.286104 C10.2273438,13.2927752 9.15326468,14.1667148 8.83971365,15.3441983 C8.83971365,15.3441983 8.77967197,15.9846425 8.79968585,16.1681031 C8.79968585,16.1814457 8.79968585,16.1914526 8.79301455,16.2014596 L8.7963502,16.7952048 L8.8297067,23.3464159 L4.46334174,23.3697654 L4.42998524,16.8185543 L4.42331393,15.3642122 L4.41330701,15.3642122 C4.41664263,15.3341913 4.41997828,15.3008349 4.42331393,15.270814 L4.38328616,7.56880469 L4.3732792,5.30723591 C1.63804676,8.26929061 -0.0231065988,12.2353751 0.000242946398,16.5817234 C0.0469420369,25.6947115 7.47209743,33.046478 16.5850914,32.9997787 C19.3603516,32.9864361 21.972165,32.2859503 24.2637561,31.0651034 L24.2203926,24.6439826 Z" id="Combined-Shape" fill="url(#radialGradient-5)"></path>
                <path d="M24.2203926,24.6439826 L24.2103857,22.64593 C23.3764734,22.9961729 22.4625055,23.1896405 21.5018384,23.1963117 C17.7959321,23.2163256 14.7271347,20.3910325 14.3668845,16.7751909 L18.7832843,16.7518414 C19.0934996,17.9526744 20.1875926,18.8399565 21.4818246,18.8332852 C22.7193504,18.8266139 23.7667443,18.0060447 24.1136519,16.8819316 L24.1803649,16.4516332 L24.1803649,16.2414874 L24.1803649,16.1347467 L24.1770292,15.270814 L24.1436727,8.9130705 L28.516709,8.88972099 L28.5500655,15.2474645 L28.5567367,16.7018067 L28.5767507,16.7018067 C28.5700794,16.765184 28.563408,16.8285613 28.5567367,16.8886029 L28.5967645,24.6206331 L28.6134428,27.7061067 C31.3553465,24.744052 33.0198357,20.7746319 32.9998215,16.4182767 C32.9531226,7.30528856 25.5279672,-0.0464778099 16.4149732,0.000221250626 C13.6330417,0.0135638394 11.014557,0.717385393 8.71963028,1.94490355 L8.74965112,7.54879081 L8.75965805,9.47679488 C9.59690603,9.12321628 10.5175452,8.92641311 11.4815479,8.92307746 C15.170776,8.90306357 18.2295665,11.7016715 18.6131661,15.2941636 L14.1900951,15.3175131 C13.8632015,14.1433653 12.7824511,13.2794327 11.5048975,13.286104 C10.2273438,13.2927752 9.15326468,14.1667148 8.83971365,15.3441983 C8.83971365,15.3441983 8.77967197,15.9846425 8.79968585,16.1681031 C8.79968585,16.1814457 8.79968585,16.1914526 8.79301455,16.2014596 L8.7963502,16.7952048 L8.8297067,23.3464159 L4.46334174,23.3697654 L4.42998524,16.8185543 L4.42331393,15.3642122 L4.41330701,15.3642122 C4.41664263,15.3341913 4.41997828,15.3008349 4.42331393,15.270814 L4.38328616,7.56880469 L4.3732792,5.30723591 C1.63804676,8.26929061 -0.0231065988,12.2353751 0.000242946398,16.5817234 C0.0469420369,25.6947115 7.47209743,33.046478 16.5850914,32.9997787 C19.3603516,32.9864361 21.972165,32.2859503 24.2637561,31.0651034 L24.2203926,24.6439826 Z" id="Combined-Shape" fill="url(#radialGradient-6)"></path>
                <path d="M24.2203926,24.6439826 L24.2103857,22.64593 C23.3764734,22.9961729 22.4625055,23.1896405 21.5018384,23.1963117 C17.7959321,23.2163256 14.7271347,20.3910325 14.3668845,16.7751909 L18.7832843,16.7518414 C19.0934996,17.9526744 20.1875926,18.8399565 21.4818246,18.8332852 C22.7193504,18.8266139 23.7667443,18.0060447 24.1136519,16.8819316 L24.1803649,16.4516332 L24.1803649,16.2414874 L24.1803649,16.1347467 L24.1770292,15.270814 L24.1436727,8.9130705 L28.516709,8.88972099 L28.5500655,15.2474645 L28.5567367,16.7018067 L28.5767507,16.7018067 C28.5700794,16.765184 28.563408,16.8285613 28.5567367,16.8886029 L28.5967645,24.6206331 L28.6134428,27.7061067 C31.3553465,24.744052 33.0198357,20.7746319 32.9998215,16.4182767 C32.9531226,7.30528856 25.5279672,-0.0464778099 16.4149732,0.000221250626 C13.6330417,0.0135638394 11.014557,0.717385393 8.71963028,1.94490355 L8.74965112,7.54879081 L8.75965805,9.47679488 C9.59690603,9.12321628 10.5175452,8.92641311 11.4815479,8.92307746 C15.170776,8.90306357 18.2295665,11.7016715 18.6131661,15.2941636 L14.1900951,15.3175131 C13.8632015,14.1433653 12.7824511,13.2794327 11.5048975,13.286104 C10.2273438,13.2927752 9.15326468,14.1667148 8.83971365,15.3441983 C8.83971365,15.3441983 8.77967197,15.9846425 8.79968585,16.1681031 C8.79968585,16.1814457 8.79968585,16.1914526 8.79301455,16.2014596 L8.7963502,16.7952048 L8.8297067,23.3464159 L4.46334174,23.3697654 L4.42998524,16.8185543 L4.42331393,15.3642122 L4.41330701,15.3642122 C4.41664263,15.3341913 4.41997828,15.3008349 4.42331393,15.270814 L4.38328616,7.56880469 L4.3732792,5.30723591 C1.63804676,8.26929061 -0.0231065988,12.2353751 0.000242946398,16.5817234 C0.0469420369,25.6947115 7.47209743,33.046478 16.5850914,32.9997787 C19.3603516,32.9864361 21.972165,32.2859503 24.2637561,31.0651034 L24.2203926,24.6439826 Z" id="Combined-Shape" fill="url(#radialGradient-7)"></path>
                <path d="M24.2203926,24.6439826 L24.2103857,22.64593 C23.3764734,22.9961729 22.4625055,23.1896405 21.5018384,23.1963117 C17.7959321,23.2163256 14.7271347,20.3910325 14.3668845,16.7751909 L18.7832843,16.7518414 C19.0934996,17.9526744 20.1875926,18.8399565 21.4818246,18.8332852 C22.7193504,18.8266139 23.7667443,18.0060447 24.1136519,16.8819316 L24.1803649,16.4516332 L24.1803649,16.2414874 L24.1803649,16.1347467 L24.1770292,15.270814 L24.1436727,8.9130705 L28.516709,8.88972099 L28.5500655,15.2474645 L28.5567367,16.7018067 L28.5767507,16.7018067 C28.5700794,16.765184 28.563408,16.8285613 28.5567367,16.8886029 L28.5967645,24.6206331 L28.6134428,27.7061067 C31.3553465,24.744052 33.0198357,20.7746319 32.9998215,16.4182767 C32.9531226,7.30528856 25.5279672,-0.0464778099 16.4149732,0.000221250626 C13.6330417,0.0135638394 11.014557,0.717385393 8.71963028,1.94490355 L8.74965112,7.54879081 L8.75965805,9.47679488 C9.59690603,9.12321628 10.5175452,8.92641311 11.4815479,8.92307746 C15.170776,8.90306357 18.2295665,11.7016715 18.6131661,15.2941636 L14.1900951,15.3175131 C13.8632015,14.1433653 12.7824511,13.2794327 11.5048975,13.286104 C10.2273438,13.2927752 9.15326468,14.1667148 8.83971365,15.3441983 C8.83971365,15.3441983 8.77967197,15.9846425 8.79968585,16.1681031 C8.79968585,16.1814457 8.79968585,16.1914526 8.79301455,16.2014596 L8.7963502,16.7952048 L8.8297067,23.3464159 L4.46334174,23.3697654 L4.42998524,16.8185543 L4.42331393,15.3642122 L4.41330701,15.3642122 C4.41664263,15.3341913 4.41997828,15.3008349 4.42331393,15.270814 L4.38328616,7.56880469 L4.3732792,5.30723591 C1.63804676,8.26929061 -0.0231065988,12.2353751 0.000242946398,16.5817234 C0.0469420369,25.6947115 7.47209743,33.046478 16.5850914,32.9997787 C19.3603516,32.9864361 21.972165,32.2859503 24.2637561,31.0651034 L24.2203926,24.6439826 Z" id="Combined-Shape" fill="url(#radialGradient-8)"></path>
                <path d="M24.2203926,24.6439826 L24.2103857,22.64593 C23.3764734,22.9961729 22.4625055,23.1896405 21.5018384,23.1963117 C17.7959321,23.2163256 14.7271347,20.3910325 14.3668845,16.7751909 L18.7832843,16.7518414 C19.0934996,17.9526744 20.1875926,18.8399565 21.4818246,18.8332852 C22.7193504,18.8266139 23.7667443,18.0060447 24.1136519,16.8819316 L24.1803649,16.4516332 L24.1803649,16.2414874 L24.1803649,16.1347467 L24.1770292,15.270814 L24.1436727,8.9130705 L28.516709,8.88972099 L28.5500655,15.2474645 L28.5567367,16.7018067 L28.5767507,16.7018067 C28.5700794,16.765184 28.563408,16.8285613 28.5567367,16.8886029 L28.5967645,24.6206331 L28.6134428,27.7061067 C31.3553465,24.744052 33.0198357,20.7746319 32.9998215,16.4182767 C32.9531226,7.30528856 25.5279672,-0.0464778099 16.4149732,0.000221250626 C13.6330417,0.0135638394 11.014557,0.717385393 8.71963028,1.94490355 L8.74965112,7.54879081 L8.75965805,9.47679488 C9.59690603,9.12321628 10.5175452,8.92641311 11.4815479,8.92307746 C15.170776,8.90306357 18.2295665,11.7016715 18.6131661,15.2941636 L14.1900951,15.3175131 C13.8632015,14.1433653 12.7824511,13.2794327 11.5048975,13.286104 C10.2273438,13.2927752 9.15326468,14.1667148 8.83971365,15.3441983 C8.83971365,15.3441983 8.77967197,15.9846425 8.79968585,16.1681031 C8.79968585,16.1814457 8.79968585,16.1914526 8.79301455,16.2014596 L8.7963502,16.7952048 L8.8297067,23.3464159 L4.46334174,23.3697654 L4.42998524,16.8185543 L4.42331393,15.3642122 L4.41330701,15.3642122 C4.41664263,15.3341913 4.41997828,15.3008349 4.42331393,15.270814 L4.38328616,7.56880469 L4.3732792,5.30723591 C1.63804676,8.26929061 -0.0231065988,12.2353751 0.000242946398,16.5817234 C0.0469420369,25.6947115 7.47209743,33.046478 16.5850914,32.9997787 C19.3603516,32.9864361 21.972165,32.2859503 24.2637561,31.0651034 L24.2203926,24.6439826 Z" id="Combined-Shape" fill="url(#radialGradient-9)"></path>
            </g>
            <path d="M61.525,16.475 L52.925,16.475 C53.0083338,17.5916722 53.3583302,18.5083297 53.975,19.225 C54.5916697,19.9416702 55.5166605,20.3 56.75,20.3 C57.4666702,20.3 58.0708309,20.2208341 58.5625,20.0625 C59.0541691,19.9041659 59.5499975,19.7083345 60.05,19.475 L60.8,21.225 C60.266664,21.5916685 59.5875041,21.8624991 58.7625,22.0375 C57.9374959,22.2125009 57.2666693,22.3 56.75,22.3 C54.7166565,22.3 53.1541721,21.7125059 52.0625,20.5375 C50.9708279,19.3624941 50.425,17.8250095 50.425,15.925 C50.425,14.0416572 50.9374949,12.5083392 51.9625,11.325 C52.9875051,10.1416607 54.4083242,9.55 56.225,9.55 C58.1916765,9.55 59.5666628,10.2416597 60.35,11.625 C61.1333372,13.0083402 61.525,14.6249907 61.525,16.475 Z M59.2,14.85 C59.0499992,13.849995 58.7333358,13.0583362 58.25,12.475 C57.7666643,11.8916637 57.0666712,11.6 56.15,11.6 C55.216662,11.6 54.483336,11.8958304 53.95,12.4875 C53.416664,13.0791696 53.0916673,13.8666617 52.975,14.85 L59.2,14.85 Z M62.85,22 L67.425,15.875 L63.225,10.25 L65.7,9.875 L69.05,14.4 L72.475,9.875 L75.1,9.875 L70.425,16.25 L74.725,22 L72.075,22 L68.8,17.7 L65.525,22 L62.85,22 Z M79.675,19.2 C80.0916687,19.533335 80.5416642,19.7958324 81.025,19.9875 C81.5083358,20.1791676 81.9583313,20.275 82.375,20.275 C83.6250062,20.275 84.5041641,19.8375044 85.0125,18.9625 C85.5208359,18.0874956 85.775,17.0750057 85.775,15.925 C85.775,14.7083272 85.5333357,13.6708376 85.05,12.8125 C84.5666643,11.9541624 83.675,11.525 82.375,11.525 C81.9583313,11.525 81.5083358,11.6208324 81.025,11.8125 C80.5416642,12.0041676 80.0916687,12.2749982 79.675,12.625 L79.675,19.2 Z M77.275,27.475 L77.275,9.875 L78.625,9.875 L79.15,10.9 C79.683336,10.4833312 80.2916632,10.141668 80.975,9.875 C81.6583368,9.608332 82.2833305,9.475 82.85,9.475 C84.6333422,9.475 85.9749955,10.0874939 86.875,11.3125 C87.7750045,12.5375061 88.225,14.0666575 88.225,15.9 C88.225,17.7333425 87.7708379,19.2583272 86.8625,20.475 C85.9541621,21.6916727 84.6166755,22.3 82.85,22.3 C82.3499975,22.3 81.8166695,22.2041676 81.25,22.0125 C80.6833305,21.8208324 80.1583357,21.558335 79.675,21.225 L79.675,27.2 L77.275,27.475 Z M91.3,22 L91.3,4.625 L93.7,4.35 L93.7,22 L91.3,22 Z M102.375,22.325 C100.541657,22.3083332 99.1500047,21.7041726 98.2,20.5125 C97.2499952,19.3208274 96.775,17.7833427 96.775,15.9 C96.7916668,14.033324 97.3083283,12.5125059 98.325,11.3375 C99.3416718,10.1624941 100.766658,9.56666675 102.6,9.55 C104.50001,9.55 105.937495,10.1541606 106.9125,11.3625 C107.887505,12.5708394 108.375,14.1249905 108.375,16.025 C108.375,17.9083427 107.841672,19.4249942 106.775,20.575 C105.708328,21.7250057 104.241676,22.3083332 102.375,22.325 Z M105.95,16.025 C105.95,14.7249935 105.691669,13.6625041 105.175,12.8375 C104.658331,12.0124959 103.825006,11.6 102.675,11.6 C101.524994,11.6 100.666669,11.9874961 100.1,12.7625 C99.5333305,13.5375039 99.2416668,14.5749935 99.225,15.875 C99.225,17.2250067 99.4708309,18.2958294 99.9625,19.0875 C100.454169,19.8791706 101.274994,20.275 102.425,20.275 C103.558339,20.275 104.424997,19.9000037 105.025,19.15 C105.625003,18.3999962 105.933333,17.35834 105.95,16.025 Z M111.4,22 L111.4,9.875 L112.75,9.875 L113.525,11.6 C113.991669,11.199998 114.579163,10.8125019 115.2875,10.4375 C115.995837,10.0624981 116.674997,9.875 117.325,9.875 L117.85,11.8 C117.18333,11.8 116.487504,11.9791649 115.7625,12.3375 C115.037496,12.6958351 114.383336,13.1583305 113.8,13.725 L113.8,22 L111.4,22 Z M130.325,16.475 L121.725,16.475 C121.808334,17.5916722 122.15833,18.5083297 122.775,19.225 C123.39167,19.9416702 124.316661,20.3 125.55,20.3 C126.26667,20.3 126.870831,20.2208341 127.3625,20.0625 C127.854169,19.9041659 128.349998,19.7083345 128.85,19.475 L129.6,21.225 C129.066664,21.5916685 128.387504,21.8624991 127.5625,22.0375 C126.737496,22.2125009 126.066669,22.3 125.55,22.3 C123.516657,22.3 121.954172,21.7125059 120.8625,20.5375 C119.770828,19.3624941 119.225,17.8250095 119.225,15.925 C119.225,14.0416572 119.737495,12.5083392 120.7625,11.325 C121.787505,10.1416607 123.208324,9.55 125.025,9.55 C126.991676,9.55 128.366663,10.2416597 129.15,11.625 C129.933337,13.0083402 130.325,14.6249907 130.325,16.475 Z M128,14.85 C127.849999,13.849995 127.533336,13.0583362 127.05,12.475 C126.566664,11.8916637 125.866671,11.6 124.95,11.6 C124.016662,11.6 123.283336,11.8958304 122.75,12.4875 C122.216664,13.0791696 121.891667,13.8666617 121.775,14.85 L128,14.85 Z M133.2,22 L133.2,9.875 L134.55,9.875 L135.325,11.6 C135.791669,11.199998 136.379163,10.8125019 137.0875,10.4375 C137.795837,10.0624981 138.474997,9.875 139.125,9.875 L139.65,11.8 C138.98333,11.8 138.287504,11.9791649 137.5625,12.3375 C136.837496,12.6958351 136.183336,13.1583305 135.6,13.725 L135.6,22 L133.2,22 Z" id="explorer" fill="url(#linearGradient-10)"></path>
        </g>
    </g>
</svg>