<?xml version="1.0" encoding="UTF-8"?>
<svg width="106px" height="106px" viewBox="0 0 106 106" version="1.1" xmlns="http://www.w3.org/2000/svg" xmlns:xlink="http://www.w3.org/1999/xlink">
    <!-- Generator: Sketch 55 (78076) - https://sketchapp.com -->
    <title>search-symbol</title>
    <desc>Created with Sketch.</desc>
    <defs>
        <radialGradient cx="74.8279602%" cy="94.3295806%" fx="74.8279602%" fy="94.3295806%" r="54.2673669%" id="radialGradient-1">
            <stop stop-color="#69E1CD" offset="0%"></stop>
            <stop stop-color="#69E1CE" stop-opacity="0" offset="100%"></stop>
        </radialGradient>
        <radialGradient cx="2.43570047%" cy="10.078364%" fx="2.43570047%" fy="10.078364%" r="125.497501%" id="radialGradient-2">
            <stop stop-color="#EAA05B" offset="0%"></stop>
            <stop stop-color="#EAA05B" stop-opacity="0.914968297" offset="6.17548772%"></stop>
            <stop stop-color="#EAA05B" stop-opacity="0" offset="100%"></stop>
            <stop stop-color="#EAA05B" stop-opacity="0" offset="100%"></stop>
        </radialGradient>
        <radialGradient cx="74.9941219%" cy="13.9343275%" fx="74.9941219%" fy="13.9343275%" r="123.841565%" id="radialGradient-3">
            <stop stop-color="#F252BC" offset="0%"></stop>
            <stop stop-color="#F252BC" stop-opacity="0.891502491" offset="31.6104241%"></stop>
            <stop stop-color="#F251BD" stop-opacity="0" offset="100%"></stop>
        </radialGradient>
        <radialGradient cx="1.95069536%" cy="17.1506239%" fx="1.95069536%" fy="17.1506239%" r="84.5983207%" id="radialGradient-4">
            <stop stop-color="#EAA05B" offset="0%"></stop>
            <stop stop-color="#EAA05B" stop-opacity="0.914968297" offset="6.17548772%"></stop>
            <stop stop-color="#EAA05B" stop-opacity="0" offset="100%"></stop>
            <stop stop-color="#EAA05B" stop-opacity="0" offset="100%"></stop>
        </radialGradient>
        <radialGradient cx="61.4390693%" cy="107.149144%" fx="61.4390693%" fy="107.149144%" r="68.7248502%" id="radialGradient-5">
            <stop stop-color="#69B2E1" stop-opacity="0.850486866" offset="0%"></stop>
            <stop stop-color="#69E1CE" stop-opacity="0" offset="100%"></stop>
            <stop stop-color="#69E1CE" stop-opacity="0" offset="100%"></stop>
        </radialGradient>
        <radialGradient cx="21.7132022%" cy="100.000046%" fx="21.7132022%" fy="100.000046%" r="68.7248502%" id="radialGradient-6">
            <stop stop-color="#69E1CD" stop-opacity="0.120669158" offset="0%"></stop>
            <stop stop-color="#69E1CE" stop-opacity="0" offset="100%"></stop>
            <stop stop-color="#69E1CE" stop-opacity="0" offset="100%"></stop>
        </radialGradient>
        <radialGradient cx="50.0000324%" cy="139.477899%" fx="50.0000324%" fy="139.477899%" r="54.8737084%" id="radialGradient-7">
            <stop stop-color="#69E1CD" offset="0%"></stop>
            <stop stop-color="#69E1CE" stop-opacity="0" offset="100%"></stop>
        </radialGradient>
        <radialGradient cx="24.0144487%" cy="125.205462%" fx="24.0144487%" fy="125.205462%" r="42.408605%" id="radialGradient-8">
            <stop stop-color="#7BD2B8" offset="0%"></stop>
            <stop stop-color="#7DD1B6" stop-opacity="0" offset="100%"></stop>
        </radialGradient>
        <radialGradient cx="83.4197751%" cy="11.8393976%" fx="83.4197751%" fy="11.8393976%" r="64.2652871%" id="radialGradient-9">
            <stop stop-color="#EF5ABF" offset="0%"></stop>
            <stop stop-color="#F251BD" stop-opacity="0" offset="100%"></stop>
        </radialGradient>
    </defs>
    <g id="Page-1" stroke="none" stroke-width="1" fill="none" fill-rule="evenodd">
        <g id="search-symbol">
            <circle id="Oval" fill="#FFFFFF" cx="53" cy="53" r="53"></circle>
            <path d="M77.7988369,79.1594593 L77.7666935,72.741472 C75.088066,73.8664948 72.1522903,74.487936 69.0665114,74.5093649 C57.1626909,74.573652 47.3053417,65.4984679 46.1481746,53.8839465 L60.3341858,53.8089451 C61.3306352,57.6661661 64.8449944,60.516224 69.0022244,60.4947949 C72.9773075,60.473366 76.3416637,57.8375982 77.4559727,54.2268107 L77.6702629,52.8446398 L77.6702629,52.1696261 L77.6702629,51.826762 L77.6595484,49.0517057 L77.5524032,28.6298628 L91.5991258,28.5548614 L91.7062709,48.9767042 L91.7276998,53.6482275 L91.791987,53.6482275 C91.7705579,53.8518031 91.7491289,54.0553786 91.7276998,54.2482396 L91.856274,79.0844578 L91.9098465,88.9953731 C100.717174,79.4808943 106.063715,66.7306358 105.999427,52.7374947 C105.849424,23.4654724 81.9989248,-0.149292359 52.7268837,0.000710683829 C43.7909824,0.0435686961 35.3800921,2.30432884 28.0085094,6.24726596 L28.10494,24.2476311 L28.1370834,30.4406138 C30.8264254,29.3048765 33.7836302,28.6727209 36.8801236,28.6620064 C48.7303715,28.5977194 58.5555771,37.5871874 59.7877457,49.1267072 L45.5803056,49.2017087 C44.5302836,45.4302037 41.0587825,42.6551474 36.9551251,42.6765764 C32.8514678,42.6980053 29.4013956,45.5052052 28.3942317,49.2874248 C28.3942317,49.2874248 28.2013706,51.3446094 28.2656576,51.933907 C28.2656576,51.976765 28.2656576,52.0089085 28.2442285,52.041052 L28.2549431,53.9482336 L28.3620882,74.9915176 L14.3367947,75.0665191 L14.2296496,54.0232351 L14.2082205,49.3517118 L14.1760771,49.3517118 C14.1867915,49.2552812 14.197506,49.1481362 14.2082205,49.0517057 L14.0796465,24.3119181 L14.0475029,17.047485 C5.26160475,26.5619638 -0.0742211962,39.3015079 0.000780373279,53.2625054 C0.150783512,82.5345278 24.0012827,106.149293 53.2733238,105.999289 C62.187796,105.956431 70.5772573,103.706386 77.9381256,99.7848777 L77.7988369,79.1594593 Z" id="Combined-Shape" fill="#FFFFFF" fill-rule="nonzero"></path>
            <path d="M77.7988369,79.1594593 L77.7666935,72.741472 C75.088066,73.8664948 72.1522903,74.487936 69.0665114,74.5093649 C57.1626909,74.573652 47.3053417,65.4984679 46.1481746,53.8839465 L60.3341858,53.8089451 C61.3306352,57.6661661 64.8449944,60.516224 69.0022244,60.4947949 C72.9773075,60.473366 76.3416637,57.8375982 77.4559727,54.2268107 L77.6702629,52.8446398 L77.6702629,52.1696261 L77.6702629,51.826762 L77.6595484,49.0517057 L77.5524032,28.6298628 L91.5991258,28.5548614 L91.7062709,48.9767042 L91.7276998,53.6482275 L91.791987,53.6482275 C91.7705579,53.8518031 91.7491289,54.0553786 91.7276998,54.2482396 L91.856274,79.0844578 L91.9098465,88.9953731 C100.717174,79.4808943 106.063715,66.7306358 105.999427,52.7374947 C105.849424,23.4654724 81.9989248,-0.149292359 52.7268837,0.000710683829 C43.7909824,0.0435686961 35.3800921,2.30432884 28.0085094,6.24726596 L28.10494,24.2476311 L28.1370834,30.4406138 C30.8264254,29.3048765 33.7836302,28.6727209 36.8801236,28.6620064 C48.7303715,28.5977194 58.5555771,37.5871874 59.7877457,49.1267072 L45.5803056,49.2017087 C44.5302836,45.4302037 41.0587825,42.6551474 36.9551251,42.6765764 C32.8514678,42.6980053 29.4013956,45.5052052 28.3942317,49.2874248 C28.3942317,49.2874248 28.2013706,51.3446094 28.2656576,51.933907 C28.2656576,51.976765 28.2656576,52.0089085 28.2442285,52.041052 L28.2549431,53.9482336 L28.3620882,74.9915176 L14.3367947,75.0665191 L14.2296496,54.0232351 L14.2082205,49.3517118 L14.1760771,49.3517118 C14.1867915,49.2552812 14.197506,49.1481362 14.2082205,49.0517057 L14.0796465,24.3119181 L14.0475029,17.047485 C5.26160475,26.5619638 -0.0742211962,39.3015079 0.000780373279,53.2625054 C0.150783512,82.5345278 24.0012827,106.149293 53.2733238,105.999289 C62.187796,105.956431 70.5772573,103.706386 77.9381256,99.7848777 L77.7988369,79.1594593 Z" id="Combined-Shape" fill-opacity="0.500990716" fill="#8F7BB6" fill-rule="nonzero"></path>
            <path d="M77.7988369,79.1594593 L77.7666935,72.741472 C75.088066,73.8664948 72.1522903,74.487936 69.0665114,74.5093649 C57.1626909,74.573652 47.3053417,65.4984679 46.1481746,53.8839465 L60.3341858,53.8089451 C61.3306352,57.6661661 64.8449944,60.516224 69.0022244,60.4947949 C72.9773075,60.473366 76.3416637,57.8375982 77.4559727,54.2268107 L77.6702629,52.8446398 L77.6702629,52.1696261 L77.6702629,51.826762 L77.6595484,49.0517057 L77.5524032,28.6298628 L91.5991258,28.5548614 L91.7062709,48.9767042 L91.7276998,53.6482275 L91.791987,53.6482275 C91.7705579,53.8518031 91.7491289,54.0553786 91.7276998,54.2482396 L91.856274,79.0844578 L91.9098465,88.9953731 C100.717174,79.4808943 106.063715,66.7306358 105.999427,52.7374947 C105.849424,23.4654724 81.9989248,-0.149292359 52.7268837,0.000710683829 C43.7909824,0.0435686961 35.3800921,2.30432884 28.0085094,6.24726596 L28.10494,24.2476311 L28.1370834,30.4406138 C30.8264254,29.3048765 33.7836302,28.6727209 36.8801236,28.6620064 C48.7303715,28.5977194 58.5555771,37.5871874 59.7877457,49.1267072 L45.5803056,49.2017087 C44.5302836,45.4302037 41.0587825,42.6551474 36.9551251,42.6765764 C32.8514678,42.6980053 29.4013956,45.5052052 28.3942317,49.2874248 C28.3942317,49.2874248 28.2013706,51.3446094 28.2656576,51.933907 C28.2656576,51.976765 28.2656576,52.0089085 28.2442285,52.041052 L28.2549431,53.9482336 L28.3620882,74.9915176 L14.3367947,75.0665191 L14.2296496,54.0232351 L14.2082205,49.3517118 L14.1760771,49.3517118 C14.1867915,49.2552812 14.197506,49.1481362 14.2082205,49.0517057 L14.0796465,24.3119181 L14.0475029,17.047485 C5.26160475,26.5619638 -0.0742211962,39.3015079 0.000780373279,53.2625054 C0.150783512,82.5345278 24.0012827,106.149293 53.2733238,105.999289 C62.187796,105.956431 70.5772573,103.706386 77.9381256,99.7848777 L77.7988369,79.1594593 Z" id="Combined-Shape" fill="url(#radialGradient-1)" fill-rule="nonzero"></path>
            <path d="M77.7988369,79.1594593 L77.7666935,72.741472 C75.088066,73.8664948 72.1522903,74.487936 69.0665114,74.5093649 C57.1626909,74.573652 47.3053417,65.4984679 46.1481746,53.8839465 L60.3341858,53.8089451 C61.3306352,57.6661661 64.8449944,60.516224 69.0022244,60.4947949 C72.9773075,60.473366 76.3416637,57.8375982 77.4559727,54.2268107 L77.6702629,52.8446398 L77.6702629,52.1696261 L77.6702629,51.826762 L77.6595484,49.0517057 L77.5524032,28.6298628 L91.5991258,28.5548614 L91.7062709,48.9767042 L91.7276998,53.6482275 L91.791987,53.6482275 C91.7705579,53.8518031 91.7491289,54.0553786 91.7276998,54.2482396 L91.856274,79.0844578 L91.9098465,88.9953731 C100.717174,79.4808943 106.063715,66.7306358 105.999427,52.7374947 C105.849424,23.4654724 81.9989248,-0.149292359 52.7268837,0.000710683829 C43.7909824,0.0435686961 35.3800921,2.30432884 28.0085094,6.24726596 L28.10494,24.2476311 L28.1370834,30.4406138 C30.8264254,29.3048765 33.7836302,28.6727209 36.8801236,28.6620064 C48.7303715,28.5977194 58.5555771,37.5871874 59.7877457,49.1267072 L45.5803056,49.2017087 C44.5302836,45.4302037 41.0587825,42.6551474 36.9551251,42.6765764 C32.8514678,42.6980053 29.4013956,45.5052052 28.3942317,49.2874248 C28.3942317,49.2874248 28.2013706,51.3446094 28.2656576,51.933907 C28.2656576,51.976765 28.2656576,52.0089085 28.2442285,52.041052 L28.2549431,53.9482336 L28.3620882,74.9915176 L14.3367947,75.0665191 L14.2296496,54.0232351 L14.2082205,49.3517118 L14.1760771,49.3517118 C14.1867915,49.2552812 14.197506,49.1481362 14.2082205,49.0517057 L14.0796465,24.3119181 L14.0475029,17.047485 C5.26160475,26.5619638 -0.0742211962,39.3015079 0.000780373279,53.2625054 C0.150783512,82.5345278 24.0012827,106.149293 53.2733238,105.999289 C62.187796,105.956431 70.5772573,103.706386 77.9381256,99.7848777 L77.7988369,79.1594593 Z" id="Combined-Shape" fill="url(#radialGradient-2)" fill-rule="nonzero"></path>
            <path d="M77.7988369,79.1594593 L77.7666935,72.741472 C75.088066,73.8664948 72.1522903,74.487936 69.0665114,74.5093649 C57.1626909,74.573652 47.3053417,65.4984679 46.1481746,53.8839465 L60.3341858,53.8089451 C61.3306352,57.6661661 64.8449944,60.516224 69.0022244,60.4947949 C72.9773075,60.473366 76.3416637,57.8375982 77.4559727,54.2268107 L77.6702629,52.8446398 L77.6702629,52.1696261 L77.6702629,51.826762 L77.6595484,49.0517057 L77.5524032,28.6298628 L91.5991258,28.5548614 L91.7062709,48.9767042 L91.7276998,53.6482275 L91.791987,53.6482275 C91.7705579,53.8518031 91.7491289,54.0553786 91.7276998,54.2482396 L91.856274,79.0844578 L91.9098465,88.9953731 C100.717174,79.4808943 106.063715,66.7306358 105.999427,52.7374947 C105.849424,23.4654724 81.9989248,-0.149292359 52.7268837,0.000710683829 C43.7909824,0.0435686961 35.3800921,2.30432884 28.0085094,6.24726596 L28.10494,24.2476311 L28.1370834,30.4406138 C30.8264254,29.3048765 33.7836302,28.6727209 36.8801236,28.6620064 C48.7303715,28.5977194 58.5555771,37.5871874 59.7877457,49.1267072 L45.5803056,49.2017087 C44.5302836,45.4302037 41.0587825,42.6551474 36.9551251,42.6765764 C32.8514678,42.6980053 29.4013956,45.5052052 28.3942317,49.2874248 C28.3942317,49.2874248 28.2013706,51.3446094 28.2656576,51.933907 C28.2656576,51.976765 28.2656576,52.0089085 28.2442285,52.041052 L28.2549431,53.9482336 L28.3620882,74.9915176 L14.3367947,75.0665191 L14.2296496,54.0232351 L14.2082205,49.3517118 L14.1760771,49.3517118 C14.1867915,49.2552812 14.197506,49.1481362 14.2082205,49.0517057 L14.0796465,24.3119181 L14.0475029,17.047485 C5.26160475,26.5619638 -0.0742211962,39.3015079 0.000780373279,53.2625054 C0.150783512,82.5345278 24.0012827,106.149293 53.2733238,105.999289 C62.187796,105.956431 70.5772573,103.706386 77.9381256,99.7848777 L77.7988369,79.1594593 Z" id="Combined-Shape" fill="url(#radialGradient-3)" fill-rule="nonzero"></path>
            <path d="M77.7988369,79.1594593 L77.7666935,72.741472 C75.088066,73.8664948 72.1522903,74.487936 69.0665114,74.5093649 C57.1626909,74.573652 47.3053417,65.4984679 46.1481746,53.8839465 L60.3341858,53.8089451 C61.3306352,57.6661661 64.8449944,60.516224 69.0022244,60.4947949 C72.9773075,60.473366 76.3416637,57.8375982 77.4559727,54.2268107 L77.6702629,52.8446398 L77.6702629,52.1696261 L77.6702629,51.826762 L77.6595484,49.0517057 L77.5524032,28.6298628 L91.5991258,28.5548614 L91.7062709,48.9767042 L91.7276998,53.6482275 L91.791987,53.6482275 C91.7705579,53.8518031 91.7491289,54.0553786 91.7276998,54.2482396 L91.856274,79.0844578 L91.9098465,88.9953731 C100.717174,79.4808943 106.063715,66.7306358 105.999427,52.7374947 C105.849424,23.4654724 81.9989248,-0.149292359 52.7268837,0.000710683829 C43.7909824,0.0435686961 35.3800921,2.30432884 28.0085094,6.24726596 L28.10494,24.2476311 L28.1370834,30.4406138 C30.8264254,29.3048765 33.7836302,28.6727209 36.8801236,28.6620064 C48.7303715,28.5977194 58.5555771,37.5871874 59.7877457,49.1267072 L45.5803056,49.2017087 C44.5302836,45.4302037 41.0587825,42.6551474 36.9551251,42.6765764 C32.8514678,42.6980053 29.4013956,45.5052052 28.3942317,49.2874248 C28.3942317,49.2874248 28.2013706,51.3446094 28.2656576,51.933907 C28.2656576,51.976765 28.2656576,52.0089085 28.2442285,52.041052 L28.2549431,53.9482336 L28.3620882,74.9915176 L14.3367947,75.0665191 L14.2296496,54.0232351 L14.2082205,49.3517118 L14.1760771,49.3517118 C14.1867915,49.2552812 14.197506,49.1481362 14.2082205,49.0517057 L14.0796465,24.3119181 L14.0475029,17.047485 C5.26160475,26.5619638 -0.0742211962,39.3015079 0.000780373279,53.2625054 C0.150783512,82.5345278 24.0012827,106.149293 53.2733238,105.999289 C62.187796,105.956431 70.5772573,103.706386 77.9381256,99.7848777 L77.7988369,79.1594593 Z" id="Combined-Shape" fill="url(#radialGradient-4)" fill-rule="nonzero"></path>
            <path d="M77.7988369,79.1594593 L77.7666935,72.741472 C75.088066,73.8664948 72.1522903,74.487936 69.0665114,74.5093649 C57.1626909,74.573652 47.3053417,65.4984679 46.1481746,53.8839465 L60.3341858,53.8089451 C61.3306352,57.6661661 64.8449944,60.516224 69.0022244,60.4947949 C72.9773075,60.473366 76.3416637,57.8375982 77.4559727,54.2268107 L77.6702629,52.8446398 L77.6702629,52.1696261 L77.6702629,51.826762 L77.6595484,49.0517057 L77.5524032,28.6298628 L91.5991258,28.5548614 L91.7062709,48.9767042 L91.7276998,53.6482275 L91.791987,53.6482275 C91.7705579,53.8518031 91.7491289,54.0553786 91.7276998,54.2482396 L91.856274,79.0844578 L91.9098465,88.9953731 C100.717174,79.4808943 106.063715,66.7306358 105.999427,52.7374947 C105.849424,23.4654724 81.9989248,-0.149292359 52.7268837,0.000710683829 C43.7909824,0.0435686961 35.3800921,2.30432884 28.0085094,6.24726596 L28.10494,24.2476311 L28.1370834,30.4406138 C30.8264254,29.3048765 33.7836302,28.6727209 36.8801236,28.6620064 C48.7303715,28.5977194 58.5555771,37.5871874 59.7877457,49.1267072 L45.5803056,49.2017087 C44.5302836,45.4302037 41.0587825,42.6551474 36.9551251,42.6765764 C32.8514678,42.6980053 29.4013956,45.5052052 28.3942317,49.2874248 C28.3942317,49.2874248 28.2013706,51.3446094 28.2656576,51.933907 C28.2656576,51.976765 28.2656576,52.0089085 28.2442285,52.041052 L28.2549431,53.9482336 L28.3620882,74.9915176 L14.3367947,75.0665191 L14.2296496,54.0232351 L14.2082205,49.3517118 L14.1760771,49.3517118 C14.1867915,49.2552812 14.197506,49.1481362 14.2082205,49.0517057 L14.0796465,24.3119181 L14.0475029,17.047485 C5.26160475,26.5619638 -0.0742211962,39.3015079 0.000780373279,53.2625054 C0.150783512,82.5345278 24.0012827,106.149293 53.2733238,105.999289 C62.187796,105.956431 70.5772573,103.706386 77.9381256,99.7848777 L77.7988369,79.1594593 Z" id="Combined-Shape" fill="url(#radialGradient-5)" fill-rule="nonzero"></path>
            <path d="M77.7988369,79.1594593 L77.7666935,72.741472 C75.088066,73.8664948 72.1522903,74.487936 69.0665114,74.5093649 C57.1626909,74.573652 47.3053417,65.4984679 46.1481746,53.8839465 L60.3341858,53.8089451 C61.3306352,57.6661661 64.8449944,60.516224 69.0022244,60.4947949 C72.9773075,60.473366 76.3416637,57.8375982 77.4559727,54.2268107 L77.6702629,52.8446398 L77.6702629,52.1696261 L77.6702629,51.826762 L77.6595484,49.0517057 L77.5524032,28.6298628 L91.5991258,28.5548614 L91.7062709,48.9767042 L91.7276998,53.6482275 L91.791987,53.6482275 C91.7705579,53.8518031 91.7491289,54.0553786 91.7276998,54.2482396 L91.856274,79.0844578 L91.9098465,88.9953731 C100.717174,79.4808943 106.063715,66.7306358 105.999427,52.7374947 C105.849424,23.4654724 81.9989248,-0.149292359 52.7268837,0.000710683829 C43.7909824,0.0435686961 35.3800921,2.30432884 28.0085094,6.24726596 L28.10494,24.2476311 L28.1370834,30.4406138 C30.8264254,29.3048765 33.7836302,28.6727209 36.8801236,28.6620064 C48.7303715,28.5977194 58.5555771,37.5871874 59.7877457,49.1267072 L45.5803056,49.2017087 C44.5302836,45.4302037 41.0587825,42.6551474 36.9551251,42.6765764 C32.8514678,42.6980053 29.4013956,45.5052052 28.3942317,49.2874248 C28.3942317,49.2874248 28.2013706,51.3446094 28.2656576,51.933907 C28.2656576,51.976765 28.2656576,52.0089085 28.2442285,52.041052 L28.2549431,53.9482336 L28.3620882,74.9915176 L14.3367947,75.0665191 L14.2296496,54.0232351 L14.2082205,49.3517118 L14.1760771,49.3517118 C14.1867915,49.2552812 14.197506,49.1481362 14.2082205,49.0517057 L14.0796465,24.3119181 L14.0475029,17.047485 C5.26160475,26.5619638 -0.0742211962,39.3015079 0.000780373279,53.2625054 C0.150783512,82.5345278 24.0012827,106.149293 53.2733238,105.999289 C62.187796,105.956431 70.5772573,103.706386 77.9381256,99.7848777 L77.7988369,79.1594593 Z" id="Combined-Shape" fill="url(#radialGradient-6)" fill-rule="nonzero"></path>
            <path d="M77.7988369,79.1594593 L77.7666935,72.741472 C75.088066,73.8664948 72.1522903,74.487936 69.0665114,74.5093649 C57.1626909,74.573652 47.3053417,65.4984679 46.1481746,53.8839465 L60.3341858,53.8089451 C61.3306352,57.6661661 64.8449944,60.516224 69.0022244,60.4947949 C72.9773075,60.473366 76.3416637,57.8375982 77.4559727,54.2268107 L77.6702629,52.8446398 L77.6702629,52.1696261 L77.6702629,51.826762 L77.6595484,49.0517057 L77.5524032,28.6298628 L91.5991258,28.5548614 L91.7062709,48.9767042 L91.7276998,53.6482275 L91.791987,53.6482275 C91.7705579,53.8518031 91.7491289,54.0553786 91.7276998,54.2482396 L91.856274,79.0844578 L91.9098465,88.9953731 C100.717174,79.4808943 106.063715,66.7306358 105.999427,52.7374947 C105.849424,23.4654724 81.9989248,-0.149292359 52.7268837,0.000710683829 C43.7909824,0.0435686961 35.3800921,2.30432884 28.0085094,6.24726596 L28.10494,24.2476311 L28.1370834,30.4406138 C30.8264254,29.3048765 33.7836302,28.6727209 36.8801236,28.6620064 C48.7303715,28.5977194 58.5555771,37.5871874 59.7877457,49.1267072 L45.5803056,49.2017087 C44.5302836,45.4302037 41.0587825,42.6551474 36.9551251,42.6765764 C32.8514678,42.6980053 29.4013956,45.5052052 28.3942317,49.2874248 C28.3942317,49.2874248 28.2013706,51.3446094 28.2656576,51.933907 C28.2656576,51.976765 28.2656576,52.0089085 28.2442285,52.041052 L28.2549431,53.9482336 L28.3620882,74.9915176 L14.3367947,75.0665191 L14.2296496,54.0232351 L14.2082205,49.3517118 L14.1760771,49.3517118 C14.1867915,49.2552812 14.197506,49.1481362 14.2082205,49.0517057 L14.0796465,24.3119181 L14.0475029,17.047485 C5.26160475,26.5619638 -0.0742211962,39.3015079 0.000780373279,53.2625054 C0.150783512,82.5345278 24.0012827,106.149293 53.2733238,105.999289 C62.187796,105.956431 70.5772573,103.706386 77.9381256,99.7848777 L77.7988369,79.1594593 Z" id="Combined-Shape" fill="url(#radialGradient-7)" fill-rule="nonzero"></path>
            <path d="M77.7988369,79.1594593 L77.7666935,72.741472 C75.088066,73.8664948 72.1522903,74.487936 69.0665114,74.5093649 C57.1626909,74.573652 47.3053417,65.4984679 46.1481746,53.8839465 L60.3341858,53.8089451 C61.3306352,57.6661661 64.8449944,60.516224 69.0022244,60.4947949 C72.9773075,60.473366 76.3416637,57.8375982 77.4559727,54.2268107 L77.6702629,52.8446398 L77.6702629,52.1696261 L77.6702629,51.826762 L77.6595484,49.0517057 L77.5524032,28.6298628 L91.5991258,28.5548614 L91.7062709,48.9767042 L91.7276998,53.6482275 L91.791987,53.6482275 C91.7705579,53.8518031 91.7491289,54.0553786 91.7276998,54.2482396 L91.856274,79.0844578 L91.9098465,88.9953731 C100.717174,79.4808943 106.063715,66.7306358 105.999427,52.7374947 C105.849424,23.4654724 81.9989248,-0.149292359 52.7268837,0.000710683829 C43.7909824,0.0435686961 35.3800921,2.30432884 28.0085094,6.24726596 L28.10494,24.2476311 L28.1370834,30.4406138 C30.8264254,29.3048765 33.7836302,28.6727209 36.8801236,28.6620064 C48.7303715,28.5977194 58.5555771,37.5871874 59.7877457,49.1267072 L45.5803056,49.2017087 C44.5302836,45.4302037 41.0587825,42.6551474 36.9551251,42.6765764 C32.8514678,42.6980053 29.4013956,45.5052052 28.3942317,49.2874248 C28.3942317,49.2874248 28.2013706,51.3446094 28.2656576,51.933907 C28.2656576,51.976765 28.2656576,52.0089085 28.2442285,52.041052 L28.2549431,53.9482336 L28.3620882,74.9915176 L14.3367947,75.0665191 L14.2296496,54.0232351 L14.2082205,49.3517118 L14.1760771,49.3517118 C14.1867915,49.2552812 14.197506,49.1481362 14.2082205,49.0517057 L14.0796465,24.3119181 L14.0475029,17.047485 C5.26160475,26.5619638 -0.0742211962,39.3015079 0.000780373279,53.2625054 C0.150783512,82.5345278 24.0012827,106.149293 53.2733238,105.999289 C62.187796,105.956431 70.5772573,103.706386 77.9381256,99.7848777 L77.7988369,79.1594593 Z" id="Combined-Shape" fill="url(#radialGradient-8)" fill-rule="nonzero"></path>
            <path d="M77.7988369,79.1594593 L77.7666935,72.741472 C75.088066,73.8664948 72.1522903,74.487936 69.0665114,74.5093649 C57.1626909,74.573652 47.3053417,65.4984679 46.1481746,53.8839465 L60.3341858,53.8089451 C61.3306352,57.6661661 64.8449944,60.516224 69.0022244,60.4947949 C72.9773075,60.473366 76.3416637,57.8375982 77.4559727,54.2268107 L77.6702629,52.8446398 L77.6702629,52.1696261 L77.6702629,51.826762 L77.6595484,49.0517057 L77.5524032,28.6298628 L91.5991258,28.5548614 L91.7062709,48.9767042 L91.7276998,53.6482275 L91.791987,53.6482275 C91.7705579,53.8518031 91.7491289,54.0553786 91.7276998,54.2482396 L91.856274,79.0844578 L91.9098465,88.9953731 C100.717174,79.4808943 106.063715,66.7306358 105.999427,52.7374947 C105.849424,23.4654724 81.9989248,-0.149292359 52.7268837,0.000710683829 C43.7909824,0.0435686961 35.3800921,2.30432884 28.0085094,6.24726596 L28.10494,24.2476311 L28.1370834,30.4406138 C30.8264254,29.3048765 33.7836302,28.6727209 36.8801236,28.6620064 C48.7303715,28.5977194 58.5555771,37.5871874 59.7877457,49.1267072 L45.5803056,49.2017087 C44.5302836,45.4302037 41.0587825,42.6551474 36.9551251,42.6765764 C32.8514678,42.6980053 29.4013956,45.5052052 28.3942317,49.2874248 C28.3942317,49.2874248 28.2013706,51.3446094 28.2656576,51.933907 C28.2656576,51.976765 28.2656576,52.0089085 28.2442285,52.041052 L28.2549431,53.9482336 L28.3620882,74.9915176 L14.3367947,75.0665191 L14.2296496,54.0232351 L14.2082205,49.3517118 L14.1760771,49.3517118 C14.1867915,49.2552812 14.197506,49.1481362 14.2082205,49.0517057 L14.0796465,24.3119181 L14.0475029,17.047485 C5.26160475,26.5619638 -0.0742211962,39.3015079 0.000780373279,53.2625054 C0.150783512,82.5345278 24.0012827,106.149293 53.2733238,105.999289 C62.187796,105.956431 70.5772573,103.706386 77.9381256,99.7848777 L77.7988369,79.1594593 Z" id="Combined-Shape" fill="url(#radialGradient-9)" fill-rule="nonzero"></path>
        </g>
    </g>
</svg>