<?xml version="1.0" encoding="UTF-8"?>
<svg width="20px" height="20px" viewBox="0 0 20 20" version="1.1" xmlns="http://www.w3.org/2000/svg" xmlns:xlink="http://www.w3.org/1999/xlink">
    <!-- Generator: Sketch 55 (78076) - https://sketchapp.com -->
    <title>search</title>
    <desc>Created with Sketch.</desc>
    <g id="Page-1" stroke="none" stroke-width="1" fill="none" fill-rule="evenodd">
        <g id="3" transform="translate(-1302.000000, -90.000000)" fill="#E79578" fill-rule="nonzero" stroke="#E99575">
            <g id="search" transform="translate(1303.000000, 91.000000)">
                <path d="M17.73,16.47 L14.4,13.14 C15.48,11.79 16.2,9.99 16.2,8.1 C16.2,3.6 12.6,0 8.1,0 C3.6,0 0,3.6 0,8.1 C0,12.6 3.6,16.2 8.1,16.2 C9.99,16.2 11.79,15.57 13.14,14.4 L16.47,17.73 C16.65,17.91 16.92,18 17.1,18 C17.28,18 17.55,17.91 17.73,17.73 C18.09,17.37 18.09,16.83 17.73,16.47 Z M1.8,8.1 C1.8,4.59 4.59,1.8 8.1,1.8 C11.61,1.8 14.4,4.59 14.4,8.1 C14.4,9.81 13.68,11.43 12.6,12.51 C12.6,12.51 12.6,12.51 12.6,12.51 C12.6,12.51 12.6,12.51 12.6,12.51 C11.43,13.68 9.9,14.31 8.19,14.31 C4.59,14.4 1.8,11.61 1.8,8.1 Z" id="Shape"></path>
            </g>
        </g>
    </g>
</svg>