<?xml version="1.0" encoding="UTF-8"?>
<svg width="22px" height="20px" viewBox="0 0 22 20" version="1.1" xmlns="http://www.w3.org/2000/svg" xmlns:xlink="http://www.w3.org/1999/xlink">
    <!-- Generator: Sketch 55 (78076) - https://sketchapp.com -->
    <title>rotate-ccw</title>
    <desc>Created with Sketch.</desc>
    <defs>
        <linearGradient x1="100%" y1="-23.1465538%" x2="4.8103853%" y2="116.33345%" id="linearGradient-1">
            <stop stop-color="#D2D2D2" offset="0%"></stop>
            <stop stop-color="#666666" offset="100%"></stop>
        </linearGradient>
    </defs>
    <g id="Page-1" stroke="none" stroke-width="1" fill="none" fill-rule="evenodd">
        <g id="3" transform="translate(-1011.000000, -625.000000)" fill="url(#linearGradient-1)" fill-rule="nonzero">
            <g id="rotate-ccw" transform="translate(1011.000000, 625.000000)">
                <path d="M21.4,6.7 C20.5,4.2 18.7,2.2 16.3,1 C13.9,-0.2 11.2,-0.3 8.7,0.6 C7.3,1.1 6,1.9 5,2.9 L2,5.7 L2,2 C2,1.4 1.6,1 1,1 C0.4,1 -3.55271368e-15,1.4 -3.55271368e-15,2 L-3.55271368e-15,8 C-3.55271368e-15,8 -3.55271368e-15,8.1 -3.55271368e-15,8.1 C-3.55271368e-15,8.2 -3.55271368e-15,8.3 -3.55271368e-15,8.3 C-3.55271368e-15,8.4 0.1,8.4 0.1,8.5 C0.1,8.5 0.1,8.6 0.2,8.6 C0.2,8.6 0.2,8.6 0.2,8.6 C0.3,8.7 0.3,8.7 0.4,8.7 C0.4,8.7 0.5,8.8 0.5,8.8 C0.5,8.8 0.6,8.8 0.6,8.8 C0.6,8.8 0.8,8.8 0.8,8.8 C0.8,8.8 0.8,8.8 0.8,8.8 L6.8,8.8 C7.4,8.8 7.8,8.4 7.8,7.8 C7.8,7.2 7.6,7 7,7 L3.5,7 L6.3,4.3 C7.1,3.5 8.2,2.8 9.3,2.4 C11.3,1.7 13.5,1.8 15.4,2.7 C17.3,3.6 18.8,5.2 19.5,7.3 C20.2,9.3 20.1,11.5 19.2,13.4 C18.3,15.3 16.7,16.8 14.6,17.5 C10.4,19 5.9,16.8 4.4,12.6 C4.2,12.1 3.6,11.8 3.1,12 C2.6,12.2 2.3,12.8 2.5,13.3 C4,17.4 7.9,20 12,20 C13.1,20 14.2,19.8 15.3,19.4 C20.5,17.6 23.3,11.9 21.4,6.7 L21.4,6.7 Z" id="Path"></path>
            </g>
        </g>
    </g>
</svg>